<svg version="1.2" xmlns="http://www.w3.org/2000/svg" viewBox="0 0 452 734" width="452" height="734">
	<title>Layer 1</title>
	<defs>
		<clipPath clipPathUnits="userSpaceOnUse" id="cp1">
			<path d="m384.7 448.34l-315.06 257.45c-10.84 8.85-23.09 13.38-35.29 14.29-14.65-11.23-24.65-28.85-24.65-50.33v-514.89c0-35.84 27.81-60.91 58.66-63.49q0.65 0.49 1.28 1l315.06 257.45c31.15 25.45 31.15 73.07 0 98.52z"/>
		</clipPath>
	</defs>
	<style>
		.s0 { fill: #5bb3cc } 
		.s1 { fill: #70bbcc } 
		.s2 { fill: #c8eeff } 
		.s3 { fill: #eafbff } 
		.s4 { fill: #98dcff } 
		.s5 { opacity: .6;fill: #78c3ff } 
		.s6 { fill: #f0fffe } 
		.s7 { fill: #ffffff } 
	</style>
	<g id="Layer 1">
		<g id="&lt;Group&gt;">
			<g id="&lt;Group&gt;">
				<g id="&lt;Group&gt;">
					<g id="Arrows">
						<g id="-e-">
							<path id="&lt;Path&gt;" class="s0" d="m428.6 461.6l-315 257.4c-41.6 34-103.9 4.4-103.9-49.3v-514.8c0-53.7 62.3-83.3 103.9-49.3l315 257.4c31.2 25.5 31.2 73.1 0 98.6z"/>
							<path id="&lt;Path&gt;" class="s1" d="m396 450.2l-315 257.5c-13.4 10.9-29 15.3-44 14.3-16.1-11.1-27.3-29.5-27.3-52.3v-514.8c0-39.2 33.2-65.5 67.3-63.7q2 1.4 4 3.1l315 257.4c31.2 25.5 31.2 73.1 0 98.5z"/>
							<path id="&lt;Path&gt;" class="s2" d="m384.7 448.3l-315.1 257.5c-10.8 8.8-23.1 13.4-35.2 14.3-14.7-11.2-24.7-28.9-24.7-50.4v-514.8c0-35.9 27.8-60.9 58.7-63.5q0.6 0.5 1.2 1l315.1 257.4c31.1 25.5 31.1 73.1 0 98.5z"/>
							<path id="&lt;Path&gt;" class="s3" d="m405.8 382.2c-36.9-17.6-73.7-40.2-102.8-75.2-65.2-78.3-219.7-149-288.1-177.7 9.5-21.8 30.6-36 53.5-37.9q0.6 0.5 1.2 1l315.1 257.4c10.7 8.8 17.8 20.2 21.1 32.4z"/>
							<path id="&lt;Path&gt;" class="s4" d="m9.7 669.7v-42.2c11.8 28.3 31.4 49.1 64.1 32.3 73.7-37.8 81.3-77.5 156.8-105.8 57.5-21.5 121.4-126 176.2-167.4 4.4 22.1-2.9 46.1-22.1 61.7l-315.1 257.5c-10.8 8.8-23.1 13.4-35.2 14.3-14.7-11.2-24.7-28.9-24.7-50.4z"/>
							<path id="&lt;Path&gt;" class="s5" d="m302.7 282.8l82 67c31.1 25.5 31.1 73.1 0 98.5l-315.1 257.5c-8.7 7.1-18.3 11.4-28.1 13.3 80.6-82.1 212.3-240 261.2-436.3z"/>
							<g id="&lt;Clip Group&gt;" clip-path="url(#cp1)">
								<g id="&lt;Group&gt;" style="opacity: .5">
									<path id="&lt;Path&gt;" class="s6" d="m283.4 354.9c-11.7-6.8-24.4-12-37.6-13.6-3.3-0.4-6.6-0.5-9.9-0.5q-5 0.1-10 0.5c-6.7 0.6-13.5 1.7-20.3 2.5-13.8 1.4-27.7 1.7-41.5 0.8-13.8-1.1-27.4-3.3-40.9-6.3-13.4-3-26.6-6.9-39.6-11.4-26-8.9-51.1-20-75.8-31.7 25.7 9.4 51.2 19.3 77.2 27.3 3.3 0.9 6.5 2 9.8 2.9 3.3 0.9 6.5 1.8 9.8 2.7l9.9 2.5c3.3 0.8 6.6 1.4 9.9 2.2 13.3 2.8 26.7 4.8 40.2 5.8l10.1 0.6c0.8 0 1.7 0.1 2.5 0.1l2.5-0.1h5.1c1.7 0 3.4 0.1 5 0l5.1-0.3c3.4-0.3 6.7-0.4 10.1-0.8 6.7-0.6 13.5-1.5 20.5-2 6.9-0.5 14-0.5 20.9 0.6 7 1.1 13.8 3.1 20.2 5.8 6.4 2.8 12.5 6.1 18.3 9.9 11.5 7.5 22 16.4 32.2 25.6-11-8.2-22-16.4-33.7-23.1z"/>
									<path id="&lt;Path&gt;" class="s6" d="m157.2 461.1q-8.2-1.4-16.4-2.5c-5.4-0.7-10.8-1.3-16-1-2.6 0.2-5.2 0.5-7.6 1.1-2.5 0.6-4.8 1.6-7.2 2.8-4.6 2.3-9 5.5-13.9 8.5-9.6 5.8-19.9 10.6-30.6 14.1-10.8 3.5-21.8 5.9-33 6.9-22.4 2.2-45.2-0.7-65.8-8.9 21.4 5.8 43.6 7.2 65.2 4.3 10.8-1.5 21.5-4 31.7-7.6 10.3-3.6 20.2-8.2 29.4-13.9 4.6-2.8 9.2-6.1 14.4-8.7 2.6-1.3 5.5-2.4 8.4-3.1 2.9-0.7 5.9-1.1 8.8-1.1 5.8-0.2 11.5 0.6 17 1.4q8.3 1.4 16.4 3.1c21.8 4.6 43.2 11.1 63.5 19.9-21.2-6.4-42.6-11.7-64.3-15.3z"/>
									<path id="&lt;Path&gt;" class="s6" d="m402.4 425.5c-6-0.9-12-1.7-18-2.5-6-0.7-12-1.2-18-1.3-5.9 0-11.8 0.4-17.6 1.6-5.8 1.1-11.6 2.8-17.5 4.5-3 0.8-6 1.5-9 2.2-3.1 0.6-6.1 1.1-9.2 1.7-3.1 0.4-6.2 0.6-9.3 1l-4.7 0.2c-1.5 0-3.1 0.1-4.7 0.1-12.4-0.1-24.8-1.6-36.8-4.4-12-2.6-23.8-6.3-35.3-10.5-11.5-4.2-22.8-8.9-34-13.8 23.3 7.5 46.4 15.4 70.2 19.8 11.9 2.1 23.9 3.5 35.9 3.2 3-0.1 6-0.3 8.9-0.4 3-0.3 6-0.6 8.9-1 2.9-0.6 5.9-1.1 8.8-1.7 2.9-0.7 5.8-1.4 8.7-2.2 5.9-1.6 11.9-3.3 18-4.5 6.2-1.2 12.6-1.7 18.8-1.4 6.3 0.2 12.5 0.9 18.6 1.7q9.1 1.4 18.1 3.1c24.1 4.7 47.7 11.8 70.3 21.2-23.4-7.1-47.1-12.8-71.1-16.6z"/>
									<path id="&lt;Path&gt;" class="s6" d="m72.4 198.9c-9.8-0.9-19.7-1.6-29.5-1.8q-14.8-0.4-29.6-0.1c-19.7 0.3-39.5 1.1-59.4 1.5-19.8 0.4-39.7 0.3-59.5-1.7 19.8-0.5 39.6-1.7 59.3-3 19.8-1.2 39.6-2.6 59.5-2.8 10-0.1 20 0 29.9 0.4 10 0.6 20 1.4 29.8 2.9 19.8 2.8 39.4 7.9 57.4 16.4-18.9-6.1-38.4-9.8-57.9-11.8z"/>
									<path id="&lt;Path&gt;" class="s6" d="m283.5 616.1c-1.2-0.6-2.3-1.3-3.5-1.8l-3.6-1.6-3.6-1.6-1.8-0.8q-1-0.3-1.9-0.7l-7.3-2.8c-2.5-0.9-5-1.7-7.5-2.5l-3.7-1.3c-1.2-0.4-2.5-0.7-3.8-1-2.5-0.7-5-1.5-7.5-2.1l-7.7-1.7c-10.2-2-20.5-3.8-30.9-4.3l-3.9-0.3-3.9-0.1c-2.6 0-5.2-0.2-7.8-0.1l-7.8 0.2h-2l-1.9 0.2-3.9 0.3c-5.2 0.2-10.4 1.1-15.5 1.6l-7.7 1.4c-1.3 0.3-2.6 0.4-3.8 0.8l-3.8 0.8-3.8 0.9-1.9 0.5c-0.7 0.1-1.3 0.3-1.9 0.5l-7.5 2.2c-2.5 0.7-5 1.6-7.5 2.4l-7.5 2.5c-5.1 1.6-10.2 3.2-15.5 4.2-5.3 1-10.8 1.6-16.2 1.1-5.5-0.5-10.8-1.8-15.6-4.3-4.9-2.4-9-6.2-11.8-10.7 1.7 2.1 3.6 3.9 5.7 5.4 2.1 1.6 4.4 2.8 6.8 3.8 2.4 0.9 4.8 1.7 7.4 2.1q3.8 0.7 7.6 0.8c5.1 0 10.2-0.7 15.2-2 5-1.3 9.9-3 14.8-4.8 9.8-3.8 19.9-7.6 30.3-10.1l3.9-1c1.3-0.3 2.7-0.5 4-0.8l7.9-1.4c5.3-0.7 10.6-1.6 15.9-1.9l4-0.3 2-0.1 2-0.1 8.1-0.1c2.6 0 5.3 0.2 8 0.3l4 0.1c1.3 0.1 2.7 0.2 4 0.4 2.7 0.2 5.3 0.5 8 0.8l7.9 1.2c2.7 0.3 5.3 1 7.9 1.5 2.6 0.6 5.2 1.1 7.8 1.8l7.7 2.1c2.6 0.8 5.1 1.7 7.6 2.5 1.3 0.5 2.5 0.9 3.8 1.3l3.7 1.5 3.7 1.5c1.2 0.5 2.5 1 3.7 1.6l7.2 3.4q0.9 0.4 1.8 0.9l1.7 0.9 3.5 2c4.7 2.4 9.1 5.5 13.5 8.3z"/>
								</g>
							</g>
							<path id="Snowflake copy 6" class="s7" aria-label="E"  d="m246.5 177.1q3.4 0 1.7-2.7-0.7-1.3-2.3-2.6-1.7-1.4-3.4-2-1.7-0.7-2-1 0-0.4 1.3-0.4 3.4 0 2-1.3-0.3-0.7-2-1.4-1.6-0.6-3.3-0.6-2-0.4-3.7-0.7-1.7-0.7-2-1.3-1.3-2 3.4-3.7 2-0.7 4-0.7 2-0.3 2.6 0.7 2.1 1.7 4.1 5.3 1.6 4.1 1.6 0.4-0.3-1.7-0.6-3.7-0.4-2-1-3.7-0.4-1.7-1.7-2.7-1-1.3-2.4-1.3-1.3-0.3-4 0.3-2.3 0.7-5 1.7-2.3 1.3-5.3 1.3-3.1 0-5.1-0.6-4.3-2.4-0.3-3.4 2-0.3 5-2 3-2 4.7-4.7 2-2.6 3.4-6.3 1.3-4 1.3-7.4-0.3-3.3-2-5.7-1.7-2.3-3.7-2.6-2-0.4-2.7 0-0.6 0 1 0.6 1.7 0.7 2.4 2.7 1 2 1.3 4.7 0 2.7-1.3 6-1.4 3.4-3 5.7-2 2.7-6.4 4.3-4 1.4-7.7 0.7-4-0.7-9.7-2.3-5.3-2-9.4-4-3.6-2.4-8-5.1-4.3-3-6.7-4.6-5-4.4 2.4-3.4 3 0.3 6.3 2 3.7 1.7 5.4 4 1.6 2.4 5 4 3.3 1.7 6 1.7 2.7 0 4.7-1 2.3-1.3 3-3 0.7-1.7 0.3-2 0-0.7-0.6 0.3-1.7 2.4-6.1 2.4-2 0-4.6-1.4-2.7-1.6-4.7-4-1.7-2-2.4-4-0.3-2.3 1-3 1.4-1 4.4-1 3.3 0 6.7 0.7 3.3 0.6 7 3 4 2.3 6.4 5 2.3 2.7 2.3 2.3 0.3-0.3-1.7-3.7-1.6-3.3-6-6.3-4-3-7.7-4-3.7-1-8.3-0.7-4.4 0-7.1 1.3-2.7 1.4-7.7 2.1-5 0.6-10 0-5-0.7-9.4-1.7-4-1-5-2-2.7-2.7 0-5.4 1-1 5-2 4.4-1 9.4-1.7 5-0.6 10 0 5 0.7 7.7 2 2.7 1.4 7.1 1.7 4.3 0 8.3-1 3.7-1 7.7-4 4.4-3 6-6.4 2-3.3 1.7-3.6 0-0.4-2.3 2.3-2.4 2.7-6.4 5-3.7 2.4-7 3-3.4 0.7-6.7 0.7-3 0-4.4-1-1.3-0.7-1-2.7 0.7-2.3 2.4-4.3 2-2.4 4.7-3.7 2.6-1.7 4.6-1.7 4.4 0 6.1 2.4 1.6 2 0.3-1.7-0.7-1.7-3-2.7-2-1.3-4.7-1.3-2.7 0-6 1.6-3.4 1.7-5 4.1-1.7 2.3-5.4 4-3.7 1.7-6.7 2-3 0.7-3.7-0.3-0.6-1.1 1.7-3.1 2.4-1.6 6.7-4.3 4.4-3 8-5.4 4.1-2 9.4-3.6 5.7-2.1 9.7-2.7 3.7-0.7 7.7 1 4.4 1.3 6.4 4 1.6 2.3 3 5.7 1.3 3.3 1.3 6-0.3 2.7-1.3 4.7-0.7 2-2.4 2.7-1.6 0.6-1 1 0.7 0 2.7-0.4 2-0.3 3.7-2.6 1.7-2.4 2-5.7 0-3.4-1.3-7.1-1.4-4-3.4-6.6-1.7-2.7-4.7-4.4-3-2-5-2.3-4-1 0.3-3.4 2-0.7 5.1-0.7 3 0 5.3 1.4 2.7 1 5 1.7 2.7 0.6 4 0.3 1.4 0 2.4-1 1.3-1.3 1.7-3 0.6-1.7 1-3.7 0.3-2 0.6-3.7 0-3.7-1.6 0.4-2 3.6-4.1 5.3-0.6 1-3 1-2-0.3-3.6-1-4.7-1.7-3.4-3.7 0.3-0.6 2-1 1.7-0.6 3.7-1 1.7 0 3.3-0.6 1.7-0.7 2-1.4 1.4-1.3-2-1.3-1.3 0-1.3-0.4 0.3-0.3 2-1 1.7-0.6 3.4-2 1.6-1.3 2.3-2.6 1.7-2.7-1.7-2.7-3.3 0-6.7 2.3-3.3 2.7-1.6 0 1.6-2.3-0.4-2.3-2 0-4.3 3.7-1 1.6-2.4 3-1.3 1-2 1-2.3 0-1.6-5 0.3-2.1 1.3-3.7 1-1.7 2-2 1-0.7 3-0.7 2 0 4 0 3.4 0 0.7-1.3-1.7-0.7-3.7-1.4-1.7-0.7-3.3-1-3.4-1-5.7 1.7-0.7 1-1.4 3.7-0.6 2.3-1 5-0.3 2.7-1.6 5.3-1.4 2.7-3.4 4.1-1.7 1.3-2.7 1-0.6-0.7 0-2.4 0.7-2 0.4-5.3-0.4-3.7-1.4-6.7-1.3-3-4-6.1-2.7-3-5.7-4.6-3-1.7-6-1.4-2.7 0.4-4 2-1.7 1.7-1.7 2.4 0 0.3 1.4-0.7 1.3-1 3.6-0.7 2.4 0 4.4 1.4 2.3 1.3 4.7 4.3 2.3 2.7 3.3 5.4 1.4 3 0.4 7.3-0.7 4.1-3.1 7.4-2.3 3-7 7-4.3 3.7-8 6-3.7 2.7-8.4 5.1-4.7 2.3-7.3 3-2.7 1-3.4 0-0.3-1 1.4-3.7 2-2.7 5.3-4.4 3.4-2 6-2.6 3-0.7 6.1-2.4 3-2 4.3-4.3 1.3-2.7 1.3-5 0.4-2.4-0.6-3.7-1-1.4-1.7-1.4-0.7-0.3 0 0.7 1 2.7-1.3 6.7-0.7 1.7-3.4 3.3-2.7 1.4-5.3 2.1-6.7 1-7.4-2.7 0-1.7 1.3-4.4 1.7-2.6 4.1-5.3 2.3-2.7 6.3-4.7 4-2 7.4-2.7 7.7-1.7-0.7-1.7-3.7 0-8.4 2.1-4.6 2-7.7 5-2.6 3-4.6 7-2 4-2.4 6.7 0 2.7-2.3 7.7-2 4.7-4.7 8.3v0.4q-3 4-6 7-3 3-4.7 3.4-1.7 0.6-2.7 1-1 0.3-1 0.3 0 0-0.3-1 0-1-0.4-2.7-0.6-1.7 0.7-5.7 1.3-4.3 3.4-8.7 2-4.7 5-8.7 3-4.3 5.3-6 2.7-1.7 5-5.3 2.4-3.7 3.4-7.4 1-3.7 0.3-8.7-0.3-5.4-2-8.4-4-6.3-2 0 1.3 3 1.3 7.7 0 4.7-1 7.7-0.6 3.4-2.3 6.4-1.7 2.7-3.3 3.3-3.4 1-5.7-5-0.7-2.7-0.7-5.7 0-3 1-4.7 2-3.7 5-4.3 1-0.4 0.7-0.7-0.3-0.3-2-0.7-1.7-0.3-3.7 1-2 1.4-3.7 4.1-1.3 2.6-1.7 6.3 0 3.4 1.1 6 1 2.7 0.6 6.7 0 3.7-1 6.7-1.3 2.7-2.7 2.7-1 0-1.6-2.7-0.4-2.7-0.7-7.7-0.3-5.3 0-10 0-4.4 1-10 1-5.7 2.7-9.4 1.7-3.7 5-6.4 3.3-2.6 6.4-3.3 3-0.7 6.3 0 3.7 0.7 6 2 2 1.3 3.4 3.3 1.7 2 1.3 3.7-0.3 1.7 0 1.4 0.7-0.7 1.4-2.7 1-2-0.4-4.7-1.3-2.7-4-4.4-2.7-1.6-7-2.6-4-1-7.4-0.4-3 0.7-6.3 2-3 1.4-4.4 3.1-1.3 1.6-2.3 1.3-0.7-0.7-0.4-3 0.4-2.4 2-4.7 1.7-2.7 3.7-4.4 5-3.3 6.4-6.6 1-3.1-1.4-5.4-1-1.3-2.6-2.7-1.7-1.3-3-2.3-1.4-1-1.7-0.7 0 0.3 1 2 1 1.7 1.7 3.7 1 1.7 1.3 2.7 0.3 1.3-1 3-1 1.7-2.7 3-1.7 1.3-3 1.7-1.3 0-1.7-0.7-0.6-0.7-0.3-2.3 0.7-2 1.3-3.7 0.7-1.7 1-3.4 0.7-1.6 0-2.3-0.3-0.7-1-0.3-0.6 0.3-1 1.3-1.6 2.7-1-1.3 0.4-1.7 0-3.7-0.3-2.4-1-3.4-0.6-1.3-1.6-1.3-1.1 0-1.7 1.3-2 2.7-1.4 7.1 0.4 1.6 0 2.3 0 0.3-0.6-1-0.7-1-1.4-1.3-0.6-0.4-1 0.3-0.6 0.7-0.3 2.3 0.7 1.7 1.3 3.4 2.4 4 1 6-0.3 0.7-1.6 0.7-1.4-0.4-3-1.7-4.1-2.7-3.4-6 0-1 0.7-2.7 1-2 2-3.7 1-1.7 0.7-2 0-0.3-1.4 0.7-1.3 1-3 2.3-1.3 1.4-2.7 2.7-2.3 2.3-1.3 5.4 0.7 1.3 2.3 3.3 2 1.7 4 3.3 2.1 1.7 3.7 4.4 1.7 2.3 2 4.7 0.4 2.3-0.6 3-0.7 0.3-2-1.3-1.4-1.7-4.7-3.1-3-1.3-6-2-3.1-0.6-7.4 0.4-4 1-6.7 2.6-2.7 1.7-4 4.4-1.4 2.7-0.7 4.7 2 4.3 1.7 1.3-0.3-1.7 1-3.7 1.3-2 3.3-3.3 2.4-1.3 6.1-2 3.6-0.7 6.3 0 3.4 0.7 6.4 3.3 3.3 2.7 5 6.4 1.7 3.7 2.7 9.4 1 5.6 1.3 10 0 4.7-0.3 10 0 5-0.7 7.7-0.7 2.7-2 2.7-1 0-2-2.7-1.4-3-1.7-6.7 0-4 1.4-6.7 0.6-2.6 0.3-6 0-3.7-1.4-6.3-1.3-2.7-3.6-4.1-2-1.3-3.7-1-1.7 0.4-2 0.7-0.4 0.3 0.7 0.7 3.3 0.6 5.3 4.3 1 1.7 1 4.7 0 3-1 5.7-2.3 6-5.7 5-1.3-0.6-3-3.3-1.7-3-2.7-6.4-1-3-1-7.7 0.4-4.7 1.4-7.7 1.3-3.3 0.6-3.3-0.6 0-2.3 3.3-2 3-2.7 8.4-0.3 5 0.7 8.7 1 3.7 3.3 7.4 2.7 3.6 4.7 5.3 2.7 1.7 5.7 6 3 4 5.4 8.7 1.6 4.4 3 8.7 1.3 4 0.6 5.7-0.6 3.7-4.3 2.4-1.7-0.4-4.7-3.4-3-3-5.7-7.4-3-3.6-5.3-8.3-2-5-2-7.7 0-2.7-2.4-6.7-2-4.4-4.7-7-2.7-3-7.3-5-4.7-2.1-8.4-2.1-8.4 0-1 1.7 3.3 0.7 7.4 2.7 4 2 6.3 4.7 2.4 2.7 4 5.3 1.7 2.7 1.4 4.4 0 1.7-2.4 2.7-2 0.6-4.7 0-6.7-1.7-9-5.7-2.3-3.7-1-6.4 0.7-2.3-2 0.3-2.3 3.4 0.7 9.1 1.6 2.3 4.6 4.3 3.1 1.7 5.7 2.4 2.7 0.6 6.1 2.6 3.3 1.7 5.3 4.4 2 2.7 1.4 3.7-0.7 1-3.4 0-2.7-1-7.4-3.4-4.6-2.3-8.3-4.7-3.7-2.3-8-6-4.4-4-7.1-7.3-2.3-3-3.3-7.1-0.7-4.3 0.6-7.3 1.1-2.7 3.4-5.4 2.3-3 4.7-4.3 2-1.4 4.3-1.4 2.7-0.3 3.7 0.7 2.7 2.3 0-1.7-1.3-1.6-4.3-2-3.1-0.3-5.7 1.4-3 1.6-6.1 4.6-2.6 3.1-3.6 6.1-1.4 3-1.7 6.7-0.3 3.3 0.3 5 0.7 2-0.3 2.7-0.7 0.3-2.3-1-1.7-1.4-3.4-4.1-1.3-3-1.7-5.6-0.3-2.4-1-4.7-0.6-2.7-1.3-4-0.7-1.1-2.4-1.4-1.6-0.7-3.3-0.3-1.7 0.6-3.7 1.3-1.7 0.7-3.3 1.4-1.7 0.6-1.4 1 0.7 0.3 2.4 0.3 4-0.7 7 0.7 1 0.3 1.7 2 1 1.6 1.3 3.7 0.7 2 0 3.6-0.7 1.4-1.3 1.4-1 0-2.4-1-1.3-1.4-2.3-3-2.3-3.7-4.4-3.7-2 0-0.3 2.3 0.7 1 0.3 1.4-0.3 0-1.6-1.4-3.7-2.3-7.1-2.3-2.6 0-1.6 2.7 0.6 1.3 2.3 2.6 1.7 1.4 3.4 2 1.6 0.7 2 1 0.3 0.4-1 0.4-3.7-0.7-2.4 1.3 1.4 2 5.7 2 1.7 0.4 3.4 1 1.6 0.4 2.3 1 0.7 0.7-0.7 2-1 1-3 1.7-4.3 1.7-6.7 0-0.6-0.7-2-2.3-1.3-1.7-2-3.4-1.7-3.3-1.7 0 0.4 1.7 0.7 3.7 0.3 2 1 3.7 0.7 3.3 4 4 1.7 0.3 4-0.3 2.7-0.7 5.1-1.7 2.3-1.4 5.3-1.4 3.4 0 5 0.7 4.7 2.4 0.4 3.4-2 0.3-5.1 2.3-2.6 1.7-4.6 4.4-2 2.6-3.4 6.6-1.3 3.7-1 7.1 0 3.3 1.7 5.7 1.7 2.3 3.7 2.6 5.3 0.7 1.6-0.6-1.3-0.7-2.3-2.7-1-2-1.3-4.7 0-2.7 1.3-6 1.3-3.4 3.3-5.7 2.1-2.7 6.1-4 4-1.7 8-1 3.7 0.6 9 2.7 5.7 1.6 9.7 3.6 4 2 8.4 5.1 4.3 3 6.7 4.6 5 4.4-2.4 3.4-3-0.3-6.6-2-3.4-2-5.1-4.4-2-2-5.3-3.7-3-1.6-5.7-1.6-2.7 0-5 1.3-2.4 1-3 2.7-1.4 3.7 0.6 1.7 0.7-1 2.4-1.7 1.7-0.7 3.7-0.7 1.6 0 4.3 1.7 2.7 1.3 4.7 3.3 2 2.4 2.3 4.7 0.7 2-0.6 2.7-1.7 1-4.7 1-3 0-6.7-0.7-3.4-0.6-7.4-3-3.7-2.3-6-5-2.3-2.7-2.7-2.3 0 0.3 2 3.6 1.7 3.4 5.7 6.4 4.4 3 8.1 4 4 1 8.3 1 4.4-0.3 7-1.7 2.7-1.3 7.7-2 5.4-0.6 10.1 0 5 0.7 9 1.7 4.4 1 5.7 2 1 1.4 1.7 2 1 0.7 1 0.7 0 0-1 0.7-0.7 0.6-1.7 2-1.3 1-5.7 2-4 1-9 1.7-4.7 0.6-10.1 0-5-0.7-7.7-2.1-2.6-1.3-7-1.3-4.3-0.3-8.3 0.7-3.7 1-8.1 4-4 3-5.7 6.3-2 3.4-2 3.7 0.4 0.4 2.7-2.3 2.3-2.7 6-5 4-2.4 7.4-3 3.7-0.7 6.7-0.7 3 0 4.3 1 1.7 0.7 1 3-0.3 2-2.3 4.4-2 2-4.7 3.6-2.7 1.4-4.3 1.4-4.7 0-6.4-2.4-0.7-0.6-1-0.3 0 0.3 0.7 2 0.6 1.7 3 3 2.3 1 5 1 2.7 0 5.7-1.7 3.3-1.6 5.3-3.6 1.7-2.4 5.1-4.1 3.3-2 6.6-2.3 6.7-1 2.4 3.4-2.4 1.6-6.7 4.6-4.4 3-8.4 5.1-4 2-9.7 4-5.3 1.6-9 2.3-4 0.7-8-0.7-4-1.6-6.1-4.3-2-2.3-3.3-5.7-1.3-3.3-1.3-6 0.3-2.7 1.3-4.7 1-2 2.3-2.7 3.7-1.3-1.6-0.6-2 0.3-3.7 2.6-1.7 2.4-1.7 5.7-0.3 3.4 1 7.4 1.4 3.7 3.4 6.3 2 2.7 4.6 4.7 3.1 1.7 5.1 2 4 1-0.4 3.4-2 0.6-5 0.6-3 0-5.3-1.3-2.4-1-5.1-1.7-2.3-0.6-4-0.3-3.3 0.7-4 4-0.7 1.7-1 3.7-0.3 2-0.7 3.7 0 3.3 1.7 0 0.7-1.7 2-3.4 1.4-1.6 2-2.3 2.4-1.7 6.7 0 2 0.7 3 2 1.4 1 0.7 1.7-0.7 0.6-2.3 1.3-1.7 0.3-3.4 0.7-4.3 0-5.7 2-1.3 2 2 1.3 1.7 0 1.4 0.4-0.4 0.3-2 1-1.7 0.6-3.4 2-1.7 1.3-2.3 2.6-1 2.7 1.6 2.7 3.7 0 6.7-2.3 1.7-1.4 2-1 0.4 0-0.3 1-1.7 2.3 0.3 2.3 2.1 0 4.4-3.7 1-1.6 2.3-2.6 1.4-1.4 2.4-1.4 0.6 0 1 1.7 0.7 1.3 0.3 3.3-0.3 2-1.3 3.7-0.7 1.7-2 2-1 0.7-3 1-2 0-3.7-0.3-2 0-2.4 0.3-0.3 0.4 1.4 1 1.6 0.7 3.3 1.4 2 0.6 3.7 1.3 1.7 0.3 3.3 0 1.7-0.7 2.4-1.7 0.7-1.3 1.3-3.6 0.7-2.7 1-5.1 0.4-2.6 1.7-5.3 1.7-3 3.4-4.4 1.6-1.3 2.3-0.6 1 0.3 0.3 2.3-0.6 1.7-0.3 5.4 0.3 3.3 1.7 6.3 1 3 3.6 6 3.1 3.1 6.1 4.7 2.6 1.7 5.7 1.4 3-0.4 4.3-2 2.7-4.1 0-1.7-1.3 1-3.7 1-2.3-0.3-4.3-1.7-2.4-1.3-4.7-4-2.3-3-3.4-5.7-1.3-3-0.6-7 1-4.4 3.3-7.4 2.7-3.3 7.1-7 4.3-4 8-6.4 3.7-2.3 8.3-4.6 4.7-2.4 7.4-3.4 2.7-1 3.4 0 0.6 1-1.4 3.7-2 2.7-5.3 4.7-3.4 1.7-6.1 2.3-2.6 0.7-5.7 2.7-3 1.7-4.6 4-3 5.7-0.7 9 3 3.1 1.7 0.4-0.4-1 0-2.7 0.3-2 1.3-3.7 2.3-4 9-5.7 2.7-0.6 4.7 0.4 2.4 0.6 2.4 2.3 0.3 1.7-1.4 4.4-1.6 2.6-4 5.3-2.3 2.7-6.3 4.7-4.1 2-7.4 2.7-7.4 1.6 1 1.6 3.7 0 8.4-2 4.6-2 7.3-5 2.7-2.7 4.7-6.7 2-4.3 2.4-7 0-2.7 2-7.4 2.3-5 5.3-8.7 2.7-4.3 5.7-7.3 3-3 4.7-3.4 1.7-0.6 2.7-0.6 1-0.4 1-0.4 0-0.3 0 0.7 0.3 1 0.6 2.7 0.7 1.7-0.6 6-1.4 4-3 8.4-2.4 4.7-5.4 9-3 4-5.7 5.7-2 1.7-4.7 5.3-2.3 3.7-3.3 7.4-1 3.7-0.7 9 0.7 5.1 2.7 8.1 1.7 3.3 2.3 3.3 0.7 0-0.6-3.3-1-3-1.4-7.7 0-4.7 1-7.7 1-3.4 2.7-6 1.7-3.1 3-3.7 3.4-1 5.7 5 1 2.7 1 5.7 0 3-1 4.7-2 3.6-5.3 4.3-1.1 0.3-0.7 0.7 0.3 0.3 2 0.7 1.7 0.3 3.7-1.1 2.3-1.3 3.6-4 1.4-2.6 1.4-6 0.3-3.7-0.3-6.3-1.4-2.7-1.4-6.4 0.3-4 1.7-7 1-2.7 2-2.7 1.3 0 2 2.7 0.7 2.6 0.7 8 0.3 5 0.3 9.7-0.3 4.4-1.3 10-1 5.7-2.7 9.4-1.7 3.7-5 6.4-3 2.6-6.4 3.3-2.7 0.7-6.3 0-3.7-0.7-6.1-2-2-1.3-3.3-3-1.3-2-1-3.7 0.3-3.3-1.7 1-0.7 2 0.7 4.7 1.3 2.7 4 4.3 2.7 1.7 6.7 2.7 4.3 1 7.4 0.4 3-0.7 6-2 3.3-1.4 4.7-3.1 1.3-1.6 2-1 1 0.4 0.6 2.7-0.3 2.4-2 5-1.6 2.4-3.7 4-2 1.7-4 3.7-1.6 1.7-2.3 3-1 3.1 1.3 5.4 1.4 1.3 2.7 2.7 1.7 1.3 3 2.3 1.4 1 1.4 0.7 0.3-0.4-0.7-2-1-1.7-2-3.4-0.7-1.6-0.7-3-0.7-3 3.4-6 1.6-1.3 3-1.3 1.3-0.4 1.6 0.3 1.4 2-1 6-0.6 1.7-1.3 3.4-0.3 1.6 0.3 2.3 0.4 0.7 1 0.3 0.7-0.3 1.4-1.3 0.6-1.3 0.6-0.7 0.4 0.4 0 2-0.3 1.7 0 4.1 0.7 2 1.4 3.3 1.3 2.7 3.3 0 0.7-1.3 1-3.3 0.4-2.4 0-4.1-0.6-4 1-1.3 0.4 1 1 1.3 0.7 0.4 1-0.3 0.7-0.7 0-2.3-0.3-1.7-1-3.4-0.6-1.7-1.3-3.3-0.3-2 0.3-2.7 0.4-0.7 1.7-0.3 1.3 0 3 1.3 1.7 1.3 2.7 3 1.3 1.7 1 3-0.7 2.7-3 6.4-1 1.6-1 2 0.3 0.3 1.7-0.7 1.3-1 3-2.3 1.6-1.4 2.6-2.7 2.4-2.3 1.4-5.4-1.4-3.3-6.4-6.7-2-1.6-3.7-4-1.6-2.6-2-5-0.3-2.3 0.4-2.7 1-0.6 2.3 1 1.4 1.7 4.4 3.1 3.3 1.3 6.3 2 3.4 0.6 7.4-0.4 4.3-1 7-2.7 2.7-1.6 4-4.3 1.4-2.7 0.4-4.7-0.7-2-1.4-2.3-0.3-0.4 0 1.3 0.4 1.7-1.3 3.7-1.4 1.7-3.4 3-2.3 1.3-6 2-3.3 0.7-6.3 0-3.1-0.7-6.4-3.3-3.3-2.7-5-6.4-1.7-3.7-2.7-9.4-1-5.6-1-10-0.3-4.7 0-9.7 0.3-5.4 0.7-8 0.6-2.7 1.6-2.7 1.4 0 2.7 2.7 1 3 1 7 0.4 3.7-0.6 6.4-1.1 2.6-1.1 6.3 0.4 3.4 1.7 6 1.7 2.7 3.7 4 2 1.4 3.7 1.1 1.7-0.4 2-0.7 0.3-0.4-0.7-0.7-3-0.7-5-4.3-1-1.7-1-4.7 0-3 0.7-5.7 2.3-6 5.7-5 1.6 0.6 3.3 3.7 1.7 2.6 2.3 6 1 3 1 7.7 0 4.7-1.3 7.7-2 6.7 2 0 1.7-3 2-8.1 0.7-5.3-0.3-9-1-3.7-3.4-7.4-2.3-3.6-5-5.3-2.3-1.7-5.3-5.7-3-4.3-5-9-2.1-4.4-3.4-8.4-1.3-4.3-0.7-6 0.4-1.7 0.4-2.7 0.3-1 0.3-1 0 0 1 0.3 1 0.4 2.7 1 1.7 0.4 4.7 3.4 3 3 6 7v0.3q2.7 3.7 4.7 8.7 2.3 4.7 2.7 7.4 0 2.7 2 6.7 2 4 4.6 7 3.1 3 7.7 5 4.7 2 8.4 2 8.4 0 0.7-1.6-3.4-0.7-7.4-2.7-4-2-6.3-4.7-2.4-2.7-4.1-5.3-1.3-2.7-1.3-4.4 0.7-3.7 7.4-2.7 2.6 0.7 5.3 2.4 2.7 1.3 3.7 3 0.7 1.7 1 3.7 0.7 1.6 0 3-0.7 1 0 1 0.7-0.4 1.7-1.7 1-1.3 0.6-3.7 0-2.3-1.3-5-1.3-2.3-4.3-4-3.1-2-6.1-2.7-2.6-0.6-6-2.3-3.3-2-5.3-4.7-1.7-2.7-1.4-3.7 0.7-1 3.4 0 2.6 0.7 7.3 3 4.7 2.4 8.4 5 3.7 2.4 8 6.4 4.7 3.7 7 6.7 2.4 3.3 3.1 7.7 1 4-0.4 7-1 2.7-3.3 5.7-2.4 2.7-4.7 4-2 1.4-4.4 1.7-2.3 0-3.6-1-2-1.7 0.3 1.7 1.3 1.6 4 2 3 0.3 6-1.4 3-1.6 5.7-4.7 2.7-3 4-6 1-3 1.4-6.3 0.3-3.7-0.4-5.7-0.6-1.7 0-2 1-0.7 2.7 0.6 2 1.4 3.4 4.1 1.3 2.6 1.6 5.3 0.4 2.7 1 5.4 0.7 2.3 1.7 3.3 1.7 3 5.4 1.7 1.6-0.4 3.3-1 2-0.7 3.7-1.4 2.7-1.3-0.7-1.3-1.6 0-4 0-2 0-3-0.7-1-0.3-2-2-1-1.7-1.3-3.7-0.7-5 1.6-5 0.7 0 2 1.4 1.7 1 2.4 2.6 2.3 3.7 4.7 3.7 1.6 0 0-2.3-1.7-2.7 1.6 0 3.4 2.3 6.7 2.3z"/>
							<path id="Snowflake copy 7" class="s7" aria-label="E"  d="m334.6 284.1q1.9 0 0.9-1.5-0.3-0.8-1.3-1.6-0.9-0.7-1.9-1.1-0.9-0.4-1.1-0.6 0-0.2 0.7-0.2 1.9 0 1.2-0.7-0.2-0.4-1.2-0.8-0.9-0.4-1.9-0.4-1.1-0.2-2.1-0.3-0.9-0.4-1.1-0.8-0.8-1.1 1.9-2.1 1.1-0.4 2.3-0.4 1.1-0.2 1.5 0.4 1.1 1 2.3 3 0.9 2.3 0.9 0.2-0.2-0.9-0.3-2.1-0.2-1.1-0.6-2-0.2-1-1-1.6-0.5-0.7-1.3-0.7-0.8-0.2-2.3 0.2-1.3 0.3-2.8 0.9-1.4 0.8-3.1 0.8-1.7 0-2.8-0.4-2.5-1.3-0.2-1.9 1.1-0.2 2.8-1.2 1.7-1.1 2.7-2.6 1.1-1.5 1.9-3.6 0.8-2.3 0.8-4.2-0.2-1.9-1.2-3.3-0.9-1.3-2.1-1.5-1.1-0.2-1.5 0-0.4 0 0.6 0.4 0.9 0.4 1.3 1.5 0.6 1.2 0.8 2.7 0 1.5-0.8 3.4-0.8 1.9-1.7 3.3-1.2 1.5-3.6 2.4-2.3 0.8-4.4 0.4-2.3-0.4-5.5-1.3-3.1-1.2-5.3-2.3-2.1-1.3-4.6-2.9-2.5-1.7-3.8-2.6-2.9-2.5 1.3-1.9 1.7 0.2 3.6 1.1 2.1 1 3.1 2.3 0.9 1.3 2.8 2.3 1.9 0.9 3.5 0.9 1.5 0 2.6-0.5 1.3-0.8 1.7-1.8 0.4-0.9 0.2-1.1 0-0.4-0.4 0.2-0.9 1.3-3.4 1.3-1.1 0-2.7-0.7-1.5-1-2.6-2.3-1-1.2-1.3-2.3-0.2-1.3 0.5-1.7 0.8-0.6 2.5-0.6 1.9 0 3.8 0.4 1.9 0.4 4 1.7 2.3 1.3 3.6 2.9 1.3 1.5 1.3 1.3 0.2-0.2-0.9-2.1-1-1.9-3.4-3.6-2.3-1.7-4.4-2.3-2.1-0.6-4.8-0.4-2.4 0-4 0.8-1.5 0.7-4.3 1.1-2.9 0.4-5.7 0-2.9-0.4-5.4-0.9-2.3-0.6-2.8-1.2-1.5-1.5 0-3 0.5-0.6 2.8-1.2 2.5-0.5 5.4-0.9 2.8-0.4 5.7 0 2.8 0.4 4.3 1.1 1.6 0.8 4 1 2.5 0 4.8-0.6 2.1-0.6 4.4-2.3 2.4-1.7 3.4-3.6 1.1-1.9 0.9-2.1 0-0.2-1.3 1.4-1.3 1.5-3.6 2.8-2.1 1.3-4 1.7-1.9 0.4-3.8 0.4-1.7 0-2.5-0.6-0.7-0.3-0.5-1.5 0.3-1.3 1.3-2.5 1.1-1.3 2.6-2.1 1.6-0.9 2.7-0.9 2.5 0 3.4 1.3 1 1.2 0.2-0.9-0.4-1-1.7-1.5-1.1-0.8-2.6-0.8-1.6 0-3.5 0.9-1.9 1-2.8 2.3-1 1.4-3.1 2.3-2.1 1-3.8 1.2-1.7 0.3-2.1-0.2-0.3-0.6 1-1.8 1.3-0.9 3.8-2.4 2.5-1.7 4.6-3.1 2.2-1.1 5.3-2.1 3.2-1.1 5.5-1.5 2.1-0.4 4.4 0.6 2.4 0.7 3.6 2.3 0.9 1.3 1.7 3.2 0.8 1.9 0.8 3.4-0.2 1.6-0.8 2.7-0.4 1.1-1.3 1.5-1 0.4-0.6 0.6 0.4 0 1.5-0.2 1.2-0.2 2.1-1.5 1-1.4 1.2-3.3 0-1.9-0.8-4-0.8-2.2-1.9-3.8-1-1.5-2.7-2.4-1.7-1.2-2.8-1.4-2.3-0.5 0.2-1.9 1.1-0.3 2.8-0.3 1.7 0 3.1 0.7 1.5 0.6 2.8 1 1.5 0.3 2.3 0.2 0.8 0 1.3-0.6 0.8-0.8 1-1.7 0.4-1 0.6-2.1 0.1-1.2 0.3-2.1 0-2.1-0.9 0.2-1.2 2.1-2.3 3-0.4 0.6-1.7 0.6-1.2-0.2-2.1-0.6-2.7-0.9-1.9-2.1 0.2-0.4 1.1-0.5 1-0.4 2.1-0.6 1 0 1.9-0.4 1-0.4 1.2-0.8 0.7-0.7-1.2-0.7-0.7 0-0.7-0.2 0.2-0.2 1.1-0.6 1-0.4 1.9-1.1 1-0.8 1.3-1.5 1-1.6-0.9-1.6-1.9 0-3.8 1.4-1.9 1.5-1 0 1-1.4-0.2-1.4-1.1 0-2.4 2.1-0.6 1-1.4 1.7-0.7 0.6-1.1 0.6-1.3 0-1-2.8 0.2-1.2 0.8-2.1 0.6-1 1.2-1.2 0.5-0.4 1.7-0.4 1.1 0 2.2 0 1.9 0 0.4-0.7-0.9-0.4-2.1-0.8-0.9-0.4-1.9-0.5-1.9-0.6-3.2 0.9-0.4 0.6-0.8 2.1-0.3 1.3-0.5 2.8-0.2 1.6-1 3.1-0.7 1.5-1.9 2.3-0.9 0.7-1.5 0.5-0.4-0.3 0-1.3 0.4-1.1 0.2-3-0.2-2.1-0.8-3.8-0.7-1.7-2.3-3.5-1.5-1.7-3.2-2.6-1.7-1-3.4-0.8-1.5 0.2-2.3 1.2-1 0.9-1 1.3 0 0.2 0.8-0.4 0.8-0.6 2.1-0.4 1.3 0 2.5 0.8 1.3 0.8 2.6 2.5 1.4 1.5 1.9 3 0.8 1.7 0.2 4.2-0.4 2.3-1.7 4.2-1.3 1.7-4 4-2.5 2.1-4.5 3.4-2.1 1.5-4.8 2.9-2.7 1.3-4.2 1.7-1.5 0.5-1.9 0-0.2-0.6 0.8-2.1 1.1-1.6 3-2.5 1.9-1.1 3.4-1.5 1.7-0.4 3.5-1.4 1.7-1.1 2.4-2.4 0.8-1.6 0.8-2.9 0.2-1.3-0.4-2.1-0.6-0.7-0.9-0.7-0.4-0.2 0 0.3 0.5 1.6-0.8 3.8-0.4 1-1.9 2-1.5 0.7-3 1.1-3.8 0.6-4.2-1.5 0-1 0.7-2.5 1-1.5 2.3-3 1.3-1.6 3.6-2.7 2.3-1.2 4.2-1.5 4.4-1-0.4-1-2.1 0-4.7 1.2-2.7 1.1-4.4 2.8-1.5 1.7-2.7 4-1.1 2.3-1.3 3.8 0 1.5-1.3 4.4-1.2 2.7-2.7 4.7v0.2q-1.7 2.3-3.4 4-1.7 1.7-2.7 1.9-0.9 0.4-1.5 0.6-0.6 0.2-0.6 0.2 0 0-0.2-0.6 0-0.5-0.1-1.5-0.4-1 0.3-3.2 0.8-2.5 1.9-5 1.2-2.6 2.9-4.9 1.7-2.5 3-3.5 1.6-0.9 2.9-3 1.3-2.1 1.9-4.2 0.6-2.1 0.2-4.9-0.2-3.1-1.2-4.8-2.2-3.6-1.1 0 0.8 1.7 0.8 4.4 0 2.7-0.6 4.4-0.4 1.9-1.3 3.6-1 1.5-1.9 1.9-2 0.6-3.3-2.9-0.4-1.5-0.4-3.2 0-1.7 0.6-2.7 1.1-2.1 2.9-2.4 0.5-0.2 0.3-0.4-0.1-0.2-1.1-0.4-1-0.2-2.1 0.6-1.1 0.7-2.1 2.3-0.7 1.5-0.9 3.6 0 1.9 0.5 3.4 0.6 1.5 0.4 3.8 0 2.1-0.6 3.8-0.7 1.5-1.5 1.5-0.5 0-0.9-1.5-0.2-1.5-0.4-4.4-0.2-3 0-5.7 0-2.5 0.6-5.7 0.5-3.2 1.5-5.3 0.9-2.1 2.8-3.6 1.9-1.6 3.7-1.9 1.7-0.4 3.6 0 2.1 0.3 3.4 1.1 1.1 0.8 1.9 1.9 0.9 1.2 0.8 2.1-0.2 1 0 0.8 0.3-0.4 0.7-1.6 0.6-1.1-0.2-2.6-0.7-1.5-2.3-2.5-1.5-0.9-4-1.5-2.2-0.6-4.1-0.2-1.8 0.4-3.7 1.1-1.7 0.8-2.4 1.7-0.8 1-1.4 0.8-0.3-0.4-0.1-1.7 0.1-1.3 1.1-2.7 0.9-1.5 2.1-2.4 2.8-1.9 3.6-3.8 0.6-1.8-0.8-3.1-0.5-0.8-1.5-1.5-0.9-0.8-1.7-1.3-0.8-0.6-0.9-0.4 0 0.2 0.5 1.1 0.6 1 1 2.1 0.5 1 0.7 1.5 0.2 0.8-0.5 1.7-0.6 1-1.6 1.8-0.9 0.7-1.7 0.9-0.7 0-0.9-0.4-0.4-0.4-0.2-1.3 0.4-1.1 0.8-2.1 0.3-0.9 0.5-1.9 0.4-1 0-1.3-0.2-0.4-0.5-0.2-0.4 0.2-0.6 0.7-1 1.6-0.6-0.7 0.2-1 0-2.1-0.2-1.3-0.6-1.9-0.3-0.8-0.9-0.8-0.6 0-1 0.8-1.1 1.5-0.7 4 0.2 0.9 0 1.3 0 0.2-0.4-0.6-0.4-0.5-0.8-0.7-0.3-0.2-0.5 0.2-0.4 0.3-0.2 1.3 0.4 1 0.7 1.9 1.4 2.3 0.6 3.4-0.2 0.4-0.9 0.4-0.8-0.2-1.8-0.9-2.2-1.6-1.9-3.5 0-0.5 0.4-1.5 0.6-1.1 1.2-2.1 0.5-0.9 0.3-1.1 0-0.2-0.7 0.4-0.8 0.5-1.7 1.3-0.8 0.7-1.6 1.5-1.3 1.3-0.7 3.1 0.4 0.7 1.3 1.9 1.2 0.9 2.3 1.9 1.1 0.9 2.1 2.4 0.9 1.4 1.1 2.7 0.2 1.3-0.3 1.7-0.4 0.2-1.2-0.8-0.7-0.9-2.7-1.7-1.7-0.7-3.4-1.1-1.7-0.4-4.2 0.2-2.2 0.6-3.8 1.5-1.5 1-2.3 2.5-0.7 1.5-0.3 2.6 1.1 2.5 0.9 0.8-0.2-0.9 0.6-2.1 0.8-1.1 1.9-1.9 1.3-0.8 3.4-1.1 2.1-0.4 3.6 0 1.9 0.3 3.6 1.9 2 1.5 2.9 3.6 1 2.1 1.5 5.3 0.6 3.2 0.8 5.7 0 2.7-0.2 5.7 0 2.9-0.4 4.4-0.4 1.5-1.1 1.5-0.6 0-1.2-1.5-0.7-1.7-0.9-3.8 0-2.3 0.7-3.8 0.4-1.5 0.2-3.4 0-2.1-0.7-3.6-0.8-1.6-2.1-2.3-1.2-0.8-2.1-0.6-1 0.2-1.2 0.4-0.1 0.2 0.4 0.4 1.9 0.3 3.1 2.4 0.5 1 0.5 2.7 0 1.7-0.5 3.2-1.4 3.5-3.3 2.9-0.7-0.4-1.7-1.9-0.9-1.7-1.5-3.6-0.6-1.7-0.6-4.4 0.2-2.7 0.8-4.4 0.7-1.9 0.4-1.9-0.4 0-1.4 1.9-1.1 1.7-1.5 4.8-0.2 2.8 0.4 4.9 0.6 2.1 1.9 4.2 1.5 2.1 2.7 3 1.5 1 3.2 3.5 1.7 2.3 3 4.9 1 2.5 1.8 5 0.7 2.2 0.3 3.2-0.3 2.1-2.4 1.3-1-0.2-2.7-1.9-1.7-1.7-3.2-4.2-1.8-2-3.1-4.7-1.1-2.9-1.1-4.4 0-1.5-1.4-3.8-1.1-2.5-2.6-4-1.5-1.7-4.2-2.8-2.7-1.2-4.8-1.2-4.7 0-0.5 1 1.9 0.3 4.2 1.5 2.2 1.1 3.6 2.7 1.3 1.5 2.3 3 0.9 1.5 0.7 2.5 0 0.9-1.3 1.5-1.2 0.4-2.7 0-3.8-1-5.1-3.2-1.4-2.1-0.6-3.7 0.4-1.3-1.1 0.2-1.4 1.9 0.3 5.2 1 1.3 2.7 2.4 1.7 1 3.2 1.4 1.6 0.4 3.5 1.5 1.9 0.9 3 2.5 1.2 1.5 0.8 2.1-0.4 0.5-1.9 0-1.5-0.6-4.2-1.9-2.7-1.4-4.8-2.7-2.1-1.3-4.5-3.4-2.5-2.3-4-4.2-1.4-1.7-1.9-4-0.4-2.5 0.3-4.2 0.6-1.5 2-3 1.3-1.7 2.6-2.5 1.2-0.8 2.5-0.8 1.5-0.2 2.1 0.4 1.5 1.3 0-0.9-0.8-1-2.5-1.2-1.7-0.2-3.2 0.8-1.7 0.9-3.5 2.6-1.5 1.8-2 3.5-0.8 1.7-1 3.8-0.2 1.9 0.2 2.8 0.4 1.2-0.2 1.5-0.4 0.2-1.3-0.5-1-0.8-1.9-2.3-0.8-1.7-1-3.2-0.2-1.4-0.6-2.7-0.3-1.5-0.7-2.3-0.4-0.6-1.3-0.7-1-0.4-1.9-0.2-1 0.3-2.1 0.7-1 0.4-1.9 0.8-1 0.4-0.8 0.6 0.4 0.1 1.3 0.1 2.3-0.3 4 0.4 0.6 0.2 1 1.2 0.5 0.9 0.7 2.1 0.4 1.1 0 2.1-0.3 0.7-0.7 0.7-0.6 0-1.4-0.6-0.7-0.7-1.3-1.7-1.3-2.1-2.5-2.1-1.1 0-0.2 1.4 0.4 0.5 0.2 0.7-0.2 0-0.9-0.7-2.1-1.4-4-1.4-1.5 0-1 1.6 0.4 0.7 1.4 1.5 0.9 0.7 1.9 1.1 0.9 0.4 1.1 0.6 0.2 0.2-0.6 0.2-2-0.4-1.3 0.7 0.8 1.2 3.2 1.2 1 0.2 2 0.6 0.9 0.1 1.3 0.5 0.4 0.4-0.4 1.2-0.6 0.5-1.7 0.9-2.5 1-3.8 0-0.4-0.4-1.2-1.3-0.7-1-1.1-1.9-1-1.9-1 0 0.2 0.9 0.4 2.1 0.2 1.1 0.6 2.1 0.4 1.9 2.3 2.3 0.9 0.1 2.3-0.2 1.5-0.4 2.8-1 1.4-0.7 3.1-0.7 1.9 0 2.8 0.3 2.7 1.4 0.2 1.9-1.1 0.2-2.8 1.4-1.6 0.9-2.7 2.4-1.1 1.6-1.9 3.8-0.8 2.1-0.6 4 0 1.9 1 3.3 0.9 1.3 2.1 1.5 3 0.4 0.9-0.4-0.7-0.4-1.3-1.5-0.6-1.1-0.8-2.7 0-1.5 0.8-3.4 0.7-1.9 1.9-3.2 1.1-1.6 3.4-2.3 2.3-1 4.6-0.6 2.1 0.4 5.1 1.5 3.2 1 5.5 2.1 2.3 1.2 4.8 2.9 2.5 1.7 3.8 2.6 2.8 2.5-1.3 2-1.8-0.2-3.8-1.2-1.9-1.1-2.9-2.5-1.1-1.1-3-2.1-1.8-0.9-3.3-0.9-1.5 0-2.8 0.8-1.4 0.5-1.7 1.5-0.8 2.1 0.3 0.9 0.4-0.5 1.4-0.9 0.9-0.4 2.1-0.4 0.9 0 2.4 0.9 1.6 0.8 2.7 1.9 1.1 1.4 1.3 2.7 0.4 1.2-0.4 1.5-0.9 0.6-2.6 0.6-1.7 0-3.8-0.4-1.9-0.4-4.2-1.7-2.1-1.3-3.4-2.8-1.4-1.6-1.6-1.4 0 0.2 1.2 2.1 0.9 1.9 3.2 3.6 2.5 1.7 4.6 2.3 2.3 0.6 4.7 0.6 2.5-0.2 4-1 1.6-0.7 4.4-1.1 3.1-0.4 5.7 0 2.9 0.4 5.2 0.9 2.4 0.6 3.2 1.2 0.6 0.8 0.9 1.1 0.6 0.4 0.6 0.4 0 0-0.6 0.4-0.3 0.4-0.9 1.1-0.8 0.6-3.2 1.2-2.3 0.5-5.2 0.9-2.6 0.4-5.7 0-2.8-0.4-4.4-1.1-1.5-0.8-4-0.8-2.4-0.2-4.7 0.4-2.1 0.6-4.6 2.3-2.3 1.7-3.2 3.6-1.2 1.9-1.2 2.1 0.2 0.2 1.6-1.3 1.3-1.6 3.4-2.9 2.3-1.3 4.2-1.7 2.1-0.4 3.8-0.4 1.7 0 2.5 0.6 0.9 0.4 0.5 1.7-0.2 1.1-1.3 2.5-1.1 1.1-2.7 2.1-1.5 0.7-2.4 0.7-2.7 0-3.7-1.3-0.3-0.4-0.5-0.2 0 0.2 0.4 1.1 0.3 1 1.7 1.8 1.3 0.5 2.8 0.5 1.5 0 3.3-0.9 1.9-1 3-2.1 1-1.3 2.9-2.3 1.9-1.1 3.8-1.3 3.8-0.6 1.3 1.9-1.3 0.9-3.8 2.6-2.5 1.7-4.8 2.9-2.3 1.1-5.5 2.3-3 0.9-5.1 1.3-2.3 0.4-4.6-0.4-2.3-0.9-3.4-2.4-1.2-1.4-1.9-3.3-0.8-1.9-0.8-3.4 0.2-1.5 0.8-2.7 0.6-1.1 1.3-1.5 2.1-0.8-0.9-0.4-1.2 0.2-2.1 1.5-1 1.4-1 3.3-0.2 1.9 0.6 4.2 0.8 2.1 1.9 3.6 1.1 1.5 2.7 2.6 1.7 1 2.8 1.2 2.3 0.6-0.2 1.9-1.1 0.4-2.8 0.4-1.7 0-3.1-0.8-1.3-0.6-2.8-0.9-1.4-0.4-2.3-0.2-1.9 0.3-2.3 2.3-0.4 0.9-0.6 2-0.2 1.2-0.4 2.1 0 1.9 1 0 0.4-0.9 1.1-1.9 0.8-0.9 1.2-1.3 1.3-0.9 3.8 0 1.1 0.4 1.7 1.1 0.8 0.6 0.4 1-0.4 0.4-1.3 0.8-1 0.1-2 0.3-2.4 0-3.2 1.2-0.7 1.1 1.2 0.7 0.9 0 0.7 0.2-0.2 0.2-1.1 0.6-1 0.4-1.9 1.1-1 0.8-1.4 1.6-0.5 1.5 1 1.5 2.1 0 3.8-1.3 0.9-0.8 1.1-0.6 0.2 0-0.2 0.6-0.9 1.3 0.2 1.3 1.2 0 2.5-2.1 0.6-1 1.3-1.5 0.8-0.8 1.4-0.8 0.4 0 0.5 1 0.4 0.7 0.2 1.9-0.2 1.1-0.7 2.1-0.4 0.9-1.2 1.1-0.5 0.4-1.7 0.6-1.1 0-2.1-0.2-1.1 0-1.3 0.2-0.2 0.2 0.8 0.5 0.9 0.4 1.9 0.8 1.1 0.4 2.1 0.8 0.9 0.2 1.9 0 0.9-0.4 1.3-1 0.4-0.8 0.7-2.1 0.4-1.5 0.6-2.8 0.2-1.6 1-3.1 0.9-1.7 1.9-2.5 0.9-0.7 1.3-0.3 0.6 0.2 0.2 1.3-0.4 0.9-0.2 3 0.2 1.9 1 3.7 0.5 1.7 2 3.4 1.8 1.7 3.5 2.6 1.5 1 3.2 0.8 1.7-0.2 2.5-1.1 1.5-2.3 0-1-0.8 0.6-2.1 0.6-1.3-0.2-2.5-1-1.3-0.7-2.6-2.3-1.4-1.7-2-3.2-0.7-1.7-0.3-4 0.5-2.5 1.9-4.2 1.5-1.9 4-4 2.4-2.2 4.5-3.6 2.1-1.3 4.8-2.6 2.7-1.4 4.2-1.9 1.5-0.6 1.9 0 0.4 0.5-0.8 2.1-1.1 1.5-3 2.6-1.9 1-3.5 1.3-1.5 0.4-3.2 1.6-1.7 0.9-2.7 2.3-1.7 3.2-0.3 5.1 1.7 1.7 0.9 0.2-0.2-0.6 0-1.5 0.2-1.2 0.8-2.1 1.3-2.3 5.1-3.3 1.5-0.4 2.7 0.2 1.3 0.4 1.3 1.4 0.2 0.9-0.7 2.4-1 1.5-2.3 3.1-1.4 1.5-3.6 2.6-2.3 1.2-4.2 1.6-4.2 0.9 0.5 0.9 2.1 0 4.8-1.1 2.7-1.2 4.2-2.9 1.5-1.5 2.6-3.8 1.2-2.5 1.4-4 0-1.5 1.1-4.2 1.3-2.8 3.1-4.9 1.5-2.5 3.2-4.2 1.7-1.7 2.7-1.9 0.9-0.4 1.5-0.4 0.6-0.2 0.6-0.2 0-0.2 0 0.4 0.1 0.6 0.3 1.5 0.4 1-0.3 3.4-0.8 2.3-1.8 4.8-1.3 2.7-3 5.1-1.7 2.3-3.2 3.3-1.2 0.9-2.7 3-1.3 2.1-1.9 4.2-0.6 2.1-0.4 5.1 0.4 2.9 1.5 4.6 1 1.9 1.4 1.9 0.3 0-0.4-1.9-0.6-1.7-0.8-4.4 0-2.6 0.6-4.3 0.6-1.9 1.5-3.5 1-1.7 1.7-2.1 1.9-0.5 3.3 2.9 0.5 1.5 0.5 3.2 0 1.7-0.5 2.7-1.2 2.1-3.1 2.5-0.5 0.2-0.4 0.3 0.2 0.2 1.2 0.4 0.9 0.2 2.1-0.5 1.3-0.8 2.1-2.3 0.7-1.6 0.7-3.5 0.2-2-0.2-3.6-0.7-1.5-0.7-3.6 0.2-2.3 0.9-4 0.6-1.5 1.2-1.5 0.7 0 1.1 1.5 0.4 1.5 0.4 4.6 0.2 2.8 0.2 5.5-0.2 2.5-0.8 5.7-0.5 3.2-1.5 5.3-0.9 2.1-2.9 3.7-1.7 1.5-3.6 1.9-1.5 0.3-3.6 0-2.1-0.4-3.4-1.2-1.1-0.7-1.9-1.7-0.8-1.1-0.6-2.1 0.2-1.9-0.9 0.6-0.4 1.1 0.3 2.6 0.8 1.6 2.3 2.5 1.6 1 3.8 1.5 2.5 0.6 4.2 0.2 1.7-0.4 3.4-1.1 2-0.8 2.7-1.7 0.8-1 1.2-0.6 0.5 0.2 0.3 1.5-0.2 1.4-1.1 2.9-1 1.3-2.1 2.3-1.1 0.9-2.3 2.1-0.9 0.9-1.3 1.7-0.6 1.7 0.7 3 0.8 0.8 1.6 1.5 0.9 0.8 1.7 1.4 0.7 0.5 0.7 0.3 0.2-0.1-0.3-1.1-0.6-0.9-1.2-1.9-0.4-0.9-0.4-1.7-0.3-1.7 1.9-3.4 1-0.8 1.8-0.8 0.7-0.2 0.9 0.2 0.8 1.1-0.6 3.4-0.3 1-0.7 1.9-0.2 1 0.2 1.4 0.2 0.3 0.5 0.1 0.4-0.1 0.8-0.7 0.4-0.8 0.4-0.4 0.2 0.2 0 1.1-0.2 1 0 2.3 0.4 1.2 0.7 1.9 0.8 1.6 1.9 0 0.4-0.7 0.6-1.9 0.2-1.3 0-2.3-0.4-2.2 0.6-0.7 0.2 0.6 0.6 0.7 0.3 0.2 0.5-0.1 0.4-0.4 0-1.4-0.2-0.9-0.5-1.9-0.4-0.9-0.8-1.9-0.2-1.1 0.2-1.5 0.2-0.4 0.9-0.2 0.8 0 1.7 0.8 1 0.7 1.6 1.7 0.7 0.9 0.5 1.7-0.3 1.5-1.7 3.6-0.5 1-0.5 1.1 0.1 0.2 0.9-0.3 0.8-0.6 1.7-1.4 1-0.7 1.5-1.5 1.4-1.3 0.8-3-0.8-1.9-3.6-3.8-1.2-1-2.1-2.3-1-1.5-1.1-2.9-0.2-1.3 0.1-1.5 0.6-0.4 1.4 0.6 0.7 0.9 2.4 1.7 1.9 0.7 3.7 1.1 1.9 0.4 4.1-0.2 2.5-0.5 4-1.5 1.6-0.9 2.3-2.5 0.8-1.5 0.2-2.6-0.4-1.2-0.7-1.4-0.2-0.1 0 0.8 0.1 1-0.8 2.1-0.8 1-1.9 1.7-1.3 0.8-3.4 1.2-1.9 0.3-3.6 0-1.8-0.4-3.7-1.9-1.9-1.6-2.8-3.7-1-2.1-1.5-5.3-0.6-3.2-0.6-5.7-0.2-2.7 0-5.5 0.2-3.1 0.4-4.6 0.4-1.5 0.9-1.5 0.8 0 1.5 1.5 0.6 1.7 0.6 4 0.2 2.1-0.4 3.6-0.5 1.6-0.5 3.6 0.2 1.9 0.9 3.5 1 1.5 2.1 2.3 1.1 0.7 2.1 0.5 1-0.2 1.1-0.4 0.2-0.1-0.3-0.3-1.8-0.4-2.9-2.5-0.6-1-0.6-2.7 0-1.7 0.4-3.2 1.3-3.4 3.3-2.9 0.9 0.4 1.9 2.1 0.9 1.6 1.3 3.5 0.6 1.7 0.6 4.3 0 2.7-0.8 4.4-1.1 3.8 1.1 0 1-1.7 1.2-4.6 0.4-3-0.2-5.1-0.6-2.1-1.9-4.2-1.3-2.1-2.9-3-1.3-1-3-3.3-1.7-2.4-2.9-5.1-1.1-2.5-1.9-4.8-0.7-2.4-0.3-3.4 0.1-0.9 0.1-1.5 0.2-0.6 0.2-0.6 0 0 0.6 0.2 0.6 0.2 1.5 0.6 1 0.2 2.7 1.9 1.7 1.7 3.4 4v0.2q1.5 2.1 2.7 4.9 1.3 2.7 1.5 4.2 0 1.5 1.1 3.8 1.2 2.3 2.7 4 1.7 1.7 4.4 2.9 2.6 1.1 4.7 1.1 4.8 0 0.4-0.9-1.9-0.4-4.2-1.6-2.3-1.1-3.6-2.6-1.3-1.6-2.3-3.1-0.7-1.5-0.7-2.4 0.4-2.1 4.2-1.6 1.5 0.4 3 1.4 1.5 0.7 2.1 1.7 0.4 0.9 0.6 2.1 0.3 0.9 0 1.7-0.4 0.5 0 0.5 0.3-0.1 0.9-0.9 0.6-0.8 0.4-2.1 0-1.3-0.8-2.8-0.7-1.4-2.4-2.3-1.8-1.2-3.5-1.6-1.5-0.3-3.4-1.3-1.9-1.1-3-2.6-1-1.6-0.8-2.1 0.4-0.6 1.9 0 1.5 0.3 4.2 1.7 2.7 1.3 4.8 2.8 2 1.4 4.5 3.6 2.7 2.1 4 3.8 1.3 1.9 1.7 4.4 0.6 2.3-0.2 4-0.5 1.5-1.9 3.2-1.3 1.6-2.6 2.3-1.2 0.8-2.5 1-1.3 0-2.1-0.6-1.1-0.9 0.2 1 0.8 0.9 2.3 1.1 1.7 0.2 3.4-0.8 1.7-0.9 3.2-2.6 1.6-1.7 2.3-3.4 0.6-1.8 0.8-3.7 0.2-2.1-0.2-3.2-0.4-0.9 0-1.1 0.6-0.4 1.5 0.3 1.2 0.8 1.9 2.3 0.8 1.6 1 3.1 0.2 1.5 0.5 3 0.4 1.3 1 1.9 0.9 1.7 3 1 1-0.2 1.9-0.6 1.2-0.4 2.1-0.8 1.5-0.7-0.4-0.7-0.9 0-2.2 0-1.2 0-1.7-0.4-0.6-0.2-1.2-1.1-0.6-1-0.8-2.1-0.3-2.9 1-2.9 0.4 0 1.1 0.8 1 0.5 1.4 1.5 1.3 2.1 2.6 2.1 1 0 0-1.3-0.9-1.6 1 0 1.9 1.3 3.8 1.3z"/>
							<path id="Snowflake copy 8" class="s7" aria-label="E"  d="m74.1 266.7q1.2 0 0.6-1-0.2-0.5-0.9-0.9-0.6-0.5-1.2-0.8-0.6-0.2-0.7-0.4 0-0.1 0.5-0.1 1.2 0 0.7-0.5-0.1-0.2-0.7-0.5-0.6-0.2-1.3-0.2-0.7-0.1-1.3-0.3-0.6-0.2-0.8-0.4-0.4-0.8 1.3-1.4 0.7-0.2 1.5-0.2 0.7-0.2 0.9 0.2 0.8 0.6 1.5 2 0.6 1.4 0.6 0.1-0.1-0.6-0.2-1.4-0.1-0.7-0.4-1.3-0.1-0.6-0.6-1-0.4-0.5-0.9-0.5-0.5-0.1-1.4 0.1-0.9 0.3-1.9 0.6-0.8 0.5-2 0.5-1.1 0-1.8-0.2-1.6-0.9-0.1-1.2 0.7-0.2 1.8-0.8 1.1-0.7 1.7-1.7 0.8-1 1.3-2.3 0.5-1.5 0.5-2.7-0.2-1.3-0.8-2.1-0.6-0.9-1.3-1-0.8-0.1-1 0-0.3 0 0.4 0.2 0.6 0.3 0.8 1 0.4 0.8 0.5 1.7 0 1-0.5 2.3-0.5 1.2-1.1 2-0.7 1-2.3 1.6-1.5 0.5-2.9 0.3-1.4-0.3-3.5-0.9-2-0.7-3.5-1.5-1.3-0.8-2.9-1.8-1.6-1.1-2.5-1.7-1.8-1.6 0.9-1.2 1.1 0.1 2.3 0.7 1.4 0.6 2 1.5 0.6 0.8 1.8 1.4 1.3 0.7 2.3 0.7 0.9 0 1.7-0.4 0.8-0.5 1.1-1.1 0.2-0.6 0.1-0.8 0-0.2-0.2 0.2-0.7 0.8-2.3 0.8-0.7 0-1.7-0.5-1-0.6-1.7-1.4-0.6-0.8-0.9-1.5-0.1-0.9 0.4-1.1 0.5-0.4 1.6-0.4 1.2 0 2.5 0.3 1.2 0.2 2.5 1.1 1.5 0.8 2.4 1.8 0.8 1 0.8 0.9 0.2-0.2-0.6-1.4-0.6-1.2-2.2-2.3-1.5-1.1-2.8-1.5-1.4-0.4-3.1-0.2-1.6 0-2.6 0.4-1 0.5-2.8 0.8-1.8 0.2-3.7 0-1.8-0.3-3.4-0.6-1.5-0.4-1.9-0.8-1-1 0-1.9 0.4-0.4 1.9-0.8 1.6-0.3 3.4-0.6 1.9-0.2 3.7 0 1.8 0.3 2.8 0.7 1 0.5 2.6 0.7 1.6 0 3.1-0.4 1.3-0.4 2.8-1.5 1.6-1.1 2.2-2.3 0.8-1.2 0.6-1.4 0-0.1-0.8 0.9-0.9 1-2.4 1.8-1.3 0.9-2.5 1.1-1.3 0.3-2.5 0.3-1.1 0-1.6-0.4-0.5-0.2-0.4-1 0.3-0.8 0.9-1.6 0.7-0.8 1.7-1.3 1-0.6 1.7-0.6 1.6 0 2.3 0.8 0.6 0.8 0.1-0.6-0.3-0.6-1.1-1-0.8-0.5-1.7-0.5-1 0-2.3 0.7-1.2 0.6-1.8 1.4-0.6 0.9-2 1.5-1.3 0.6-2.4 0.7-1.1 0.3-1.4-0.1-0.2-0.4 0.6-1.1 0.9-0.6 2.5-1.6 1.6-1.1 2.9-2 1.5-0.7 3.5-1.3 2.1-0.7 3.5-1 1.4-0.2 2.9 0.4 1.6 0.5 2.3 1.5 0.6 0.8 1.1 2 0.5 1.3 0.5 2.3-0.1 0.9-0.5 1.7-0.2 0.7-0.8 1-0.7 0.2-0.4 0.3 0.2 0 1-0.1 0.7-0.1 1.3-1 0.6-0.8 0.8-2.1 0-1.2-0.5-2.5-0.5-1.5-1.3-2.5-0.6-1-1.7-1.6-1.1-0.7-1.8-0.9-1.5-0.3 0.1-1.2 0.7-0.2 1.8-0.2 1.2 0 2 0.4 1 0.4 1.9 0.7 0.9 0.2 1.4 0.1 0.5 0 0.9-0.4 0.5-0.5 0.6-1.1 0.3-0.6 0.4-1.3 0.1-0.8 0.2-1.4 0-1.4-0.6 0.1-0.7 1.4-1.5 2-0.2 0.4-1.1 0.4-0.7-0.2-1.3-0.4-1.7-0.6-1.3-1.4 0.2-0.2 0.8-0.3 0.6-0.3 1.3-0.4 0.7 0 1.3-0.2 0.6-0.3 0.7-0.5 0.5-0.5-0.7-0.5-0.5 0-0.5-0.2 0.1-0.1 0.7-0.3 0.6-0.3 1.2-0.8 0.7-0.4 0.9-0.9 0.6-1-0.6-1-1.2 0-2.5 0.8-1.2 1-0.6 0 0.6-0.8-0.1-0.8-0.7 0-1.6 1.3-0.4 0.6-0.9 1.1-0.5 0.4-0.7 0.4-0.9 0-0.6-1.8 0.1-0.8 0.5-1.4 0.3-0.6 0.7-0.7 0.4-0.3 1.1-0.3 0.8 0 1.5 0 1.2 0 0.2-0.5-0.6-0.2-1.3-0.5-0.6-0.2-1.2-0.3-1.3-0.4-2.1 0.6-0.3 0.4-0.5 1.3-0.3 0.9-0.4 1.9-0.1 1-0.6 1.9-0.5 1-1.2 1.5-0.7 0.5-1 0.4-0.3-0.3 0-0.9 0.2-0.7 0.1-1.9-0.1-1.4-0.5-2.5-0.5-1.1-1.5-2.2-1-1.1-2.1-1.7-1.1-0.6-2.2-0.5-1 0.1-1.5 0.7-0.6 0.6-0.6 0.9 0 0.1 0.5-0.3 0.5-0.3 1.4-0.2 0.8 0 1.6 0.5 0.8 0.5 1.7 1.6 0.9 1 1.2 1.9 0.5 1.2 0.2 2.7-0.3 1.5-1.2 2.8-0.8 1.1-2.5 2.5-1.6 1.4-3 2.3-1.3 0.9-3.1 1.8-1.7 0.9-2.7 1.1-1 0.4-1.2 0-0.1-0.4 0.5-1.3 0.7-1 2-1.6 1.2-0.8 2.2-1 1.1-0.3 2.2-0.9 1.1-0.7 1.6-1.6 0.5-1 0.5-1.8 0.1-0.9-0.3-1.4-0.3-0.5-0.6-0.5-0.2-0.1 0 0.3 0.4 0.9-0.5 2.4-0.2 0.6-1.2 1.3-1 0.4-2 0.7-2.4 0.4-2.7-1 0-0.6 0.5-1.6 0.6-1 1.5-2 0.8-0.9 2.3-1.7 1.5-0.7 2.7-1 2.9-0.6-0.2-0.6-1.4 0-3.1 0.8-1.7 0.7-2.8 1.8-1 1.1-1.7 2.6-0.8 1.5-0.9 2.4 0 1-0.9 2.9-0.7 1.7-1.7 3.1v0.1q-1.1 1.5-2.2 2.6-1.1 1.1-1.7 1.2-0.6 0.2-1 0.4-0.4 0.1-0.4 0.1 0 0-0.1-0.4 0-0.4-0.1-1-0.3-0.6 0.2-2.1 0.5-1.6 1.3-3.2 0.7-1.7 1.8-3.2 1.1-1.6 2-2.2 1-0.6 1.8-1.9 0.9-1.4 1.2-2.7 0.4-1.4 0.2-3.2-0.2-2-0.8-3.1-1.4-2.4-0.7 0 0.5 1.1 0.5 2.8 0 1.7-0.4 2.8-0.2 1.3-0.8 2.4-0.7 1-1.3 1.2-1.2 0.4-2.1-1.8-0.2-1-0.2-2.1 0-1.1 0.4-1.8 0.7-1.3 1.8-1.6 0.4-0.1 0.2-0.2-0.1-0.1-0.7-0.2-0.6-0.2-1.3 0.3-0.8 0.5-1.4 1.5-0.5 1-0.6 2.3 0 1.3 0.4 2.2 0.3 1 0.2 2.5 0 1.4-0.4 2.5-0.5 1-1 1-0.3 0-0.6-1-0.1-1-0.2-2.9-0.1-1.9 0-3.6 0-1.6 0.4-3.7 0.3-2.1 0.9-3.5 0.7-1.3 1.9-2.3 1.2-1 2.3-1.3 1.1-0.2 2.4 0 1.3 0.3 2.2 0.8 0.7 0.5 1.2 1.2 0.6 0.8 0.5 1.4-0.1 0.6 0 0.5 0.2-0.3 0.5-1 0.4-0.8-0.1-1.7-0.5-1-1.5-1.6-1-0.7-2.6-1-1.5-0.4-2.7-0.2-1.1 0.3-2.3 0.8-1.1 0.5-1.6 1.1-0.5 0.6-0.9 0.5-0.2-0.3-0.1-1.1 0.1-0.9 0.7-1.7 0.6-1 1.4-1.6 1.8-1.3 2.3-2.5 0.4-1.1-0.5-2-0.4-0.5-1-1-0.6-0.4-1.1-0.8-0.5-0.4-0.6-0.3 0 0.2 0.4 0.8 0.3 0.6 0.6 1.3 0.4 0.6 0.5 1 0.1 0.5-0.4 1.1-0.4 0.6-1 1.1-0.6 0.5-1.1 0.6-0.5 0-0.6-0.2-0.2-0.2-0.1-0.9 0.2-0.7 0.5-1.3 0.2-0.6 0.3-1.2 0.3-0.7 0-0.9-0.1-0.3-0.3-0.1-0.3 0.1-0.4 0.5-0.6 0.9-0.4-0.5 0.2-0.6 0-1.4-0.1-0.8-0.3-1.2-0.3-0.5-0.6-0.5-0.4 0-0.7 0.5-0.7 1-0.5 2.6 0.2 0.6 0 0.8 0 0.2-0.2-0.3-0.2-0.4-0.5-0.5-0.2-0.2-0.4 0.1-0.2 0.2-0.1 0.9 0.3 0.6 0.5 1.2 0.9 1.5 0.4 2.2-0.1 0.2-0.6 0.2-0.5-0.1-1.1-0.6-1.5-1-1.3-2.2 0-0.4 0.3-1 0.3-0.7 0.7-1.3 0.4-0.6 0.3-0.8 0-0.1-0.5 0.3-0.5 0.4-1.1 0.8-0.5 0.5-1 1-0.9 0.9-0.5 2 0.2 0.5 0.8 1.2 0.8 0.6 1.5 1.3 0.8 0.6 1.4 1.6 0.6 0.8 0.7 1.7 0.1 0.8-0.2 1.1-0.3 0.1-0.8-0.5-0.5-0.6-1.7-1.1-1.1-0.5-2.2-0.8-1.1-0.2-2.7 0.2-1.5 0.3-2.5 1-1 0.6-1.5 1.6-0.4 0.9-0.2 1.7 0.7 1.6 0.6 0.5-0.1-0.6 0.4-1.4 0.5-0.7 1.2-1.2 0.9-0.5 2.2-0.8 1.4-0.2 2.4 0 1.2 0.3 2.3 1.3 1.2 1 1.8 2.3 0.7 1.4 1 3.5 0.4 2.1 0.5 3.7 0 1.7-0.1 3.6 0 1.9-0.2 2.9-0.3 1-0.8 1-0.4 0-0.7-1-0.5-1.1-0.6-2.5 0-1.5 0.5-2.5 0.2-0.9 0.1-2.2 0-1.3-0.5-2.3-0.5-1-1.4-1.5-0.7-0.5-1.3-0.3-0.6 0.1-0.8 0.2-0.1 0.1 0.3 0.2 1.2 0.3 2 1.6 0.3 0.7 0.3 1.8 0 1.1-0.3 2.1-0.9 2.2-2.1 1.8-0.5-0.2-1.1-1.2-0.7-1.1-1-2.4-0.4-1.1-0.4-2.8 0.1-1.7 0.5-2.8 0.5-1.3 0.2-1.3-0.2 0-0.8 1.3-0.8 1.1-1 3.1-0.1 1.8 0.2 3.2 0.4 1.3 1.3 2.7 1 1.3 1.7 1.9 1 0.6 2.1 2.2 1.1 1.5 2 3.2 0.6 1.6 1.1 3.2 0.5 1.5 0.2 2.1-0.2 1.4-1.6 0.9-0.6-0.1-1.7-1.2-1.1-1.1-2.1-2.7-1.1-1.4-2-3.1-0.7-1.9-0.7-2.9 0-0.9-0.9-2.4-0.7-1.6-1.7-2.6-1-1.1-2.7-1.8-1.7-0.8-3.1-0.8-3 0-0.3 0.6 1.2 0.3 2.7 1 1.4 0.8 2.3 1.7 0.9 1 1.5 2 0.6 1 0.5 1.6 0 0.6-0.9 1-0.7 0.2-1.7 0-2.5-0.6-3.3-2.1-0.9-1.4-0.4-2.3 0.2-0.9-0.7 0.1-0.9 1.2 0.2 3.3 0.6 0.9 1.7 1.6 1.1 0.6 2.1 0.9 1 0.2 2.2 1 1.3 0.6 2 1.6 0.7 0.9 0.5 1.3-0.3 0.4-1.2 0-1-0.4-2.7-1.2-1.8-0.9-3.1-1.7-1.4-0.9-3-2.3-1.6-1.4-2.6-2.7-0.8-1.1-1.2-2.6-0.2-1.5 0.3-2.7 0.3-0.9 1.2-1.9 0.9-1.1 1.7-1.6 0.8-0.5 1.6-0.5 1-0.1 1.4 0.2 1 0.9 0-0.6-0.5-0.6-1.6-0.7-1.1-0.1-2.1 0.5-1.1 0.6-2.2 1.7-1 1.1-1.4 2.2-0.5 1.1-0.6 2.5-0.1 1.2 0.1 1.8 0.3 0.7-0.1 1-0.3 0.1-0.9-0.4-0.6-0.5-1.2-1.5-0.5-1.1-0.6-2-0.1-0.9-0.4-1.8-0.2-0.9-0.5-1.4-0.2-0.4-0.8-0.5-0.6-0.3-1.3-0.2-0.6 0.3-1.3 0.5-0.6 0.3-1.2 0.5-0.7 0.3-0.5 0.4 0.2 0.1 0.8 0.1 1.5-0.2 2.6 0.3 0.4 0.1 0.6 0.7 0.4 0.6 0.5 1.4 0.3 0.7 0 1.3-0.2 0.5-0.5 0.5-0.3 0-0.8-0.4-0.5-0.5-0.9-1.1-0.9-1.3-1.6-1.3-0.7 0-0.1 0.8 0.2 0.4 0.1 0.5-0.1 0-0.6-0.5-1.4-0.8-2.6-0.8-1 0-0.6 1 0.2 0.5 0.8 0.9 0.7 0.5 1.3 0.8 0.6 0.2 0.7 0.3 0.1 0.2-0.4 0.2-1.3-0.3-0.8 0.5 0.5 0.7 2.1 0.7 0.6 0.1 1.2 0.4 0.6 0.1 0.9 0.3 0.2 0.3-0.3 0.8-0.3 0.3-1.1 0.6-1.6 0.6-2.4 0-0.3-0.3-0.8-0.9-0.5-0.6-0.7-1.2-0.6-1.2-0.6 0 0.1 0.6 0.2 1.4 0.1 0.7 0.4 1.3 0.2 1.2 1.5 1.5 0.6 0.1 1.4-0.1 1-0.3 1.9-0.7 0.8-0.4 1.9-0.4 1.3 0 1.9 0.2 1.7 0.9 0.1 1.2-0.7 0.2-1.8 0.9-1 0.6-1.8 1.6-0.7 1-1.2 2.5-0.5 1.3-0.4 2.5 0 1.3 0.7 2.1 0.6 0.9 1.3 1 2 0.3 0.6-0.2-0.5-0.3-0.8-1-0.4-0.8-0.5-1.7 0-1 0.5-2.3 0.5-1.2 1.2-2 0.7-1 2.2-1.5 1.5-0.6 3-0.4 1.3 0.3 3.3 1 2.1 0.6 3.6 1.3 1.4 0.8 3 1.9 1.6 1.1 2.5 1.7 1.8 1.6-0.9 1.2-1.1-0.1-2.4-0.7-1.3-0.7-1.9-1.6-0.7-0.7-1.9-1.3-1.2-0.7-2.1-0.7-1 0-1.9 0.5-0.8 0.4-1.1 1-0.5 1.4 0.3 0.6 0.2-0.3 0.8-0.6 0.6-0.2 1.4-0.2 0.6 0 1.6 0.6 1 0.5 1.7 1.2 0.7 0.9 0.9 1.7 0.2 0.8-0.3 1-0.6 0.4-1.7 0.4-1.1 0-2.5-0.3-1.2-0.2-2.7-1.1-1.3-0.8-2.2-1.8-0.9-1-1-0.9 0 0.2 0.8 1.4 0.6 1.2 2 2.3 1.6 1.1 3 1.5 1.5 0.4 3.1 0.4 1.6-0.2 2.6-0.7 0.9-0.4 2.8-0.7 2-0.2 3.7 0 1.8 0.3 3.3 0.6 1.6 0.4 2.1 0.8 0.4 0.5 0.6 0.7 0.4 0.2 0.4 0.2 0 0-0.4 0.3-0.2 0.2-0.6 0.7-0.5 0.4-2.1 0.8-1.5 0.3-3.3 0.6-1.7 0.2-3.7 0-1.9-0.3-2.8-0.8-1-0.4-2.6-0.4-1.6-0.2-3.1 0.2-1.4 0.4-3 1.5-1.4 1.1-2 2.3-0.8 1.2-0.8 1.4 0.1 0.1 1-0.9 0.9-1 2.2-1.8 1.5-0.9 2.7-1.1 1.4-0.3 2.5-0.3 1.1 0 1.6 0.4 0.6 0.2 0.4 1.1-0.2 0.7-0.9 1.6-0.7 0.7-1.7 1.3-1 0.5-1.6 0.5-1.8 0-2.4-0.8-0.2-0.3-0.3-0.2 0 0.2 0.2 0.8 0.3 0.6 1.1 1.1 0.9 0.4 1.9 0.4 0.9 0 2.1-0.7 1.2-0.6 1.9-1.3 0.6-0.9 1.9-1.5 1.2-0.7 2.4-0.8 2.5-0.4 0.9 1.2-0.9 0.6-2.5 1.7-1.6 1.1-3 1.8-1.5 0.8-3.6 1.5-2 0.6-3.3 0.9-1.5 0.2-3-0.3-1.5-0.6-2.2-1.6-0.7-0.8-1.2-2-0.5-1.3-0.5-2.3 0.1-0.9 0.5-1.7 0.3-0.7 0.8-1 1.4-0.5-0.6-0.2-0.7 0.1-1.3 1-0.7 0.8-0.7 2.1-0.1 1.2 0.4 2.7 0.5 1.3 1.2 2.3 0.8 1 1.8 1.7 1.1 0.6 1.8 0.8 1.5 0.3-0.1 1.2-0.8 0.2-1.9 0.2-1.1 0-1.9-0.5-0.9-0.3-1.9-0.6-0.8-0.2-1.4-0.1-1.3 0.3-1.5 1.5-0.3 0.6-0.4 1.3-0.1 0.8-0.2 1.4 0 1.2 0.6 0 0.2-0.6 0.7-1.2 0.5-0.7 0.8-0.9 0.8-0.6 2.4 0 0.8 0.2 1.1 0.7 0.5 0.4 0.3 0.7-0.3 0.2-0.9 0.4-0.6 0.2-1.2 0.3-1.6 0-2.1 0.7-0.5 0.8 0.7 0.5 0.6 0 0.5 0.1-0.1 0.2-0.7 0.4-0.6 0.3-1.3 0.8-0.6 0.4-0.8 0.9-0.4 1 0.6 1 1.4 0 2.5-0.8 0.6-0.5 0.7-0.4 0.1 0-0.1 0.4-0.6 0.8 0.1 0.8 0.7 0 1.6-1.3 0.4-0.6 0.9-1 0.5-0.5 0.8-0.5 0.3 0 0.4 0.6 0.2 0.5 0.1 1.2-0.1 0.8-0.5 1.4-0.2 0.6-0.7 0.7-0.4 0.3-1.1 0.4-0.8 0-1.4-0.1-0.7 0-0.8 0.1-0.2 0.1 0.5 0.4 0.6 0.2 1.2 0.5 0.7 0.2 1.3 0.4 0.7 0.2 1.3 0 0.6-0.2 0.8-0.6 0.3-0.5 0.5-1.3 0.3-1 0.4-1.9 0.1-0.9 0.6-1.9 0.6-1.1 1.2-1.6 0.6-0.5 0.9-0.3 0.4 0.1 0.1 0.9-0.2 0.6-0.1 2 0.1 1.2 0.6 2.3 0.4 1.1 1.4 2.2 1.1 1.1 2.2 1.7 1 0.6 2.1 0.5 1.1-0.1 1.6-0.7 1-1.5 0-0.6-0.5 0.3-1.4 0.3-0.8-0.1-1.6-0.6-0.8-0.5-1.7-1.5-0.9-1.1-1.2-2-0.5-1.2-0.3-2.6 0.4-1.6 1.2-2.7 1-1.3 2.6-2.6 1.6-1.5 3-2.4 1.3-0.8 3.1-1.7 1.7-0.8 2.7-1.2 0.9-0.4 1.2 0 0.2 0.4-0.5 1.3-0.7 1-2 1.8-1.2 0.6-2.2 0.8-1 0.3-2.1 1-1.1 0.6-1.7 1.5-1.1 2.1-0.2 3.3 1.1 1.1 0.6 0.1-0.1-0.3 0-1 0.1-0.7 0.5-1.3 0.8-1.5 3.3-2.1 1-0.2 1.7 0.1 0.9 0.3 0.9 0.9 0.1 0.6-0.5 1.6-0.6 1-1.5 2-0.9 0.9-2.3 1.7-1.5 0.7-2.7 1-2.7 0.6 0.3 0.6 1.4 0 3.1-0.8 1.7-0.7 2.7-1.8 1-1 1.7-2.5 0.8-1.6 0.9-2.6 0-0.9 0.7-2.7 0.9-1.8 2-3.2 1-1.6 2.1-2.7 1.1-1.1 1.7-1.2 0.6-0.2 1-0.2 0.4-0.2 0.4-0.2 0-0.1 0 0.3 0.1 0.4 0.2 1 0.3 0.6-0.2 2.2-0.5 1.5-1.1 3.1-0.9 1.7-2 3.3-1.1 1.5-2.1 2.1-0.7 0.6-1.7 1.9-0.9 1.4-1.3 2.7-0.3 1.4-0.2 3.4 0.2 1.8 1 2.9 0.6 1.2 0.8 1.2 0.3 0-0.2-1.2-0.4-1.1-0.5-2.8 0-1.7 0.4-2.8 0.3-1.3 1-2.3 0.6-1.1 1.1-1.3 1.2-0.4 2.1 1.8 0.3 1 0.3 2.1 0 1.1-0.3 1.7-0.8 1.4-2 1.6-0.4 0.2-0.3 0.3 0.2 0.1 0.8 0.2 0.6 0.2 1.3-0.3 0.9-0.5 1.4-1.5 0.5-1 0.5-2.2 0.1-1.4-0.1-2.4-0.5-0.9-0.5-2.3 0.1-1.5 0.6-2.6 0.3-1 0.7-1 0.5 0 0.8 1 0.2 1 0.2 3 0.1 1.8 0.1 3.5-0.1 1.6-0.5 3.7-0.3 2.1-1 3.5-0.6 1.3-1.8 2.3-1.1 1-2.3 1.2-1 0.3-2.4 0-1.3-0.2-2.2-0.7-0.7-0.5-1.2-1.1-0.5-0.7-0.4-1.4 0.1-1.2-0.6 0.4-0.2 0.8 0.2 1.7 0.5 1 1.5 1.6 1 0.7 2.5 1 1.6 0.4 2.7 0.1 1.1-0.2 2.2-0.7 1.2-0.5 1.7-1.1 0.5-0.6 0.8-0.4 0.3 0.2 0.2 1-0.1 0.9-0.7 1.9-0.6 0.8-1.4 1.4-0.7 0.7-1.5 1.4-0.6 0.6-0.8 1.1-0.4 1.1 0.5 2 0.5 0.5 1 0.9 0.6 0.5 1.1 0.9 0.5 0.4 0.5 0.3 0.1-0.2-0.3-0.8-0.4-0.6-0.7-1.2-0.3-0.6-0.3-1.1-0.2-1.1 1.3-2.2 0.6-0.5 1.1-0.5 0.5-0.1 0.6 0.1 0.5 0.7-0.4 2.2-0.2 0.6-0.5 1.2-0.1 0.7 0.1 0.9 0.2 0.2 0.4 0.1 0.3-0.1 0.5-0.5 0.2-0.5 0.2-0.2 0.2 0.1 0 0.7-0.1 0.6 0 1.5 0.3 0.7 0.5 1.2 0.5 1 1.3 0 0.2-0.5 0.3-1.2 0.2-0.9 0-1.5-0.2-1.5 0.4-0.5 0.1 0.4 0.4 0.5 0.2 0.1 0.3-0.1 0.3-0.2 0-0.9-0.1-0.6-0.3-1.2-0.3-0.6-0.5-1.2-0.1-0.8 0.1-1 0.1-0.2 0.6-0.1 0.5 0 1.1 0.5 0.6 0.5 1 1.1 0.5 0.6 0.4 1.1-0.3 1-1.1 2.3-0.4 0.6-0.4 0.8 0.1 0.1 0.6-0.3 0.5-0.4 1.1-0.9 0.6-0.4 1-0.9 0.9-0.9 0.5-2-0.5-1.2-2.3-2.5-0.8-0.6-1.4-1.4-0.6-1-0.7-1.9-0.1-0.8 0.1-1 0.4-0.2 0.9 0.4 0.5 0.6 1.6 1.1 1.2 0.5 2.3 0.7 1.2 0.3 2.7-0.1 1.6-0.3 2.6-1 1-0.6 1.5-1.6 0.5-0.9 0.1-1.7-0.3-0.7-0.5-0.8-0.1-0.2 0 0.4 0.1 0.7-0.5 1.4-0.5 0.6-1.2 1.1-0.9 0.5-2.2 0.7-1.3 0.3-2.4 0-1.1-0.2-2.3-1.2-1.2-1-1.9-2.3-0.6-1.4-0.9-3.5-0.4-2.1-0.4-3.7-0.1-1.7 0-3.5 0.1-2 0.2-3 0.3-1 0.6-1 0.5 0 1 1 0.4 1.1 0.4 2.6 0.1 1.4-0.2 2.3-0.4 1-0.4 2.4 0.1 1.2 0.6 2.2 0.6 1 1.4 1.5 0.7 0.5 1.3 0.3 0.6-0.1 0.7-0.2 0.2-0.1-0.2-0.3-1.1-0.2-1.8-1.6-0.4-0.6-0.4-1.7 0-1.1 0.2-2.1 0.9-2.2 2.1-1.8 0.6 0.2 1.3 1.3 0.6 1 0.8 2.3 0.4 1.1 0.4 2.8 0 1.7-0.5 2.8-0.7 2.5 0.7 0 0.6-1.1 0.8-2.9 0.2-2-0.2-3.4-0.3-1.3-1.2-2.7-0.8-1.3-1.8-1.9-0.9-0.6-2-2.1-1.1-1.6-1.8-3.3-0.8-1.6-1.3-3.1-0.5-1.6-0.2-2.2 0.1-0.6 0.1-1 0.1-0.4 0.1-0.4 0 0 0.4 0.1 0.4 0.2 1 0.4 0.6 0.1 1.7 1.2 1.1 1.1 2.2 2.6v0.1q1 1.4 1.7 3.2 0.9 1.8 1 2.7 0 1 0.8 2.5 0.7 1.5 1.7 2.6 1.1 1.1 2.8 1.8 1.7 0.8 3.1 0.8 3.1 0 0.2-0.6-1.2-0.3-2.7-1-1.5-0.8-2.3-1.7-0.9-1-1.5-2-0.5-1-0.5-1.6 0.3-1.4 2.7-1 1 0.2 2 0.9 1 0.5 1.3 1.1 0.3 0.6 0.4 1.3 0.3 0.6 0 1.1-0.2 0.4 0 0.4 0.3-0.1 0.6-0.6 0.4-0.5 0.3-1.4 0-0.8-0.5-1.8-0.5-0.9-1.6-1.5-1.1-0.7-2.2-1-1-0.2-2.2-0.8-1.3-0.8-2-1.8-0.6-0.9-0.5-1.3 0.2-0.4 1.2 0 1 0.2 2.7 1.1 1.8 0.9 3.1 1.8 1.4 0.9 3 2.4 1.7 1.3 2.5 2.4 0.9 1.3 1.2 2.9 0.3 1.4-0.2 2.6-0.3 0.9-1.2 2-0.9 1-1.7 1.5-0.8 0.5-1.6 0.6-0.9 0-1.4-0.3-0.7-0.7 0.1 0.6 0.5 0.6 1.5 0.7 1.1 0.1 2.2-0.5 1.1-0.6 2.1-1.7 1-1.1 1.5-2.2 0.4-1.1 0.5-2.3 0.1-1.4-0.1-2.1-0.3-0.7 0-0.8 0.3-0.2 1 0.3 0.7 0.5 1.2 1.4 0.5 1 0.6 2 0.1 1 0.4 2 0.2 0.8 0.6 1.2 0.6 1.1 2 0.6 0.6-0.1 1.2-0.3 0.7-0.3 1.3-0.5 1-0.5-0.2-0.5-0.6 0-1.5 0-0.7 0-1.1-0.3-0.4-0.1-0.7-0.7-0.4-0.6-0.5-1.4-0.3-1.8 0.6-1.8 0.2 0 0.7 0.5 0.6 0.4 0.9 1 0.9 1.3 1.7 1.3 0.6 0 0-0.8-0.6-1 0.6 0 1.3 0.8 2.5 0.8z"/>
						</g>
					</g>
				</g>
			</g>
		</g>
	</g>
</svg>