<svg version="1.2" xmlns="http://www.w3.org/2000/svg" viewBox="0 0 1695 684" width="1695" height="684">
	<title>Layer 1</title>
	<defs>
		<clipPath clipPathUnits="userSpaceOnUse" id="cp1">
			<path d="m1462.62 568.61h-1204.61c-92.91 0-168.22-75.31-168.22-168.21v-112.85c0-92.91 75.31-168.22 168.22-168.22h1204.61c92.91 0 168.22 75.31 168.22 168.22v112.85c0 92.9-75.31 168.21-168.22 168.21z"/>
		</clipPath>
	</defs>
	<style>
		.s0 { fill: #5bb3cc } 
		.s1 { fill: #70bbcc } 
		.s2 { fill: #c8eeff } 
		.s3 { fill: #eafbff } 
		.s4 { fill: #98dcff } 
		.s5 { opacity: .6;fill: #78c3ff } 
		.s6 { opacity: .4;fill: #f0fffe } 
		.s7 { fill: #ffffff } 
	</style>
	<g id="Layer 1">
		<g id="&lt;Group&gt;">
			<g id="&lt;Group&gt;">
				<g id="&lt;Group&gt;">
					<g id="-e-">
						<g id="BTN">
							<path id="&lt;Path&gt;" class="s0" d="m1481.2 593.2h-1231.8c-96.7 0-175-78.3-175-175v-123.8c0-96.7 78.3-175.1 175-175.1h1231.8c96.6 0 175 78.4 175 175.1v123.8c0 96.7-78.4 175-175 175z"/>
							<path id="&lt;Path&gt;" class="s1" d="m1469.2 584h-1207.8c-94.8 0-171.6-76.8-171.6-171.6v-121.4c0-94.8 76.8-171.7 171.6-171.7h1207.8c94.8 0 171.6 76.9 171.6 171.7v121.4c0 94.8-76.8 171.6-171.6 171.6z"/>
							<path id="&lt;Path&gt;" class="s2" d="m1462.6 568.6h-1204.6c-92.9 0-168.2-75.3-168.2-168.2v-112.9c0-92.9 75.3-168.2 168.2-168.2h1204.6c92.9 0 168.2 75.3 168.2 168.2v112.9c0 92.9-75.3 168.2-168.2 168.2z"/>
							<path id="&lt;Path&gt;" class="s3" d="m1555.7 147.4c-320.4-37.9-1133.6-0.7-1289.5 19.9-85.9 11.4-141.7 69-176.4 125.2v-5c0-92.9 75.3-168.2 168.2-168.2h1204.6c34.4 0 66.4 10.4 93.1 28.1z"/>
							<path id="&lt;Path&gt;" class="s4" d="m618.4 521.7c162.2 46.9 439.7-4.3 533.6 0 93.9 4.2 188.4-61.8 403.7-5.3 7.6 2 14.9 4.2 22.1 6.5-30.1 28.3-70.6 45.7-115.2 45.7h-1204.6c-58.6 0-110.2-30-140.4-75.5 129.6-3.6 382.8-5.6 500.8 28.6z"/>
							<path id="&lt;Path&gt;" class="s5" d="m1462.6 568.6h-576.4c245.5-67.9 469.8-199 557.5-449.3h18.9c92.9 0 168.2 75.3 168.2 168.2v112.9c0 92.9-75.3 168.2-168.2 168.2z"/>
							<g id="&lt;Clip Group&gt;" clip-path="url(#cp1)">
								<g id="&lt;Group&gt;">
									<path id="&lt;Path&gt;" class="s6" d="m36.2 252.5c16.5-3.1 32.6-8.1 48.4-13.6 15.8-5.5 31.5-11.3 47.7-15.8 8.1-2.2 16.3-4.1 24.7-5.3 4.2-0.7 8.4-1 12.6-1.4 1-0.1 2.1-0.1 3.1-0.1l3.2-0.1c2.1 0 4.2-0.1 6.3 0 17 0.5 33.5 4.4 49.8 8.2 8.2 1.9 16.3 3.9 24.5 5.6 2 0.3 4 0.8 6.1 1.1l6.2 1c2 0.3 4.1 0.5 6.2 0.8 2 0.2 4.1 0.5 6.2 0.7l6.2 0.6 6.2 0.4 3.1 0.2 3.2 0.1 6.2 0.2q12.5 0.2 25-0.2c16.7-0.6 33.4-1.9 50.1-3.4 8.3-0.7 16.7-1.4 25.1-2.1 8.3-0.6 16.7-1.2 25.1-1.8 66.9-4.5 134.2-5.2 201.2-2.3 33.6 1.5 67.1 3.9 100.5 7.2 33.4 3.3 66.7 7.6 99.9 12.4 33.1 4.8 66.3 9.3 99.6 10 8.3 0.2 16.6 0 25-0.2 4.1-0.2 8.3-0.3 12.4-0.6l6.3-0.4 6.2-0.5c16.6-1.3 33.2-3.4 49.7-5.8 16.6-2.4 33.1-5.3 49.6-8.2l49.5-8.7c16.5-3 32.9-6 49.4-9.1 8.2-1.5 16.4-3.2 24.6-4.8 8.2-1.7 16.5-3.3 24.6-5 16.4-3.4 32.8-7.2 49-11l12.2-3 6.1-1.5 6.1-1.6 12.1-3.2 12.1-3.3 6.1-1.7 6-1.8 12-3.5 12-3.8 6-1.8 5.9-2 11.9-4c4-1.4 8-2.8 12-4 4.1-1.2 8.2-2.2 12.5-2.8 4.2-0.7 8.6-0.9 12.9-0.4 8.6 0.9 16.6 4 24.4 6.9q3 1.2 5.9 2.3c2 0.7 4 1.2 5.9 1.9l3 0.9c1 0.4 2 0.7 3 0.9l6 1.5 3.1 0.8 3 0.5 6.2 1.1c1 0.3 2 0.4 3.1 0.5l3.1 0.3c2.1 0.2 4.1 0.5 6.2 0.7 8.3 0.5 16.7 0.7 25 0 33.3-2.3 65.9-14.6 92.3-35.3-13 10.6-27.7 19.1-43.3 25.4-1.9 0.9-3.9 1.5-5.9 2.2l-5.9 2c-2 0.6-4.1 1.2-6.1 1.7l-3 0.9-1.5 0.4-1.6 0.3-6.2 1.3c-1 0.3-2 0.5-3.1 0.7l-3.1 0.4-6.2 1c-2.1 0.2-4.2 0.4-6.3 0.6-8.4 0.8-16.8 0.7-25.2 0.3-2.1-0.1-4.2-0.4-6.3-0.6l-3.2-0.3c-1-0.1-2.1-0.2-3.1-0.4l-6.3-1-3.1-0.5-3.1-0.8-6.1-1.4c-1.1-0.2-2.1-0.6-3.1-0.9l-3-0.9c-2-0.6-4-1.2-6-1.9q-3-1-6-2.1c-7.8-2.9-15.7-5.8-23.8-6.5-8.1-0.7-16.3 0.9-24.1 3.4-4 1.2-7.9 2.6-11.9 4l-11.9 4.1-5.9 2.1-6 1.9-12 3.9-12 3.7-6.1 1.8-6 1.8-12.1 3.4-12.2 3.3-6 1.6-6.1 1.6-12.2 3.1c-16.3 4-32.7 7.8-49.1 11.4-32.8 7.1-65.7 13.4-98.7 19.5l-49.5 8.9c-16.5 3-33 5.9-49.6 8.4-16.6 2.5-33.3 4.6-50.1 6l-6.3 0.5-6.3 0.4c-4.2 0.3-8.4 0.4-12.6 0.6-8.5 0.3-16.9 0.4-25.3 0.2-33.8-0.7-67.2-5.1-100.4-9.8-132.4-20.2-266.8-26.7-400.5-18.6-8.3 0.4-16.7 1.1-25 1.6-8.4 0.6-16.7 1.3-25.1 1.9-16.7 1.3-33.4 2.5-50.2 3q-12.7 0.3-25.3-0.1l-6.3-0.2-3.2-0.2-3.1-0.2-6.3-0.5-6.3-0.6c-2.1-0.2-4.2-0.5-6.3-0.8-2.1-0.3-4.2-0.5-6.2-0.9l-6.3-1c-2-0.4-4.1-0.8-6.2-1.2-8.2-1.8-16.4-3.8-24.5-5.8-16.2-4.1-32.5-8.1-49.1-8.8-2.1-0.2-4.2-0.1-6.3-0.1h-3.1c-1 0-2.1 0-3.1 0.1-4.2 0.3-8.3 0.6-12.4 1.2-8.3 1-16.5 2.9-24.6 4.9l-6 1.7c-2 0.5-4 1.1-6 1.7-4 1.2-8 2.5-12 3.8l-23.9 7.9c-15.9 5.3-32 10-48.6 12.8z"/>
									<path id="&lt;Path&gt;" class="s6" d="m92.5 351.4l11.8-3 11.8-2.8q11.8-2.7 23.8-5.2 23.8-4.9 47.8-8.9c32-5.2 64.3-9.1 96.7-11.5 8.2-0.5 16.4-0.8 24.6-0.4 8.2 0.4 16.5 1.5 24.5 3.7 16.1 4.3 30.7 12.2 45.2 19 29.1 13.9 59.7 24.5 91.1 31.6 31.4 7.1 63.5 10.7 95.8 11.8 32.2 1.3 64.6 0 96.9-2.2 32.2-2.3 64.5-5.6 96.7-8.8 16.2-1.6 32.3-3.1 48.5-4.5l12.1-1 12.1-0.9 12.2-0.8 12.1-0.7-12.1 1.2-12.1 1.2-12.1 1.2-12.1 1.4c-16.1 1.8-32.2 3.8-48.2 5.8-32.2 3.9-64.4 7.8-96.8 10.5-32.3 2.8-64.9 4.2-97.4 3.3-32.5-1-65.1-4.6-96.9-11.7-31.9-7.2-62.9-18.1-92.3-32.3-14.6-7.1-28.8-14.8-44.1-19.1-7.6-2.1-15.4-3.2-23.4-3.7-7.9-0.5-16-0.3-24 0.1-16.1 0.9-32.3 2.3-48.4 3.9q-24.1 2.4-48.2 5.8-24 3.3-47.9 7.6-12 2.1-23.9 4.5l-11.9 2.4z"/>
									<path id="&lt;Path&gt;" class="s6" d="m796.5 459.4l26.4-7.5c8.8-2.6 17.8-4.5 26.6-6.8l13.4-3.2 3.3-0.9 3.4-0.7 6.7-1.4c9-1.9 17.9-3.9 26.9-5.7 36.1-6.8 72.4-12 109-15.6l27.4-2.2c2.3-0.2 4.6-0.5 6.9-0.5l6.8-0.4 13.8-0.7 13.7-0.6 13.8-0.3 13.8-0.3c4.6-0.1 9.1-0.2 13.7-0.1l27.6 0.4h3.4l3.5 0.2 6.8 0.3 13.8 0.6c4.6 0.2 9.2 0.3 13.7 0.6l13.8 1 13.7 1.1 6.9 0.5 6.8 0.7 27.4 2.9c2.3 0.2 4.6 0.6 6.8 0.9l6.9 1 13.6 1.8 6.8 1 3.4 0.5c1.2 0.1 2.3 0.3 3.4 0.5l13.6 2.3 13.6 2.4c2.2 0.4 4.5 0.7 6.7 1.2l6.8 1.3 27 5.6c8.9 1.9 17.8 4 26.8 5.6 8.9 1.6 17.8 2.8 26.8 2.9q6.7 0.1 13.4-0.6c4.5-0.6 8.9-1.3 13.3-2.3 17.6-4 34.5-11.3 52-17l6.5-2.1 6.6-2 3.3-1 3.4-0.9 6.6-1.8c8.9-2.3 17.9-4.5 26.9-6.3 17.9-3.7 36.1-6.6 54.2-9.1q13.6-1.8 27.3-3.4l27.3-3.1-27.2 4q-13.6 1.9-27.1 4.1c-18.1 3-36.1 6.2-53.9 10.4-8.9 2-17.8 4.3-26.6 6.7l-6.5 1.9-3.3 1-3.3 1-6.5 2.1-6.5 2.2c-17.2 6-34 13.5-52.2 17.8-4.5 1.1-9.1 2-13.7 2.6q-7 0.8-14 0.8c-9.4 0-18.7-1.1-27.8-2.7-9.1-1.6-18-3.6-27-5.5l-26.9-5.3-6.7-1.3c-2.2-0.5-4.5-0.8-6.7-1.2l-13.6-2.2-13.5-2.3c-1.1-0.2-2.2-0.4-3.4-0.6l-3.4-0.4-6.7-0.9-13.6-1.9-6.8-0.9c-2.3-0.3-4.5-0.7-6.8-0.9l-27.3-2.9-6.8-0.7-6.8-0.5-13.7-1.1-13.6-1c-4.6-0.3-9.1-0.5-13.7-0.7l-13.7-0.6-6.8-0.3-3.5-0.2-3.4-0.1-27.4-0.4c-36.5-0.2-73.1 1.1-109.5 4.1l-3.5 0.2-3.4 0.4-6.8 0.6-13.6 1.4c-4.6 0.5-9.1 0.9-13.7 1.4l-13.6 1.8-13.6 1.7-6.8 0.9-6.7 1.1-27.1 4.3c-9 1.6-18 3.3-27 5l-6.8 1.3-3.3 0.6-3.4 0.7-13.4 3c-17.9 3.7-35.6 8.4-53.4 12.7z"/>
									<path id="&lt;Path&gt;" class="s6" d="m1201 336.9c32-6.7 64.3-11.7 96.8-15.3 16.3-1.8 32.6-3.1 48.9-4.2 16.4-1.1 32.7-1.8 49.1-2.2 16.3-0.2 32.7-0.2 49 0q12.3 0.2 24.5 0.3c8.1-0.1 16.3-0.1 24.4-0.4l6.1-0.3 6-0.4c4.1-0.2 8.1-0.6 12.2-1 1-0.1 2-0.2 3-0.3l3-0.4 6-0.8c2-0.3 4-0.6 6-1l3-0.5 1.5-0.3 1.5-0.3c15.9-3.2 31.4-8.3 46-15.7-13.9 8.6-29.4 14.5-45.3 18.6-16 4-32.4 6-48.8 7-16.4 1.2-32.8 1.2-49.1 1.2-16.3-0.1-32.6 0-48.9 0.3-16.3 0.3-32.6 0.9-48.8 1.8-16.3 0.8-32.6 2-48.8 3.2-32.5 2.7-64.9 6.4-97.3 10.7z"/>
									<path id="&lt;Path&gt;" class="s6" d="m166.8 506.6c40.8-7.1 81.8-13.4 123.2-16.6 10.4-0.8 20.8-1.5 31.2-1.8 10.3-0.3 20.7-0.4 31.2-0.2q15.6 0.3 31.1 1.6c5.2 0.4 10.4 1 15.6 1.5 5.2 0.7 10.3 1.3 15.5 2.2 5.2 0.7 10.3 1.8 15.4 2.7 5.1 1.1 10.2 2.1 15.3 3.4 5.1 1.2 10.1 2.7 15.1 4.1 5 1.5 10 3 14.9 4.8 5 1.6 9.8 3.6 14.7 5.5 4.8 2 9.6 4 14.4 6.2 9.4 4.3 18.6 8.9 28.2 12.4 4.8 1.7 9.6 3.2 14.6 4.1 5 1 10 1.5 15.1 1.9 10.2 0.5 20.4-0.5 30.5-2.4 20.2-3.6 39.8-10.8 59.3-17.8-19 8.3-38.3 16.2-58.7 20.7-10.2 2.2-20.7 3.6-31.2 3.4-5.3-0.2-10.6-0.6-15.8-1.6-5.2-0.8-10.3-2.2-15.3-3.9-5-1.7-9.9-3.6-14.7-5.7-4.8-2.1-9.5-4.2-14.2-6.3-4.7-2.1-9.5-4-14.2-6-4.8-1.7-9.6-3.6-14.5-5.1-4.9-1.7-9.8-3.2-14.7-4.7-5-1.3-9.9-2.7-14.9-3.9-5-1.2-10-2.2-15.1-3.3-5-0.9-10-1.9-15.1-2.6-5.1-0.9-10.2-1.5-15.3-2.2-5.1-0.5-10.2-1.2-15.4-1.6-5.1-0.5-10.2-0.8-15.4-1.1-5.1-0.2-10.2-0.5-15.4-0.6-20.6-0.7-41.2-0.1-61.9 0.9-41.2 2.3-82.3 7.4-123.5 12z"/>
									<path id="&lt;Path&gt;" class="s6" d="m555.9 129.3c19.9 2.4 39.9 0.4 59.5-2.7 19.7-3 39.2-7.2 59.3-9l7.5-0.6c2.5-0.2 5.1-0.3 7.6-0.4l3.7-0.2c1.3 0 2.5 0 3.8 0l7.5-0.1c10.1 0.1 20.2 0.5 30.2 1.4 5 0.3 9.9 0.9 14.9 1.5l7.5 0.9c2.5 0.3 5 0.7 7.5 1l7.4 1.2 7.4 1.2c5 0.8 9.9 1.7 14.8 2.6 19.7 3.8 39.2 8.2 58.6 12.6 19.5 4.5 38.9 8.9 58.4 12.8 9.8 2 19.6 3.6 29.4 5.2l7.4 1.1 3.7 0.5 3.7 0.5 7.4 0.9 7.4 0.8 3.7 0.4 3.8 0.3 7.4 0.5 7.5 0.4 3.7 0.2h3.7l7.5 0.2 7.5-0.1 3.7-0.1 3.7-0.2 7.5-0.3c-9.9 1.1-19.9 2.1-29.9 2.2l-3.7 0.1h-3.8l-7.5-0.1-7.5-0.2-3.8-0.2-3.7-0.2-7.5-0.5-7.5-0.7-3.7-0.3-3.8-0.4-7.4-0.9c-9.9-1.3-19.9-2.8-29.7-4.5-4.9-0.8-9.9-1.8-14.8-2.7q-7.3-1.4-14.7-2.9c-9.8-2-19.5-4.1-29.3-6.2-19.5-4.3-39-8.6-58.5-12.3-19.6-3.7-39.2-6.9-58.9-8.7-9.9-1-19.8-1.5-29.7-1.8h-7.4c-1.3 0-2.5 0-3.8 0l-3.7 0.1c-2.4 0.1-4.9 0.1-7.4 0.2l-7.4 0.5c-9.9 0.6-19.7 1.9-29.6 3.2-9.9 1.4-19.8 2.8-29.7 4-9.9 1.2-19.9 2.1-30 2.2-2.5 0-5 0-7.5-0.1-2.5 0-5-0.2-7.5-0.3-2.5-0.3-5-0.5-7.5-0.8z"/>
								</g>
							</g>
							<g id="Text">
								<path id="Blue" class="s0" aria-label="MENU"  d="m634.2 435.7v-89.4q0-13.7 2.5-42.6l0.6-8.2-3.5-0.4q-3.8 14.6-7.4 26.2-3.5 11.6-6.4 20.2l-45.6 134.5h-45.7l-48.2-134.5q-3.2-7.8-6.2-17.3-2.9-9.8-5.6-21.2l-2-7.9-3.5 0.4q1.7 15.2 2.3 28 0.9 12.6 0.9 22.8v90.6q12.7 4.7 18.8 12.6l-3.4 26.5h-67.3l-3.6-26.5q6.4-7.9 19-12.6v-159.1q-14.1-5-19.6-12.6l3.3-26.5h78.5l50.2 138.5q4.9 11.3 7.9 21.9 3.2 10.4 4.5 19.8l1 5.9h4.9q1.2-20.9 12.4-47.6l47.7-138.5h77.1l3.5 26.5q-5.5 7.6-19.6 12.6v157.6q13.4 5.3 19 12l-3.6 28.6h-78.4l-3.4-28.2q5.2-6.7 18.9-12.1zm229.6-22.7l25.5 3.2v59.8h-159.7l-3.3-28.6q4.5-5.8 18.9-11.4v-157.2q-14.2-5-18.9-11.6l3.3-28.5h156.9v59.8l-25.4 3.2q-8-6.9-12.7-25.6h-53.6v59.2h47.7q4.2-10.1 8.6-14.5l21.6 2.5v61.2l-21.6 2.8q-4.2-3.5-8.6-14.4h-47.7v65.6h56.3q4.5-18.1 12.7-25.5zm106.6-66.7v90.6q12.7 4.7 18.8 12.6l-3.4 26.5h-67.3l-3.5-26.5q6.3-7.9 18.9-12.6v-159.1q-14.1-5-19.6-12.6l3.3-26.5h70.9l68.5 133.5q3.9 7.2 7.4 17 3.7 9.5 7.4 21.5l2.4 8.2 3.8-1.3q-4.8-30.6-4.8-50.3v-89.1q-12.8-4.9-18.8-13l3.3-26.5h67.4l3.5 26.5q-6.4 8.1-19 13v197.8h-53.9l-69.2-134.5q-7.4-14-14.8-38.8l-2.3-7.9-3.9 1.3q4.9 30.6 4.9 50.2zm363-67.5v111.2q0 45-20.5 66.9-20.3 21.8-66 21.8-30.6 0-48.7-9.4-18.1-9.6-26-29.2-7.9-19.7-7.9-50.1v-111.2q-13.3-4.8-19-11.6l3.4-28.5h80.6l3.3 28.5q-5.5 6.6-18.8 11.6v112.6q0 24.8 8.1 36.7 8 11.8 29 11.8 21 0 29.6-12.1 8.6-12.3 8.6-36.4v-112.6q-14.3-5-19-11.6l3.5-28.5h75.3l3.5 28.5q-5.6 6.6-19 11.6z"/>
								<path id="White" class="s7" aria-label="MENU"  d="m618.8 414.7v-89.4q0-13.7 2.6-42.6l0.6-8.2-3.5-0.4q-3.9 14.6-7.4 26.2-3.5 11.6-6.4 20.2l-45.7 134.5h-45.6l-48.2-134.5q-3.2-7.8-6.3-17.3-2.8-9.8-5.5-21.2l-2-7.9-3.5 0.4q1.6 15.2 2.3 28 0.9 12.6 0.9 22.8v90.6q12.7 4.7 18.8 12.6l-3.4 26.5h-67.3l-3.6-26.5q6.4-7.9 19-12.6v-159.1q-14.1-5-19.6-12.6l3.3-26.5h78.5l50.2 138.5q4.8 11.3 7.9 21.9 3.2 10.4 4.5 19.8l1 5.9h4.9q1.1-20.9 12.4-47.6l47.7-138.5h77.1l3.5 26.5q-5.5 7.6-19.6 12.6v157.6q13.4 5.3 18.9 12l-3.5 28.6h-78.4l-3.4-28.2q5.2-6.7 18.8-12.1zm229.7-22.7l25.5 3.2v59.8h-159.7l-3.3-28.6q4.5-5.8 18.9-11.4v-157.2q-14.2-5-18.9-11.6l3.3-28.5h156.9v59.8l-25.4 3.2q-8-6.9-12.7-25.6h-53.6v59.2h47.7q4.2-10.1 8.5-14.5l21.7 2.5v61.2l-21.7 2.8q-4.2-3.5-8.5-14.4h-47.7v65.6h56.2q4.6-18.1 12.8-25.5zm106.6-66.7v90.6q12.7 4.7 18.8 12.6l-3.4 26.5h-67.3l-3.6-26.5q6.4-7.9 19-12.6v-159.1q-14.1-5-19.6-12.6l3.3-26.5h70.9l68.5 133.5q3.9 7.2 7.4 17 3.7 9.5 7.4 21.5l2.4 8.2 3.8-1.3q-4.9-30.6-4.9-50.3v-89.1q-12.7-4.9-18.8-13l3.4-26.5h67.3l3.6 26.5q-6.4 8.1-19 13v197.8h-53.9l-69.2-134.5q-7.4-14-14.8-38.8l-2.3-7.9-3.9 1.3q4.9 30.6 4.9 50.2zm363-67.5v111.2q0 45-20.5 66.9-20.3 21.8-66 21.8-30.6 0-48.7-9.4-18.2-9.6-26-29.2-7.9-19.7-7.9-50.1v-111.2q-13.3-4.8-19-11.6l3.3-28.5h80.7l3.3 28.5q-5.5 6.6-18.8 11.6v112.6q0 24.8 8.1 36.7 8 11.8 29 11.8 21 0 29.6-12.1 8.5-12.3 8.5-36.4v-112.6q-14.2-5-18.9-11.6l3.5-28.5h75.2l3.6 28.5q-5.6 6.6-19 11.6z"/>
							</g>
						</g>
						<path id="Snowflake copy" class="s7" aria-label="E"  d="m1576.5 608.5q4.3 0 2.2-3.4-0.9-1.7-3-3.4-2.2-1.8-4.3-2.6-2.2-0.9-2.6-1.3 0-0.5 1.7-0.5 4.3 0 2.6-1.7-0.4-0.8-2.6-1.7-2.1-0.9-4.3-0.9-2.6-0.4-4.7-0.8-2.2-0.9-2.6-1.7-1.7-2.6 4.3-4.8 2.6-0.8 5.2-0.8 2.5-0.5 3.4 0.8 2.6 2.2 5.2 6.9 2.1 5.2 2.1 0.4-0.4-2.1-0.8-4.7-0.5-2.6-1.3-4.7-0.5-2.2-2.2-3.5-1.3-1.7-3-1.7-1.7-0.4-5.2 0.4-3 0.9-6.4 2.2-3 1.7-6.9 1.7-3.9 0-6.5-0.8-5.6-3.1-0.4-4.4 2.6-0.4 6.5-2.5 3.8-2.6 6-6.1 2.6-3.4 4.3-8.1 1.7-5.2 1.7-9.5-0.4-4.3-2.6-7.3-2.1-3-4.7-3.5-2.6-0.4-3.5 0-0.8 0 1.3 0.9 2.2 0.9 3.1 3.4 1.2 2.6 1.7 6.1 0 3.4-1.7 7.7-1.8 4.3-3.9 7.3-2.6 3.5-8.2 5.6-5.2 1.7-9.9 0.9-5.2-0.9-12.5-3-6.9-2.6-12-5.2-4.8-3-10.4-6.4-5.6-3.9-8.6-6.1-6.4-5.6 3-4.3 3.9 0.5 8.2 2.6 4.8 2.2 6.9 5.2 2.2 3 6.5 5.1 4.3 2.2 7.7 2.2 3.5 0 6-1.3 3-1.7 3.9-3.9 0.9-2.1 0.4-2.6 0-0.8-0.8 0.5-2.2 3-7.8 3-2.6 0-6-1.7-3.4-2.2-6-5.2-2.2-2.6-3-5.2-0.5-3 1.3-3.8 1.7-1.3 5.6-1.3 4.3 0 8.6 0.8 4.3 0.9 9 3.9 5.2 3 8.2 6.5 3 3.4 3 3 0.4-0.5-2.2-4.8-2.1-4.3-7.7-8.1-5.2-3.9-9.9-5.2-4.7-1.3-10.8-0.9-5.6 0-9 1.8-3.5 1.7-9.9 2.5-6.5 0.9-12.9 0-6.5-0.8-12.1-2.1-5.1-1.3-6.4-2.6-3.5-3.4 0-6.9 1.3-1.3 6.4-2.6 5.6-1.3 12.1-2.1 6.4-0.9 12.9 0 6.4 0.8 9.9 2.6 3.4 1.7 9 2.1 5.6 0 10.8-1.3 4.7-1.3 9.9-5.1 5.6-3.9 7.7-8.2 2.6-4.3 2.2-4.8 0-0.4-3 3.1-3 3.4-8.2 6.4-4.7 3-9 3.9-4.3 0.8-8.6 0.8-3.9 0-5.6-1.2-1.8-0.9-1.3-3.5 0.8-3 3-5.6 2.6-3 6-4.7 3.4-2.2 6-2.2 5.6 0 7.8 3 2.1 2.6 0.4-2.1-0.9-2.2-3.9-3.5-2.5-1.7-6-1.7-3.4 0-7.7 2.2-4.3 2.1-6.5 5.1-2.1 3.1-6.9 5.2-4.7 2.2-8.6 2.6-3.9 0.9-4.7-0.4-0.9-1.3 2.1-3.9 3-2.2 8.6-5.6 5.6-3.9 10.4-6.9 5.1-2.6 12-4.7 7.3-2.6 12.5-3.5 4.7-0.8 9.9 1.3 5.6 1.7 8.2 5.2 2.1 3 3.9 7.3 1.7 4.3 1.7 7.7-0.5 3.5-1.7 6.1-0.9 2.6-3.1 3.4-2.1 0.9-1.3 1.3 0.9 0 3.5-0.4 2.6-0.5 4.7-3.5 2.2-3 2.6-7.3 0-4.3-1.7-9-1.7-5.2-4.3-8.6-2.2-3.5-6-5.6-3.9-2.6-6.5-3-5.2-1.3 0.4-4.3 2.6-0.9 6.5-0.9 3.9 0 6.9 1.7 3.4 1.3 6.4 2.2 3.5 0.8 5.2 0.4 1.7 0 3-1.3 1.7-1.7 2.2-3.9 0.8-2.1 1.3-4.7 0.4-2.6 0.8-4.7 0-4.8-2.1 0.4-2.6 4.7-5.2 6.9-0.9 1.3-3.9 1.3-2.6-0.5-4.7-1.3-6-2.2-4.3-4.7 0.4-0.9 2.6-1.3 2.1-0.9 4.7-1.3 2.2 0 4.3-0.9 2.2-0.9 2.6-1.7 1.7-1.7-2.6-1.7-1.7 0-1.7-0.5 0.4-0.4 2.6-1.3 2.1-0.8 4.3-2.5 2.1-1.8 3-3.5 2.1-3.4-2.2-3.4-4.3 0-8.6 3-4.3 3.4-2.1 0 2.1-3-0.5-3-2.5 0-5.6 4.7-1.2 2.2-3 3.9-1.7 1.3-2.6 1.3-3 0-2.1-6.5 0.4-2.6 1.7-4.7 1.3-2.2 2.6-2.6 1.3-0.9 3.9-0.9 2.6 0 5.1 0 4.3 0 0.9-1.7-2.2-0.8-4.7-1.7-2.2-0.9-4.3-1.3-4.3-1.3-7.4 2.2-0.8 1.2-1.7 4.7-0.8 3-1.3 6.4-0.4 3.5-2.1 6.9-1.7 3.5-4.3 5.2-2.2 1.7-3.5 1.3-0.8-0.9 0-3 0.9-2.6 0.5-6.9-0.5-4.7-1.8-8.6-1.7-3.9-5.1-7.8-3.5-3.8-7.3-6-3.9-2.1-7.8-1.7-3.4 0.4-5.2 2.6-2.1 2.1-2.1 3 0 0.4 1.7-0.9 1.7-1.3 4.7-0.8 3.1 0 5.6 1.7 3.1 1.7 6.1 5.6 3 3.4 4.3 6.9 1.7 3.8 0.4 9.4-0.9 5.2-3.9 9.5-3 3.9-9 9-5.6 4.8-10.3 7.8-4.8 3.4-10.8 6.4-6 3.1-9.5 3.9-3.4 1.3-4.3 0-0.4-1.3 1.8-4.7 2.5-3.5 6.8-5.6 4.3-2.6 7.8-3.5 3.9-0.8 7.7-3 3.9-2.5 5.6-5.6 1.7-3.4 1.7-6.4 0.5-3-0.8-4.8-1.3-1.7-2.2-1.7-0.8-0.4 0 0.9 1.3 3.4-1.7 8.6-0.8 2.1-4.3 4.3-3.4 1.7-6.9 2.6-8.6 1.3-9.4-3.5 0-2.1 1.7-5.6 2.1-3.4 5.1-6.8 3.1-3.5 8.2-6.1 5.2-2.6 9.5-3.4 9.9-2.2-0.9-2.2-4.7 0-10.7 2.6-6.1 2.6-9.9 6.5-3.5 3.8-6.1 9-2.5 5.2-3 8.6 0 3.5-3 9.9-2.6 6-6 10.8v0.4q-3.9 5.2-7.8 9-3.8 3.9-6 4.4-2.1 0.8-3.4 1.2-1.3 0.5-1.3 0.5 0 0-0.4-1.3 0-1.3-0.5-3.5-0.8-2.1 0.9-7.3 1.7-5.6 4.3-11.2 2.6-6 6.4-11.2 3.9-5.6 6.9-7.7 3.5-2.2 6.5-6.9 3-4.7 4.3-9.5 1.3-4.7 0.4-11.2-0.4-6.8-2.6-10.7-5.1-8.2-2.5 0 1.7 3.9 1.7 9.9 0 6-1.3 9.9-0.9 4.3-3 8.2-2.2 3.4-4.3 4.3-4.3 1.3-7.3-6.5-0.9-3.4-0.9-7.3 0-3.9 1.3-6 2.6-4.8 6.4-5.6 1.3-0.5 0.9-0.9-0.4-0.4-2.6-0.8-2.1-0.5-4.7 1.2-2.6 1.8-4.8 5.2-1.7 3.5-2.1 8.2 0 4.3 1.3 7.7 1.3 3.5 0.8 8.6 0 4.8-1.2 8.7-1.8 3.4-3.5 3.4-1.3 0-2.1-3.4-0.5-3.5-0.9-9.9-0.4-6.9 0-13 0-5.6 1.3-12.9 1.3-7.3 3.4-12 2.2-4.8 6.5-8.2 4.3-3.4 8.2-4.3 3.8-0.9 8.1 0 4.8 0.9 7.8 2.6 2.6 1.7 4.3 4.3 2.2 2.6 1.7 4.7-0.4 2.2 0 1.7 0.9-0.8 1.7-3.4 1.3-2.6-0.4-6-1.7-3.5-5.2-5.6-3.4-2.2-9-3.5-5.2-1.3-9.5-0.4-3.8 0.9-8.1 2.6-3.9 1.7-5.6 3.9-1.8 2.1-3 1.7-0.9-0.9-0.5-3.9 0.5-3 2.6-6 2.2-3.5 4.7-5.6 6.5-4.3 8.2-8.6 1.3-3.9-1.7-6.9-1.3-1.7-3.4-3.5-2.2-1.7-3.9-3-1.7-1.3-2.2-0.8 0 0.4 1.3 2.6 1.3 2.1 2.2 4.7 1.3 2.1 1.7 3.4 0.4 1.8-1.3 3.9-1.3 2.2-3.4 3.9-2.2 1.7-3.9 2.1-1.7 0-2.2-0.8-0.8-0.9-0.4-3 0.9-2.6 1.7-4.8 0.9-2.1 1.3-4.3 0.9-2.1 0-3-0.4-0.9-1.3-0.4-0.8 0.4-1.3 1.7-2.1 3.4-1.3-1.7 0.5-2.2 0-4.8-0.4-3-1.3-4.3-0.8-1.7-2.1-1.7-1.3 0-2.2 1.7-2.5 3.5-1.7 9.1 0.5 2.1 0 3 0 0.4-0.8-1.3-0.9-1.3-1.8-1.7-0.8-0.5-1.3 0.4-0.8 0.9-0.4 3 0.9 2.2 1.7 4.3 3.1 5.2 1.3 7.8-0.4 0.8-2.1 0.8-1.7-0.4-3.9-2.1-5.2-3.5-4.3-7.8 0-1.3 0.9-3.4 1.3-2.6 2.5-4.7 1.3-2.2 0.9-2.6 0-0.5-1.7 0.8-1.7 1.3-3.9 3-1.7 1.8-3.4 3.5-3 3-1.8 6.9 0.9 1.7 3.1 4.3 2.5 2.1 5.1 4.3 2.6 2.1 4.8 5.6 2.1 3 2.5 6 0.5 3-0.8 3.9-0.9 0.4-2.6-1.7-1.7-2.2-6-3.9-3.9-1.7-7.8-2.6-3.8-0.9-9.4 0.4-5.2 1.3-8.7 3.5-3.4 2.1-5.1 5.6-1.7 3.4-0.9 6 2.6 5.6 2.2 1.7-0.5-2.1 1.3-4.7 1.7-2.6 4.3-4.3 3-1.7 7.7-2.6 4.8-0.9 8.2 0 4.3 0.9 8.2 4.3 4.3 3.4 6.4 8.2 2.2 4.7 3.5 12 1.3 7.3 1.7 12.9 0 6.1-0.4 13 0 6.4-0.9 9.9-0.9 3.4-2.6 3.4-1.3 0-2.6-3.4-1.7-3.9-2.1-8.7 0-5.1 1.7-8.6 0.9-3.4 0.4-7.7 0-4.7-1.7-8.2-1.7-3.4-4.7-5.2-2.6-1.7-4.8-1.2-2.1 0.4-2.5 0.8-0.5 0.4 0.8 0.9 4.3 0.8 6.9 5.6 1.3 2.1 1.3 6 0 3.9-1.3 7.3-3 7.8-7.3 6.5-1.7-0.9-3.9-4.3-2.1-3.9-3.4-8.2-1.3-3.9-1.3-9.9 0.4-6 1.7-9.9 1.7-4.3 0.9-4.3-0.9 0-3 4.3-2.6 3.9-3.5 10.7-0.4 6.5 0.9 11.2 1.3 4.8 4.3 9.5 3.4 4.7 6 6.9 3.4 2.1 7.3 7.7 3.9 5.2 6.9 11.2 2.2 5.6 3.9 11.2 1.7 5.2 0.8 7.3-0.8 4.8-5.6 3.1-2.1-0.5-6-4.4-3.9-3.8-7.3-9.4-3.9-4.8-6.9-10.8-2.6-6.4-2.6-9.9 0-3.4-3-8.6-2.6-5.6-6-9-3.4-3.9-9.5-6.5-6-2.6-10.7-2.6-10.8 0-1.3 2.2 4.3 0.8 9.4 3.4 5.2 2.6 8.2 6.1 3 3.4 5.2 6.8 2.1 3.5 1.7 5.6 0 2.2-3 3.5-2.6 0.8-6 0-8.6-2.2-11.7-7.3-3-4.8-1.2-8.2 0.8-3-2.6 0.4-3 4.3 0.8 11.6 2.2 3.1 6.1 5.6 3.8 2.2 7.3 3 3.4 0.9 7.7 3.5 4.3 2.1 6.9 5.6 2.6 3.4 1.7 4.7-0.8 1.3-4.3 0-3.4-1.3-9.4-4.3-6.1-3-10.8-6-4.7-3-10.3-7.8-5.6-5.1-9.1-9.4-3-3.9-4.3-9.1-0.8-5.6 0.9-9.4 1.3-3.5 4.3-6.9 3-3.9 6-5.6 2.6-1.7 5.6-1.7 3.5-0.5 4.7 0.8 3.5 3 0-2.1-1.7-2.2-5.5-2.6-3.9-0.4-7.4 1.7-3.8 2.2-7.7 6-3.5 3.9-4.7 7.8-1.8 3.9-2.2 8.6-0.4 4.3 0.4 6.4 0.9 2.6-0.4 3.5-0.9 0.4-3-1.3-2.2-1.7-4.3-5.2-1.7-3.8-2.2-7.3-0.4-3-1.3-6-0.8-3.5-1.7-5.2-0.8-1.3-3-1.7-2.1-0.9-4.3-0.4-2.1 0.8-4.7 1.7-2.2 0.9-4.3 1.7-2.2 0.9-1.8 1.3 0.9 0.4 3.1 0.4 5.1-0.8 9 0.9 1.3 0.4 2.1 2.6 1.3 2.1 1.8 4.7 0.8 2.6 0 4.8-0.9 1.7-1.8 1.7-1.2 0-3-1.3-1.7-1.7-3-3.9-3-4.7-5.6-4.7-2.6 0-0.4 3 0.9 1.3 0.4 1.7-0.4 0-2.1-1.7-4.8-3-9.1-3-3.4 0-2.1 3.4 0.8 1.7 3 3.5 2.1 1.7 4.3 2.5 2.2 0.9 2.6 1.3 0.4 0.5-1.3 0.5-4.7-0.9-3 1.7 1.7 2.6 7.3 2.6 2.1 0.4 4.3 1.3 2.2 0.4 3 1.3 0.9 0.8-0.8 2.5-1.3 1.3-3.9 2.2-5.6 2.1-8.6 0-0.9-0.9-2.6-3-1.7-2.2-2.6-4.3-2.1-4.3-2.1 0 0.4 2.1 0.8 4.7 0.4 2.6 1.3 4.7 0.9 4.3 5.2 5.2 2.1 0.4 5.1-0.4 3.5-0.9 6.5-2.2 3-1.7 6.9-1.7 4.3 0 6.4 0.9 6.1 3 0.5 4.3-2.6 0.4-6.5 3-3.4 2.1-6 5.6-2.6 3.4-4.3 8.6-1.7 4.7-1.3 9 0 4.3 2.1 7.3 2.2 3 4.8 3.5 6.9 0.8 2.1-0.9-1.7-0.8-3-3.4-1.3-2.6-1.7-6.1 0-3.4 1.7-7.7 1.7-4.3 4.3-7.3 2.6-3.5 7.8-5.2 5.1-2.1 10.3-1.3 4.7 0.9 11.6 3.5 7.3 2.1 12.5 4.7 5.2 2.6 10.8 6.5 5.6 3.8 8.6 6 6.4 5.6-3 4.3-3.9-0.4-8.7-2.6-4.3-2.6-6.4-5.6-2.6-2.6-6.9-4.7-3.9-2.2-7.3-2.2-3.5 0-6.5 1.7-3 1.3-3.8 3.5-1.8 4.7 0.8 2.1 0.9-1.2 3-2.1 2.2-0.9 4.8-0.9 2.1 0 5.6 2.2 3.4 1.7 6 4.3 2.6 3 3 6 0.9 2.6-0.9 3.5-2.1 1.2-6 1.2-3.9 0-8.6-0.8-4.3-0.9-9.5-3.9-4.7-3-7.7-6.4-3-3.5-3.5-3.1 0 0.5 2.6 4.8 2.2 4.3 7.3 8.2 5.6 3.8 10.4 5.1 5.1 1.3 10.7 1.3 5.6-0.4 9.1-2.1 3.4-1.8 9.9-2.6 6.9-0.9 12.9 0 6.4 0.8 11.6 2.1 5.6 1.3 7.3 2.6 1.3 1.7 2.2 2.6 1.3 0.9 1.3 0.9 0 0-1.3 0.8-0.9 0.9-2.2 2.6-1.7 1.3-7.3 2.6-5.2 1.3-11.6 2.1-6 0.9-12.9 0-6.5-0.8-9.9-2.5-3.5-1.8-9.1-1.8-5.6-0.4-10.7 0.9-4.8 1.3-10.4 5.2-5.1 3.8-7.3 8.1-2.6 4.3-2.6 4.8 0.5 0.4 3.5-3 3-3.5 7.7-6.5 5.2-3 9.5-3.9 4.7-0.8 8.6-0.8 3.9 0 5.6 1.3 2.2 0.8 1.3 3.8-0.4 2.6-3 5.6-2.6 2.6-6 4.8-3.5 1.7-5.6 1.7-6.1 0-8.2-3-0.9-0.9-1.3-0.5 0 0.5 0.9 2.6 0.8 2.2 3.8 3.9 3 1.3 6.5 1.3 3.4 0 7.3-2.2 4.3-2.1 6.9-4.7 2.1-3 6.4-5.2 4.3-2.5 8.7-3 8.6-1.3 3 4.3-3 2.2-8.6 6.1-5.6 3.8-10.8 6.4-5.2 2.6-12.5 5.2-6.9 2.1-11.6 3-5.2 0.8-10.3-0.9-5.2-2.1-7.8-5.6-2.6-3-4.3-7.3-1.7-4.3-1.7-7.7 0.4-3.5 1.7-6.1 1.3-2.5 3-3.4 4.8-1.7-2.1-0.9-2.6 0.5-4.8 3.5-2.1 3-2.1 7.3-0.4 4.3 1.3 9.5 1.7 4.7 4.3 8.1 2.6 3.5 6 6.1 3.9 2.1 6.5 2.5 5.1 1.3-0.5 4.4-2.5 0.8-6.4 0.8-3.9 0-6.9-1.7-3-1.3-6.5-2.2-3-0.8-5.1-0.4-4.3 0.9-5.2 5.2-0.9 2.1-1.3 4.7-0.4 2.6-0.8 4.7 0 4.3 2.1 0 0.9-2.1 2.6-4.3 1.7-2.1 2.6-3 3-2.1 8.6 0 2.6 0.9 3.9 2.6 1.7 1.3 0.8 2.2-0.8 0.8-3 1.7-2.2 0.4-4.3 0.8-5.6 0-7.3 2.6-1.7 2.6 2.6 1.7 2.1 0 1.7 0.5-0.4 0.4-2.6 1.3-2.2 0.8-4.3 2.6-2.2 1.7-3 3.4-1.3 3.4 2.1 3.4 4.8 0 8.6-3 2.2-1.7 2.6-1.3 0.5 0-0.4 1.3-2.2 3 0.4 3 2.6 0 5.6-4.7 1.3-2.1 3-3.4 1.8-1.8 3-1.8 0.9 0 1.3 2.2 0.9 1.7 0.5 4.3-0.5 2.6-1.8 4.7-0.8 2.2-2.5 2.6-1.3 0.9-3.9 1.3-2.6 0-4.7-0.4-2.6 0-3.1 0.4-0.4 0.4 1.8 1.3 2.1 0.9 4.3 1.7 2.6 0.9 4.7 1.7 2.2 0.5 4.3 0 2.2-0.8 3-2.1 0.9-1.7 1.7-4.7 0.9-3.5 1.3-6.5 0.5-3.4 2.2-6.9 2.1-3.9 4.3-5.6 2.1-1.7 3-0.8 1.3 0.4 0.4 3-0.8 2.1-0.4 6.9 0.4 4.3 2.2 8.1 1.2 3.9 4.7 7.8 3.9 3.9 7.7 6 3.5 2.2 7.4 1.7 3.8-0.4 5.5-2.6 3.5-5.1 0-2.1-1.7 1.3-4.7 1.3-3-0.4-5.6-2.2-3-1.7-6-5.1-3-3.9-4.3-7.4-1.7-3.8-0.9-9 1.3-5.6 4.3-9.5 3.5-4.3 9.1-9 5.6-5.2 10.3-8.2 4.7-3 10.8-6 6-3 9.4-4.3 3.5-1.3 4.3 0 0.9 1.3-1.7 4.7-2.6 3.5-6.9 6.1-4.3 2.1-7.7 3-3.5 0.8-7.3 3.4-3.9 2.2-6.1 5.2-3.8 7.3-0.8 11.6 3.8 3.9 2.1 0.4-0.4-1.3 0-3.4 0.5-2.6 1.7-4.8 3.1-5.1 11.7-7.3 3.4-0.8 6 0.5 3 0.8 3 3 0.4 2.1-1.7 5.6-2.2 3.4-5.2 6.9-3 3.4-8.2 6-5.1 2.6-9.4 3.4-9.5 2.2 1.3 2.2 4.7 0 10.7-2.6 6.1-2.6 9.5-6.5 3.4-3.4 6-8.6 2.6-5.6 3-9 0-3.5 2.6-9.5 3-6.4 6.9-11.2 3.4-5.6 7.3-9.4 3.9-3.9 6-4.3 2.2-0.9 3.5-0.9 1.3-0.4 1.3-0.4 0-0.5 0 0.8 0.4 1.3 0.8 3.5 0.9 2.1-0.8 7.7-1.7 5.2-3.9 10.8-3 6-6.9 11.6-3.9 5.2-7.3 7.3-2.6 2.2-6 6.9-3 4.7-4.3 9.5-1.3 4.7-0.9 11.6 0.9 6.5 3.5 10.3 2.1 4.3 3 4.3 0.8 0-0.9-4.3-1.3-3.8-1.7-9.9 0-6 1.3-9.9 1.3-4.3 3.4-7.7 2.2-3.9 3.9-4.8 4.3-1.2 7.3 6.5 1.3 3.4 1.3 7.3 0 3.9-1.3 6-2.6 4.8-6.9 5.6-1.3 0.5-0.8 0.9 0.4 0.4 2.5 0.9 2.2 0.4 4.8-1.3 3-1.8 4.7-5.2 1.7-3.4 1.7-7.7 0.5-4.8-0.4-8.2-1.7-3.5-1.7-8.2 0.4-5.2 2.1-9 1.3-3.5 2.6-3.5 1.7 0 2.6 3.5 0.9 3.4 0.9 10.3 0.4 6.4 0.4 12.5-0.4 5.6-1.7 12.9-1.3 7.3-3.5 12-2.1 4.8-6.4 8.2-3.9 3.5-8.2 4.3-3.4 0.9-8.2 0-4.7-0.8-7.7-2.6-2.6-1.7-4.3-3.8-1.8-2.6-1.3-4.8 0.4-4.3-2.2 1.3-0.8 2.6 0.9 6 1.7 3.5 5.1 5.6 3.5 2.2 8.7 3.5 5.6 1.3 9.4 0.4 3.9-0.8 7.8-2.6 4.3-1.7 6-3.8 1.7-2.2 2.6-1.3 1.3 0.4 0.8 3.4-0.4 3-2.5 6.5-2.2 3-4.8 5.1-2.6 2.2-5.1 4.8-2.2 2.1-3.1 3.8-1.2 3.9 1.8 6.9 1.7 1.7 3.4 3.5 2.2 1.7 3.9 3 1.7 1.3 1.7 0.8 0.4-0.4-0.9-2.5-1.2-2.2-2.5-4.3-0.9-2.2-0.9-3.9-0.9-3.9 4.3-7.8 2.2-1.7 3.9-1.7 1.7-0.4 2.1 0.4 1.8 2.6-1.3 7.8-0.8 2.1-1.7 4.3-0.4 2.1 0.4 3 0.5 0.9 1.3 0.4 0.9-0.4 1.8-1.7 0.8-1.7 0.8-0.8 0.5 0.4 0 2.5-0.4 2.2 0 5.2 0.9 2.6 1.7 4.3 1.8 3.5 4.3 0 0.9-1.7 1.3-4.3 0.5-3 0-5.2-0.8-5.1 1.3-1.7 0.5 1.3 1.3 1.7 0.9 0.5 1.3-0.4 0.9-0.9 0-3-0.4-2.2-1.3-4.3-0.8-2.2-1.7-4.3-0.4-2.6 0.4-3.5 0.5-0.8 2.2-0.4 1.7 0 3.9 1.7 2.1 1.8 3.4 3.9 1.7 2.2 1.3 3.9-0.9 3.4-3.9 8.2-1.3 2.1-1.3 2.5 0.5 0.5 2.2-0.8 1.7-1.3 3.9-3 2.1-1.8 3.4-3.5 3-3 1.7-6.9-1.7-4.3-8.2-8.6-2.5-2.1-4.7-5.1-2.1-3.5-2.6-6.5-0.4-3 0.5-3.4 1.2-0.9 3 1.3 1.7 2.1 5.6 3.8 4.3 1.8 8.1 2.6 4.3 0.9 9.5-0.4 5.6-1.3 9-3.5 3.5-2.1 5.2-5.6 1.7-3.4 0.4-6-0.8-2.6-1.7-3-0.4-0.4 0 1.7 0.5 2.2-1.7 4.8-1.7 2.1-4.3 3.8-3 1.8-7.8 2.6-4.3 0.9-8.1 0-3.9-0.8-8.2-4.3-4.3-3.4-6.5-8.2-2.1-4.7-3.4-12-1.3-7.3-1.3-12.9-0.4-6.1 0-12.5 0.4-6.9 0.9-10.3 0.8-3.5 2.1-3.5 1.7 0 3.5 3.5 1.2 3.8 1.2 9 0.5 4.7-0.8 8.2-1.3 3.4-1.3 8.2 0.4 4.3 2.1 7.7 2.2 3.4 4.8 5.2 2.6 1.7 4.7 1.3 2.2-0.5 2.6-0.9 0.4-0.4-0.9-0.9-3.8-0.8-6.4-5.6-1.3-2.1-1.3-6 0-3.9 0.9-7.3 3-7.7 7.3-6.5 2.1 0.9 4.3 4.8 2.1 3.4 3 7.7 1.3 3.9 1.3 9.9 0 6.1-1.7 9.9-2.6 8.6 2.5 0 2.2-3.8 2.6-10.3 0.9-6.9-0.4-11.6-1.3-4.8-4.3-9.5-3-4.7-6.5-6.9-3-2.1-6.9-7.3-3.8-5.6-6.4-11.6-2.6-5.6-4.3-10.8-1.7-5.6-0.9-7.7 0.5-2.2 0.5-3.5 0.4-1.3 0.4-1.3 0 0 1.3 0.5 1.3 0.4 3.4 1.3 2.2 0.4 6 4.3 3.9 3.8 7.8 9v0.4q3.4 4.8 6 11.2 3 6 3.5 9.5 0 3.4 2.5 8.6 2.6 5.2 6.1 9 3.8 3.9 9.9 6.5 6 2.6 10.7 2.6 10.8 0 0.9-2.2-4.3-0.8-9.5-3.4-5.1-2.6-8.2-6-3-3.5-5.1-6.9-1.7-3.5-1.7-5.6 0.8-4.8 9.4-3.5 3.5 0.9 6.9 3 3.5 1.8 4.7 3.9 0.9 2.2 1.3 4.8 0.9 2.1 0 3.8-0.8 1.3 0 1.3 0.9-0.4 2.2-2.1 1.3-1.8 0.8-4.8 0-3-1.7-6.4-1.7-3-5.6-5.2-3.8-2.6-7.7-3.4-3.5-0.9-7.8-3-4.3-2.6-6.8-6.1-2.2-3.4-1.8-4.7 0.9-1.3 4.3 0 3.5 0.9 9.5 3.9 6 3 10.8 6.4 4.7 3 10.3 8.2 6 4.7 9 8.6 3 4.3 3.9 9.9 1.3 5.2-0.4 9-1.3 3.5-4.3 7.4-3 3.4-6.1 5.1-2.5 1.8-5.6 2.2-3 0-4.7-1.3-2.6-2.2 0.4 2.1 1.8 2.2 5.2 2.6 3.9 0.5 7.8-1.7 3.8-2.1 7.3-6 3.4-3.9 5.1-7.8 1.3-3.8 1.8-8.1 0.4-4.8-0.5-7.4-0.8-2.1 0-2.5 1.3-0.9 3.5 0.8 2.6 1.7 4.3 5.2 1.7 3.4 2.1 6.9 0.5 3.4 1.3 6.9 0.9 3 2.2 4.3 2.1 3.8 6.9 2.1 2.1-0.4 4.3-1.3 2.5-0.8 4.7-1.7 3.4-1.7-0.9-1.7-2.1 0-5.1 0-2.6 0-3.9-0.9-1.3-0.4-2.6-2.6-1.3-2.1-1.7-4.7-0.9-6.5 2.1-6.5 0.9 0 2.6 1.8 2.2 1.3 3 3.4 3.1 4.7 6.1 4.7 2.1 0 0-3-2.2-3.4 2.1 0 4.3 3 8.6 3z"/>
						<path id="Snowflake" class="s7" aria-label="E"  d="m1693.2 371.8q2.7 0 1.4-2.2-0.6-1.1-1.9-2.2-1.4-1.1-2.8-1.6-1.3-0.6-1.6-0.9 0-0.2 1.1-0.2 2.7 0 1.6-1.1-0.2-0.6-1.6-1.1-1.4-0.6-2.7-0.6-1.7-0.2-3-0.5-1.4-0.6-1.7-1.1-1.1-1.6 2.7-3 1.7-0.5 3.3-0.5 1.7-0.3 2.2 0.5 1.6 1.4 3.3 4.4 1.3 3.2 1.3 0.2-0.2-1.3-0.5-3-0.3-1.6-0.8-3-0.3-1.3-1.4-2.1-0.8-1.1-1.9-1.1-1.1-0.3-3.3 0.2-1.9 0.6-4.1 1.4-1.9 1.1-4.3 1.1-2.5 0-4.1-0.6-3.6-1.9-0.3-2.7 1.6-0.3 4.1-1.6 2.4-1.7 3.8-3.8 1.7-2.2 2.7-5.2 1.1-3.3 1.1-6-0.2-2.8-1.6-4.7-1.4-1.9-3-2.2-1.6-0.2-2.2 0-0.5 0 0.8 0.6 1.4 0.5 1.9 2.2 0.9 1.6 1.1 3.8 0 2.2-1.1 4.9-1.1 2.7-2.4 4.6-1.7 2.2-5.2 3.6-3.3 1.1-6.3 0.5-3.3-0.5-7.9-1.9-4.4-1.6-7.6-3.2-3-2-6.6-4.1-3.5-2.5-5.5-3.9-4.1-3.5 2-2.7 2.4 0.3 5.1 1.6 3 1.4 4.4 3.3 1.4 1.9 4.1 3.3 2.7 1.4 4.9 1.4 2.2 0 3.8-0.9 2-1.1 2.5-2.4 0.5-1.4 0.3-1.7 0-0.5-0.6 0.3-1.3 1.9-4.9 1.9-1.6 0-3.8-1.1-2.2-1.3-3.8-3.2-1.4-1.7-1.9-3.3-0.3-1.9 0.8-2.5 1.1-0.8 3.5-0.8 2.8 0 5.5 0.6 2.7 0.5 5.7 2.4 3.3 1.9 5.2 4.1 1.9 2.2 1.9 1.9 0.3-0.3-1.3-3-1.4-2.7-5-5.2-3.2-2.4-6.2-3.2-3-0.9-6.9-0.6-3.5 0-5.7 1.1-2.2 1.1-6.3 1.6-4.1 0.6-8.2 0-4.1-0.5-7.6-1.3-3.3-0.8-4.1-1.7-2.2-2.2 0-4.3 0.8-0.9 4.1-1.7 3.5-0.8 7.6-1.3 4.1-0.6 8.2 0 4.1 0.5 6.3 1.6 2.2 1.1 5.7 1.4 3.6 0 6.9-0.9 3-0.8 6.2-3.2 3.6-2.5 5-5.2 1.6-2.7 1.3-3 0-0.3-1.9 1.9-1.9 2.2-5.2 4.1-3 1.9-5.7 2.4-2.7 0.6-5.5 0.6-2.4 0-3.5-0.8-1.1-0.6-0.8-2.2 0.5-1.9 1.9-3.6 1.6-1.9 3.8-3 2.2-1.3 3.8-1.3 3.6 0 4.9 1.9 1.4 1.6 0.3-1.4-0.5-1.4-2.5-2.2-1.6-1.1-3.8-1.1-2.2 0-4.9 1.4-2.7 1.4-4.1 3.3-1.4 1.9-4.4 3.3-3 1.3-5.4 1.6-2.5 0.5-3-0.3-0.6-0.8 1.3-2.4 2-1.4 5.5-3.6 3.6-2.4 6.6-4.4 3.2-1.6 7.6-3 4.6-1.6 7.9-2.1 3-0.6 6.3 0.8 3.5 1.1 5.2 3.3 1.3 1.9 2.4 4.6 1.1 2.7 1.1 4.9-0.2 2.2-1.1 3.8-0.5 1.7-1.9 2.2-1.3 0.6-0.8 0.8 0.6 0 2.2-0.2 1.6-0.3 3-2.2 1.4-1.9 1.6-4.7 0-2.7-1.1-5.7-1-3.3-2.7-5.5-1.4-2.1-3.8-3.5-2.5-1.6-4.1-1.9-3.3-0.8 0.3-2.7 1.6-0.6 4.1-0.6 2.4 0 4.3 1.1 2.2 0.8 4.1 1.4 2.2 0.5 3.3 0.2 1.1 0 1.9-0.8 1.1-1.1 1.4-2.4 0.5-1.4 0.8-3 0.3-1.7 0.5-3 0-3-1.3 0.2-1.7 3-3.3 4.4-0.5 0.8-2.5 0.8-1.6-0.3-3-0.8-3.8-1.4-2.7-3 0.3-0.6 1.7-0.8 1.3-0.6 3-0.8 1.3 0 2.7-0.6 1.4-0.5 1.6-1.1 1.1-1.1-1.6-1.1-1.1 0-1.1-0.2 0.3-0.3 1.6-0.9 1.4-0.5 2.8-1.6 1.3-1.1 1.9-2.2 1.3-2.2-1.4-2.2-2.7 0-5.5 1.9-2.7 2.2-1.3 0 1.3-1.9-0.3-1.9-1.6 0-3.5 3-0.9 1.4-2 2.5-1 0.8-1.6 0.8-1.9 0-1.4-4.1 0.3-1.6 1.1-3 0.9-1.4 1.7-1.6 0.8-0.6 2.4-0.6 1.7 0 3.3 0 2.7 0 0.6-1.1-1.4-0.5-3-1.1-1.4-0.5-2.8-0.8-2.7-0.8-4.6 1.4-0.6 0.8-1.1 3-0.6 1.9-0.8 4.1-0.3 2.2-1.4 4.4-1.1 2.1-2.7 3.2-1.4 1.1-2.2 0.8-0.6-0.5 0-1.9 0.5-1.6 0.3-4.3-0.3-3-1.1-5.5-1.1-2.5-3.3-4.9-2.2-2.5-4.6-3.8-2.5-1.4-5-1.1-2.1 0.3-3.2 1.6-1.4 1.4-1.4 1.9 0 0.3 1.1-0.5 1.1-0.8 3-0.6 1.9 0 3.5 1.1 2 1.1 3.9 3.6 1.9 2.2 2.7 4.3 1.1 2.5 0.3 6.1-0.6 3.2-2.5 6-1.9 2.4-5.7 5.7-3.6 3-6.6 4.9-3 2.2-6.8 4.1-3.8 1.9-6 2.5-2.2 0.8-2.7 0-0.3-0.9 1.1-3 1.6-2.2 4.3-3.6 2.8-1.6 4.9-2.2 2.5-0.5 5-1.9 2.4-1.6 3.5-3.5 1.1-2.2 1.1-4.1 0.3-1.9-0.6-3-0.8-1.1-1.3-1.1-0.6-0.3 0 0.5 0.8 2.2-1.1 5.5-0.6 1.3-2.7 2.7-2.2 1.1-4.4 1.6-5.5 0.9-6-2.1 0-1.4 1.1-3.6 1.3-2.2 3.3-4.4 1.9-2.1 5.1-3.8 3.3-1.6 6-2.2 6.3-1.3-0.5-1.3-3 0-6.8 1.6-3.8 1.6-6.3 4.1-2.2 2.5-3.8 5.7-1.7 3.3-1.9 5.5 0 2.2-1.9 6.3-1.7 3.8-3.9 6.8v0.3q-2.4 3.3-4.9 5.7-2.4 2.5-3.8 2.7-1.4 0.6-2.2 0.9-0.8 0.2-0.8 0.2 0 0-0.3-0.8 0-0.8-0.3-2.2-0.5-1.3 0.6-4.6 1.1-3.6 2.7-7.1 1.7-3.8 4.1-7.1 2.5-3.6 4.4-4.9 2.2-1.4 4.1-4.4 1.9-3 2.7-6 0.8-3 0.3-7.1-0.3-4.4-1.7-6.8-3.2-5.2-1.6 0 1.1 2.4 1.1 6.3 0 3.8-0.8 6.2-0.6 2.8-1.9 5.2-1.4 2.2-2.8 2.8-2.7 0.8-4.6-4.1-0.5-2.2-0.5-4.7 0-2.4 0.8-3.8 1.6-3 4.1-3.6 0.8-0.2 0.5-0.5-0.3-0.3-1.6-0.5-1.4-0.3-3 0.8-1.7 1.1-3 3.2-1.1 2.2-1.4 5.2 0 2.8 0.8 5 0.8 2.1 0.6 5.4 0 3-0.9 5.5-1 2.2-2.1 2.2-0.9 0-1.4-2.2-0.3-2.2-0.5-6.3-0.3-4.4 0-8.2 0-3.5 0.8-8.2 0.8-4.6 2.2-7.6 1.3-3 4.1-5.2 2.7-2.2 5.1-2.8 2.5-0.5 5.2 0 3 0.6 4.9 1.7 1.7 1.1 2.8 2.7 1.3 1.7 1.1 3-0.3 1.4 0 1.1 0.5-0.5 1.1-2.2 0.8-1.6-0.3-3.8-1.1-2.2-3.3-3.5-2.2-1.4-5.7-2.2-3.3-0.8-6-0.3-2.5 0.5-5.2 1.6-2.5 1.1-3.6 2.5-1.1 1.4-1.9 1.1-0.5-0.6-0.3-2.5 0.3-1.9 1.7-3.8 1.3-2.2 3-3.5 4.1-2.8 5.2-5.5 0.8-2.5-1.1-4.4-0.8-1.1-2.2-2.2-1.4-1-2.5-1.9-1.1-0.8-1.3-0.5 0 0.3 0.8 1.6 0.8 1.4 1.4 3 0.8 1.4 1.1 2.2 0.2 1.1-0.9 2.5-0.8 1.3-2.2 2.4-1.3 1.1-2.4 1.4-1.1 0-1.4-0.6-0.5-0.5-0.2-1.9 0.5-1.6 1-3 0.6-1.3 0.9-2.7 0.5-1.4 0-1.9-0.3-0.6-0.9-0.3-0.5 0.3-0.8 1.1-1.3 2.2-0.8-1.1 0.3-1.3 0-3-0.3-1.9-0.8-2.7-0.6-1.1-1.4-1.1-0.8 0-1.3 1.1-1.7 2.2-1.1 5.7 0.2 1.4 0 1.9 0 0.3-0.6-0.8-0.5-0.8-1.1-1.1-0.5-0.3-0.8 0.3-0.5 0.5-0.3 1.9 0.6 1.4 1.1 2.7 1.9 3.3 0.8 4.9-0.2 0.6-1.3 0.6-1.1-0.3-2.5-1.4-3.2-2.2-2.7-4.9 0-0.8 0.5-2.2 0.9-1.6 1.7-3 0.8-1.3 0.5-1.6 0-0.3-1.1 0.5-1.1 0.9-2.4 1.9-1.1 1.1-2.2 2.2-1.9 1.9-1.1 4.4 0.5 1.1 1.9 2.7 1.7 1.4 3.3 2.8 1.6 1.3 3 3.5 1.4 1.9 1.6 3.8 0.3 1.9-0.5 2.5-0.6 0.3-1.7-1.1-1-1.4-3.8-2.5-2.4-1.1-4.9-1.6-2.4-0.5-6 0.3-3.3 0.8-5.5 2.2-2.1 1.3-3.2 3.5-1.1 2.2-0.6 3.8 1.7 3.6 1.4 1.1-0.3-1.3 0.8-3 1.1-1.6 2.7-2.7 1.9-1.1 4.9-1.7 3.1-0.5 5.2 0 2.8 0.6 5.2 2.8 2.8 2.2 4.1 5.2 1.4 3 2.2 7.6 0.8 4.7 1.1 8.2 0 3.8-0.3 8.2 0 4.1-0.5 6.3-0.6 2.2-1.7 2.2-0.8 0-1.6-2.2-1.1-2.5-1.4-5.5 0-3.3 1.1-5.4 0.6-2.2 0.3-5 0-3-1.1-5.2-1.1-2.1-3-3.2-1.6-1.1-3-0.8-1.4 0.2-1.6 0.5-0.3 0.3 0.5 0.5 2.7 0.6 4.4 3.6 0.8 1.4 0.8 3.8 0 2.5-0.8 4.7-1.9 4.9-4.7 4.1-1.1-0.6-2.4-2.8-1.4-2.4-2.2-5.2-0.8-2.4-0.8-6.2 0.2-3.9 1.1-6.3 1.1-2.8 0.5-2.8-0.5 0-1.9 2.8-1.6 2.4-2.2 6.8-0.3 4.1 0.6 7.1 0.8 3 2.7 6 2.2 3 3.8 4.4 2.2 1.3 4.7 4.9 2.4 3.3 4.3 7.1 1.4 3.5 2.5 7.1 1.1 3.3 0.5 4.6-0.5 3-3.5 1.9-1.4-0.2-3.8-2.7-2.5-2.4-4.7-6-2.4-3-4.4-6.8-1.6-4.1-1.6-6.3 0-2.2-1.9-5.5-1.6-3.5-3.8-5.7-2.2-2.5-6-4.1-3.9-1.6-6.9-1.6-6.8 0-0.8 1.3 2.8 0.6 6 2.2 3.3 1.7 5.2 3.8 1.9 2.2 3.3 4.4 1.4 2.2 1.1 3.6 0 1.3-1.9 2.1-1.7 0.6-3.8 0-5.5-1.3-7.4-4.6-1.9-3-0.8-5.2 0.5-1.9-1.7 0.3-1.9 2.7 0.6 7.4 1.3 1.9 3.8 3.5 2.5 1.4 4.6 1.9 2.2 0.6 5 2.2 2.7 1.4 4.3 3.6 1.7 2.1 1.1 3-0.5 0.8-2.7 0-2.2-0.9-6-2.8-3.8-1.9-6.9-3.8-3-1.9-6.5-4.9-3.6-3.3-5.7-6-1.9-2.5-2.8-5.7-0.5-3.6 0.6-6.1 0.8-2.1 2.7-4.3 1.9-2.5 3.8-3.6 1.7-1.1 3.6-1.1 2.2-0.2 3 0.6 2.2 1.9 0-1.4-1.1-1.3-3.6-1.6-2.4-0.3-4.6 1.1-2.5 1.3-4.9 3.8-2.2 2.4-3 4.9-1.1 2.5-1.4 5.5-0.3 2.7 0.3 4.1 0.5 1.6-0.3 2.1-0.5 0.3-1.9-0.8-1.4-1.1-2.7-3.2-1.1-2.5-1.4-4.7-0.3-1.9-0.8-3.8-0.6-2.2-1.1-3.3-0.6-0.8-1.9-1.1-1.4-0.5-2.7-0.3-1.4 0.6-3 1.1-1.4 0.6-2.8 1.1-1.3 0.6-1.1 0.8 0.6 0.3 1.9 0.3 3.3-0.5 5.8 0.6 0.8 0.2 1.3 1.6 0.9 1.4 1.1 3 0.6 1.6 0 3-0.5 1.1-1.1 1.1-0.8 0-1.9-0.8-1.1-1.1-1.9-2.5-1.9-3-3.5-3-1.7 0-0.3 1.9 0.5 0.9 0.3 1.1-0.3 0-1.4-1.1-3-1.9-5.7-1.9-2.2 0-1.4 2.2 0.5 1.1 1.9 2.2 1.4 1.1 2.7 1.6 1.4 0.6 1.7 0.9 0.3 0.2-0.8 0.2-3-0.5-1.9 1.1 1 1.7 4.6 1.7 1.4 0.2 2.7 0.8 1.4 0.2 1.9 0.8 0.6 0.5-0.5 1.6-0.8 0.8-2.5 1.4-3.5 1.4-5.4 0-0.6-0.6-1.7-1.9-1.1-1.4-1.6-2.7-1.4-2.8-1.4 0 0.3 1.3 0.6 3 0.2 1.6 0.8 3 0.5 2.7 3.3 3.2 1.3 0.3 3.2-0.2 2.2-0.6 4.1-1.4 2-1.1 4.4-1.1 2.7 0 4.1 0.6 3.8 1.9 0.3 2.7-1.7 0.3-4.1 1.9-2.2 1.4-3.8 3.5-1.7 2.2-2.8 5.5-1.1 3-0.8 5.7 0 2.8 1.4 4.7 1.3 1.9 3 2.2 4.3 0.5 1.3-0.6-1-0.5-1.9-2.2-0.8-1.6-1.1-3.8 0-2.2 1.1-4.9 1.1-2.7 2.8-4.6 1.6-2.2 4.9-3.3 3.3-1.4 6.5-0.8 3 0.5 7.4 2.1 4.6 1.4 7.9 3 3.3 1.7 6.8 4.1 3.6 2.5 5.5 3.9 4.1 3.5-1.9 2.7-2.5-0.3-5.5-1.6-2.7-1.7-4.1-3.6-1.6-1.6-4.3-3-2.5-1.4-4.7-1.4-2.2 0-4.1 1.1-1.9 0.8-2.4 2.2-1.1 3 0.5 1.4 0.6-0.8 1.9-1.4 1.4-0.5 3-0.5 1.4 0 3.6 1.3 2.2 1.1 3.8 2.8 1.6 1.9 1.9 3.8 0.6 1.6-0.5 2.2-1.4 0.8-3.8 0.8-2.5 0-5.5-0.6-2.7-0.5-6-2.4-3-1.9-4.9-4.1-1.9-2.2-2.2-1.9 0 0.3 1.6 3 1.4 2.7 4.7 5.2 3.5 2.4 6.5 3.2 3.3 0.9 6.8 0.9 3.6-0.3 5.8-1.4 2.2-1.1 6.3-1.6 4.3-0.6 8.1 0 4.1 0.5 7.4 1.3 3.6 0.8 4.7 1.7 0.8 1.1 1.3 1.6 0.8 0.5 0.8 0.5 0 0-0.8 0.6-0.5 0.5-1.3 1.6-1.1 0.9-4.7 1.7-3.3 0.8-7.4 1.3-3.8 0.6-8.1 0-4.1-0.5-6.3-1.6-2.2-1.1-5.8-1.1-3.5-0.3-6.8 0.6-3 0.8-6.5 3.2-3.3 2.5-4.7 5.2-1.6 2.7-1.6 3 0.3 0.3 2.2-1.9 1.9-2.2 4.9-4.1 3.3-1.9 6-2.4 3-0.6 5.5-0.6 2.4 0 3.5 0.8 1.4 0.6 0.8 2.5-0.3 1.6-1.9 3.5-1.6 1.7-3.8 3-2.2 1.1-3.6 1.1-3.8 0-5.1-1.9-0.6-0.5-0.9-0.3 0 0.3 0.6 1.7 0.5 1.3 2.4 2.4 1.9 0.9 4.1 0.9 2.2 0 4.7-1.4 2.7-1.4 4.3-3 1.4-1.9 4.1-3.3 2.8-1.6 5.5-1.9 5.5-0.8 1.9 2.7-1.9 1.4-5.5 3.9-3.5 2.4-6.8 4.1-3.3 1.6-7.9 3.2-4.4 1.4-7.4 1.9-3.2 0.6-6.5-0.5-3.3-1.4-4.9-3.6-1.7-1.9-2.8-4.6-1.1-2.7-1.1-4.9 0.3-2.2 1.1-3.8 0.9-1.7 1.9-2.2 3-1.1-1.3-0.6-1.7 0.3-3 2.2-1.4 1.9-1.4 4.7-0.3 2.7 0.8 6 1.1 3 2.8 5.2 1.6 2.1 3.8 3.8 2.4 1.3 4.1 1.6 3.3 0.8-0.3 2.7-1.6 0.6-4.1 0.6-2.4 0-4.4-1.1-1.9-0.8-4.1-1.4-1.9-0.5-3.2-0.2-2.8 0.5-3.3 3.2-0.6 1.4-0.8 3-0.3 1.7-0.6 3 0 2.8 1.4 0 0.5-1.3 1.6-2.7 1.1-1.4 1.7-1.9 1.9-1.4 5.4 0 1.7 0.5 2.5 1.6 1.1 0.9 0.5 1.4-0.5 0.5-1.9 1.1-1.3 0.3-2.7 0.5-3.6 0-4.6 1.7-1.1 1.6 1.6 1.1 1.4 0 1.1 0.2-0.3 0.3-1.7 0.9-1.3 0.5-2.7 1.6-1.4 1.1-1.9 2.2-0.8 2.2 1.4 2.2 3 0 5.4-1.9 1.4-1.1 1.7-0.9 0.2 0-0.3 0.9-1.4 1.9 0.3 1.9 1.6 0 3.5-3 0.8-1.4 1.9-2.2 1.1-1.1 1.9-1.1 0.6 0 0.9 1.4 0.5 1 0.2 2.7-0.2 1.6-1.1 3-0.5 1.4-1.6 1.6-0.8 0.6-2.5 0.8-1.6 0-3-0.2-1.6 0-1.9 0.2-0.2 0.3 1.1 0.9 1.4 0.5 2.8 1.1 1.6 0.5 3 1 1.3 0.3 2.7 0 1.3-0.5 1.9-1.3 0.5-1.1 1.1-3 0.5-2.2 0.8-4.1 0.3-2.2 1.4-4.4 1.3-2.4 2.7-3.5 1.4-1.1 1.9-0.6 0.8 0.3 0.3 1.9-0.6 1.4-0.3 4.4 0.3 2.7 1.4 5.2 0.8 2.4 3 4.9 2.4 2.5 4.9 3.8 2.2 1.4 4.6 1.1 2.5-0.3 3.6-1.6 2.2-3.3 0-1.4-1.1 0.8-3 0.8-1.9-0.2-3.6-1.3-1.9-1.1-3.8-3.3-1.9-2.5-2.7-4.6-1.1-2.5-0.6-5.8 0.9-3.5 2.8-6 2.1-2.7 5.7-5.7 3.5-3.3 6.5-5.2 3.1-1.9 6.9-3.8 3.8-1.9 6-2.8 2.2-0.8 2.7 0 0.6 0.9-1.1 3-1.6 2.2-4.3 3.9-2.8 1.3-5 1.9-2.1 0.5-4.6 2.2-2.5 1.3-3.8 3.2-2.5 4.7-0.6 7.4 2.5 2.5 1.4 0.3-0.3-0.8 0-2.2 0.3-1.6 1.1-3 1.9-3.3 7.4-4.6 2.1-0.6 3.8 0.2 1.9 0.6 1.9 1.9 0.3 1.4-1.1 3.6-1.4 2.2-3.3 4.4-1.9 2.1-5.2 3.8-3.2 1.6-6 2.2-6 1.3 0.8 1.3 3 0 6.9-1.6 3.8-1.7 6-4.1 2.2-2.2 3.8-5.5 1.6-3.5 1.9-5.7 0-2.2 1.6-6 2-4.1 4.4-7.1 2.2-3.6 4.7-6 2.4-2.5 3.8-2.7 1.3-0.6 2.2-0.6 0.8-0.3 0.8-0.3 0-0.2 0 0.6 0.3 0.8 0.5 2.2 0.6 1.3-0.5 4.9-1.1 3.3-2.5 6.8-1.9 3.8-4.3 7.4-2.5 3.3-4.7 4.6-1.6 1.4-3.8 4.4-1.9 3-2.7 6-0.9 3-0.6 7.4 0.6 4.1 2.2 6.5 1.4 2.7 1.9 2.7 0.6 0-0.5-2.7-0.9-2.4-1.1-6.3 0-3.8 0.8-6.2 0.8-2.8 2.2-5 1.3-2.4 2.4-3 2.8-0.8 4.7 4.1 0.8 2.2 0.8 4.7 0 2.4-0.8 3.8-1.7 3-4.4 3.5-0.8 0.3-0.5 0.6 0.2 0.3 1.6 0.5 1.4 0.3 3-0.8 1.9-1.1 3-3.3 1.1-2.1 1.1-4.9 0.3-3-0.3-5.2-1.1-2.1-1.1-5.1 0.3-3.3 1.4-5.8 0.8-2.2 1.6-2.2 1.1 0 1.7 2.2 0.5 2.2 0.5 6.6 0.3 4.1 0.3 7.9-0.3 3.5-1.1 8.2-0.8 4.6-2.2 7.6-1.3 3-4.1 5.2-2.4 2.2-5.2 2.7-2.1 0.6-5.2 0-3-0.5-4.9-1.6-1.6-1.1-2.7-2.4-1.1-1.7-0.8-3.1 0.3-2.7-1.4 0.9-0.5 1.6 0.6 3.8 1.1 2.2 3.2 3.5 2.2 1.4 5.5 2.2 3.6 0.8 6 0.3 2.5-0.6 4.9-1.6 2.8-1.1 3.8-2.5 1.1-1.4 1.7-0.8 0.8 0.3 0.5 2.2-0.2 1.9-1.6 4.1-1.4 1.9-3 3.2-1.6 1.4-3.3 3-1.4 1.4-1.9 2.5-0.8 2.5 1.1 4.4 1.1 1.1 2.2 2.1 1.3 1.1 2.4 2 1.1 0.8 1.1 0.5 0.3-0.3-0.5-1.6-0.8-1.4-1.7-2.8-0.5-1.3-0.5-2.4-0.5-2.5 2.7-4.9 1.4-1.1 2.5-1.1 1.1-0.3 1.3 0.2 1.1 1.7-0.8 5-0.5 1.3-1.1 2.7-0.2 1.4 0.3 1.9 0.3 0.5 0.8 0.3 0.6-0.3 1.1-1.1 0.6-1.1 0.6-0.6 0.2 0.3 0 1.7-0.3 1.3 0 3.3 0.5 1.6 1.1 2.7 1.1 2.2 2.7 0 0.5-1.1 0.8-2.7 0.3-2 0-3.3-0.5-3.3 0.8-1.1 0.3 0.8 0.8 1.1 0.6 0.2 0.9-0.3 0.5-0.5 0-1.9-0.3-1.4-0.9-2.7-0.5-1.4-1-2.8-0.3-1.6 0.2-2.2 0.3-0.5 1.4-0.2 1.1 0 2.4 1.1 1.4 1.1 2.2 2.4 1.1 1.4 0.9 2.5-0.6 2.2-2.5 5.2-0.8 1.3-0.8 1.6 0.2 0.3 1.3-0.5 1.1-0.9 2.5-2 1.4-1 2.2-2.1 1.9-1.9 1.1-4.4-1.1-2.7-5.2-5.5-1.7-1.3-3-3.2-1.4-2.2-1.7-4.1-0.2-1.9 0.3-2.2 0.8-0.6 1.9 0.8 1.1 1.4 3.6 2.5 2.7 1 5.2 1.6 2.7 0.5 6-0.3 3.5-0.8 5.7-2.2 2.2-1.3 3.3-3.5 1.1-2.2 0.3-3.8-0.6-1.7-1.1-1.9-0.3-0.3 0 1 0.2 1.4-1.1 3.1-1.1 1.3-2.8 2.4-1.9 1.1-4.9 1.6-2.7 0.6-5.2 0-2.4-0.5-5.1-2.7-2.8-2.2-4.1-5.2-1.4-3-2.2-7.6-0.8-4.7-0.8-8.2-0.3-3.8 0-7.9 0.2-4.4 0.5-6.6 0.5-2.2 1.4-2.2 1.1 0 2.1 2.2 0.9 2.5 0.9 5.8 0.2 3-0.6 5.1-0.8 2.2-0.8 5.2 0.3 2.8 1.4 4.9 1.3 2.2 3 3.3 1.6 1.1 3 0.8 1.3-0.2 1.6-0.5 0.3-0.3-0.5-0.6-2.5-0.5-4.1-3.5-0.8-1.4-0.8-3.8 0-2.5 0.5-4.7 1.9-4.9 4.6-4.1 1.4 0.6 2.8 3 1.3 2.2 1.9 5 0.8 2.4 0.8 6.2 0 3.9-1.1 6.3-1.6 5.5 1.6 0 1.4-2.4 1.7-6.5 0.5-4.4-0.3-7.4-0.8-3-2.7-6-1.9-3-4.1-4.4-1.9-1.3-4.4-4.6-2.4-3.6-4.1-7.4-1.6-3.5-2.7-6.8-1.1-3.6-0.6-4.9 0.3-1.4 0.3-2.2 0.3-0.8 0.3-0.8 0 0 0.8 0.2 0.8 0.3 2.2 0.9 1.4 0.2 3.8 2.7 2.5 2.4 4.9 5.7v0.3q2.2 3 3.9 7.1 1.9 3.8 2.1 6 0 2.2 1.7 5.5 1.6 3.2 3.8 5.7 2.5 2.4 6.3 4.1 3.8 1.6 6.8 1.6 6.8 0 0.5-1.3-2.7-0.6-6-2.2-3.2-1.7-5.1-3.8-2-2.2-3.3-4.4-1.1-2.2-1.1-3.6 0.5-3 6-2.1 2.2 0.5 4.4 1.9 2.1 1.1 3 2.4 0.5 1.4 0.8 3 0.5 1.4 0 2.5-0.6 0.8 0 0.8 0.5-0.3 1.3-1.4 0.9-1.1 0.6-3 0-1.9-1.1-4.1-1.1-1.9-3.5-3.2-2.5-1.7-5-2.2-2.1-0.6-4.9-1.9-2.7-1.7-4.3-3.9-1.4-2.1-1.1-3 0.5-0.8 2.7 0 2.2 0.6 6 2.5 3.8 1.9 6.8 4.1 3 1.9 6.6 5.2 3.8 3 5.7 5.4 1.9 2.8 2.5 6.3 0.8 3.3-0.3 5.8-0.8 2.1-2.7 4.6-1.9 2.2-3.9 3.3-1.6 1.1-3.5 1.3-1.9 0-3-0.8-1.6-1.4 0.3 1.4 1.1 1.3 3.2 1.6 2.5 0.3 5-1.1 2.4-1.3 4.6-3.8 2.2-2.5 3.3-4.9 0.8-2.5 1.1-5.2 0.2-3-0.3-4.6-0.6-1.4 0-1.7 0.8-0.5 2.2 0.6 1.6 1.1 2.7 3.2 1.1 2.2 1.4 4.4 0.2 2.2 0.8 4.4 0.5 1.9 1.4 2.7 1.3 2.5 4.3 1.4 1.4-0.3 2.8-0.8 1.6-0.6 3-1.1 2.1-1.1-0.6-1.1-1.4 0-3.3 0-1.6 0-2.4-0.6-0.8-0.2-1.7-1.6-0.8-1.4-1.1-3-0.5-4.1 1.4-4.1 0.6 0 1.6 1.1 1.4 0.8 2 2.2 1.9 3 3.8 3 1.3 0 0-1.9-1.4-2.2 1.3 0 2.8 1.9 5.5 1.9z"/>
						<path id="Snowflake copy 2" class="s7" aria-label="E"  d="m1601.5 184.3q2.3 0 1.2-1.8-0.5-0.9-1.6-1.8-1.1-0.9-2.3-1.3-1.1-0.5-1.3-0.7 0-0.2 0.9-0.2 2.2 0 1.3-0.9-0.2-0.5-1.3-0.9-1.1-0.4-2.2-0.4-1.4-0.3-2.5-0.5-1.1-0.4-1.3-0.9-0.9-1.3 2.2-2.4 1.3-0.5 2.7-0.5 1.3-0.2 1.8 0.5 1.3 1.1 2.7 3.5 1.1 2.7 1.1 0.3-0.2-1.2-0.5-2.5-0.2-1.3-0.6-2.5-0.3-1.1-1.2-1.8-0.6-0.9-1.5-0.9-0.9-0.2-2.7 0.3-1.6 0.4-3.4 1.1-1.5 0.9-3.5 0.9-2.1 0-3.4-0.5-2.9-1.5-0.2-2.2 1.3-0.2 3.3-1.3 2-1.4 3.2-3.2 1.3-1.8 2.2-4.2 0.9-2.7 0.9-4.9-0.2-2.3-1.3-3.8-1.2-1.6-2.5-1.8-1.4-0.3-1.8 0-0.4 0 0.7 0.4 1.1 0.5 1.5 1.8 0.7 1.3 0.9 3.1 0 1.8-0.9 4.1-0.9 2.2-2 3.8-1.3 1.8-4.2 2.9-2.7 0.9-5.2 0.4-2.7-0.4-6.5-1.5-3.5-1.4-6.2-2.7-2.5-1.6-5.4-3.4-2.9-2-4.5-3.1-3.3-2.9 1.6-2.3 2 0.3 4.3 1.4 2.4 1.1 3.5 2.7 1.2 1.5 3.4 2.7 2.2 1.1 4 1.1 1.8 0 3.1-0.7 1.6-0.9 2.1-2 0.4-1.1 0.2-1.4 0-0.4-0.5 0.3-1.1 1.5-4 1.5-1.3 0-3.1-0.9-1.8-1.1-3.2-2.6-1.1-1.4-1.5-2.7-0.2-1.6 0.7-2 0.8-0.7 2.9-0.7 2.2 0 4.4 0.4 2.3 0.5 4.7 2 2.7 1.6 4.3 3.4 1.5 1.8 1.5 1.6 0.3-0.3-1.1-2.5-1.1-2.2-4-4.2-2.7-2.1-5.1-2.7-2.5-0.7-5.6-0.5-2.9 0-4.7 0.9-1.8 0.9-5.2 1.4-3.3 0.4-6.7 0-3.3-0.5-6.2-1.2-2.7-0.6-3.4-1.3-1.8-1.8 0-3.6 0.7-0.6 3.4-1.3 2.9-0.7 6.2-1.1 3.4-0.5 6.7 0 3.4 0.4 5.2 1.3 1.8 0.9 4.7 1.1 2.9 0 5.6-0.6 2.4-0.7 5.1-2.7 2.9-2 4-4.3 1.4-2.2 1.1-2.4 0-0.3-1.5 1.5-1.6 1.8-4.3 3.4-2.4 1.5-4.7 2-2.2 0.4-4.4 0.4-2.1 0-2.9-0.6-0.9-0.5-0.7-1.8 0.4-1.6 1.5-2.9 1.4-1.6 3.2-2.5 1.8-1.1 3.1-1.1 2.9 0 4 1.6 1.2 1.3 0.3-1.2-0.5-1.1-2.1-1.7-1.3-0.9-3.1-0.9-1.8 0-4 1.1-2.2 1.1-3.4 2.7-1.1 1.5-3.5 2.6-2.5 1.2-4.5 1.4-2 0.4-2.5-0.2-0.4-0.7 1.1-2 1.6-1.2 4.5-3 2.9-2 5.4-3.5 2.7-1.4 6.2-2.5 3.8-1.3 6.5-1.8 2.5-0.4 5.2 0.7 2.9 0.9 4.2 2.7 1.1 1.5 2 3.8 0.9 2.2 0.9 4-0.2 1.8-0.9 3.1-0.4 1.4-1.5 1.8-1.1 0.5-0.7 0.7 0.4 0 1.8-0.2 1.3-0.3 2.5-1.8 1.1-1.6 1.3-3.8 0-2.3-0.9-4.7-0.9-2.7-2.2-4.5-1.2-1.8-3.2-2.9-2-1.3-3.3-1.6-2.7-0.6 0.2-2.2 1.3-0.5 3.4-0.5 2 0 3.5 0.9 1.8 0.7 3.4 1.2 1.8 0.4 2.7 0.2 0.9 0 1.5-0.7 0.9-0.9 1.2-2 0.4-1.1 0.6-2.5 0.3-1.3 0.5-2.4 0-2.5-1.1 0.2-1.4 2.5-2.7 3.6-0.5 0.7-2 0.7-1.4-0.3-2.5-0.7-3.1-1.1-2.2-2.5 0.2-0.4 1.3-0.7 1.1-0.4 2.5-0.6 1.1 0 2.2-0.5 1.1-0.4 1.3-0.9 0.9-0.9-1.3-0.9-0.9 0-0.9-0.2 0.2-0.2 1.3-0.7 1.2-0.4 2.3-1.3 1.1-0.9 1.6-1.8 1.1-1.8-1.2-1.8-2.2 0-4.4 1.6-2.3 1.8-1.2 0 1.2-1.6-0.2-1.6-1.3 0-2.9 2.5-0.7 1.1-1.6 2-0.9 0.7-1.3 0.7-1.6 0-1.1-3.4 0.2-1.3 0.9-2.4 0.6-1.2 1.3-1.4 0.7-0.4 2-0.4 1.4 0 2.7 0 2.3 0 0.5-0.9-1.2-0.5-2.5-0.9-1.1-0.5-2.2-0.7-2.3-0.7-3.8 1.1-0.5 0.7-0.9 2.5-0.5 1.6-0.7 3.3-0.2 1.8-1.1 3.6-0.9 1.8-2.3 2.7-1.1 0.9-1.7 0.7-0.5-0.5 0-1.6 0.4-1.3 0.2-3.6-0.2-2.4-0.9-4.4-0.9-2.1-2.7-4.1-1.8-2-3.8-3.1-2-1.1-4-0.9-1.8 0.2-2.7 1.3-1.1 1.2-1.1 1.6 0 0.2 0.9-0.4 0.9-0.7 2.4-0.5 1.6 0 2.9 0.9 1.6 0.9 3.2 2.9 1.5 1.8 2.2 3.6 0.9 2 0.2 4.9-0.4 2.7-2 4.9-1.6 2.1-4.7 4.7-2.9 2.5-5.4 4.1-2.4 1.8-5.5 3.3-3.2 1.6-5 2-1.8 0.7-2.2 0-0.2-0.6 0.9-2.4 1.3-1.8 3.6-2.9 2.2-1.4 4-1.8 2-0.5 4-1.6 2-1.3 2.9-2.9 0.9-1.8 0.9-3.4 0.2-1.5-0.4-2.4-0.7-0.9-1.1-0.9-0.5-0.2 0 0.4 0.6 1.8-0.9 4.5-0.5 1.1-2.3 2.2-1.8 0.9-3.6 1.4-4.4 0.7-4.9-1.8 0-1.1 0.9-2.9 1.1-1.8 2.7-3.6 1.6-1.8 4.3-3.1 2.6-1.4 4.9-1.8 5.1-1.1-0.5-1.1-2.4 0-5.6 1.3-3.1 1.4-5.1 3.4-1.8 2-3.1 4.7-1.4 2.7-1.6 4.4 0 1.8-1.6 5.2-1.3 3.1-3.1 5.6v0.2q-2 2.7-4 4.7-2 2-3.2 2.2-1.1 0.5-1.7 0.7-0.7 0.2-0.7 0.2 0 0-0.2-0.6 0-0.7-0.3-1.8-0.4-1.1 0.5-3.8 0.9-2.9 2.2-5.8 1.4-3.2 3.4-5.9 2-2.9 3.6-4 1.7-1.1 3.3-3.6 1.6-2.4 2.2-4.9 0.7-2.4 0.3-5.8-0.3-3.6-1.4-5.6-2.7-4.2-1.3 0 0.9 2 0.9 5.1 0 3.2-0.7 5.2-0.4 2.2-1.6 4.2-1.1 1.8-2.2 2.3-2.2 0.6-3.8-3.4-0.4-1.8-0.4-3.8 0-2 0.6-3.1 1.4-2.5 3.4-2.9 0.7-0.2 0.4-0.5-0.2-0.2-1.3-0.4-1.1-0.2-2.5 0.7-1.3 0.9-2.4 2.6-0.9 1.8-1.2 4.3 0 2.2 0.7 4 0.7 1.8 0.5 4.5 0 2.5-0.7 4.5-0.9 1.8-1.8 1.8-0.7 0-1.1-1.8-0.2-1.8-0.5-5.2-0.2-3.6 0-6.7 0-2.9 0.7-6.7 0.7-3.8 1.8-6.3 1.1-2.4 3.4-4.2 2.2-1.8 4.2-2.2 2-0.5 4.3 0 2.4 0.4 4 1.3 1.3 0.9 2.2 2.2 1.1 1.4 0.9 2.5-0.2 1.1 0 0.9 0.5-0.5 0.9-1.8 0.7-1.3-0.2-3.1-0.9-1.8-2.7-2.9-1.8-1.2-4.7-1.8-2.7-0.7-4.9-0.3-2 0.5-4.3 1.4-2 0.9-2.9 2-0.9 1.1-1.5 0.9-0.5-0.5-0.3-2 0.3-1.6 1.4-3.2 1.1-1.7 2.4-2.9 3.4-2.2 4.3-4.4 0.7-2-0.9-3.6-0.7-0.9-1.8-1.8-1.1-0.9-2-1.6-0.9-0.6-1.1-0.4 0 0.2 0.6 1.3 0.7 1.1 1.2 2.5 0.6 1.1 0.9 1.8 0.2 0.9-0.7 2-0.7 1.1-1.8 2-1.1 0.9-2 1.1-0.9 0-1.1-0.4-0.5-0.5-0.3-1.6 0.5-1.3 0.9-2.5 0.5-1.1 0.7-2.2 0.5-1.1 0-1.6-0.2-0.4-0.7-0.2-0.4 0.2-0.6 0.9-1.2 1.8-0.7-0.9 0.2-1.1 0-2.4-0.2-1.6-0.7-2.3-0.4-0.9-1.1-0.9-0.7 0-1.1 0.9-1.4 1.8-0.9 4.7 0.2 1.1 0 1.6 0 0.2-0.5-0.7-0.4-0.7-0.9-0.9-0.4-0.2-0.6 0.2-0.5 0.5-0.2 1.6 0.4 1.1 0.8 2.2 1.6 2.7 0.7 4.1-0.2 0.4-1.1 0.4-0.9-0.2-2-1.1-2.7-1.8-2.2-4 0-0.7 0.4-1.8 0.7-1.4 1.3-2.5 0.7-1.1 0.5-1.3 0-0.2-0.9 0.4-0.9 0.7-2 1.6-0.9 0.9-1.8 1.8-1.6 1.6-0.9 3.6 0.4 0.9 1.6 2.2 1.3 1.1 2.6 2.2 1.4 1.2 2.5 2.9 1.1 1.6 1.3 3.2 0.3 1.5-0.4 2-0.4 0.2-1.3-0.9-0.9-1.1-3.2-2-2-0.9-4-1.4-2-0.4-4.9 0.3-2.7 0.6-4.5 1.8-1.8 1.1-2.7 2.9-0.9 1.8-0.4 3.1 1.3 2.9 1.1 0.9-0.2-1.1 0.7-2.5 0.9-1.3 2.2-2.2 1.6-0.9 4-1.3 2.5-0.5 4.3 0 2.2 0.4 4.2 2.2 2.3 1.8 3.4 4.2 1.1 2.5 1.8 6.3 0.6 3.8 0.9 6.7 0 3.1-0.3 6.7 0 3.4-0.4 5.2-0.5 1.8-1.3 1.8-0.7 0-1.4-1.8-0.9-2-1.1-4.5 0-2.7 0.9-4.5 0.4-1.8 0.2-4 0-2.5-0.9-4.3-0.9-1.7-2.4-2.6-1.4-0.9-2.5-0.7-1.1 0.2-1.3 0.4-0.3 0.3 0.4 0.5 2.2 0.4 3.6 2.9 0.7 1.1 0.7 3.1 0 2-0.7 3.8-1.6 4-3.8 3.4-0.9-0.5-2-2.3-1.2-2-1.8-4.2-0.7-2-0.7-5.2 0.2-3.1 0.9-5.1 0.9-2.2 0.4-2.2-0.4 0-1.5 2.2-1.4 2-1.8 5.6-0.2 3.4 0.4 5.8 0.7 2.5 2.3 4.9 1.8 2.5 3.1 3.6 1.8 1.1 3.8 4 2 2.7 3.6 5.9 1.1 2.9 2 5.8 0.9 2.7 0.4 3.8-0.4 2.4-2.9 1.5-1.1-0.2-3.1-2.2-2-2-3.8-4.9-2-2.5-3.6-5.6-1.3-3.4-1.3-5.2 0-1.7-1.6-4.4-1.3-2.9-3.1-4.7-1.8-2-4.9-3.4-3.2-1.3-5.6-1.3-5.6 0-0.7 1.1 2.2 0.4 4.9 1.8 2.7 1.3 4.3 3.1 1.5 1.8 2.7 3.6 1.1 1.8 0.9 2.9 0 1.1-1.6 1.8-1.4 0.4-3.1 0-4.5-1.1-6.1-3.8-1.5-2.5-0.7-4.3 0.5-1.5-1.3 0.3-1.6 2.2 0.5 6 1.1 1.6 3.1 2.9 2 1.1 3.8 1.6 1.8 0.4 4 1.8 2.2 1.1 3.6 2.9 1.3 1.8 0.9 2.4-0.5 0.7-2.3 0-1.7-0.6-4.9-2.2-3.1-1.6-5.6-3.1-2.4-1.6-5.3-4.1-2.9-2.6-4.7-4.9-1.6-2-2.3-4.7-0.4-2.9 0.5-4.9 0.7-1.8 2.2-3.6 1.6-2 3.1-2.9 1.4-0.9 3-0.9 1.7-0.2 2.4 0.5 1.8 1.5 0-1.2-0.9-1.1-2.9-1.3-2-0.2-3.8 0.9-2 1.1-4 3.1-1.8 2-2.5 4.1-0.9 2-1.1 4.4-0.2 2.3 0.2 3.4 0.5 1.3-0.2 1.8-0.4 0.2-1.6-0.7-1.1-0.9-2.2-2.7-0.9-2-1.1-3.8-0.2-1.5-0.7-3.1-0.4-1.8-0.9-2.7-0.4-0.7-1.5-0.9-1.2-0.4-2.3-0.2-1.1 0.4-2.4 0.9-1.2 0.4-2.3 0.9-1.1 0.4-0.9 0.6 0.5 0.3 1.6 0.3 2.7-0.5 4.7 0.4 0.7 0.2 1.1 1.4 0.7 1.1 0.9 2.4 0.4 1.4 0 2.5-0.4 0.9-0.9 0.9-0.7 0-1.6-0.7-0.9-0.9-1.5-2-1.6-2.5-2.9-2.5-1.4 0-0.3 1.6 0.5 0.7 0.3 0.9-0.3 0-1.2-0.9-2.4-1.6-4.7-1.6-1.7 0-1.1 1.8 0.5 0.9 1.6 1.8 1.1 0.9 2.2 1.3 1.2 0.5 1.4 0.7 0.2 0.2-0.7 0.2-2.5-0.4-1.6 0.9 0.9 1.4 3.8 1.4 1.2 0.2 2.3 0.6 1.1 0.3 1.5 0.7 0.5 0.5-0.4 1.4-0.7 0.6-2 1.1-2.9 1.1-4.5 0-0.4-0.5-1.3-1.6-0.9-1.1-1.4-2.2-1.1-2.3-1.1 0 0.2 1.1 0.5 2.4 0.2 1.4 0.6 2.5 0.5 2.2 2.7 2.7 1.1 0.2 2.7-0.2 1.8-0.5 3.3-1.2 1.6-0.9 3.6-0.9 2.3 0 3.4 0.5 3.1 1.6 0.2 2.2-1.3 0.3-3.3 1.6-1.8 1.1-3.2 2.9-1.3 1.8-2.2 4.5-0.9 2.4-0.7 4.7 0 2.2 1.1 3.8 1.1 1.5 2.5 1.8 3.6 0.4 1.1-0.5-0.9-0.4-1.6-1.8-0.6-1.3-0.9-3.1 0-1.8 0.9-4 0.9-2.3 2.3-3.8 1.3-1.8 4-2.7 2.7-1.1 5.4-0.7 2.4 0.5 6 1.8 3.8 1.1 6.5 2.5 2.7 1.3 5.6 3.3 2.9 2 4.5 3.2 3.3 2.9-1.6 2.2-2-0.2-4.5-1.4-2.2-1.3-3.3-2.9-1.4-1.3-3.6-2.4-2-1.1-3.8-1.1-1.8 0-3.4 0.9-1.5 0.6-2 1.7-0.9 2.5 0.5 1.2 0.4-0.7 1.5-1.2 1.2-0.4 2.5-0.4 1.1 0 2.9 1.1 1.8 0.9 3.1 2.3 1.4 1.5 1.6 3.1 0.4 1.3-0.4 1.8-1.2 0.6-3.2 0.6-2 0-4.5-0.4-2.2-0.5-4.9-2-2.4-1.6-4-3.4-1.6-1.8-1.8-1.5 0 0.2 1.4 2.4 1.1 2.3 3.8 4.3 2.9 2 5.3 2.7 2.7 0.6 5.6 0.6 2.9-0.2 4.7-1.1 1.8-0.9 5.2-1.3 3.5-0.5 6.7 0 3.3 0.4 6 1.1 2.9 0.7 3.8 1.3 0.7 0.9 1.1 1.4 0.7 0.4 0.7 0.4 0 0-0.7 0.5-0.4 0.4-1.1 1.3-0.9 0.7-3.8 1.3-2.7 0.7-6 1.2-3.2 0.4-6.7 0-3.4-0.5-5.2-1.4-1.8-0.9-4.7-0.9-2.9-0.2-5.6 0.5-2.4 0.6-5.3 2.7-2.7 2-3.8 4.2-1.4 2.2-1.4 2.5 0.2 0.2 1.8-1.6 1.6-1.8 4-3.4 2.7-1.5 4.9-2 2.5-0.4 4.5-0.4 2 0 2.9 0.7 1.1 0.4 0.7 2-0.2 1.3-1.6 2.9-1.3 1.3-3.1 2.4-1.8 0.9-2.9 0.9-3.1 0-4.3-1.5-0.4-0.5-0.6-0.3 0 0.3 0.4 1.4 0.5 1.1 2 2 1.6 0.7 3.4 0.7 1.8 0 3.8-1.1 2.2-1.2 3.6-2.5 1.1-1.6 3.3-2.7 2.3-1.3 4.5-1.6 4.5-0.6 1.6 2.3-1.6 1.1-4.5 3.1-2.9 2-5.6 3.4-2.7 1.3-6.5 2.7-3.6 1.1-6 1.5-2.7 0.5-5.4-0.4-2.7-1.1-4-2.9-1.4-1.6-2.3-3.8-0.9-2.3-0.9-4.1 0.3-1.8 0.9-3.1 0.7-1.3 1.6-1.8 2.5-0.9-1.1-0.4-1.4 0.2-2.5 1.8-1.1 1.5-1.1 3.8-0.2 2.2 0.7 4.9 0.9 2.4 2.2 4.2 1.4 1.8 3.2 3.2 2 1.1 3.3 1.3 2.7 0.7-0.2 2.2-1.4 0.5-3.4 0.5-2 0-3.6-0.9-1.5-0.7-3.3-1.1-1.6-0.5-2.7-0.3-2.2 0.5-2.7 2.7-0.4 1.2-0.6 2.5-0.3 1.3-0.5 2.5 0 2.2 1.1 0 0.5-1.2 1.4-2.3 0.9-1.1 1.3-1.5 1.6-1.2 4.5 0 1.3 0.4 2 1.3 0.9 0.7 0.4 1.1-0.4 0.5-1.5 0.9-1.1 0.2-2.3 0.5-2.9 0-3.8 1.3-0.9 1.3 1.4 0.9 1.1 0 0.9 0.2-0.2 0.2-1.4 0.7-1.1 0.4-2.2 1.3-1.1 0.9-1.6 1.8-0.6 1.8 1.1 1.8 2.5 0 4.5-1.6 1.1-0.9 1.4-0.6 0.2 0-0.3 0.6-1.1 1.6 0.3 1.6 1.3 0 2.9-2.5 0.6-1.1 1.5-1.7 0.9-0.9 1.6-0.9 0.5 0 0.7 1.1 0.4 0.9 0.2 2.2-0.2 1.4-0.9 2.5-0.4 1.1-1.3 1.3-0.7 0.5-2.1 0.7-1.3 0-2.4-0.2-1.4 0-1.6 0.2-0.2 0.2 0.9 0.7 1.1 0.4 2.3 0.9 1.3 0.4 2.4 0.8 1.1 0.3 2.3 0 1.1-0.4 1.5-1.1 0.5-0.9 0.9-2.4 0.5-1.8 0.7-3.4 0.2-1.8 1.1-3.6 1.1-2 2.2-2.9 1.2-0.9 1.6-0.4 0.7 0.2 0.2 1.5-0.4 1.2-0.2 3.6 0.2 2.3 1.1 4.3 0.7 2 2.5 4 2 2 4 3.1 1.8 1.2 3.8 0.9 2-0.2 2.9-1.3 1.8-2.7 0-1.1-0.9 0.6-2.4 0.6-1.6-0.2-3-1.1-1.5-0.9-3.1-2.7-1.5-2-2.2-3.8-0.9-2-0.5-4.7 0.7-2.9 2.3-4.9 1.8-2.2 4.7-4.7 2.9-2.7 5.3-4.2 2.5-1.6 5.6-3.2 3.2-1.5 4.9-2.2 1.8-0.7 2.3 0 0.4 0.7-0.9 2.5-1.4 1.8-3.6 3.1-2.2 1.1-4 1.6-1.8 0.4-3.8 1.7-2 1.2-3.1 2.7-2.1 3.8-0.5 6.1 2 2 1.1 0.2-0.2-0.7 0-1.8 0.2-1.3 0.9-2.5 1.6-2.6 6.1-3.8 1.7-0.4 3.1 0.3 1.6 0.4 1.6 1.5 0.2 1.2-0.9 2.9-1.2 1.8-2.7 3.6-1.6 1.8-4.3 3.2-2.7 1.3-4.9 1.7-4.9 1.2 0.7 1.2 2.4 0 5.6-1.4 3.1-1.3 4.9-3.3 1.8-1.8 3.1-4.5 1.4-2.9 1.6-4.7 0-1.8 1.3-4.9 1.6-3.4 3.6-5.8 1.8-3 3.8-5 2-2 3.1-2.2 1.2-0.5 1.8-0.5 0.7-0.2 0.7-0.2 0-0.2 0 0.5 0.2 0.6 0.4 1.8 0.5 1.1-0.4 4-0.9 2.7-2 5.6-1.6 3.1-3.6 6-2 2.7-3.8 3.8-1.3 1.1-3.1 3.6-1.6 2.5-2.3 4.9-0.6 2.5-0.4 6.1 0.4 3.3 1.8 5.3 1.1 2.3 1.5 2.3 0.5 0-0.4-2.3-0.7-2-0.9-5.1 0-3.1 0.7-5.2 0.6-2.2 1.8-4 1.1-2 2-2.4 2.2-0.7 3.8 3.3 0.7 1.8 0.7 3.8 0 2-0.7 3.1-1.4 2.5-3.6 2.9-0.7 0.3-0.4 0.5 0.2 0.2 1.3 0.4 1.1 0.3 2.5-0.6 1.5-0.9 2.4-2.7 0.9-1.8 0.9-4 0.2-2.5-0.2-4.3-0.9-1.8-0.9-4.2 0.2-2.7 1.1-4.7 0.7-1.8 1.4-1.8 0.8 0 1.3 1.8 0.4 1.8 0.4 5.3 0.3 3.4 0.3 6.5-0.3 2.9-0.9 6.7-0.7 3.8-1.8 6.3-1.1 2.5-3.4 4.2-2 1.8-4.2 2.3-1.8 0.4-4.3 0-2.4-0.5-4-1.4-1.3-0.9-2.2-2-0.9-1.3-0.7-2.4 0.2-2.3-1.1 0.6-0.5 1.4 0.4 3.2 0.9 1.8 2.7 2.9 1.8 1.1 4.5 1.8 2.9 0.6 4.9 0.2 2-0.5 4-1.4 2.3-0.8 3.2-2 0.9-1.1 1.3-0.6 0.7 0.2 0.4 1.8-0.2 1.5-1.3 3.3-1.1 1.6-2.5 2.7-1.3 1.1-2.6 2.5-1.2 1.1-1.6 2-0.7 2 0.9 3.5 0.9 0.9 1.8 1.8 1.1 0.9 2 1.6 0.9 0.7 0.9 0.4 0.2-0.2-0.5-1.3-0.6-1.1-1.3-2.2-0.4-1.2-0.4-2-0.5-2.1 2.2-4.1 1.1-0.9 2-0.9 0.9-0.2 1.1 0.3 0.9 1.3-0.7 4-0.4 1.1-0.8 2.2-0.3 1.1 0.2 1.6 0.2 0.4 0.6 0.2 0.5-0.2 0.9-0.9 0.5-0.9 0.5-0.4 0.2 0.2 0 1.3-0.2 1.1 0 2.7 0.4 1.3 0.9 2.2 0.9 1.8 2.2 0 0.5-0.9 0.7-2.2 0.2-1.6 0-2.7-0.5-2.7 0.7-0.9 0.2 0.7 0.6 0.9 0.5 0.2 0.7-0.2 0.5-0.5 0-1.6-0.2-1.1-0.7-2.2-0.4-1.1-0.9-2.3-0.2-1.3 0.3-1.7 0.2-0.5 1.1-0.3 0.9 0 2 0.9 1.1 0.9 1.8 2 0.9 1.2 0.7 2.1-0.5 1.7-2.1 4.2-0.6 1.1-0.6 1.3 0.2 0.3 1.1-0.4 0.9-0.7 2-1.6 1.1-0.9 1.8-1.8 1.6-1.5 0.9-3.5-0.9-2.3-4.3-4.5-1.3-1.1-2.4-2.7-1.1-1.8-1.4-3.3-0.2-1.6 0.3-1.8 0.6-0.5 1.5 0.6 0.9 1.2 2.9 2 2.3 0.9 4.3 1.4 2.2 0.4 4.9-0.2 2.9-0.7 4.7-1.8 1.8-1.1 2.7-2.9 0.9-1.8 0.2-3.2-0.4-1.3-0.9-1.5-0.2-0.3 0 0.9 0.2 1.1-0.9 2.4-0.9 1.1-2.2 2-1.6 0.9-4 1.4-2.3 0.4-4.3 0-2-0.5-4.2-2.3-2.3-1.7-3.4-4.2-1.1-2.5-1.8-6.3-0.7-3.8-0.7-6.7-0.2-3.1 0-6.5 0.3-3.5 0.5-5.3 0.4-1.8 1.1-1.8 0.9 0 1.8 1.8 0.7 2 0.7 4.7 0.2 2.4-0.5 4.2-0.7 1.8-0.7 4.3 0.3 2.2 1.2 4 1.1 1.8 2.4 2.7 1.4 0.9 2.5 0.6 1.1-0.2 1.3-0.4 0.3-0.2-0.4-0.5-2-0.4-3.4-2.9-0.6-1.1-0.6-3.1 0-2 0.4-3.8 1.6-4 3.8-3.3 1.1 0.4 2.2 2.4 1.2 1.8 1.6 4 0.7 2.1 0.7 5.2 0 3.1-0.9 5.1-1.4 4.5 1.3 0 1.1-2 1.4-5.3 0.4-3.6-0.3-6.1-0.6-2.4-2.2-4.9-1.6-2.5-3.3-3.6-1.6-1.1-3.6-3.8-2-2.9-3.4-6-1.3-2.9-2.2-5.6-0.9-2.9-0.5-4 0.3-1.2 0.3-1.8 0.2-0.7 0.2-0.7 0 0 0.7 0.2 0.6 0.2 1.7 0.7 1.2 0.2 3.2 2.2 2 2 4 4.7v0.3q1.8 2.4 3.1 5.8 1.6 3.1 1.8 4.9 0 1.8 1.4 4.5 1.3 2.6 3.1 4.7 2 2 5.1 3.3 3.2 1.4 5.6 1.4 5.6 0 0.5-1.2-2.3-0.4-4.9-1.7-2.7-1.4-4.3-3.2-1.6-1.8-2.7-3.6-0.9-1.7-0.9-2.9 0.5-2.4 4.9-1.8 1.8 0.5 3.6 1.6 1.8 0.9 2.5 2 0.4 1.1 0.7 2.5 0.4 1.1 0 2-0.5 0.7 0 0.7 0.4-0.3 1.1-1.2 0.6-0.8 0.4-2.4 0-1.6-0.9-3.4-0.9-1.5-2.9-2.7-2-1.3-4-1.7-1.8-0.5-4-1.6-2.3-1.3-3.6-3.1-1.1-1.8-0.9-2.5 0.4-0.7 2.2 0 1.8 0.4 5 2 3.1 1.6 5.5 3.4 2.5 1.5 5.4 4.2 3.1 2.5 4.7 4.5 1.6 2.2 2 5.1 0.7 2.7-0.2 4.7-0.7 1.8-2.2 3.8-1.6 1.8-3.2 2.7-1.3 0.9-2.9 1.1-1.5 0-2.4-0.6-1.4-1.2 0.2 1.1 0.9 1.1 2.7 1.3 2 0.3 4-0.9 2-1.1 3.8-3.1 1.8-2 2.7-4 0.7-2 0.9-4.3 0.2-2.4-0.2-3.8-0.5-1.1 0-1.3 0.6-0.5 1.7 0.4 1.4 0.9 2.3 2.7 0.9 1.8 1.1 3.6 0.2 1.8 0.7 3.6 0.4 1.5 1.1 2.2 1.1 2 3.6 1.1 1.1-0.2 2.2-0.6 1.3-0.5 2.5-0.9 1.8-0.9-0.5-0.9-1.1 0-2.7 0-1.3 0-2-0.5-0.7-0.2-1.3-1.3-0.7-1.1-0.9-2.5-0.5-3.3 1.1-3.3 0.4 0 1.3 0.9 1.2 0.6 1.6 1.7 1.6 2.5 3.1 2.5 1.2 0 0-1.6-1.1-1.7 1.2 0 2.2 1.6 4.4 1.6z"/>
						<path id="Snowflake copy 3" class="s7" aria-label="E"  d="m118.5 75.5q-4.3 0-2.2 3.4 0.9 1.7 3 3.4 2.2 1.8 4.3 2.6 2.2 0.9 2.6 1.3 0 0.5-1.7 0.5-4.3 0-2.6 1.7 0.4 0.8 2.6 1.7 2.2 0.9 4.3 0.9 2.6 0.4 4.7 0.8 2.2 0.9 2.6 1.7 1.7 2.6-4.3 4.8-2.6 0.8-5.1 0.8-2.6 0.5-3.5-0.8-2.6-2.2-5.2-6.9-2.1-5.2-2.1-0.4 0.4 2.1 0.9 4.7 0.4 2.6 1.2 4.7 0.5 2.2 2.2 3.5 1.3 1.7 3 1.7 1.7 0.4 5.2-0.4 3-0.9 6.4-2.2 3-1.7 6.9-1.7 3.9 0 6.5 0.8 5.6 3.1 0.4 4.4-2.6 0.4-6.5 2.5-3.8 2.6-6 6.1-2.6 3.4-4.3 8.1-1.7 5.2-1.7 9.5 0.4 4.3 2.6 7.3 2.1 3 4.7 3.5 2.6 0.4 3.5 0 0.8 0-1.3-0.9-2.2-0.9-3.1-3.4-1.2-2.6-1.7-6.1 0-3.4 1.7-7.7 1.8-4.3 3.9-7.3 2.6-3.5 8.2-5.6 5.2-1.7 9.9-0.9 5.2 0.9 12.5 3 6.9 2.6 12 5.2 4.8 3 10.4 6.4 5.6 3.9 8.6 6.1 6.4 5.6-3 4.3-3.9-0.5-8.2-2.6-4.8-2.2-6.9-5.2-2.2-3-6.5-5.1-4.3-2.2-7.7-2.2-3.5 0-6 1.3-3 1.7-3.9 3.9-0.9 2.1-0.4 2.6 0 0.8 0.8-0.5 2.2-3 7.8-3 2.6 0 6 1.7 3.4 2.2 6 5.2 2.2 2.6 3 5.2 0.5 3-1.3 3.8-1.7 1.3-5.6 1.3-4.3 0-8.6-0.8-4.3-0.9-9-3.9-5.2-3-8.2-6.5-3-3.4-3-3-0.4 0.5 2.2 4.8 2.1 4.3 7.7 8.1 5.2 3.9 9.9 5.2 4.7 1.3 10.8 0.9 5.6 0 9-1.8 3.5-1.7 9.9-2.5 6.5-0.9 12.9 0 6.5 0.8 12.1 2.1 5.1 1.3 6.4 2.6 3.5 3.4 0 6.9-1.3 1.3-6.4 2.6-5.6 1.3-12.1 2.1-6.4 0.9-12.9 0-6.4-0.8-9.9-2.6-3.4-1.7-9-2.1-5.6 0-10.8 1.3-4.7 1.3-9.9 5.1-5.6 3.9-7.7 8.2-2.6 4.3-2.2 4.8 0 0.4 3-3.1 3-3.4 8.2-6.4 4.7-3 9-3.9 4.3-0.8 8.6-0.8 3.9 0 5.6 1.2 1.8 0.9 1.3 3.5-0.8 3-3 5.6-2.6 3-6 4.7-3.4 2.2-6 2.2-5.6 0-7.8-3-2.1-2.6-0.4 2.1 0.9 2.2 3.9 3.5 2.5 1.7 6 1.7 3.4 0 7.7-2.2 4.3-2.1 6.5-5.1 2.1-3.1 6.9-5.2 4.7-2.2 8.6-2.6 3.9-0.9 4.7 0.4 0.9 1.3-2.1 3.9-3 2.2-8.6 5.6-5.6 3.9-10.4 6.9-5.1 2.6-12 4.7-7.3 2.6-12.5 3.5-4.7 0.8-9.9-1.3-5.6-1.7-8.2-5.2-2.1-3-3.9-7.3-1.7-4.3-1.7-7.7 0.5-3.5 1.7-6.1 0.9-2.6 3.1-3.4 2.1-0.9 1.3-1.3-0.9 0-3.5 0.4-2.6 0.5-4.7 3.5-2.2 3-2.6 7.3 0 4.3 1.7 9 1.7 5.2 4.3 8.6 2.2 3.5 6 5.6 3.9 2.6 6.5 3 5.2 1.3-0.4 4.3-2.6 0.9-6.5 0.9-3.9 0-6.9-1.7-3.4-1.3-6.4-2.2-3.5-0.8-5.2-0.4-1.7 0-3 1.3-1.7 1.7-2.2 3.9-0.8 2.1-1.2 4.7-0.5 2.6-0.9 4.7 0 4.8 2.1-0.4 2.6-4.7 5.2-6.9 0.9-1.3 3.9-1.3 2.6 0.5 4.7 1.3 6 2.2 4.3 4.7-0.4 0.9-2.6 1.3-2.1 0.9-4.7 1.3-2.1 0-4.3 0.9-2.2 0.9-2.6 1.7-1.7 1.7 2.6 1.7 1.7 0 1.7 0.5-0.4 0.4-2.6 1.3-2.1 0.8-4.3 2.5-2.1 1.8-3 3.5-2.1 3.4 2.2 3.4 4.3 0 8.6-3 4.3-3.4 2.1 0-2.1 3 0.5 3 2.5 0 5.6-4.7 1.2-2.2 3-3.9 1.7-1.3 2.6-1.3 3 0 2.1 6.5-0.4 2.6-1.7 4.7-1.3 2.2-2.6 2.6-1.3 0.9-3.9 0.9-2.6 0-5.1 0-4.3 0-0.9 1.7 2.2 0.8 4.7 1.7 2.2 0.9 4.3 1.3 4.3 1.3 7.4-2.2 0.8-1.2 1.7-4.7 0.8-3 1.3-6.4 0.4-3.5 2.1-6.9 1.7-3.5 4.3-5.2 2.2-1.7 3.5-1.3 0.8 0.9 0 3-0.9 2.6-0.5 6.9 0.5 4.7 1.8 8.6 1.7 3.9 5.1 7.8 3.5 3.8 7.3 6 3.9 2.1 7.8 1.7 3.4-0.4 5.2-2.6 2.1-2.1 2.1-3 0-0.4-1.7 0.9-1.7 1.3-4.7 0.8-3.1 0-5.6-1.7-3.1-1.7-6.1-5.6-3-3.4-4.3-6.9-1.7-3.8-0.4-9.4 0.9-5.2 3.9-9.5 3-3.9 9-9 5.6-4.8 10.3-7.8 4.8-3.4 10.8-6.4 6-3.1 9.5-3.9 3.4-1.3 4.3 0 0.4 1.3-1.7 4.7-2.6 3.5-6.9 5.6-4.3 2.6-7.8 3.5-3.9 0.8-7.7 3-3.9 2.5-5.6 5.6-1.7 3.4-1.7 6.4-0.5 3 0.8 4.8 1.3 1.7 2.2 1.7 0.8 0.4 0-0.9-1.3-3.4 1.7-8.6 0.8-2.1 4.3-4.3 3.4-1.7 6.9-2.6 8.6-1.3 9.4 3.5 0 2.1-1.7 5.6-2.1 3.4-5.1 6.8-3.1 3.5-8.2 6.1-5.2 2.6-9.5 3.4-9.9 2.2 0.9 2.2 4.7 0 10.7-2.6 6.1-2.6 9.9-6.5 3.5-3.8 6.1-9 2.5-5.2 3-8.6 0-3.5 3-9.9 2.6-6 6-10.8v-0.4q3.9-5.2 7.8-9 3.8-3.9 6-4.4 2.1-0.8 3.4-1.2 1.3-0.5 1.3-0.5 0 0 0.4 1.3 0 1.3 0.5 3.5 0.8 2.1-0.9 7.3-1.7 5.6-4.3 11.2-2.6 6-6.4 11.2-3.9 5.6-6.9 7.7-3.5 2.2-6.5 6.9-3 4.7-4.3 9.5-1.3 4.7-0.4 11.2 0.4 6.8 2.6 10.7 5.1 8.2 2.5 0-1.7-3.9-1.7-9.9 0-6 1.3-9.9 0.9-4.3 3-8.2 2.2-3.4 4.3-4.3 4.3-1.3 7.3 6.5 0.9 3.4 0.9 7.3 0 3.9-1.3 6-2.6 4.8-6.4 5.6-1.3 0.5-0.9 0.9 0.4 0.4 2.6 0.8 2.1 0.5 4.7-1.2 2.6-1.8 4.8-5.2 1.7-3.5 2.1-8.2 0-4.3-1.3-7.7-1.3-3.5-0.8-8.6 0-4.8 1.2-8.7 1.8-3.4 3.5-3.4 1.3 0 2.1 3.4 0.5 3.5 0.9 9.9 0.4 6.9 0 13 0 5.6-1.3 12.9-1.3 7.3-3.4 12-2.2 4.8-6.5 8.2-4.3 3.4-8.2 4.3-3.8 0.9-8.1 0-4.8-0.9-7.8-2.6-2.6-1.7-4.3-4.3-2.1-2.6-1.7-4.7 0.4-2.2 0-1.7-0.9 0.8-1.7 3.4-1.3 2.6 0.4 6 1.7 3.5 5.2 5.6 3.4 2.2 9 3.5 5.2 1.3 9.5 0.4 3.8-0.9 8.1-2.6 3.9-1.7 5.6-3.9 1.8-2.1 3-1.7 0.9 0.9 0.5 3.9-0.5 3-2.6 6-2.2 3.5-4.7 5.6-6.5 4.3-8.2 8.6-1.3 3.9 1.7 6.9 1.3 1.7 3.4 3.5 2.2 1.7 3.9 3 1.7 1.3 2.2 0.8 0-0.4-1.3-2.6-1.3-2.1-2.2-4.7-1.3-2.1-1.7-3.4-0.4-1.8 1.3-3.9 1.3-2.2 3.4-3.9 2.2-1.7 3.9-2.1 1.7 0 2.2 0.8 0.8 0.9 0.4 3-0.9 2.6-1.7 4.8-0.9 2.1-1.3 4.3-0.9 2.1 0 3 0.4 0.9 1.3 0.4 0.8-0.4 1.3-1.7 2.1-3.4 1.3 1.7-0.5 2.2 0 4.8 0.4 3 1.3 4.3 0.8 1.7 2.1 1.7 1.3 0 2.2-1.7 2.5-3.5 1.7-9.1-0.5-2.1 0-3 0-0.4 0.8 1.3 0.9 1.3 1.8 1.7 0.8 0.5 1.3-0.4 0.8-0.9 0.4-3-0.9-2.2-1.7-4.3-3.1-5.2-1.3-7.8 0.4-0.8 2.1-0.8 1.7 0.4 3.9 2.1 5.2 3.5 4.3 7.8 0 1.3-0.9 3.4-1.3 2.6-2.5 4.7-1.3 2.2-0.9 2.6 0 0.5 1.7-0.8 1.7-1.3 3.9-3 1.7-1.8 3.4-3.5 3-3 1.8-6.9-0.9-1.7-3.1-4.3-2.5-2.1-5.1-4.3-2.6-2.1-4.8-5.6-2.1-3-2.5-6-0.5-3 0.8-3.9 0.9-0.4 2.6 1.7 1.7 2.2 6 3.9 3.9 1.7 7.8 2.6 3.9 0.9 9.4-0.4 5.2-1.3 8.7-3.5 3.4-2.1 5.1-5.6 1.7-3.4 0.9-6-2.6-5.6-2.2-1.7 0.5 2.1-1.3 4.7-1.7 2.6-4.3 4.3-3 1.7-7.7 2.6-4.7 0.9-8.2 0-4.3-0.9-8.2-4.3-4.3-3.4-6.4-8.2-2.2-4.7-3.5-12-1.3-7.3-1.7-12.9 0-6.1 0.4-13 0-6.4 0.9-9.9 0.9-3.4 2.6-3.4 1.3 0 2.6 3.4 1.7 3.9 2.1 8.7 0 5.1-1.7 8.6-0.9 3.4-0.4 7.7 0 4.7 1.7 8.2 1.7 3.4 4.7 5.2 2.6 1.7 4.8 1.2 2.1-0.4 2.5-0.8 0.5-0.4-0.8-0.9-4.3-0.8-6.9-5.6-1.3-2.1-1.3-6 0-3.9 1.3-7.3 3-7.8 7.3-6.5 1.7 0.9 3.9 4.3 2.1 3.9 3.4 8.2 1.3 3.9 1.3 9.9-0.4 6-1.7 9.9-1.7 4.3-0.9 4.3 0.9 0 3-4.3 2.6-3.9 3.5-10.7 0.4-6.5-0.9-11.2-1.3-4.8-4.3-9.5-3.4-4.7-6-6.9-3.4-2.1-7.3-7.7-3.9-5.2-6.9-11.2-2.2-5.6-3.9-11.2-1.7-5.2-0.8-7.3 0.8-4.8 5.6-3.1 2.1 0.5 6 4.4 3.9 3.8 7.3 9.4 3.9 4.8 6.9 10.8 2.6 6.4 2.6 9.9 0 3.4 3 8.6 2.6 5.6 6 9 3.4 3.9 9.5 6.5 6 2.6 10.7 2.6 10.8 0 1.3-2.2-4.3-0.8-9.4-3.4-5.2-2.6-8.2-6.1-3-3.4-5.2-6.8-2.1-3.5-1.7-5.6 0-2.2 3-3.5 2.6-0.8 6 0 8.6 2.2 11.7 7.3 3 4.8 1.2 8.2-0.8 3 2.6-0.4 3-4.3-0.8-11.6-2.2-3.1-6.1-5.6-3.8-2.2-7.3-3-3.4-0.9-7.7-3.5-4.3-2.1-6.9-5.6-2.6-3.4-1.7-4.7 0.8-1.3 4.3 0 3.4 1.3 9.4 4.3 6.1 3 10.8 6 4.7 3 10.3 7.8 5.6 5.1 9.1 9.4 3 3.9 4.3 9.1 0.8 5.6-0.9 9.4-1.3 3.5-4.3 6.9-3 3.9-6 5.6-2.6 1.7-5.6 1.7-3.5 0.5-4.7-0.8-3.5-3 0 2.1 1.7 2.2 5.5 2.6 3.9 0.4 7.4-1.7 3.8-2.2 7.7-6 3.5-3.9 4.7-7.8 1.8-3.9 2.2-8.6 0.4-4.3-0.4-6.4-0.9-2.6 0.4-3.5 0.9-0.4 3 1.3 2.2 1.7 4.3 5.2 1.7 3.8 2.2 7.3 0.4 3 1.3 6 0.8 3.5 1.7 5.2 0.8 1.3 3 1.7 2.1 0.9 4.3 0.4 2.2-0.8 4.7-1.7 2.2-0.9 4.3-1.7 2.2-0.9 1.8-1.3-0.9-0.4-3.1-0.4-5.1 0.8-9-0.9-1.3-0.4-2.1-2.6-1.3-2.1-1.8-4.7-0.8-2.6 0-4.8 0.9-1.7 1.8-1.7 1.2 0 3 1.3 1.7 1.7 3 3.9 3 4.7 5.6 4.7 2.6 0 0.4-3-0.9-1.3-0.4-1.7 0.4 0 2.1 1.7 4.8 3 9.1 3 3.4 0 2.1-3.4-0.8-1.7-3-3.5-2.1-1.7-4.3-2.5-2.2-0.9-2.6-1.3-0.4-0.5 1.3-0.5 4.7 0.9 3-1.7-1.7-2.6-7.3-2.6-2.1-0.4-4.3-1.3-2.1-0.4-3-1.3-0.9-0.8 0.9-2.5 1.2-1.3 3.8-2.2 5.6-2.1 8.6 0 0.9 0.9 2.6 3 1.7 2.2 2.6 4.3 2.1 4.3 2.1 0-0.4-2.1-0.8-4.7-0.4-2.6-1.3-4.7-0.9-4.3-5.2-5.2-2.1-0.4-5.1 0.4-3.5 0.9-6.5 2.2-3 1.7-6.9 1.7-4.3 0-6.4-0.9-6.1-3-0.5-4.3 2.6-0.4 6.5-3 3.4-2.1 6-5.6 2.6-3.4 4.3-8.6 1.7-4.7 1.3-9 0-4.3-2.1-7.3-2.2-3-4.8-3.5-6.9-0.8-2.1 0.9 1.7 0.8 3 3.4 1.3 2.6 1.7 6.1 0 3.4-1.7 7.7-1.7 4.3-4.3 7.3-2.6 3.5-7.8 5.2-5.1 2.1-10.3 1.3-4.7-0.9-11.6-3.5-7.3-2.1-12.5-4.7-5.2-2.6-10.8-6.5-5.6-3.8-8.6-6-6.4-5.6 3-4.3 3.9 0.4 8.7 2.6 4.3 2.6 6.4 5.6 2.6 2.6 6.9 4.7 3.9 2.2 7.3 2.2 3.5 0 6.5-1.7 3-1.3 3.8-3.5 1.8-4.7-0.8-2.1-0.9 1.2-3 2.1-2.2 0.9-4.8 0.9-2.1 0-5.6-2.2-3.4-1.7-6-4.3-2.6-3-3-6-0.9-2.6 0.9-3.5 2.1-1.2 6-1.2 3.9 0 8.6 0.8 4.3 0.9 9.5 3.9 4.7 3 7.7 6.4 3 3.5 3.5 3.1 0-0.5-2.6-4.8-2.2-4.3-7.3-8.2-5.6-3.8-10.4-5.1-5.1-1.3-10.7-1.3-5.6 0.4-9.1 2.1-3.4 1.8-9.9 2.6-6.9 0.9-12.9 0-6.4-0.8-11.6-2.1-5.6-1.3-7.3-2.6-1.3-1.7-2.2-2.6-1.3-0.9-1.3-0.9 0 0 1.3-0.8 0.9-0.9 2.2-2.6 1.7-1.3 7.3-2.6 5.2-1.3 11.6-2.1 6-0.9 12.9 0 6.5 0.8 9.9 2.5 3.5 1.8 9.1 1.8 5.6 0.4 10.7-0.9 4.8-1.3 10.4-5.2 5.1-3.8 7.3-8.1 2.6-4.3 2.6-4.8-0.5-0.4-3.5 3-3 3.5-7.7 6.5-5.2 3-9.5 3.9-4.7 0.8-8.6 0.8-3.9 0-5.6-1.3-2.2-0.8-1.3-3.8 0.4-2.6 3-5.6 2.6-2.6 6-4.8 3.5-1.7 5.6-1.7 6.1 0 8.2 3 0.9 0.9 1.3 0.5 0-0.5-0.9-2.6-0.8-2.2-3.8-3.9-3-1.3-6.5-1.3-3.4 0-7.3 2.2-4.3 2.1-6.9 4.7-2.1 3-6.4 5.2-4.3 2.5-8.7 3-8.6 1.3-3-4.3 3-2.2 8.6-6.1 5.6-3.8 10.8-6.4 5.2-2.6 12.5-5.2 6.9-2.1 11.6-3 5.2-0.8 10.3 0.9 5.2 2.1 7.8 5.6 2.6 3 4.3 7.3 1.7 4.3 1.7 7.7-0.4 3.5-1.7 6.1-1.3 2.5-3 3.4-4.8 1.7 2.1 0.9 2.6-0.5 4.8-3.5 2.1-3 2.1-7.3 0.4-4.3-1.3-9.5-1.7-4.7-4.3-8.1-2.6-3.5-6-6.1-3.9-2.1-6.5-2.5-5.1-1.3 0.5-4.4 2.6-0.8 6.4-0.8 3.9 0 6.9 1.7 3 1.3 6.5 2.2 3 0.8 5.1 0.4 4.3-0.9 5.2-5.2 0.9-2.1 1.3-4.7 0.4-2.6 0.8-4.7 0-4.3-2.1 0-0.9 2.1-2.6 4.3-1.7 2.1-2.6 3-3 2.1-8.6 0-2.6-0.9-3.8-2.6-1.8-1.3-0.9-2.2 0.9-0.8 3-1.7 2.2-0.4 4.3-0.8 5.6 0 7.3-2.6 1.7-2.6-2.6-1.7-2.1 0-1.7-0.5 0.4-0.4 2.6-1.3 2.2-0.8 4.3-2.6 2.2-1.7 3-3.4 1.3-3.4-2.1-3.4-4.8 0-8.6 3-2.2 1.7-2.6 1.3-0.5 0 0.4-1.3 2.2-3-0.4-3-2.6 0-5.6 4.7-1.3 2.1-3 3.4-1.8 1.8-3 1.8-0.9 0-1.3-2.2-0.9-1.7-0.5-4.3 0.5-2.6 1.8-4.7 0.8-2.2 2.5-2.6 1.3-0.9 3.9-1.3 2.6 0 4.7 0.4 2.6 0 3.1-0.4 0.4-0.4-1.8-1.3-2.1-0.9-4.3-1.7-2.5-0.9-4.7-1.7-2.2-0.5-4.3 0-2.2 0.8-3 2.1-0.9 1.7-1.7 4.7-0.9 3.5-1.3 6.5-0.5 3.4-2.2 6.9-2.1 3.9-4.3 5.6-2.1 1.7-3 0.8-1.3-0.4-0.4-3 0.8-2.1 0.4-6.9-0.4-4.3-2.2-8.1-1.2-3.9-4.7-7.8-3.9-3.9-7.7-6-3.5-2.2-7.4-1.7-3.8 0.4-5.5 2.6-3.5 5.1 0 2.1 1.7-1.3 4.7-1.3 3 0.4 5.6 2.2 3 1.7 6 5.1 3 3.9 4.3 7.4 1.7 3.8 0.9 9-1.3 5.6-4.3 9.5-3.5 4.3-9.1 9-5.6 5.2-10.3 8.2-4.7 3-10.8 6-6 3-9.4 4.3-3.5 1.3-4.3 0-0.9-1.3 1.7-4.7 2.6-3.5 6.9-6.1 4.3-2.1 7.7-3 3.5-0.8 7.3-3.4 3.9-2.2 6.1-5.2 3.8-7.3 0.8-11.6-3.8-3.9-2.1-0.4 0.4 1.3 0 3.4-0.5 2.6-1.7 4.8-3.1 5.1-11.7 7.3-3.4 0.8-6-0.5-3-0.8-3-3-0.4-2.1 1.7-5.6 2.2-3.4 5.2-6.9 3-3.4 8.2-6 5.1-2.6 9.4-3.4 9.5-2.2-1.3-2.2-4.7 0-10.7 2.6-6.1 2.6-9.5 6.5-3.4 3.4-6 8.6-2.6 5.6-3 9 0 3.5-2.6 9.5-3 6.4-6.9 11.2-3.4 5.6-7.3 9.4-3.9 3.9-6 4.3-2.2 0.9-3.5 0.9-1.3 0.4-1.3 0.4 0 0.5 0-0.8-0.4-1.3-0.8-3.5-0.9-2.1 0.8-7.7 1.7-5.2 3.9-10.8 3-6 6.9-11.6 3.9-5.2 7.3-7.3 2.6-2.2 6-6.9 3-4.7 4.3-9.5 1.3-4.7 0.9-11.6-0.9-6.5-3.5-10.3-2.1-4.3-3-4.3-0.8 0 0.9 4.3 1.3 3.8 1.7 9.9 0 6-1.3 9.9-1.3 4.3-3.4 7.7-2.2 3.9-3.9 4.8-4.3 1.2-7.3-6.5-1.3-3.4-1.3-7.3 0-3.9 1.3-6 2.6-4.8 6.9-5.6 1.3-0.5 0.8-0.9-0.4-0.4-2.5-0.9-2.2-0.4-4.8 1.3-3 1.8-4.7 5.2-1.7 3.4-1.7 7.7-0.5 4.8 0.4 8.2 1.7 3.5 1.7 8.2-0.4 5.2-2.1 9-1.3 3.5-2.6 3.5-1.7 0-2.6-3.5-0.9-3.4-0.9-10.3-0.4-6.4-0.4-12.5 0.4-5.6 1.7-12.9 1.3-7.3 3.5-12 2.1-4.8 6.4-8.2 3.9-3.5 8.2-4.3 3.5-0.9 8.2 0 4.7 0.8 7.7 2.6 2.6 1.7 4.3 3.8 1.8 2.6 1.3 4.8-0.4 4.3 2.2-1.3 0.8-2.6-0.9-6-1.7-3.5-5.1-5.6-3.5-2.2-8.7-3.5-5.5-1.3-9.4-0.4-3.9 0.8-7.8 2.6-4.3 1.7-6 3.8-1.7 2.2-2.6 1.3-1.3-0.4-0.8-3.4 0.4-3 2.5-6.5 2.2-3 4.8-5.1 2.6-2.2 5.1-4.8 2.2-2.1 3.1-3.8 1.2-3.9-1.8-6.9-1.7-1.7-3.4-3.5-2.2-1.7-3.9-3-1.7-1.3-1.7-0.8-0.4 0.4 0.9 2.5 1.2 2.2 2.5 4.3 0.9 2.2 0.9 3.9 0.9 3.9-4.3 7.8-2.2 1.7-3.9 1.7-1.7 0.4-2.1-0.4-1.8-2.6 1.3-7.8 0.8-2.1 1.7-4.3 0.4-2.1-0.4-3-0.5-0.9-1.3-0.4-0.9 0.4-1.8 1.7-0.8 1.7-0.8 0.8-0.5-0.4 0-2.5 0.4-2.2 0-5.2-0.9-2.6-1.7-4.3-1.8-3.5-4.3 0-0.9 1.7-1.3 4.3-0.5 3 0 5.2 0.8 5.1-1.3 1.7-0.5-1.3-1.3-1.7-0.9-0.5-1.3 0.4-0.9 0.9 0 3 0.4 2.2 1.3 4.3 0.8 2.2 1.7 4.3 0.4 2.6-0.4 3.5-0.5 0.8-2.2 0.4-1.7 0-3.9-1.7-2.1-1.8-3.4-3.9-1.7-2.2-1.3-3.9 0.9-3.4 3.9-8.2 1.3-2.1 1.3-2.5-0.5-0.5-2.2 0.8-1.7 1.3-3.9 3-2.1 1.8-3.4 3.5-3 3-1.7 6.9 1.7 4.3 8.2 8.6 2.5 2.1 4.7 5.1 2.1 3.5 2.6 6.5 0.4 3-0.5 3.4-1.2 0.9-3-1.3-1.7-2.1-5.6-3.8-4.3-1.8-8.1-2.6-4.3-0.9-9.5 0.4-5.6 1.3-9 3.5-3.5 2.1-5.2 5.6-1.7 3.4-0.4 6 0.8 2.6 1.7 3 0.4 0.4 0-1.7-0.4-2.2 1.7-4.8 1.7-2.1 4.3-3.8 3-1.8 7.8-2.6 4.3-0.9 8.1 0 3.9 0.8 8.2 4.3 4.3 3.4 6.5 8.2 2.1 4.7 3.4 12 1.3 7.3 1.3 12.9 0.4 6.1 0 12.5-0.4 6.9-0.9 10.3-0.8 3.5-2.1 3.5-1.7 0-3.5-3.5-1.2-3.8-1.2-9-0.5-4.7 0.8-8.2 1.3-3.4 1.3-8.2-0.4-4.3-2.1-7.7-2.2-3.4-4.8-5.2-2.6-1.7-4.7-1.3-2.2 0.5-2.6 0.9-0.4 0.4 0.9 0.9 3.8 0.8 6.4 5.6 1.3 2.1 1.3 6 0 3.9-0.9 7.3-3 7.7-7.3 6.5-2.1-0.9-4.3-4.8-2.1-3.4-3-7.7-1.3-3.9-1.3-9.9 0-6.1 1.7-9.9 2.6-8.6-2.5 0-2.2 3.8-2.6 10.3-0.9 6.9 0.4 11.6 1.3 4.8 4.3 9.5 3 4.7 6.5 6.9 3 2.1 6.9 7.3 3.8 5.6 6.4 11.6 2.6 5.6 4.3 10.8 1.7 5.6 0.9 7.7-0.5 2.2-0.5 3.5-0.4 1.3-0.4 1.3 0 0-1.3-0.5-1.3-0.4-3.4-1.3-2.2-0.4-6-4.3-3.9-3.8-7.8-9v-0.4q-3.4-4.8-6-11.2-3-6-3.5-9.5 0-3.4-2.5-8.6-2.6-5.2-6.1-9-3.8-3.9-9.9-6.5-6-2.6-10.7-2.6-10.8 0-0.9 2.2 4.3 0.8 9.5 3.4 5.1 2.6 8.2 6 3 3.5 5.1 6.9 1.7 3.5 1.7 5.6-0.8 4.8-9.4 3.5-3.5-0.9-6.9-3-3.5-1.8-4.7-3.9-0.9-2.2-1.3-4.8-0.9-2.1 0-3.8 0.8-1.3 0-1.3-0.9 0.4-2.2 2.1-1.3 1.8-0.8 4.8 0 3 1.7 6.4 1.7 3 5.6 5.2 3.8 2.6 7.7 3.4 3.5 0.9 7.8 3 4.3 2.6 6.9 6.1 2.1 3.4 1.7 4.7-0.9 1.3-4.3 0-3.5-0.9-9.5-3.9-6-3-10.8-6.4-4.7-3-10.3-8.2-6-4.7-9-8.6-3-4.3-3.9-9.9-1.3-5.2 0.4-9 1.3-3.5 4.3-7.4 3-3.4 6.1-5.1 2.5-1.8 5.6-2.2 3 0 4.7 1.3 2.6 2.2-0.4-2.1-1.8-2.2-5.2-2.6-3.9-0.5-7.8 1.7-3.8 2.1-7.3 6-3.4 3.9-5.1 7.8-1.3 3.8-1.8 8.1-0.4 4.8 0.5 7.4 0.8 2.1 0 2.5-1.3 0.9-3.5-0.8-2.6-1.7-4.3-5.2-1.7-3.4-2.1-6.9-0.5-3.4-1.3-6.9-0.9-3-2.2-4.3-2.1-3.8-6.9-2.1-2.1 0.4-4.3 1.3-2.5 0.8-4.7 1.7-3.4 1.7 0.9 1.7 2.1 0 5.1 0 2.6 0 3.9 0.9 1.3 0.4 2.6 2.6 1.3 2.1 1.7 4.7 0.9 6.5-2.1 6.5-0.9 0-2.6-1.8-2.2-1.3-3-3.4-3.1-4.7-6.1-4.7-2.1 0 0 3 2.2 3.4-2.1 0-4.3-3-8.6-3z"/>
						<path id="Snowflake copy 4" class="s7" aria-label="E"  d="m1.8 312.2q-2.7 0-1.4 2.2 0.6 1.1 1.9 2.2 1.4 1.1 2.8 1.6 1.3 0.6 1.6 0.9 0 0.2-1.1 0.2-2.7 0-1.6 1.1 0.3 0.6 1.6 1.1 1.4 0.6 2.7 0.6 1.7 0.2 3 0.5 1.4 0.6 1.7 1.1 1.1 1.6-2.7 3-1.7 0.5-3.3 0.5-1.7 0.3-2.2-0.5-1.6-1.4-3.3-4.4-1.3-3.2-1.3-0.2 0.2 1.3 0.5 3 0.3 1.6 0.8 3 0.3 1.3 1.4 2.1 0.8 1.1 1.9 1.1 1.1 0.3 3.3-0.2 1.9-0.6 4.1-1.4 1.9-1.1 4.3-1.1 2.5 0 4.1 0.6 3.6 1.9 0.3 2.7-1.6 0.3-4.1 1.6-2.4 1.7-3.8 3.8-1.7 2.2-2.7 5.2-1.1 3.3-1.1 6 0.2 2.8 1.6 4.7 1.4 1.9 3 2.2 1.6 0.2 2.2 0 0.5 0-0.8-0.6-1.4-0.5-1.9-2.2-0.9-1.6-1.1-3.8 0-2.2 1.1-4.9 1.1-2.7 2.4-4.6 1.7-2.2 5.2-3.6 3.3-1.1 6.3-0.5 3.3 0.5 7.9 1.9 4.4 1.6 7.6 3.2 3 2 6.6 4.1 3.5 2.5 5.5 3.9 4.1 3.5-2 2.7-2.4-0.3-5.1-1.6-3-1.4-4.4-3.3-1.4-1.9-4.1-3.3-2.7-1.4-4.9-1.4-2.2 0-3.8 0.9-2 1.1-2.5 2.4-0.5 1.4-0.3 1.7 0 0.5 0.6-0.3 1.3-1.9 4.9-1.9 1.6 0 3.8 1.1 2.2 1.3 3.8 3.2 1.4 1.7 1.9 3.3 0.3 1.9-0.8 2.5-1.1 0.8-3.5 0.8-2.8 0-5.5-0.6-2.7-0.5-5.7-2.4-3.3-1.9-5.2-4.1-1.9-2.2-1.9-1.9-0.3 0.3 1.3 3 1.4 2.7 5 5.2 3.2 2.4 6.2 3.2 3 0.9 6.9 0.6 3.5 0 5.7-1.1 2.2-1.1 6.3-1.6 4.1-0.6 8.2 0 4.1 0.5 7.6 1.3 3.3 0.8 4.1 1.7 2.2 2.2 0 4.3-0.8 0.9-4.1 1.7-3.5 0.8-7.6 1.3-4.1 0.6-8.2 0-4.1-0.5-6.3-1.6-2.2-1.1-5.7-1.4-3.6 0-6.9 0.9-3 0.8-6.2 3.2-3.6 2.5-5 5.2-1.6 2.7-1.3 3 0 0.3 1.9-1.9 1.9-2.2 5.2-4.1 3-1.9 5.7-2.4 2.7-0.6 5.5-0.6 2.4 0 3.5 0.8 1.1 0.6 0.8 2.2-0.5 1.9-1.9 3.6-1.6 1.9-3.8 3-2.2 1.3-3.8 1.3-3.6 0-4.9-1.9-1.4-1.6-0.3 1.4 0.5 1.4 2.5 2.2 1.6 1.1 3.8 1.1 2.2 0 4.9-1.4 2.7-1.4 4.1-3.3 1.4-1.9 4.4-3.3 3-1.3 5.4-1.6 2.5-0.5 3 0.3 0.6 0.8-1.3 2.4-2 1.4-5.5 3.6-3.6 2.4-6.6 4.4-3.2 1.6-7.6 3-4.6 1.6-7.9 2.1-3 0.6-6.3-0.8-3.5-1.1-5.2-3.3-1.3-1.9-2.4-4.6-1.1-2.7-1.1-4.9 0.2-2.2 1.1-3.8 0.5-1.7 1.9-2.2 1.3-0.6 0.8-0.8-0.6 0-2.2 0.2-1.6 0.3-3 2.2-1.4 1.9-1.6 4.7 0 2.7 1.1 5.7 1 3.3 2.7 5.5 1.4 2.1 3.8 3.5 2.5 1.6 4.1 1.9 3.3 0.8-0.3 2.7-1.6 0.6-4.1 0.6-2.4 0-4.3-1.1-2.2-0.8-4.1-1.4-2.2-0.5-3.3-0.2-1.1 0-1.9 0.8-1.1 1.1-1.4 2.4-0.5 1.4-0.8 3-0.3 1.7-0.5 3 0 3 1.3-0.2 1.7-3 3.3-4.4 0.5-0.8 2.5-0.8 1.6 0.3 3 0.8 3.8 1.4 2.7 3-0.3 0.6-1.7 0.8-1.3 0.6-3 0.8-1.3 0-2.7 0.6-1.3 0.5-1.6 1.1-1.1 1.1 1.6 1.1 1.1 0 1.1 0.2-0.3 0.3-1.6 0.9-1.4 0.5-2.8 1.6-1.3 1.1-1.9 2.2-1.3 2.2 1.4 2.2 2.7 0 5.5-1.9 2.7-2.2 1.3 0-1.3 1.9 0.3 1.9 1.6 0 3.5-3 0.9-1.4 2-2.5 1-0.8 1.6-0.8 1.9 0 1.4 4.1-0.3 1.6-1.1 3-0.9 1.4-1.7 1.6-0.8 0.6-2.4 0.6-1.7 0-3.3 0-2.7 0-0.6 1.1 1.4 0.5 3 1.1 1.4 0.5 2.8 0.8 2.7 0.8 4.6-1.4 0.6-0.8 1.1-3 0.6-1.9 0.8-4.1 0.3-2.2 1.4-4.4 1.1-2.1 2.7-3.2 1.4-1.1 2.2-0.8 0.6 0.5 0 1.9-0.5 1.6-0.3 4.3 0.3 3 1.1 5.5 1.1 2.5 3.3 4.9 2.2 2.5 4.6 3.8 2.5 1.4 5 1.1 2.1-0.3 3.2-1.6 1.4-1.4 1.4-1.9 0-0.3-1.1 0.5-1.1 0.8-3 0.6-1.9 0-3.5-1.1-2-1.1-3.9-3.6-1.9-2.2-2.7-4.3-1.1-2.5-0.3-6.1 0.6-3.2 2.5-6 1.9-2.4 5.7-5.7 3.6-3 6.6-4.9 3-2.2 6.8-4.1 3.8-1.9 6-2.5 2.2-0.8 2.7 0 0.3 0.9-1.1 3-1.6 2.2-4.3 3.6-2.8 1.6-4.9 2.2-2.5 0.5-5 1.9-2.4 1.6-3.5 3.5-1.1 2.2-1.1 4.1-0.3 1.9 0.6 3 0.8 1.1 1.3 1.1 0.6 0.3 0-0.5-0.8-2.2 1.1-5.5 0.6-1.3 2.7-2.7 2.2-1.1 4.4-1.6 5.5-0.9 6 2.1 0 1.4-1.1 3.6-1.3 2.2-3.3 4.4-1.9 2.1-5.1 3.8-3.3 1.6-6 2.2-6.3 1.3 0.5 1.3 3 0 6.8-1.6 3.8-1.6 6.3-4.1 2.2-2.5 3.8-5.7 1.7-3.3 1.9-5.5 0-2.2 1.9-6.3 1.7-3.8 3.9-6.8v-0.3q2.4-3.3 4.9-5.7 2.4-2.5 3.8-2.7 1.4-0.6 2.2-0.9 0.8-0.2 0.8-0.2 0 0 0.3 0.8 0 0.8 0.3 2.2 0.5 1.3-0.6 4.6-1.1 3.6-2.7 7.1-1.7 3.8-4.1 7.1-2.5 3.6-4.4 4.9-2.2 1.4-4.1 4.4-1.9 3-2.7 6-0.8 3-0.3 7.1 0.3 4.4 1.7 6.8 3.2 5.2 1.6 0-1.1-2.4-1.1-6.3 0-3.8 0.8-6.2 0.6-2.8 1.9-5.2 1.4-2.2 2.8-2.8 2.7-0.8 4.6 4.1 0.5 2.2 0.5 4.7 0 2.4-0.8 3.8-1.6 3-4.1 3.6-0.8 0.2-0.5 0.5 0.3 0.3 1.6 0.5 1.4 0.3 3-0.8 1.7-1.1 3-3.2 1.1-2.2 1.4-5.2 0-2.8-0.8-5-0.8-2.1-0.6-5.4 0-3 0.9-5.5 1-2.2 2.1-2.2 0.9 0 1.4 2.2 0.3 2.2 0.5 6.3 0.3 4.4 0 8.2 0 3.5-0.8 8.2-0.8 4.6-2.2 7.6-1.3 3-4.1 5.2-2.7 2.2-5.1 2.8-2.5 0.5-5.2 0-3-0.6-4.9-1.7-1.7-1.1-2.8-2.7-1.3-1.7-1.1-3 0.3-1.4 0-1.1-0.5 0.5-1.1 2.2-0.8 1.6 0.3 3.8 1.1 2.2 3.3 3.5 2.2 1.4 5.7 2.2 3.3 0.8 6 0.3 2.5-0.5 5.2-1.6 2.5-1.1 3.6-2.5 1.1-1.4 1.9-1.1 0.5 0.6 0.3 2.5-0.3 1.9-1.7 3.8-1.3 2.2-3 3.5-4.1 2.8-5.2 5.5-0.8 2.5 1.1 4.4 0.8 1.1 2.2 2.2 1.4 1 2.5 1.9 1.1 0.8 1.3 0.5 0-0.3-0.8-1.6-0.8-1.4-1.4-3-0.8-1.4-1.1-2.2-0.2-1.1 0.9-2.5 0.8-1.3 2.2-2.4 1.3-1.1 2.4-1.4 1.1 0 1.4 0.6 0.5 0.5 0.2 1.9-0.5 1.6-1 3-0.6 1.3-0.9 2.7-0.5 1.4 0 1.9 0.3 0.6 0.9 0.3 0.5-0.3 0.8-1.1 1.3-2.2 0.8 1.1-0.3 1.3 0 3 0.3 1.9 0.8 2.7 0.6 1.1 1.4 1.1 0.8 0 1.3-1.1 1.7-2.2 1.1-5.7-0.2-1.4 0-1.9 0-0.3 0.6 0.8 0.5 0.8 1.1 1.1 0.5 0.3 0.8-0.3 0.5-0.5 0.3-1.9-0.6-1.4-1.1-2.7-1.9-3.3-0.8-4.9 0.2-0.6 1.3-0.6 1.1 0.3 2.5 1.4 3.3 2.2 2.7 4.9 0 0.8-0.5 2.2-0.9 1.6-1.7 3-0.8 1.3-0.5 1.6 0 0.3 1.1-0.5 1.1-0.9 2.4-1.9 1.1-1.1 2.2-2.2 1.9-1.9 1.1-4.4-0.5-1.1-1.9-2.7-1.6-1.4-3.3-2.8-1.6-1.3-3-3.5-1.4-1.9-1.6-3.8-0.3-1.9 0.5-2.5 0.6-0.3 1.7 1.1 1 1.4 3.8 2.5 2.4 1.1 4.9 1.6 2.4 0.5 6-0.3 3.3-0.8 5.5-2.2 2.1-1.3 3.2-3.5 1.1-2.2 0.6-3.8-1.7-3.6-1.4-1.1 0.3 1.3-0.8 3-1.1 1.6-2.7 2.7-1.9 1.1-4.9 1.7-3.1 0.5-5.2 0-2.8-0.6-5.2-2.8-2.8-2.2-4.1-5.2-1.4-3-2.2-7.6-0.8-4.7-1.1-8.2 0-3.8 0.3-8.2 0-4.1 0.5-6.3 0.6-2.2 1.7-2.2 0.8 0 1.6 2.2 1.1 2.5 1.4 5.5 0 3.3-1.1 5.4-0.6 2.2-0.3 5 0 3 1.1 5.2 1.1 2.1 3 3.2 1.6 1.1 3 0.8 1.4-0.2 1.6-0.5 0.3-0.3-0.5-0.5-2.7-0.6-4.4-3.6-0.8-1.4-0.8-3.8 0-2.5 0.8-4.7 1.9-4.9 4.7-4.1 1.1 0.6 2.4 2.8 1.4 2.4 2.2 5.2 0.8 2.4 0.8 6.2-0.2 3.9-1.1 6.3-1.1 2.8-0.5 2.8 0.5 0 1.9-2.8 1.6-2.4 2.2-6.8 0.3-4.1-0.6-7.1-0.8-3-2.7-6-2.2-3-3.8-4.4-2.2-1.3-4.7-4.9-2.4-3.3-4.3-7.1-1.4-3.5-2.5-7.1-1.1-3.3-0.5-4.6 0.5-3 3.5-1.9 1.4 0.2 3.8 2.7 2.5 2.4 4.7 6 2.4 3 4.4 6.8 1.6 4.1 1.6 6.3 0 2.2 1.9 5.5 1.6 3.5 3.8 5.7 2.2 2.5 6 4.1 3.9 1.6 6.9 1.6 6.8 0 0.8-1.3-2.8-0.6-6-2.2-3.3-1.7-5.2-3.8-1.9-2.2-3.3-4.4-1.4-2.2-1.1-3.6 0-1.3 1.9-2.1 1.7-0.6 3.8 0 5.5 1.3 7.4 4.6 1.9 3 0.8 5.2-0.5 1.9 1.7-0.3 1.9-2.7-0.6-7.4-1.3-1.9-3.8-3.5-2.5-1.4-4.6-1.9-2.2-0.6-4.9-2.2-2.8-1.4-4.4-3.6-1.7-2.1-1.1-3 0.5-0.8 2.7 0 2.2 0.9 6 2.8 3.8 1.9 6.9 3.8 3 1.9 6.5 4.9 3.6 3.3 5.7 6 1.9 2.5 2.8 5.7 0.5 3.6-0.6 6.1-0.8 2.1-2.7 4.3-1.9 2.5-3.8 3.6-1.7 1.1-3.6 1.1-2.2 0.2-3-0.6-2.2-1.9 0 1.4 1.1 1.3 3.6 1.6 2.4 0.3 4.6-1.1 2.5-1.3 4.9-3.8 2.2-2.4 3-4.9 1.1-2.5 1.4-5.5 0.3-2.7-0.3-4.1-0.5-1.6 0.3-2.1 0.5-0.3 1.9 0.8 1.4 1.1 2.7 3.2 1.1 2.5 1.4 4.7 0.3 1.9 0.8 3.8 0.6 2.2 1.1 3.3 0.6 0.8 1.9 1.1 1.4 0.5 2.7 0.3 1.4-0.6 3.1-1.1 1.3-0.6 2.7-1.1 1.3-0.6 1.1-0.8-0.6-0.3-1.9-0.3-3.3 0.5-5.8-0.6-0.8-0.2-1.3-1.6-0.9-1.4-1.1-3-0.6-1.6 0-3 0.5-1.1 1.1-1.1 0.8 0 1.9 0.8 1.1 1.1 1.9 2.5 1.9 3 3.5 3 1.7 0 0.3-1.9-0.5-0.9-0.3-1.1 0.3 0 1.4 1.1 3 1.9 5.7 1.9 2.2 0 1.4-2.2-0.5-1.1-1.9-2.2-1.4-1.1-2.7-1.6-1.4-0.6-1.7-0.9-0.3-0.2 0.8-0.2 3 0.5 1.9-1.1-1-1.7-4.6-1.7-1.4-0.2-2.7-0.8-1.4-0.2-1.9-0.8-0.6-0.5 0.5-1.6 0.8-0.8 2.5-1.4 3.5-1.4 5.4 0 0.6 0.6 1.7 1.9 1.1 1.4 1.6 2.7 1.4 2.8 1.4 0-0.3-1.3-0.6-3-0.2-1.6-0.8-3-0.5-2.7-3.3-3.2-1.3-0.3-3.2 0.2-2.2 0.6-4.1 1.4-2 1.1-4.4 1.1-2.7 0-4.1-0.6-3.8-1.9-0.3-2.7 1.7-0.3 4.1-1.9 2.2-1.4 3.8-3.5 1.7-2.2 2.8-5.5 1.1-3 0.8-5.7 0-2.8-1.4-4.7-1.3-1.9-3-2.2-4.3-0.5-1.3 0.6 1 0.5 1.9 2.2 0.8 1.6 1.1 3.8 0 2.2-1.1 4.9-1.1 2.7-2.8 4.6-1.6 2.2-4.9 3.3-3.3 1.4-6.5 0.8-3-0.5-7.4-2.1-4.6-1.4-7.9-3-3.3-1.7-6.8-4.1-3.6-2.5-5.5-3.9-4.1-3.5 1.9-2.7 2.5 0.3 5.5 1.6 2.7 1.7 4.1 3.6 1.6 1.6 4.3 3 2.5 1.4 4.7 1.4 2.2 0 4.1-1.1 1.9-0.8 2.4-2.2 1.1-3-0.5-1.4-0.6 0.8-1.9 1.4-1.4 0.5-3 0.5-1.4 0-3.6-1.3-2.2-1.1-3.8-2.8-1.6-1.9-1.9-3.8-0.6-1.6 0.5-2.2 1.4-0.8 3.8-0.8 2.5 0 5.5 0.6 2.7 0.5 6 2.4 3 1.9 4.9 4.1 1.9 2.2 2.2 1.9 0-0.3-1.6-3-1.4-2.7-4.7-5.2-3.5-2.4-6.5-3.2-3.3-0.9-6.8-0.9-3.6 0.3-5.8 1.4-2.2 1.1-6.3 1.6-4.3 0.6-8.1 0-4.1-0.5-7.4-1.3-3.6-0.8-4.7-1.7-0.8-1.1-1.3-1.6-0.8-0.5-0.8-0.5 0 0 0.8-0.6 0.5-0.5 1.3-1.6 1.1-0.9 4.7-1.7 3.3-0.8 7.4-1.3 3.8-0.6 8.1 0 4.1 0.5 6.3 1.6 2.2 1.1 5.8 1.1 3.5 0.3 6.8-0.6 3-0.8 6.5-3.2 3.3-2.5 4.7-5.2 1.6-2.7 1.6-3-0.3-0.3-2.2 1.9-1.9 2.2-4.9 4.1-3.3 1.9-6 2.4-3 0.6-5.5 0.6-2.4 0-3.5-0.8-1.4-0.6-0.8-2.5 0.3-1.6 1.9-3.5 1.6-1.7 3.8-3 2.2-1.1 3.6-1.1 3.8 0 5.2 1.9 0.5 0.5 0.8 0.3 0-0.3-0.6-1.7-0.5-1.3-2.4-2.4-1.9-0.9-4.1-0.9-2.2 0-4.7 1.4-2.7 1.4-4.3 3-1.4 1.9-4.1 3.3-2.8 1.6-5.5 1.9-5.5 0.8-1.9-2.7 1.9-1.4 5.5-3.9 3.5-2.4 6.8-4.1 3.3-1.6 7.9-3.2 4.4-1.4 7.4-1.9 3.2-0.6 6.5 0.5 3.3 1.4 4.9 3.6 1.7 1.9 2.8 4.6 1.1 2.7 1.1 4.9-0.3 2.2-1.1 3.8-0.9 1.7-1.9 2.2-3 1.1 1.3 0.6 1.7-0.3 3-2.2 1.4-1.9 1.4-4.7 0.3-2.7-0.8-6-1.1-3-2.8-5.2-1.6-2.1-3.8-3.8-2.4-1.3-4.1-1.6-3.3-0.8 0.3-2.7 1.6-0.6 4.1-0.6 2.4 0 4.4 1.1 1.9 0.8 4.1 1.4 1.9 0.5 3.2 0.2 2.8-0.5 3.3-3.2 0.6-1.4 0.8-3 0.3-1.7 0.6-3 0-2.8-1.4 0-0.5 1.3-1.6 2.7-1.1 1.4-1.7 1.9-1.9 1.4-5.4 0-1.7-0.5-2.5-1.6-1.1-0.9-0.5-1.4 0.5-0.5 1.9-1.1 1.3-0.3 2.7-0.5 3.6 0 4.6-1.7 1.1-1.6-1.6-1.1-1.4 0-1.1-0.2 0.3-0.3 1.7-0.9 1.3-0.5 2.7-1.6 1.4-1.1 1.9-2.2 0.8-2.2-1.4-2.2-3 0-5.4 1.9-1.4 1.1-1.7 0.9-0.2 0 0.3-0.9 1.4-1.9-0.3-1.9-1.6 0-3.5 3-0.8 1.4-1.9 2.2-1.1 1.1-1.9 1.1-0.6 0-0.9-1.4-0.5-1-0.2-2.7 0.2-1.6 1.1-3 0.5-1.4 1.6-1.6 0.8-0.6 2.5-0.8 1.6 0 3 0.2 1.6 0 1.9-0.2 0.2-0.3-1.1-0.9-1.4-0.5-2.7-1.1-1.7-0.5-3.1-1-1.3-0.3-2.7 0-1.3 0.5-1.9 1.3-0.5 1.1-1.1 3-0.5 2.2-0.8 4.1-0.3 2.2-1.4 4.4-1.3 2.4-2.7 3.5-1.4 1.1-1.9 0.6-0.8-0.3-0.3-1.9 0.6-1.4 0.3-4.4-0.3-2.7-1.4-5.2-0.8-2.4-3-4.9-2.4-2.5-4.9-3.8-2.2-1.4-4.6-1.1-2.5 0.3-3.6 1.6-2.2 3.3 0 1.4 1.1-0.8 3-0.8 1.9 0.2 3.6 1.3 1.9 1.1 3.8 3.3 1.9 2.5 2.7 4.6 1.1 2.5 0.6 5.8-0.9 3.5-2.8 6-2.1 2.7-5.7 5.7-3.5 3.3-6.5 5.2-3.1 1.9-6.9 3.8-3.8 1.9-6 2.8-2.2 0.8-2.7 0-0.6-0.9 1.1-3 1.6-2.2 4.4-3.9 2.7-1.3 4.9-1.9 2.1-0.5 4.6-2.2 2.5-1.3 3.8-3.2 2.5-4.7 0.6-7.4-2.5-2.5-1.4-0.3 0.3 0.8 0 2.2-0.3 1.6-1.1 3-1.9 3.3-7.4 4.6-2.1 0.6-3.8-0.2-1.9-0.6-1.9-1.9-0.3-1.4 1.1-3.6 1.4-2.2 3.3-4.4 1.9-2.1 5.2-3.8 3.2-1.6 6-2.2 6-1.3-0.8-1.3-3 0-6.9 1.6-3.8 1.7-6 4.1-2.2 2.2-3.8 5.5-1.6 3.5-1.9 5.7 0 2.2-1.6 6-2 4.1-4.4 7.1-2.2 3.6-4.7 6-2.4 2.5-3.8 2.7-1.3 0.6-2.2 0.6-0.8 0.3-0.8 0.3 0 0.2 0-0.6-0.3-0.8-0.5-2.2-0.6-1.3 0.5-4.9 1.1-3.3 2.5-6.8 1.9-3.8 4.3-7.4 2.5-3.3 4.7-4.6 1.6-1.4 3.8-4.4 1.9-3 2.7-6 0.9-3 0.6-7.4-0.6-4.1-2.2-6.5-1.4-2.7-1.9-2.7-0.6 0 0.5 2.7 0.9 2.4 1.1 6.3 0 3.8-0.8 6.2-0.8 2.8-2.2 5-1.3 2.4-2.4 3-2.8 0.8-4.7-4.1-0.8-2.2-0.8-4.7 0-2.4 0.8-3.8 1.7-3 4.4-3.5 0.8-0.3 0.5-0.6-0.2-0.3-1.6-0.5-1.4-0.3-3 0.8-1.9 1.1-3 3.3-1.1 2.1-1.1 4.9-0.3 3 0.3 5.2 1.1 2.1 1.1 5.1-0.3 3.3-1.4 5.8-0.8 2.2-1.6 2.2-1.1 0-1.7-2.2-0.5-2.2-0.5-6.6-0.3-4.1-0.3-7.9 0.3-3.5 1.1-8.2 0.8-4.6 2.2-7.6 1.3-3 4.1-5.2 2.4-2.2 5.2-2.7 2.1-0.6 5.2 0 3 0.5 4.9 1.6 1.6 1.1 2.7 2.4 1.1 1.7 0.8 3.1-0.3 2.7 1.4-0.9 0.5-1.6-0.6-3.8-1.1-2.2-3.2-3.5-2.2-1.4-5.5-2.2-3.6-0.8-6-0.3-2.5 0.6-4.9 1.6-2.8 1.1-3.8 2.5-1.1 1.4-1.7 0.8-0.8-0.3-0.5-2.2 0.2-1.9 1.6-4.1 1.4-1.9 3-3.2 1.7-1.4 3.3-3 1.4-1.4 1.9-2.5 0.8-2.5-1.1-4.4-1.1-1.1-2.2-2.1-1.3-1.1-2.4-2-1.1-0.8-1.1-0.5-0.3 0.3 0.5 1.6 0.8 1.4 1.7 2.8 0.5 1.3 0.5 2.4 0.6 2.5-2.7 4.9-1.4 1.1-2.5 1.1-1.1 0.3-1.3-0.2-1.1-1.7 0.8-5 0.5-1.3 1.1-2.7 0.2-1.4-0.3-1.9-0.3-0.5-0.8-0.3-0.6 0.3-1.1 1.1-0.6 1.1-0.6 0.6-0.2-0.3 0-1.7 0.3-1.3 0-3.3-0.5-1.6-1.1-2.7-1.1-2.2-2.7 0-0.5 1.1-0.8 2.7-0.3 2 0 3.3 0.5 3.3-0.8 1.1-0.3-0.8-0.8-1.1-0.6-0.2-0.9 0.3-0.5 0.5 0 1.9 0.3 1.4 0.9 2.7 0.5 1.4 1 2.8 0.3 1.6-0.2 2.2-0.3 0.5-1.4 0.2-1.1 0-2.4-1.1-1.4-1.1-2.2-2.4-1.1-1.4-0.9-2.5 0.6-2.2 2.5-5.2 0.8-1.3 0.8-1.6-0.2-0.3-1.3 0.5-1.1 0.9-2.5 2-1.4 1-2.2 2.1-1.9 1.9-1.1 4.4 1.1 2.7 5.2 5.5 1.7 1.3 3 3.2 1.4 2.2 1.7 4.1 0.2 1.9-0.3 2.2-0.8 0.6-1.9-0.8-1.1-1.4-3.6-2.5-2.7-1-5.2-1.6-2.7-0.5-6 0.3-3.5 0.8-5.7 2.2-2.2 1.3-3.3 3.5-1.1 2.2-0.3 3.8 0.6 1.7 1.1 1.9 0.3 0.3 0-1-0.2-1.4 1.1-3.1 1.1-1.3 2.8-2.4 1.9-1.1 4.9-1.6 2.7-0.6 5.2 0 2.4 0.5 5.1 2.7 2.8 2.2 4.1 5.2 1.4 3 2.2 7.6 0.8 4.7 0.8 8.2 0.3 3.8 0 7.9-0.2 4.4-0.5 6.6-0.5 2.2-1.4 2.2-1.1 0-2.1-2.2-0.9-2.5-0.9-5.8-0.2-3 0.6-5.1 0.8-2.2 0.8-5.2-0.3-2.8-1.4-4.9-1.3-2.2-3-3.3-1.6-1.1-3-0.8-1.3 0.2-1.6 0.5-0.3 0.3 0.5 0.6 2.5 0.5 4.1 3.5 0.8 1.4 0.8 3.8 0 2.5-0.5 4.7-1.9 4.9-4.6 4.1-1.4-0.6-2.8-3-1.3-2.2-1.9-5-0.8-2.4-0.8-6.2 0-3.9 1.1-6.3 1.6-5.5-1.6 0-1.4 2.4-1.7 6.5-0.5 4.4 0.3 7.4 0.8 3 2.7 6 1.9 3 4.1 4.4 1.9 1.3 4.4 4.6 2.4 3.6 4.1 7.4 1.6 3.5 2.7 6.8 1.1 3.6 0.6 4.9-0.3 1.4-0.3 2.2-0.3 0.8-0.3 0.8 0 0-0.8-0.2-0.8-0.3-2.2-0.9-1.4-0.2-3.8-2.7-2.5-2.4-4.9-5.7v-0.3q-2.2-3-3.9-7.1-1.9-3.8-2.1-6 0-2.2-1.7-5.5-1.6-3.2-3.8-5.7-2.5-2.4-6.3-4.1-3.8-1.6-6.8-1.6-6.8 0-0.5 1.3 2.7 0.6 6 2.2 3.2 1.7 5.1 3.8 2 2.2 3.3 4.4 1.1 2.2 1.1 3.6-0.5 3-6 2.1-2.2-0.5-4.4-1.9-2.1-1.1-3-2.4-0.5-1.4-0.8-3-0.5-1.4 0-2.5 0.6-0.8 0-0.8-0.5 0.3-1.3 1.4-0.9 1.1-0.6 3 0 1.9 1.1 4.1 1.1 1.9 3.5 3.2 2.5 1.7 5 2.2 2.1 0.6 4.9 1.9 2.7 1.7 4.3 3.9 1.4 2.1 1.1 3-0.5 0.8-2.7 0-2.2-0.6-6-2.5-3.8-1.9-6.8-4.1-3-1.9-6.6-5.2-3.8-3-5.7-5.4-1.9-2.8-2.5-6.3-0.8-3.3 0.3-5.8 0.8-2.1 2.7-4.6 1.9-2.2 3.9-3.3 1.6-1.1 3.5-1.3 1.9 0 3 0.8 1.6 1.4-0.3-1.4-1.1-1.3-3.2-1.6-2.5-0.3-5 1.1-2.4 1.3-4.6 3.8-2.2 2.5-3.3 4.9-0.8 2.5-1.1 5.2-0.2 3 0.3 4.6 0.6 1.4 0 1.7-0.8 0.5-2.2-0.6-1.6-1.1-2.7-3.2-1.1-2.2-1.4-4.4-0.2-2.2-0.8-4.4-0.5-1.9-1.4-2.7-1.3-2.5-4.3-1.4-1.4 0.3-2.8 0.8-1.6 0.6-3 1.1-2.1 1.1 0.6 1.1 1.4 0 3.3 0 1.6 0 2.4 0.6 0.8 0.2 1.7 1.6 0.8 1.4 1.1 3 0.5 4.1-1.4 4.1-0.6 0-1.6-1.1-1.4-0.8-2-2.2-1.9-3-3.8-3-1.3 0 0 1.9 1.4 2.2-1.3 0-2.8-1.9-5.5-1.9z"/>
						<path id="Snowflake copy 5" class="s7" aria-label="E"  d="m93.5 499.7q-2.3 0-1.1 1.8 0.4 0.9 1.5 1.8 1.1 0.9 2.3 1.3 1.1 0.5 1.3 0.7 0 0.2-0.9 0.2-2.2 0-1.3 0.9 0.2 0.5 1.3 0.9 1.1 0.4 2.2 0.4 1.4 0.3 2.5 0.5 1.1 0.4 1.3 0.9 0.9 1.3-2.2 2.4-1.3 0.5-2.7 0.5-1.3 0.2-1.8-0.5-1.3-1.1-2.7-3.5-1.1-2.7-1.1-0.3 0.3 1.2 0.5 2.5 0.2 1.3 0.6 2.5 0.3 1.1 1.2 1.8 0.6 0.9 1.5 0.9 0.9 0.2 2.7-0.3 1.6-0.4 3.4-1.1 1.5-0.9 3.5-0.9 2.1 0 3.4 0.5 2.9 1.5 0.2 2.2-1.3 0.2-3.3 1.3-2 1.4-3.2 3.2-1.3 1.8-2.2 4.2-0.9 2.7-0.9 4.9 0.2 2.3 1.4 3.8 1.1 1.6 2.4 1.8 1.4 0.3 1.8 0 0.4 0-0.7-0.4-1.1-0.5-1.5-1.8-0.7-1.3-0.9-3.1 0-1.8 0.9-4.1 0.9-2.2 2-3.8 1.3-1.8 4.2-2.9 2.7-0.9 5.2-0.4 2.7 0.4 6.5 1.5 3.5 1.4 6.2 2.7 2.5 1.6 5.4 3.4 2.9 2 4.5 3.1 3.3 2.9-1.6 2.3-2-0.3-4.3-1.4-2.4-1.1-3.5-2.7-1.2-1.5-3.4-2.7-2.2-1.1-4-1.1-1.8 0-3.1 0.7-1.6 0.9-2.1 2-0.4 1.1-0.2 1.4 0 0.4 0.5-0.3 1.1-1.5 4-1.5 1.3 0 3.1 0.9 1.8 1.1 3.2 2.6 1.1 1.4 1.5 2.7 0.2 1.6-0.7 2-0.8 0.7-2.9 0.7-2.2 0-4.4-0.4-2.3-0.5-4.7-2-2.7-1.6-4.3-3.4-1.5-1.8-1.5-1.6-0.3 0.3 1.1 2.5 1.1 2.2 4 4.2 2.7 2.1 5.1 2.7 2.5 0.7 5.6 0.5 2.9 0 4.7-0.9 1.8-0.9 5.2-1.4 3.3-0.4 6.7 0 3.3 0.5 6.2 1.2 2.7 0.6 3.4 1.3 1.8 1.8 0 3.6-0.7 0.6-3.4 1.3-2.9 0.7-6.2 1.1-3.4 0.5-6.7 0-3.4-0.4-5.2-1.3-1.8-0.9-4.7-1.1-2.9 0-5.6 0.6-2.4 0.7-5.1 2.7-2.9 2-4 4.3-1.4 2.2-1.1 2.4 0 0.3 1.5-1.5 1.6-1.8 4.3-3.4 2.4-1.5 4.7-2 2.2-0.4 4.4-0.4 2.1 0 2.9 0.6 0.9 0.5 0.7 1.8-0.4 1.6-1.5 2.9-1.4 1.6-3.2 2.5-1.8 1.1-3.1 1.1-2.9 0-4-1.6-1.2-1.3-0.3 1.2 0.5 1.1 2.1 1.7 1.3 0.9 3.1 0.9 1.8 0 4-1.1 2.2-1.1 3.4-2.7 1.1-1.5 3.5-2.6 2.5-1.2 4.5-1.4 2-0.4 2.5 0.2 0.4 0.7-1.1 2-1.6 1.2-4.5 3-2.9 2-5.4 3.5-2.7 1.4-6.2 2.5-3.8 1.3-6.5 1.8-2.5 0.4-5.2-0.7-2.9-0.9-4.2-2.7-1.1-1.5-2-3.8-0.9-2.2-0.9-4 0.2-1.8 0.9-3.1 0.4-1.4 1.5-1.8 1.1-0.5 0.7-0.7-0.4 0-1.8 0.2-1.3 0.3-2.4 1.8-1.2 1.6-1.4 3.8 0 2.3 0.9 4.7 0.9 2.7 2.2 4.5 1.2 1.8 3.2 2.9 2 1.3 3.3 1.6 2.7 0.6-0.2 2.2-1.3 0.5-3.4 0.5-2 0-3.5-0.9-1.8-0.7-3.4-1.2-1.8-0.4-2.7-0.2-0.9 0-1.5 0.7-0.9 0.9-1.2 2-0.4 1.1-0.6 2.5-0.2 1.3-0.5 2.4 0 2.5 1.1-0.2 1.4-2.5 2.7-3.6 0.5-0.7 2-0.7 1.4 0.3 2.5 0.7 3.1 1.1 2.2 2.5-0.2 0.4-1.3 0.7-1.1 0.4-2.5 0.6-1.1 0-2.2 0.5-1.1 0.4-1.3 0.9-0.9 0.9 1.3 0.9 0.9 0 0.9 0.2-0.2 0.2-1.3 0.7-1.2 0.4-2.3 1.3-1.1 0.9-1.5 1.8-1.2 1.8 1.1 1.8 2.2 0 4.4-1.6 2.3-1.8 1.2 0-1.2 1.6 0.2 1.6 1.3 0 2.9-2.5 0.7-1.1 1.6-2 0.9-0.7 1.3-0.7 1.6 0 1.1 3.4-0.2 1.3-0.9 2.4-0.6 1.2-1.3 1.4-0.7 0.4-2 0.4-1.4 0-2.7 0-2.3 0-0.5 0.9 1.2 0.5 2.5 0.9 1.1 0.5 2.2 0.7 2.3 0.7 3.8-1.1 0.5-0.7 0.9-2.5 0.5-1.6 0.7-3.3 0.2-1.8 1.1-3.6 0.9-1.8 2.3-2.7 1.1-0.9 1.7-0.7 0.5 0.5 0 1.6-0.4 1.3-0.2 3.6 0.2 2.4 0.9 4.4 0.9 2.1 2.7 4.1 1.8 2 3.8 3.1 2 1.1 4 0.9 1.8-0.2 2.7-1.3 1.1-1.2 1.1-1.6 0-0.2-0.9 0.4-0.9 0.7-2.4 0.5-1.6 0-2.9-0.9-1.6-0.9-3.2-2.9-1.5-1.8-2.2-3.6-0.9-2-0.2-4.9 0.4-2.7 2-4.9 1.6-2.1 4.7-4.7 2.9-2.5 5.4-4.1 2.4-1.8 5.5-3.3 3.2-1.6 5-2 1.8-0.7 2.2 0 0.2 0.6-0.9 2.4-1.3 1.8-3.6 2.9-2.2 1.4-4 1.8-2 0.5-4 1.6-2 1.3-2.9 2.9-0.9 1.8-0.9 3.4-0.2 1.5 0.4 2.4 0.7 0.9 1.1 0.9 0.5 0.2 0-0.4-0.6-1.8 0.9-4.5 0.5-1.1 2.3-2.2 1.8-0.9 3.6-1.4 4.4-0.7 4.9 1.8 0 1.1-0.9 2.9-1.1 1.8-2.7 3.6-1.6 1.8-4.3 3.1-2.6 1.4-4.9 1.8-5.1 1.1 0.5 1.1 2.4 0 5.6-1.3 3.1-1.4 5.1-3.4 1.8-2 3.1-4.7 1.4-2.7 1.6-4.4 0-1.8 1.6-5.2 1.3-3.1 3.1-5.6v-0.2q2-2.7 4-4.7 2-2 3.2-2.2 1.1-0.5 1.7-0.7 0.7-0.2 0.7-0.2 0 0 0.2 0.6 0 0.7 0.3 1.8 0.4 1.1-0.5 3.8-0.9 2.9-2.2 5.8-1.4 3.2-3.4 5.9-2 2.9-3.6 4-1.7 1.1-3.3 3.6-1.6 2.4-2.2 4.9-0.7 2.4-0.3 5.8 0.3 3.6 1.4 5.6 2.7 4.2 1.3 0-0.9-2-0.9-5.1 0-3.2 0.7-5.2 0.4-2.2 1.6-4.2 1.1-1.8 2.2-2.3 2.2-0.6 3.8 3.4 0.4 1.8 0.4 3.8 0 2-0.6 3.1-1.4 2.5-3.4 2.9-0.7 0.2-0.4 0.5 0.2 0.2 1.3 0.4 1.1 0.2 2.5-0.7 1.3-0.9 2.4-2.6 0.9-1.8 1.2-4.3 0-2.2-0.7-4-0.7-1.8-0.5-4.5 0-2.5 0.7-4.5 0.9-1.8 1.8-1.8 0.7 0 1.1 1.8 0.2 1.8 0.5 5.2 0.2 3.6 0 6.7 0 2.9-0.7 6.7-0.7 3.8-1.8 6.3-1.1 2.4-3.4 4.2-2.2 1.8-4.2 2.2-2 0.5-4.3 0-2.4-0.4-4-1.3-1.3-0.9-2.2-2.2-1.1-1.4-0.9-2.5 0.2-1.1 0-0.9-0.5 0.5-0.9 1.8-0.7 1.3 0.2 3.1 0.9 1.8 2.7 2.9 1.8 1.2 4.7 1.8 2.7 0.7 4.9 0.3 2-0.5 4.3-1.4 2-0.9 2.9-2 0.9-1.1 1.5-0.9 0.5 0.5 0.3 2-0.3 1.6-1.4 3.2-1.1 1.7-2.4 2.9-3.4 2.2-4.3 4.4-0.7 2 0.9 3.6 0.7 0.9 1.8 1.8 1.1 0.9 2 1.6 0.9 0.6 1.1 0.4 0-0.2-0.6-1.3-0.7-1.1-1.2-2.5-0.6-1.1-0.9-1.8-0.2-0.9 0.7-2 0.7-1.1 1.8-2 1.1-0.9 2-1.1 0.9 0 1.1 0.4 0.5 0.5 0.3 1.6-0.5 1.3-0.9 2.5-0.5 1.1-0.7 2.2-0.5 1.1 0 1.6 0.2 0.4 0.7 0.2 0.4-0.2 0.6-0.9 1.2-1.8 0.7 0.9-0.2 1.1 0 2.4 0.2 1.6 0.7 2.3 0.4 0.9 1.1 0.9 0.7 0 1.1-0.9 1.4-1.8 0.9-4.7-0.2-1.1 0-1.6 0-0.2 0.5 0.7 0.4 0.7 0.9 0.9 0.4 0.2 0.6-0.2 0.5-0.5 0.2-1.6-0.4-1.1-0.8-2.2-1.6-2.7-0.7-4.1 0.2-0.4 1.1-0.4 0.9 0.2 2 1.1 2.7 1.8 2.3 4 0 0.7-0.5 1.8-0.7 1.4-1.3 2.5-0.7 1.1-0.5 1.3 0 0.2 0.9-0.4 0.9-0.7 2-1.6 0.9-0.9 1.8-1.8 1.6-1.6 0.9-3.6-0.4-0.9-1.6-2.2-1.3-1.1-2.6-2.2-1.4-1.2-2.5-2.9-1.1-1.6-1.3-3.2-0.3-1.5 0.4-2 0.4-0.2 1.3 0.9 0.9 1.1 3.2 2 2 0.9 4 1.4 2 0.4 4.9-0.3 2.7-0.6 4.5-1.8 1.8-1.1 2.7-2.9 0.9-1.8 0.4-3.1-1.3-2.9-1.1-0.9 0.2 1.1-0.7 2.5-0.9 1.3-2.2 2.2-1.6 0.9-4 1.3-2.5 0.5-4.3 0-2.2-0.4-4.2-2.2-2.3-1.8-3.4-4.2-1.1-2.5-1.8-6.3-0.6-3.8-0.9-6.7 0-3.1 0.3-6.7 0-3.4 0.4-5.2 0.5-1.8 1.3-1.8 0.7 0 1.4 1.8 0.9 2 1.1 4.5 0 2.7-0.9 4.5-0.4 1.8-0.2 4 0 2.5 0.9 4.3 0.9 1.7 2.4 2.6 1.4 0.9 2.5 0.7 1.1-0.2 1.3-0.4 0.3-0.3-0.4-0.5-2.2-0.4-3.6-2.9-0.6-1.1-0.6-3.1 0-2 0.6-3.8 1.6-4 3.8-3.4 0.9 0.5 2 2.3 1.2 2 1.8 4.2 0.7 2 0.7 5.2-0.2 3.1-0.9 5.1-0.9 2.2-0.4 2.2 0.4 0 1.5-2.2 1.4-2 1.8-5.6 0.2-3.4-0.4-5.8-0.7-2.5-2.3-4.9-1.8-2.5-3.1-3.6-1.8-1.1-3.8-4-2-2.7-3.6-5.9-1.1-2.9-2-5.8-0.9-2.7-0.4-3.8 0.4-2.4 2.9-1.5 1.1 0.2 3.1 2.2 2 2 3.8 4.9 2 2.5 3.6 5.6 1.3 3.4 1.3 5.2 0 1.7 1.6 4.4 1.3 2.9 3.1 4.7 1.8 2 4.9 3.4 3.2 1.3 5.6 1.3 5.6 0 0.7-1.1-2.2-0.4-4.9-1.8-2.7-1.3-4.3-3.1-1.5-1.8-2.7-3.6-1.1-1.8-0.9-2.9 0-1.1 1.6-1.8 1.4-0.4 3.1 0 4.5 1.1 6.1 3.8 1.5 2.5 0.7 4.3-0.5 1.5 1.3-0.3 1.6-2.2-0.5-6-1.1-1.6-3.1-2.9-2-1.1-3.8-1.6-1.8-0.4-4-1.8-2.2-1.1-3.6-2.9-1.3-1.8-0.9-2.4 0.5-0.7 2.3 0 1.7 0.6 4.9 2.2 3.1 1.6 5.6 3.1 2.4 1.6 5.3 4.1 2.9 2.6 4.7 4.9 1.6 2 2.3 4.7 0.4 2.9-0.5 4.9-0.7 1.8-2.2 3.6-1.6 2-3.1 2.9-1.4 0.9-3 0.9-1.7 0.2-2.4-0.5-1.8-1.5 0 1.2 0.9 1.1 2.9 1.3 2 0.2 3.8-0.9 2-1.1 4-3.1 1.8-2 2.5-4.1 0.9-2 1.1-4.4 0.2-2.3-0.2-3.4-0.5-1.3 0.2-1.8 0.4-0.2 1.6 0.7 1.1 0.9 2.2 2.7 0.9 2 1.1 3.8 0.2 1.5 0.7 3.1 0.4 1.8 0.9 2.7 0.4 0.7 1.6 0.9 1.1 0.4 2.2 0.2 1.1-0.4 2.4-0.9 1.2-0.4 2.3-0.9 1.1-0.4 0.9-0.6-0.5-0.3-1.6-0.3-2.7 0.5-4.7-0.4-0.7-0.2-1.1-1.4-0.7-1.1-0.9-2.4-0.4-1.4 0-2.5 0.5-0.9 0.9-0.9 0.7 0 1.6 0.7 0.9 0.9 1.5 2 1.6 2.5 2.9 2.5 1.4 0 0.3-1.6-0.5-0.7-0.3-0.9 0.3 0 1.2 0.9 2.4 1.6 4.7 1.6 1.7 0 1.1-1.8-0.5-0.9-1.6-1.8-1.1-0.9-2.2-1.3-1.2-0.5-1.4-0.7-0.2-0.2 0.7-0.2 2.5 0.4 1.6-0.9-0.9-1.4-3.8-1.4-1.2-0.2-2.3-0.6-1.1-0.3-1.5-0.7-0.5-0.5 0.4-1.4 0.7-0.6 2-1.1 2.9-1.1 4.5 0 0.4 0.5 1.3 1.6 0.9 1.1 1.4 2.2 1.1 2.3 1.1 0-0.2-1.1-0.5-2.4-0.2-1.4-0.6-2.5-0.5-2.2-2.7-2.7-1.1-0.2-2.7 0.2-1.8 0.5-3.3 1.2-1.6 0.9-3.6 0.9-2.3 0-3.4-0.5-3.1-1.6-0.2-2.2 1.3-0.3 3.4-1.6 1.7-1.1 3.1-2.9 1.3-1.8 2.2-4.5 0.9-2.4 0.7-4.7 0-2.2-1.1-3.8-1.1-1.5-2.5-1.8-3.6-0.4-1.1 0.5 0.9 0.4 1.6 1.8 0.6 1.3 0.9 3.1 0 1.8-0.9 4-0.9 2.3-2.3 3.8-1.3 1.8-4 2.7-2.7 1.1-5.4 0.7-2.4-0.5-6-1.8-3.8-1.1-6.5-2.5-2.7-1.3-5.6-3.3-2.9-2-4.5-3.2-3.3-2.9 1.6-2.2 2 0.2 4.5 1.4 2.2 1.3 3.3 2.9 1.4 1.3 3.6 2.4 2 1.1 3.8 1.1 1.8 0 3.4-0.9 1.5-0.6 2-1.7 0.9-2.5-0.5-1.2-0.4 0.7-1.5 1.2-1.2 0.4-2.5 0.4-1.1 0-2.9-1.1-1.8-0.9-3.1-2.3-1.4-1.5-1.6-3.1-0.4-1.3 0.4-1.8 1.2-0.6 3.2-0.6 2 0 4.5 0.4 2.2 0.5 4.9 2 2.4 1.6 4 3.4 1.6 1.8 1.8 1.5 0-0.2-1.4-2.4-1.1-2.3-3.8-4.3-2.9-2-5.3-2.7-2.7-0.6-5.6-0.6-2.9 0.2-4.7 1.1-1.8 0.9-5.2 1.3-3.5 0.5-6.7 0-3.3-0.4-6-1.1-2.9-0.7-3.8-1.3-0.7-0.9-1.1-1.4-0.7-0.4-0.7-0.4 0 0 0.7-0.5 0.4-0.4 1.1-1.3 0.9-0.7 3.8-1.3 2.7-0.7 6-1.2 3.2-0.4 6.7 0 3.4 0.5 5.2 1.4 1.8 0.9 4.7 0.9 2.9 0.2 5.6-0.5 2.4-0.6 5.3-2.7 2.7-2 3.8-4.2 1.4-2.2 1.4-2.5-0.2-0.2-1.8 1.6-1.6 1.8-4 3.4-2.7 1.5-4.9 2-2.5 0.4-4.5 0.4-2 0-2.9-0.7-1.1-0.4-0.7-2 0.2-1.3 1.6-2.9 1.3-1.3 3.1-2.4 1.8-0.9 2.9-0.9 3.1 0 4.3 1.5 0.4 0.5 0.6 0.3 0-0.3-0.4-1.4-0.5-1.1-2-2-1.6-0.7-3.4-0.7-1.8 0-3.8 1.1-2.2 1.2-3.6 2.5-1.1 1.6-3.3 2.7-2.3 1.3-4.5 1.6-4.5 0.6-1.6-2.3 1.6-1.1 4.5-3.1 2.9-2 5.6-3.4 2.7-1.3 6.5-2.7 3.6-1.1 6-1.5 2.7-0.5 5.4 0.4 2.7 1.1 4 2.9 1.4 1.6 2.3 3.8 0.9 2.3 0.9 4.1-0.3 1.8-0.9 3.1-0.7 1.3-1.6 1.8-2.5 0.9 1.1 0.4 1.4-0.2 2.5-1.8 1.1-1.5 1.1-3.8 0.2-2.2-0.7-4.9-0.9-2.4-2.2-4.2-1.4-1.8-3.1-3.2-2.1-1.1-3.4-1.3-2.7-0.7 0.2-2.2 1.4-0.5 3.4-0.5 2 0 3.6 0.9 1.5 0.7 3.3 1.1 1.6 0.5 2.7 0.3 2.2-0.5 2.7-2.7 0.4-1.2 0.6-2.5 0.3-1.3 0.5-2.5 0-2.2-1.1 0-0.5 1.2-1.4 2.3-0.9 1.1-1.3 1.5-1.6 1.2-4.5 0-1.3-0.4-2-1.3-0.9-0.7-0.4-1.1 0.4-0.5 1.5-0.9 1.1-0.2 2.3-0.5 2.9 0 3.8-1.3 0.9-1.3-1.4-0.9-1.1 0-0.9-0.2 0.2-0.2 1.4-0.7 1.1-0.4 2.2-1.3 1.1-0.9 1.6-1.8 0.6-1.8-1.1-1.8-2.5 0-4.5 1.6-1.1 0.9-1.4 0.6-0.2 0 0.3-0.6 1.1-1.6-0.3-1.6-1.3 0-2.9 2.5-0.6 1.1-1.5 1.7-0.9 0.9-1.6 0.9-0.4 0-0.7-1.1-0.4-0.9-0.2-2.2 0.2-1.4 0.9-2.5 0.4-1.1 1.3-1.3 0.7-0.5 2.1-0.7 1.3 0 2.4 0.2 1.4 0 1.6-0.2 0.2-0.2-0.9-0.7-1.1-0.4-2.3-0.9-1.3-0.4-2.4-0.8-1.1-0.3-2.2 0-1.2 0.4-1.6 1.1-0.5 0.9-0.9 2.4-0.5 1.8-0.7 3.4-0.2 1.8-1.1 3.6-1.1 2-2.2 2.9-1.2 0.9-1.6 0.4-0.7-0.2-0.2-1.5 0.4-1.2 0.2-3.6-0.2-2.3-1.1-4.3-0.7-2-2.5-4-2-2-4-3.1-1.8-1.2-3.8-0.9-2 0.2-2.9 1.3-1.8 2.7 0 1.1 0.9-0.6 2.4-0.6 1.6 0.2 3 1.1 1.5 0.9 3.1 2.7 1.5 2 2.2 3.8 0.9 2 0.5 4.7-0.7 2.9-2.3 4.9-1.8 2.2-4.7 4.7-2.9 2.7-5.3 4.2-2.5 1.6-5.6 3.2-3.2 1.5-4.9 2.2-1.8 0.7-2.3 0-0.4-0.7 0.9-2.5 1.4-1.8 3.6-3.1 2.2-1.1 4-1.6 1.8-0.4 3.8-1.7 2-1.2 3.1-2.7 2.1-3.8 0.5-6.1-2-2-1.1-0.2 0.2 0.7 0 1.8-0.2 1.3-0.9 2.5-1.6 2.6-6.1 3.8-1.7 0.4-3.1-0.3-1.6-0.4-1.6-1.5-0.2-1.2 0.9-2.9 1.2-1.8 2.7-3.6 1.6-1.8 4.3-3.2 2.7-1.3 4.9-1.7 4.9-1.2-0.7-1.2-2.4 0-5.6 1.4-3.1 1.3-4.9 3.3-1.8 1.8-3.1 4.5-1.4 2.9-1.6 4.7 0 1.8-1.3 4.9-1.6 3.4-3.6 5.8-1.8 3-3.8 5-2 2-3.1 2.2-1.2 0.5-1.8 0.5-0.7 0.2-0.7 0.2 0 0.2 0-0.5-0.2-0.6-0.4-1.8-0.5-1.1 0.4-4 0.9-2.7 2-5.6 1.6-3.1 3.6-6 2-2.7 3.8-3.8 1.3-1.1 3.1-3.6 1.6-2.5 2.3-4.9 0.6-2.5 0.4-6.1-0.4-3.3-1.8-5.3-1.1-2.3-1.5-2.3-0.5 0 0.4 2.3 0.7 2 0.9 5.1 0 3.1-0.7 5.2-0.6 2.2-1.8 4-1.1 2-2 2.4-2.2 0.7-3.8-3.3-0.6-1.8-0.6-3.8 0-2 0.6-3.1 1.4-2.5 3.6-2.9 0.7-0.3 0.4-0.5-0.2-0.2-1.3-0.4-1.1-0.3-2.5 0.6-1.5 0.9-2.4 2.7-0.9 1.8-0.9 4-0.2 2.5 0.2 4.3 0.9 1.8 0.9 4.2-0.2 2.7-1.1 4.7-0.7 1.8-1.4 1.8-0.8 0-1.3-1.8-0.4-1.8-0.4-5.3-0.3-3.4-0.3-6.5 0.3-2.9 0.9-6.7 0.7-3.8 1.8-6.3 1.1-2.5 3.4-4.2 2-1.8 4.2-2.3 1.8-0.4 4.3 0 2.4 0.5 4 1.4 1.3 0.9 2.2 2 0.9 1.3 0.7 2.4-0.2 2.3 1.1-0.6 0.5-1.4-0.4-3.2-0.9-1.8-2.7-2.9-1.8-1.1-4.5-1.8-2.9-0.6-4.9-0.2-2 0.5-4 1.4-2.3 0.8-3.2 2-0.9 1.1-1.3 0.6-0.7-0.2-0.4-1.8 0.2-1.5 1.3-3.3 1.1-1.6 2.5-2.7 1.3-1.1 2.6-2.5 1.2-1.1 1.6-2 0.7-2-0.9-3.5-0.9-0.9-1.8-1.8-1.1-0.9-2-1.6-0.9-0.7-0.9-0.4-0.2 0.2 0.5 1.3 0.6 1.1 1.3 2.2 0.5 1.2 0.5 2 0.4 2.1-2.3 4.1-1.1 0.9-2 0.9-0.9 0.2-1.1-0.3-0.9-1.3 0.7-4 0.4-1.1 0.8-2.2 0.3-1.1-0.2-1.6-0.2-0.4-0.6-0.2-0.5 0.2-0.9 0.9-0.5 0.9-0.5 0.4-0.2-0.2 0-1.3 0.2-1.1 0-2.7-0.4-1.3-0.9-2.2-0.9-1.8-2.2 0-0.5 0.9-0.7 2.2-0.2 1.6 0 2.7 0.5 2.7-0.7 0.9-0.2-0.7-0.6-0.9-0.5-0.2-0.7 0.2-0.5 0.5 0 1.6 0.2 1.1 0.7 2.2 0.4 1.1 0.9 2.3 0.2 1.3-0.3 1.7-0.2 0.5-1.1 0.3-0.9 0-2-0.9-1.1-0.9-1.8-2-0.9-1.2-0.7-2.1 0.5-1.7 2.1-4.2 0.6-1.1 0.6-1.3-0.2-0.3-1.1 0.4-0.9 0.7-2 1.6-1.1 0.9-1.8 1.8-1.6 1.5-0.9 3.5 0.9 2.3 4.3 4.5 1.3 1.1 2.4 2.7 1.1 1.8 1.4 3.3 0.2 1.6-0.3 1.8-0.6 0.5-1.5-0.6-0.9-1.2-2.9-2-2.3-0.9-4.3-1.4-2.2-0.4-4.9 0.2-2.9 0.7-4.7 1.8-1.8 1.1-2.7 2.9-0.9 1.8-0.2 3.2 0.4 1.3 0.9 1.5 0.2 0.3 0-0.9-0.2-1.1 0.9-2.4 0.9-1.1 2.2-2 1.6-0.9 4-1.4 2.3-0.4 4.3 0 2 0.5 4.2 2.3 2.3 1.7 3.4 4.2 1.1 2.5 1.8 6.3 0.7 3.8 0.7 6.7 0.2 3.1 0 6.5-0.3 3.5-0.5 5.3-0.4 1.8-1.1 1.8-0.9 0-1.8-1.8-0.7-2-0.7-4.7-0.2-2.4 0.5-4.2 0.7-1.8 0.7-4.3-0.3-2.2-1.2-4-1.1-1.8-2.4-2.7-1.4-0.9-2.5-0.6-1.1 0.2-1.3 0.4-0.3 0.2 0.4 0.5 2 0.4 3.4 2.9 0.6 1.1 0.6 3.1 0 2-0.4 3.8-1.6 4-3.8 3.3-1.1-0.4-2.2-2.4-1.2-1.8-1.6-4-0.7-2.1-0.7-5.2 0-3.1 0.9-5.1 1.4-4.5-1.3 0-1.1 2-1.4 5.3-0.4 3.6 0.3 6.1 0.6 2.4 2.2 4.9 1.6 2.5 3.3 3.6 1.6 1.1 3.6 3.8 2 2.9 3.4 6 1.3 2.9 2.2 5.6 0.9 2.9 0.5 4-0.3 1.2-0.3 1.8-0.2 0.7-0.2 0.7 0 0-0.7-0.2-0.6-0.2-1.7-0.7-1.2-0.2-3.2-2.2-2-2-4-4.7v-0.3q-1.8-2.4-3.1-5.8-1.6-3.1-1.8-4.9 0-1.8-1.4-4.5-1.3-2.6-3.1-4.7-2-2-5.1-3.3-3.2-1.4-5.6-1.4-5.6 0-0.5 1.2 2.3 0.4 4.9 1.7 2.7 1.4 4.3 3.2 1.6 1.8 2.7 3.6 0.9 1.7 0.9 2.9-0.5 2.4-4.9 1.8-1.8-0.5-3.6-1.6-1.8-0.9-2.5-2-0.4-1.1-0.7-2.5-0.4-1.1 0-2 0.5-0.7 0-0.7-0.4 0.3-1.1 1.2-0.6 0.8-0.4 2.4 0 1.6 0.9 3.4 0.9 1.5 2.9 2.7 2 1.3 4 1.7 1.8 0.5 4 1.6 2.3 1.3 3.6 3.1 1.1 1.8 0.9 2.5-0.4 0.7-2.2 0-1.8-0.4-5-2-3.1-1.6-5.5-3.4-2.5-1.5-5.4-4.2-3.1-2.5-4.7-4.5-1.6-2.2-2-5.1-0.7-2.7 0.2-4.7 0.7-1.8 2.2-3.8 1.6-1.8 3.2-2.7 1.3-0.9 2.9-1.1 1.5 0 2.4 0.6 1.4 1.2-0.2-1.1-0.9-1.1-2.7-1.3-2-0.3-4 0.9-2 1.1-3.8 3.1-1.8 2-2.7 4-0.7 2-0.9 4.3-0.2 2.4 0.2 3.8 0.5 1.1 0 1.3-0.6 0.5-1.7-0.4-1.4-0.9-2.3-2.7-0.9-1.8-1.1-3.6-0.2-1.8-0.7-3.6-0.4-1.5-1.1-2.2-1.1-2-3.6-1.1-1.1 0.2-2.2 0.6-1.3 0.5-2.5 0.9-1.8 0.9 0.5 0.9 1.1 0 2.7 0 1.3 0 2 0.5 0.7 0.2 1.3 1.3 0.7 1.1 0.9 2.5 0.5 3.3-1.1 3.3-0.4 0-1.3-0.9-1.2-0.6-1.6-1.7-1.6-2.5-3.1-2.5-1.2 0 0 1.6 1.1 1.7-1.2 0-2.2-1.6-4.4-1.6z"/>
					</g>
				</g>
			</g>
		</g>
	</g>
</svg>