<svg version="1.2" xmlns="http://www.w3.org/2000/svg" viewBox="0 0 800 1575" width="800" height="1575">
	<title>Layer 1</title>
	<style>
		.s0 { fill: #eaedf1 } 
		.s1 { fill: #f4bb44 } 
		.s2 { fill: #dca83d } 
		.s3 { fill: #f6c969 } 
		.s4 { fill: #4e3a2d } 
		.s5 { fill: #413025 } 
		.s6 { opacity: .2;fill-opacity: .8;fill: #ffffff } 
		.s7 { fill: #d6dde5 } 
		.s8 { fill: #f1ebe7 } 
		.s9 { fill: #f5ede8 } 
		.s10 { mix-blend-mode: color-burn;fill: #f5eeea } 
		.s11 { fill: #f5f1ee } 
	</style>
	<g id="Layer 1">
		<g id="&lt;Group&gt;">
			<g id="-e-">
				<path id="&lt;Path&gt;" class="s0" d="m787.5 350l-12.5 125v0.1l-0.2 2.4c-6.6 40.2-171.8 72.5-374.8 72.5-203 0-368.5-32.4-374.8-72.6l-0.2-2.3v-0.1l-12.5-125"/>
				<path id="&lt;Path&gt;" class="s0" d="m762.5 450l-75 1071.8c0 0-63.8 53.2-287.5 53.2-223.7 0-287.5-53.7-287.5-53.7l-75-1071.3z"/>
				<path id="flavor" class="s1" d="m125 1478.3l-71.3-1003.3h692.5l-71.2 1003.7c-40.1 15.7-115.7 46.3-275 46.3-159.3 0-234.9-30.8-275-46.7z"/>
				<path id="flavor" class="s1" d="m753.6 355l-11.4 114.1-0.2 2.2c-6 36.7-156.8 66.2-342 66.2-185.2 0-336.3-29.6-342-66.3l-0.2-2.1-11.4-114.1"/>
				<path id="flavor" class="s1" d="m772.5 355l-12 114.1-0.2 2.2c-6.3 36.7-165.1 66.2-360.3 66.2-195.2 0-354.3-29.6-360.3-66.3l-0.2-2.1-12-114.1"/>
				<path id="dark" class="s2" d="m27.5 355h745l-6.1 57.6c-61.8 22-202.6 37.4-366.4 37.4-163.7 0-304.6-15.4-366.4-37.4z"/>
				<path id="light" class="s3" d="m108.5 489.9c53.9 22.3 164.2 32.6 291.5 32.6 127.4 0 237.7-10.3 291.5-32.6l-1.9 15.6c-60.5 19.2-167.6 32-289.6 32-121.9 0-229-12.8-289.6-32.1z"/>
				<g id="Boba">
					<g id="&lt;Group&gt;">
						<path id="&lt;Path&gt;" class="s4" d="m553 1162.5c27.6 0 50 22.4 50 50 0 27.6-22.4 50-50 50-27.6 0-50-22.4-50-50 0-27.6 22.4-50 50-50z"/>
					</g>
					<g id="&lt;Group&gt;">
						<path id="&lt;Path&gt;" class="s5" d="m540.5 1287.5c27.6 0 50 22.4 50 50 0 27.6-22.4 50-50 50-27.6 0-50-22.4-50-50 0-27.6 22.4-50 50-50z"/>
					</g>
					<g id="&lt;Group&gt;">
						<path id="&lt;Path&gt;" class="s5" d="m298 1395c27.6 0 50 22.4 50 50 0 27.6-22.4 50-50 50-27.6 0-50-22.4-50-50 0-27.6 22.4-50 50-50z"/>
					</g>
					<g id="&lt;Group&gt;">
						<path id="&lt;Path&gt;" class="s4" d="m165.5 1095c27.6 0 50 22.4 50 50 0 27.6-22.4 50-50 50-27.6 0-50-22.4-50-50 0-27.6 22.4-50 50-50z"/>
					</g>
					<g id="&lt;Group&gt;">
						<path id="&lt;Path&gt;" class="s5" d="m409.2 1395c27.7 0 50 22.4 50 50 0 27.6-22.3 50-50 50-27.6 0-50-22.4-50-50 0-27.6 22.4-50 50-50z"/>
					</g>
					<g id="&lt;Group&gt;">
						<path id="&lt;Path&gt;" class="s4" d="m295.5 1287.5c27.6 0 50 22.4 50 50 0 27.6-22.4 50-50 50-27.6 0-50-22.4-50-50 0-27.6 22.4-50 50-50z"/>
					</g>
					<g id="&lt;Group&gt;">
						<path id="&lt;Path&gt;" class="s5" d="m465.5 1095c27.6 0 50 22.4 50 50 0 27.6-22.4 50-50 50-27.6 0-50-22.4-50-50 0-27.6 22.4-50 50-50z"/>
					</g>
					<g id="&lt;Group&gt;">
						<path id="&lt;Path&gt;" class="s4" d="m440.5 1180c27.6 0 50 22.4 50 50 0 27.6-22.4 50-50 50-27.6 0-50-22.4-50-50 0-27.6 22.4-50 50-50z"/>
					</g>
					<g id="&lt;Group&gt;">
						<path id="&lt;Path&gt;" class="s5" d="m365.5 1207.5c27.6 0 50 22.4 50 50 0 27.6-22.4 50-50 50-27.6 0-50-22.4-50-50 0-27.6 22.4-50 50-50z"/>
					</g>
					<g id="&lt;Group&gt;">
						<path id="&lt;Path&gt;" class="s4" d="m433 1290c27.6 0 50 22.4 50 50 0 27.6-22.4 50-50 50-27.6 0-50-22.4-50-50 0-27.6 22.4-50 50-50z"/>
					</g>
					<g id="&lt;Group&gt;">
						<path id="&lt;Path&gt;" class="s5" d="m518 1395c27.6 0 50 22.4 50 50 0 27.6-22.4 50-50 50-27.6 0-50-22.4-50-50 0-27.6 22.4-50 50-50z"/>
					</g>
					<g id="&lt;Group&gt;">
						<path id="&lt;Path&gt;" class="s5" d="m635.5 1122.5c27.6 0 50 22.4 50 50 0 27.6-22.4 50-50 50-27.6 0-50-22.4-50-50 0-27.6 22.4-50 50-50z"/>
					</g>
					<g id="&lt;Group&gt;">
						<path id="&lt;Path&gt;" class="s4" d="m635.5 1232.5c27.6 0 50 22.4 50 50 0 27.6-22.4 50-50 50-27.6 0-50-22.4-50-50 0-27.6 22.4-50 50-50z"/>
					</g>
					<g id="&lt;Group&gt;">
						<path id="&lt;Path&gt;" class="s4" d="m628 1365c27.6 0 50 22.4 50 50 0 27.6-22.4 50-50 50-27.6 0-50-22.4-50-50 0-27.6 22.4-50 50-50z"/>
					</g>
					<g id="&lt;Group&gt;">
						<path id="&lt;Path&gt;" class="s5" d="m240.5 1170c27.6 0 50 22.4 50 50 0 27.6-22.4 50-50 50-27.6 0-50-22.4-50-50 0-27.6 22.4-50 50-50z"/>
					</g>
					<g id="&lt;Group&gt;">
						<path id="&lt;Path&gt;" class="s4" d="m215.5 1370c27.6 0 50 22.4 50 50 0 27.6-22.4 50-50 50-27.6 0-50-22.4-50-50 0-27.6 22.4-50 50-50z"/>
					</g>
					<g id="&lt;Group&gt;">
						<path id="&lt;Path&gt;" class="s4" d="m303 1120c27.6 0 50 22.4 50 50 0 27.6-22.4 50-50 50-27.6 0-50-22.4-50-50 0-27.6 22.4-50 50-50z"/>
					</g>
					<g id="&lt;Group&gt;">
						<path id="&lt;Path&gt;" class="s4" d="m190.5 1265c27.6 0 50 22.4 50 50 0 27.6-22.4 50-50 50-27.6 0-50-22.4-50-50 0-27.6 22.4-50 50-50z"/>
					</g>
				</g>
				<path id="Glare" class="s6" d="m173.7 350h113.2l26.8 1222c-33.9-2.4-62.6-6.3-86.7-10.8z"/>
				<g id="&lt;Group&gt;">
					<g id="&lt;Group&gt;">
						<path id="&lt;Path&gt;" class="s7" d="m799.8 339.6l0.2 23-0.2 2c-7 33.5-183.3 60.4-399.8 60.4-216.5 0-393.1-26.9-399.8-60.5l-0.2-1.9 0.2-23.1-0.2-1.9c0-34.7 179.2-62.6 400-62.6 221 0 400 27.9 400 62.6z"/>
					</g>
				</g>
				<g id="Lid">
					<path id="&lt;Path&gt;" class="s8" d="m800 337.6l-0.2 2c-7 33.5-183.3 60.4-399.8 60.4-216.5 0-393.1-26.9-399.8-60.5l-0.2-1.9c0-34.7 179.2-62.6 400-62.6 221 0 400 27.9 400 62.6z"/>
				</g>
				<g id="Straw">
					<path id="&lt;Path&gt;" class="s9" d="m456.2 12.5v321.7c0 0-10.5 3.3-56.2 3.3-45.7 0-56.3-3.3-56.3-3.3v-321.7z"/>
					<path id="&lt;Path&gt;" class="s10" d="m400 12.5v325c-9.9 0-18.1-0.2-25-0.4v-324.6h3.9z"/>
					<path id="&lt;Path&gt;" class="s11" d="m362.5 12.5h6.3 18.7v324.9c-10.6-0.1-18.7-0.5-25-0.9z"/>
					<path id="&lt;Path&gt;" class="s8" d="m456.2 12.5c0 6.9-25.1 12.5-56.2 12.5-31.1 0-56.3-5.6-56.3-12.5 0-6.9 25.2-12.5 56.3-12.5 31.1 0 56.2 5.6 56.2 12.5z"/>
				</g>
			</g>
		</g>
	</g>
</svg>