<svg version="1.2" xmlns="http://www.w3.org/2000/svg" viewBox="0 0 462 741" width="462" height="741">
	<title>Layer 1</title>
	<defs>
		<clipPath clipPathUnits="userSpaceOnUse" id="cp1">
			<path d="m67.51 356.82l315.06-257.45q0.63-0.51 1.28-1c30.85 2.58 58.66 27.65 58.66 63.49v514.89c0 21.48-10 39.1-24.65 50.33-12.2-0.91-24.45-5.44-35.29-14.29l-315.06-257.45c-31.15-25.45-31.15-73.07 0-98.52z"/>
		</clipPath>
	</defs>
	<style>
		.s0 { fill: #5bb3cc } 
		.s1 { fill: #70bbcc } 
		.s2 { fill: #c8eeff } 
		.s3 { fill: #eafbff } 
		.s4 { fill: #98dcff } 
		.s5 { opacity: .6;fill: #78c3ff } 
		.s6 { fill: #f0fffe } 
		.s7 { fill: #ffffff } 
	</style>
	<g id="Layer 1">
		<g id="&lt;Group&gt;">
			<g id="&lt;Group&gt;">
				<g id="&lt;Group&gt;">
					<g id="Arrows">
						<g id="-e-">
							<path id="&lt;Path&gt;" class="s0" d="m23.6 370l315-257.4c41.6-34 103.9-4.4 103.9 49.3v514.8c0 53.7-62.3 83.3-103.9 49.3l-315-257.4c-31.2-25.5-31.2-73.1 0-98.6z"/>
							<path id="&lt;Path&gt;" class="s1" d="m56.2 358.7l315-257.4q2-1.7 4.1-3.1c34-1.8 67.2 24.5 67.2 63.7v514.8c0 22.8-11.2 41.2-27.3 52.3-15 1-30.5-3.4-44-14.3l-315-257.5c-31.2-25.4-31.2-73 0-98.5z"/>
							<path id="&lt;Path&gt;" class="s2" d="m67.5 356.8l315.1-257.4q0.6-0.5 1.2-1c30.9 2.6 58.7 27.6 58.7 63.5v514.8c0 21.5-10 39.2-24.6 50.4-12.2-0.9-24.5-5.5-35.3-14.3l-315.1-257.5c-31.1-25.4-31.1-73 0-98.5z"/>
							<path id="&lt;Path&gt;" class="s3" d="m67.5 356.8l315.1-257.4q0.6-0.5 1.2-1c22.9 1.9 44 16.1 53.5 37.9-68.4 28.7-222.9 99.4-288.1 177.7-29.1 35-65.9 57.6-102.8 75.2 3.4-12.2 10.4-23.6 21.1-32.4z"/>
							<path id="&lt;Path&gt;" class="s4" d="m417.9 727.1c-12.2-0.9-24.5-5.5-35.3-14.3l-315.1-257.5c-19.1-15.6-26.5-39.6-22.1-61.7 54.8 41.4 118.8 145.9 176.2 167.4 75.6 28.3 83.1 68 156.8 105.8 32.7 16.8 52.3-4 64.1-32.3v42.2c0 21.5-10 39.2-24.6 50.4z"/>
							<path id="&lt;Path&gt;" class="s5" d="m410.7 726.1c-9.8-1.9-19.4-6.2-28.1-13.3l-315.1-257.5c-31.1-25.4-31.1-73 0-98.5l82-67c48.9 196.3 180.6 354.2 261.2 436.3z"/>
							<g id="&lt;Clip Group&gt;" clip-path="url(#cp1)">
								<g id="&lt;Group&gt;" style="opacity: .5">
									<path id="&lt;Path&gt;" class="s6" d="m135.1 385c10.2-9.2 20.7-18.1 32.2-25.6 5.8-3.8 11.9-7.1 18.3-9.9 6.4-2.7 13.2-4.7 20.2-5.8 6.9-1.1 14-1.1 20.9-0.6 7 0.5 13.8 1.4 20.5 2 3.4 0.4 6.8 0.5 10.1 0.8l5.1 0.3c1.6 0.1 3.3 0 5 0h5.1l2.5 0.1c0.9 0 1.7-0.1 2.5-0.1l10.1-0.6c13.5-1 26.9-3 40.2-5.8 3.3-0.8 6.6-1.4 9.9-2.2l9.9-2.5c3.3-0.9 6.5-1.8 9.8-2.7 3.3-0.9 6.5-2 9.8-2.9 26-8 51.5-17.9 77.2-27.3-24.7 11.7-49.8 22.8-75.8 31.7-12.9 4.5-26.2 8.4-39.6 11.4-13.5 3-27.1 5.2-40.9 6.3-13.8 0.9-27.7 0.6-41.5-0.8-6.8-0.8-13.6-1.9-20.3-2.5q-5-0.4-10-0.5c-3.3 0-6.6 0.1-9.9 0.5-13.2 1.6-25.8 6.8-37.5 13.6-11.8 6.7-22.8 14.9-33.8 23.1z"/>
									<path id="&lt;Path&gt;" class="s6" d="m230.7 483.4c20.4-8.8 41.7-15.3 63.5-19.9q8.2-1.7 16.4-3.1c5.5-0.8 11.2-1.6 17-1.4 3 0 5.9 0.4 8.8 1.1 2.9 0.7 5.8 1.8 8.4 3.1 5.2 2.6 9.8 5.9 14.4 8.7 9.3 5.7 19.1 10.3 29.4 13.9 10.2 3.6 20.9 6.1 31.7 7.6 21.6 2.9 43.8 1.5 65.2-4.3-20.6 8.2-43.4 11.1-65.8 8.9-11.2-1-22.2-3.4-32.9-6.9-10.7-3.5-21-8.3-30.7-14.1-4.9-3-9.3-6.2-13.9-8.5-2.4-1.2-4.7-2.2-7.2-2.8-2.4-0.6-5-0.9-7.6-1.1-5.2-0.3-10.6 0.3-16 1q-8.2 1.1-16.3 2.5c-21.7 3.6-43.2 8.9-64.4 15.3z"/>
									<path id="&lt;Path&gt;" class="s6" d="m-21.2 449.1c22.5-9.4 46.1-16.5 70.2-21.2q9-1.7 18.2-3.1c6-0.8 12.2-1.5 18.5-1.7 6.2-0.3 12.6 0.2 18.8 1.4 6.2 1.2 12.1 2.9 18 4.5 2.9 0.8 5.8 1.5 8.7 2.2 2.9 0.6 5.9 1.1 8.8 1.7 2.9 0.4 5.9 0.7 8.9 1 3 0.1 5.9 0.3 8.9 0.4 12 0.3 24-1.1 35.9-3.2 23.8-4.4 46.9-12.3 70.2-19.8-11.2 4.9-22.5 9.6-34 13.8-11.5 4.2-23.2 7.9-35.3 10.5-12 2.8-24.4 4.3-36.8 4.4-1.6 0-3.1-0.1-4.7-0.1l-4.7-0.2c-3.1-0.4-6.2-0.6-9.3-1-3-0.6-6.1-1.1-9.2-1.7-3-0.7-6-1.4-9-2.2-5.9-1.7-11.7-3.4-17.5-4.5-5.8-1.2-11.7-1.6-17.6-1.6-6 0.1-12 0.6-18 1.3-6 0.8-12 1.6-18 2.5-24 3.8-47.7 9.5-71 16.6z"/>
									<path id="&lt;Path&gt;" class="s6" d="m321.9 217.7c18.1-8.5 37.6-13.6 57.4-16.4 9.9-1.5 19.8-2.3 29.8-2.9 10-0.4 19.9-0.5 29.9-0.4 19.9 0.2 39.7 1.6 59.5 2.8 19.7 1.3 39.5 2.5 59.3 3-19.7 2-39.7 2.1-59.5 1.7-19.9-0.4-39.7-1.2-59.4-1.5q-14.8-0.3-29.6 0.1c-9.8 0.2-19.7 0.9-29.5 1.8-19.5 2-39 5.7-57.9 11.8z"/>
									<path id="&lt;Path&gt;" class="s6" d="m161.6 626.6c4.4-2.8 8.8-5.9 13.5-8.3l3.5-2 1.7-0.9q0.9-0.5 1.8-0.9l7.2-3.4c1.2-0.6 2.5-1.1 3.7-1.6l3.7-1.5 3.7-1.5c1.3-0.4 2.5-0.8 3.8-1.3 2.5-0.8 5-1.7 7.6-2.5l7.7-2.1c2.6-0.7 5.2-1.2 7.8-1.8 2.6-0.5 5.2-1.2 7.9-1.5l7.9-1.2c2.7-0.3 5.3-0.6 8-0.8 1.3-0.2 2.7-0.3 4-0.4l4-0.1c2.7-0.1 5.4-0.3 8-0.3l8.1 0.1 2 0.1 2 0.1 4 0.3c5.3 0.3 10.6 1.2 15.9 1.9l7.9 1.4c1.4 0.3 2.7 0.5 4 0.8l3.9 1c10.4 2.5 20.5 6.3 30.3 10.1 4.9 1.8 9.8 3.5 14.8 4.8 5 1.3 10.1 2 15.2 2q3.8-0.1 7.7-0.8c2.5-0.4 5-1.2 7.4-2.1 2.3-1 4.7-2.2 6.7-3.8 2.1-1.5 4.1-3.3 5.7-5.4-2.8 4.5-6.9 8.3-11.8 10.7-4.8 2.5-10.1 3.8-15.5 4.3-5.5 0.5-11-0.1-16.3-1.1-5.3-1-10.4-2.6-15.5-4.2l-7.5-2.5c-2.5-0.8-5-1.7-7.5-2.4l-7.5-2.2c-0.6-0.2-1.2-0.4-1.8-0.5l-1.9-0.5-3.9-0.9-3.8-0.8c-1.2-0.4-2.5-0.5-3.8-0.8l-7.7-1.4c-5.1-0.5-10.3-1.4-15.5-1.6l-3.9-0.3-1.9-0.2h-2l-7.8-0.2c-2.6-0.1-5.2 0.1-7.8 0.1l-3.9 0.1-3.9 0.3c-10.4 0.5-20.7 2.3-30.9 4.3l-7.7 1.7c-2.5 0.6-5 1.4-7.5 2.1-1.3 0.3-2.5 0.6-3.8 1l-3.7 1.3c-2.5 0.8-5 1.6-7.5 2.5l-7.3 2.8q-0.9 0.4-1.8 0.7l-1.8 0.8-3.6 1.6-3.7 1.6c-1.2 0.5-2.3 1.2-3.5 1.8z"/>
								</g>
							</g>
							<path id="Snowflake copy 9" class="s7" aria-label="E"  d="m215.5 177.1q-3.4 0-1.7-2.7 0.7-1.3 2.3-2.6 1.7-1.4 3.4-2 1.7-0.7 2-1 0-0.4-1.3-0.4-3.4 0-2-1.3 0.3-0.7 2-1.4 1.6-0.6 3.3-0.6 2-0.4 3.7-0.7 1.7-0.7 2-1.3 1.3-2-3.4-3.7-2-0.7-4-0.7-2-0.3-2.6 0.7-2.1 1.7-4.1 5.3-1.6 4.1-1.6 0.4 0.3-1.7 0.6-3.7 0.4-2 1-3.7 0.4-1.7 1.7-2.7 1-1.3 2.4-1.3 1.3-0.3 4 0.3 2.3 0.7 5 1.7 2.3 1.3 5.3 1.3 3.1 0 5.1-0.6 4.3-2.4 0.3-3.4-2-0.3-5-2-3-2-4.7-4.7-2-2.6-3.4-6.3-1.3-4-1.3-7.4 0.3-3.3 2-5.7 1.7-2.3 3.7-2.6 2-0.4 2.7 0 0.6 0-1 0.6-1.7 0.7-2.4 2.7-1 2-1.3 4.7 0 2.7 1.3 6 1.4 3.4 3 5.7 2 2.7 6.4 4.3 4 1.4 7.7 0.7 4-0.7 9.7-2.3 5.3-2 9.4-4 3.6-2.4 8-5.1 4.3-3 6.7-4.6 5-4.4-2.4-3.4-3 0.3-6.3 2-3.7 1.7-5.4 4-1.6 2.4-5 4-3.3 1.7-6 1.7-2.7 0-4.7-1-2.3-1.3-3-3-0.7-1.7-0.3-2 0-0.7 0.6 0.3 1.7 2.4 6.1 2.4 2 0 4.6-1.4 2.7-1.6 4.7-4 1.7-2 2.4-4 0.3-2.3-1-3-1.4-1-4.4-1-3.3 0-6.7 0.7-3.3 0.6-7 3-4 2.3-6.4 5-2.3 2.7-2.3 2.3-0.3-0.3 1.7-3.7 1.6-3.3 6-6.3 4-3 7.7-4 3.7-1 8.3-0.7 4.4 0 7.1 1.3 2.7 1.4 7.7 2.1 5 0.6 10 0 5-0.7 9.4-1.7 4-1 5-2 2.7-2.7 0-5.4-1-1-5-2-4.4-1-9.4-1.7-5-0.6-10 0-5 0.7-7.7 2-2.7 1.4-7.1 1.7-4.3 0-8.3-1-3.7-1-7.7-4-4.4-3-6-6.4-2-3.3-1.7-3.6 0-0.4 2.3 2.3 2.4 2.7 6.4 5 3.7 2.4 7 3 3.4 0.7 6.7 0.7 3 0 4.4-1 1.3-0.7 1-2.7-0.7-2.3-2.4-4.3-2-2.4-4.7-3.7-2.6-1.7-4.6-1.7-4.4 0-6.1 2.4-1.6 2-0.3-1.7 0.7-1.7 3-2.7 2-1.3 4.7-1.3 2.7 0 6 1.6 3.4 1.7 5 4.1 1.7 2.3 5.4 4 3.7 1.7 6.7 2 3 0.7 3.7-0.3 0.6-1.1-1.7-3.1-2.4-1.6-6.7-4.3-4.4-3-8-5.4-4.1-2-9.4-3.6-5.7-2.1-9.7-2.7-3.7-0.7-7.7 1-4.4 1.3-6.4 4-1.6 2.3-3 5.7-1.3 3.3-1.3 6 0.3 2.7 1.3 4.7 0.7 2 2.4 2.7 1.6 0.6 1 1-0.7 0-2.7-0.4-2-0.3-3.7-2.6-1.7-2.4-2-5.7 0-3.4 1.3-7.1 1.4-4 3.4-6.6 1.7-2.7 4.7-4.4 3-2 5-2.3 4-1-0.3-3.4-2-0.7-5.1-0.7-3 0-5.3 1.4-2.7 1-5 1.7-2.7 0.6-4 0.3-1.4 0-2.4-1-1.3-1.3-1.7-3-0.6-1.7-1-3.7-0.3-2-0.6-3.7 0-3.7 1.6 0.4 2 3.6 4.1 5.3 0.6 1 3 1 2-0.3 3.6-1 4.7-1.7 3.4-3.7-0.3-0.6-2-1-1.7-0.6-3.7-1-1.7 0-3.3-0.6-1.7-0.7-2-1.4-1.4-1.3 2-1.3 1.3 0 1.3-0.4-0.3-0.3-2-1-1.7-0.6-3.4-2-1.6-1.3-2.3-2.6-1.7-2.7 1.7-2.7 3.3 0 6.7 2.3 3.3 2.7 1.6 0-1.6-2.3 0.4-2.3 2 0 4.3 3.7 1 1.6 2.4 3 1.3 1 2 1 2.3 0 1.6-5-0.3-2.1-1.3-3.7-1-1.7-2-2-1-0.7-3-0.7-2 0-4 0-3.4 0-0.7-1.3 1.7-0.7 3.7-1.4 1.7-0.7 3.3-1 3.4-1 5.7 1.7 0.7 1 1.4 3.7 0.6 2.3 1 5 0.3 2.7 1.6 5.3 1.4 2.7 3.4 4.1 1.7 1.3 2.7 1 0.6-0.7 0-2.4-0.7-2-0.4-5.3 0.4-3.7 1.4-6.7 1.3-3 4-6.1 2.7-3 5.7-4.6 3-1.7 6-1.4 2.7 0.4 4 2 1.7 1.7 1.7 2.4 0 0.3-1.4-0.7-1.3-1-3.6-0.7-2.4 0-4.4 1.4-2.3 1.3-4.7 4.3-2.3 2.7-3.3 5.4-1.4 3-0.4 7.3 0.7 4.1 3.1 7.4 2.3 3 7 7 4.3 3.7 8 6 3.7 2.7 8.4 5.1 4.7 2.3 7.3 3 2.7 1 3.4 0 0.3-1-1.4-3.7-2-2.7-5.3-4.4-3.4-2-6-2.6-3-0.7-6.1-2.4-3-2-4.3-4.3-1.3-2.7-1.3-5-0.4-2.4 0.6-3.7 1-1.4 1.7-1.4 0.7-0.3 0 0.7-1 2.7 1.3 6.7 0.7 1.7 3.4 3.3 2.7 1.4 5.3 2.1 6.7 1 7.4-2.7 0-1.7-1.3-4.4-1.7-2.6-4.1-5.3-2.3-2.7-6.3-4.7-4-2-7.4-2.7-7.7-1.7 0.7-1.7 3.7 0 8.4 2.1 4.6 2 7.7 5 2.6 3 4.6 7 2 4 2.4 6.7 0 2.7 2.3 7.7 2 4.7 4.7 8.3v0.4q3 4 6 7 3 3 4.7 3.4 1.7 0.6 2.7 1 1 0.3 1 0.3 0 0 0.3-1 0-1 0.4-2.7 0.6-1.7-0.7-5.7-1.3-4.3-3.4-8.7-2-4.7-5-8.7-3-4.3-5.3-6-2.7-1.7-5-5.3-2.4-3.7-3.4-7.4-1-3.7-0.3-8.7 0.3-5.4 2-8.4 4-6.3 2 0-1.3 3-1.3 7.7 0 4.7 1 7.7 0.6 3.4 2.3 6.4 1.7 2.7 3.3 3.3 3.4 1 5.7-5 0.7-2.7 0.7-5.7 0-3-1-4.7-2-3.7-5-4.3-1-0.4-0.7-0.7 0.3-0.3 2-0.7 1.7-0.3 3.7 1 2 1.4 3.7 4.1 1.3 2.6 1.7 6.3 0 3.4-1.1 6-1 2.7-0.6 6.7 0 3.7 1 6.7 1.3 2.7 2.7 2.7 1 0 1.6-2.7 0.4-2.7 0.7-7.7 0.3-5.3 0-10 0-4.4-1-10-1-5.7-2.7-9.4-1.7-3.7-5-6.4-3.3-2.6-6.4-3.3-3-0.7-6.3 0-3.7 0.7-6 2-2 1.3-3.4 3.3-1.7 2-1.3 3.7 0.3 1.7 0 1.4-0.7-0.7-1.4-2.7-1-2 0.4-4.7 1.3-2.7 4-4.4 2.7-1.6 7-2.6 4-1 7.4-0.4 3 0.7 6.3 2 3 1.4 4.4 3.1 1.3 1.6 2.3 1.3 0.7-0.7 0.4-3-0.4-2.4-2-4.7-1.7-2.7-3.7-4.4-5-3.3-6.4-6.6-1-3.1 1.4-5.4 1-1.3 2.6-2.7 1.7-1.3 3-2.3 1.4-1 1.7-0.7 0 0.3-1 2-1 1.7-1.7 3.7-1 1.7-1.3 2.7-0.3 1.3 1 3 1 1.7 2.7 3 1.7 1.3 3 1.7 1.3 0 1.7-0.7 0.6-0.7 0.3-2.3-0.7-2-1.3-3.7-0.7-1.7-1-3.4-0.7-1.6 0-2.3 0.3-0.7 1-0.3 0.6 0.3 1 1.3 1.6 2.7 1-1.3-0.4-1.7 0-3.7 0.3-2.4 1-3.4 0.6-1.3 1.6-1.3 1.1 0 1.7 1.3 2 2.7 1.4 7.1-0.4 1.6 0 2.3 0 0.3 0.6-1 0.7-1 1.4-1.3 0.6-0.4 1 0.3 0.6 0.7 0.3 2.3-0.7 1.7-1.3 3.4-2.4 4-1 6 0.3 0.7 1.6 0.7 1.4-0.4 3-1.7 4.1-2.7 3.4-6 0-1-0.7-2.7-1-2-2-3.7-1-1.7-0.7-2 0-0.3 1.4 0.7 1.3 1 3 2.3 1.3 1.4 2.7 2.7 2.3 2.3 1.3 5.4-0.7 1.3-2.3 3.3-2 1.7-4 3.3-2.1 1.7-3.7 4.4-1.7 2.3-2 4.7-0.4 2.3 0.6 3 0.7 0.3 2-1.3 1.4-1.7 4.7-3.1 3-1.3 6-2 3.1-0.6 7.4 0.4 4 1 6.7 2.6 2.7 1.7 4 4.4 1.4 2.7 0.7 4.7-2 4.3-1.7 1.3 0.3-1.7-1-3.7-1.3-2-3.3-3.3-2.4-1.3-6.1-2-3.6-0.7-6.3 0-3.4 0.7-6.4 3.3-3.3 2.7-5 6.4-1.7 3.7-2.7 9.4-1 5.6-1.3 10 0 4.7 0.3 10 0 5 0.7 7.7 0.7 2.7 2 2.7 1 0 2-2.7 1.4-3 1.7-6.7 0-4-1.4-6.7-0.6-2.6-0.3-6 0-3.7 1.4-6.3 1.3-2.7 3.6-4.1 2-1.3 3.7-1 1.7 0.4 2 0.7 0.4 0.3-0.7 0.7-3.3 0.6-5.3 4.3-1 1.7-1 4.7 0 3 1 5.7 2.3 6 5.7 5 1.3-0.6 3-3.3 1.7-3 2.7-6.4 1-3 1-7.7-0.4-4.7-1.4-7.7-1.3-3.3-0.6-3.3 0.6 0 2.3 3.3 2 3 2.7 8.4 0.3 5-0.7 8.7-1 3.7-3.3 7.4-2.7 3.6-4.7 5.3-2.7 1.7-5.7 6-3 4-5.4 8.7-1.6 4.4-3 8.7-1.3 4-0.6 5.7 0.6 3.7 4.3 2.4 1.7-0.4 4.7-3.4 3-3 5.7-7.4 3-3.6 5.3-8.3 2-5 2-7.7 0-2.7 2.4-6.7 2-4.4 4.7-7 2.7-3 7.3-5 4.7-2.1 8.4-2.1 8.4 0 1 1.7-3.3 0.7-7.4 2.7-4 2-6.3 4.7-2.4 2.7-4 5.3-1.7 2.7-1.4 4.4 0 1.7 2.4 2.7 2 0.6 4.7 0 6.7-1.7 9-5.7 2.3-3.7 1-6.4-0.7-2.3 2 0.3 2.3 3.4-0.7 9.1-1.6 2.3-4.6 4.3-3.1 1.7-5.7 2.4-2.7 0.6-6.1 2.6-3.3 1.7-5.3 4.4-2 2.7-1.4 3.7 0.7 1 3.4 0 2.7-1 7.4-3.4 4.6-2.3 8.3-4.7 3.7-2.3 8-6 4.4-4 7.1-7.3 2.3-3 3.3-7.1 0.7-4.3-0.6-7.3-1.1-2.7-3.4-5.4-2.3-3-4.7-4.3-2-1.4-4.3-1.4-2.7-0.3-3.7 0.7-2.7 2.3 0-1.7 1.3-1.6 4.3-2 3.1-0.3 5.7 1.4 3 1.6 6.1 4.6 2.6 3.1 3.6 6.1 1.4 3 1.7 6.7 0.3 3.3-0.3 5-0.7 2 0.3 2.7 0.7 0.3 2.3-1 1.7-1.4 3.4-4.1 1.3-3 1.7-5.6 0.3-2.4 1-4.7 0.6-2.7 1.3-4 0.7-1.1 2.4-1.4 1.6-0.7 3.3-0.3 1.7 0.6 3.7 1.3 1.7 0.7 3.3 1.4 1.7 0.6 1.4 1-0.7 0.3-2.4 0.3-4-0.7-7 0.7-1 0.3-1.7 2-1 1.6-1.3 3.7-0.7 2 0 3.6 0.7 1.4 1.3 1.4 1 0 2.4-1 1.3-1.4 2.3-3 2.3-3.7 4.4-3.7 2 0 0.3 2.3-0.7 1-0.3 1.4 0.3 0 1.6-1.4 3.7-2.3 7.1-2.3 2.6 0 1.6 2.7-0.6 1.3-2.3 2.6-1.7 1.4-3.4 2-1.6 0.7-2 1-0.3 0.4 1 0.4 3.7-0.7 2.4 1.3-1.4 2-5.7 2-1.7 0.4-3.4 1-1.6 0.4-2.3 1-0.7 0.7 0.7 2 1 1 3 1.7 4.3 1.7 6.7 0 0.6-0.7 2-2.3 1.3-1.7 2-3.4 1.7-3.3 1.7 0-0.4 1.7-0.7 3.7-0.3 2-1 3.7-0.7 3.3-4 4-1.7 0.3-4-0.3-2.7-0.7-5.1-1.7-2.3-1.4-5.3-1.4-3.4 0-5 0.7-4.7 2.4-0.4 3.4 2 0.3 5.1 2.3 2.6 1.7 4.6 4.4 2 2.6 3.4 6.6 1.3 3.7 1 7.1 0 3.3-1.7 5.7-1.7 2.3-3.7 2.6-5.3 0.7-1.6-0.6 1.3-0.7 2.3-2.7 1-2 1.3-4.7 0-2.7-1.3-6-1.3-3.4-3.3-5.7-2.1-2.7-6.1-4-4-1.7-8-1-3.7 0.6-9 2.7-5.7 1.6-9.7 3.6-4 2-8.4 5.1-4.3 3-6.7 4.6-5 4.4 2.4 3.4 3-0.3 6.6-2 3.4-2 5.1-4.4 2-2 5.3-3.7 3-1.6 5.7-1.6 2.7 0 5 1.3 2.4 1 3 2.7 1.4 3.7-0.6 1.7-0.7-1-2.4-1.7-1.7-0.7-3.7-0.7-1.6 0-4.3 1.7-2.7 1.3-4.7 3.3-2 2.4-2.3 4.7-0.7 2 0.6 2.7 1.7 1 4.7 1 3 0 6.7-0.7 3.4-0.6 7.4-3 3.7-2.3 6-5 2.3-2.7 2.7-2.3 0 0.3-2 3.6-1.7 3.4-5.7 6.4-4.4 3-8.1 4-4 1-8.3 1-4.4-0.3-7-1.7-2.7-1.3-7.7-2-5.4-0.6-10.1 0-5 0.7-9 1.7-4.4 1-5.7 2-1 1.4-1.7 2-1 0.7-1 0.7 0 0 1 0.7 0.7 0.6 1.7 2 1.3 1 5.7 2 4 1 9 1.7 4.7 0.6 10.1 0 5-0.7 7.7-2.1 2.6-1.3 7-1.3 4.3-0.3 8.3 0.7 3.7 1 8.1 4 4 3 5.7 6.3 2 3.4 2 3.7-0.4 0.4-2.7-2.3-2.3-2.7-6-5-4-2.4-7.4-3-3.7-0.7-6.7-0.7-3 0-4.3 1-1.7 0.7-1 3 0.3 2 2.3 4.4 2 2 4.7 3.6 2.7 1.4 4.3 1.4 4.7 0 6.4-2.4 0.7-0.6 1-0.3 0 0.3-0.7 2-0.6 1.7-3 3-2.3 1-5 1-2.7 0-5.7-1.7-3.3-1.6-5.3-3.6-1.7-2.4-5.1-4.1-3.3-2-6.6-2.3-6.7-1-2.4 3.4 2.4 1.6 6.7 4.6 4.4 3 8.4 5.1 4 2 9.7 4 5.3 1.6 9 2.3 4 0.7 8-0.7 4-1.6 6.1-4.3 2-2.3 3.3-5.7 1.3-3.3 1.3-6-0.3-2.7-1.3-4.7-1-2-2.3-2.7-3.7-1.3 1.6-0.6 2 0.3 3.7 2.6 1.7 2.4 1.7 5.7 0.3 3.4-1 7.4-1.4 3.7-3.4 6.3-2 2.7-4.6 4.7-3.1 1.7-5.1 2-4 1 0.4 3.4 2 0.6 5 0.6 3 0 5.3-1.3 2.4-1 5.1-1.7 2.3-0.6 4-0.3 3.3 0.7 4 4 0.7 1.7 1 3.7 0.3 2 0.7 3.7 0 3.3-1.7 0-0.7-1.7-2-3.4-1.4-1.6-2-2.3-2.4-1.7-6.7 0-2 0.7-3 2-1.4 1-0.7 1.7 0.7 0.6 2.3 1.3 1.7 0.3 3.4 0.7 4.3 0 5.7 2 1.3 2-2 1.3-1.7 0-1.4 0.4 0.4 0.3 2 1 1.7 0.6 3.4 2 1.7 1.3 2.3 2.6 1 2.7-1.6 2.7-3.7 0-6.7-2.3-1.7-1.4-2-1-0.4 0 0.3 1 1.7 2.3-0.3 2.3-2.1 0-4.4-3.7-1-1.6-2.3-2.6-1.4-1.4-2.4-1.4-0.6 0-1 1.7-0.7 1.3-0.3 3.3 0.3 2 1.3 3.7 0.7 1.7 2 2 1 0.7 3 1 2 0 3.7-0.3 2 0 2.4 0.3 0.3 0.4-1.4 1-1.6 0.7-3.3 1.4-2 0.6-3.7 1.3-1.7 0.3-3.3 0-1.7-0.7-2.4-1.7-0.7-1.3-1.3-3.6-0.7-2.7-1-5.1-0.4-2.6-1.7-5.3-1.7-3-3.4-4.4-1.6-1.3-2.3-0.6-1 0.3-0.3 2.3 0.6 1.7 0.3 5.4-0.3 3.3-1.7 6.3-1 3-3.6 6-3.1 3.1-6.1 4.7-2.6 1.7-5.7 1.4-3-0.4-4.3-2-2.7-4.1 0-1.7 1.3 1 3.7 1 2.3-0.3 4.3-1.7 2.4-1.3 4.7-4 2.3-3 3.4-5.7 1.3-3 0.6-7-1-4.4-3.3-7.4-2.7-3.3-7.1-7-4.3-4-8-6.4-3.7-2.3-8.3-4.6-4.7-2.4-7.4-3.4-2.7-1-3.4 0-0.6 1 1.4 3.7 2 2.7 5.3 4.7 3.4 1.7 6.1 2.3 2.6 0.7 5.7 2.7 3 1.7 4.6 4 3 5.7 0.7 9-3 3.1-1.7 0.4 0.4-1 0-2.7-0.3-2-1.3-3.7-2.3-4-9-5.7-2.7-0.6-4.7 0.4-2.4 0.6-2.4 2.3-0.3 1.7 1.4 4.4 1.6 2.6 4 5.3 2.3 2.7 6.3 4.7 4.1 2 7.4 2.7 7.4 1.6-1 1.6-3.7 0-8.4-2-4.6-2-7.3-5-2.7-2.7-4.7-6.7-2-4.3-2.4-7 0-2.7-2-7.4-2.3-5-5.3-8.7-2.7-4.3-5.7-7.3-3-3-4.7-3.4-1.7-0.6-2.7-0.6-1-0.4-1-0.4 0-0.3 0 0.7-0.3 1-0.6 2.7-0.7 1.7 0.6 6 1.4 4 3 8.4 2.4 4.7 5.4 9 3 4 5.7 5.7 2 1.7 4.7 5.3 2.3 3.7 3.3 7.4 1 3.7 0.7 9-0.7 5.1-2.7 8.1-1.7 3.3-2.3 3.3-0.7 0 0.6-3.3 1-3 1.4-7.7 0-4.7-1-7.7-1-3.4-2.7-6-1.7-3.1-3-3.7-3.4-1-5.7 5-1 2.7-1 5.7 0 3 1 4.7 2 3.6 5.3 4.3 1.1 0.3 0.7 0.7-0.3 0.3-2 0.7-1.7 0.3-3.7-1.1-2.3-1.3-3.6-4-1.4-2.6-1.4-6-0.3-3.7 0.3-6.3 1.4-2.7 1.4-6.4-0.3-4-1.7-7-1-2.7-2-2.7-1.3 0-2 2.7-0.7 2.6-0.7 8-0.3 5-0.3 9.7 0.3 4.4 1.3 10 1 5.7 2.7 9.4 1.7 3.7 5 6.4 3 2.6 6.4 3.3 2.7 0.7 6.3 0 3.7-0.7 6.1-2 2-1.3 3.3-3 1.3-2 1-3.7-0.3-3.3 1.7 1 0.7 2-0.7 4.7-1.3 2.7-4 4.3-2.7 1.7-6.7 2.7-4.3 1-7.4 0.4-3-0.7-6-2-3.3-1.4-4.7-3.1-1.3-1.6-2-1-1 0.4-0.6 2.7 0.3 2.4 2 5 1.6 2.4 3.7 4 2 1.7 4 3.7 1.6 1.7 2.3 3 1 3.1-1.3 5.4-1.4 1.3-2.7 2.7-1.7 1.3-3 2.3-1.4 1-1.4 0.7-0.3-0.4 0.7-2 1-1.7 2-3.4 0.7-1.6 0.7-3 0.7-3-3.4-6-1.6-1.3-3-1.3-1.3-0.4-1.6 0.3-1.4 2 1 6 0.6 1.7 1.3 3.4 0.3 1.6-0.3 2.3-0.4 0.7-1 0.3-0.7-0.3-1.4-1.3-0.6-1.3-0.6-0.7-0.4 0.4 0 2 0.3 1.7 0 4.1-0.7 2-1.4 3.3-1.3 2.7-3.3 0-0.7-1.3-1-3.3-0.4-2.4 0-4.1 0.6-4-1-1.3-0.4 1-1 1.3-0.7 0.4-1-0.3-0.7-0.7 0-2.3 0.3-1.7 1-3.4 0.6-1.7 1.3-3.3 0.3-2-0.3-2.7-0.4-0.7-1.7-0.3-1.3 0-3 1.3-1.7 1.3-2.7 3-1.3 1.7-1 3 0.7 2.7 3 6.4 1 1.6 1 2-0.3 0.3-1.7-0.7-1.3-1-3-2.3-1.6-1.4-2.6-2.7-2.4-2.3-1.4-5.4 1.4-3.3 6.4-6.7 2-1.6 3.7-4 1.6-2.6 2-5 0.3-2.3-0.4-2.7-1-0.6-2.3 1-1.4 1.7-4.4 3.1-3.3 1.3-6.3 2-3.4 0.6-7.4-0.4-4.3-1-7-2.7-2.7-1.6-4-4.3-1.4-2.7-0.4-4.7 0.7-2 1.4-2.3 0.3-0.4 0 1.3-0.4 1.7 1.3 3.7 1.4 1.7 3.4 3 2.3 1.3 6 2 3.3 0.7 6.3 0 3.1-0.7 6.4-3.3 3.3-2.7 5-6.4 1.7-3.7 2.7-9.4 1-5.6 1-10 0.3-4.7 0-9.7-0.3-5.4-0.7-8-0.6-2.7-1.6-2.7-1.4 0-2.7 2.7-1 3-1 7-0.4 3.7 0.6 6.4 1.1 2.6 1.1 6.3-0.4 3.4-1.7 6-1.7 2.7-3.7 4-2 1.4-3.7 1.1-1.7-0.4-2-0.7-0.3-0.4 0.7-0.7 3-0.7 5-4.3 1-1.7 1-4.7 0-3-0.7-5.7-2.3-6-5.7-5-1.6 0.6-3.3 3.7-1.7 2.6-2.3 6-1 3-1 7.7 0 4.7 1.3 7.7 2 6.7-2 0-1.7-3-2-8.1-0.7-5.3 0.3-9 1-3.7 3.4-7.4 2.3-3.6 5-5.3 2.3-1.7 5.3-5.7 3-4.3 5-9 2.1-4.4 3.4-8.4 1.3-4.3 0.7-6-0.4-1.7-0.4-2.7-0.3-1-0.3-1 0 0-1 0.3-1 0.4-2.7 1-1.7 0.4-4.7 3.4-3 3-6 7v0.3q-2.7 3.7-4.7 8.7-2.3 4.7-2.7 7.4 0 2.7-2 6.7-2 4-4.6 7-3.1 3-7.7 5-4.7 2-8.4 2-8.4 0-0.7-1.6 3.4-0.7 7.4-2.7 4-2 6.3-4.7 2.4-2.7 4.1-5.3 1.3-2.7 1.3-4.4-0.7-3.7-7.4-2.7-2.6 0.7-5.3 2.4-2.7 1.3-3.7 3-0.7 1.7-1 3.7-0.7 1.6 0 3 0.7 1 0 1-0.7-0.4-1.7-1.7-1-1.3-0.6-3.7 0-2.3 1.3-5 1.3-2.3 4.3-4 3.1-2 6.1-2.7 2.6-0.6 6-2.3 3.3-2 5.3-4.7 1.7-2.7 1.4-3.7-0.7-1-3.4 0-2.6 0.7-7.3 3-4.7 2.4-8.4 5-3.7 2.4-8 6.4-4.7 3.7-7 6.7-2.4 3.3-3.1 7.7-1 4 0.4 7 1 2.7 3.3 5.7 2.4 2.7 4.7 4 2 1.4 4.4 1.7 2.3 0 3.6-1 2-1.7-0.3 1.7-1.3 1.6-4 2-3 0.3-6-1.4-3-1.6-5.7-4.7-2.7-3-4-6-1-3-1.4-6.3-0.3-3.7 0.4-5.7 0.6-1.7 0-2-1-0.7-2.7 0.6-2 1.4-3.4 4.1-1.3 2.6-1.6 5.3-0.4 2.7-1 5.4-0.7 2.3-1.7 3.3-1.7 3-5.4 1.7-1.6-0.4-3.3-1-2-0.7-3.7-1.4-2.7-1.3 0.7-1.3 1.6 0 4 0 2 0 3-0.7 1-0.3 2-2 1-1.7 1.3-3.7 0.7-5-1.6-5-0.7 0-2 1.4-1.7 1-2.4 2.6-2.3 3.7-4.7 3.7-1.6 0 0-2.3 1.7-2.7-1.6 0-3.4 2.3-6.7 2.3z"/>
							<path id="Snowflake copy 10" class="s7" aria-label="E"  d="m127.4 284.1q-1.9 0-0.9-1.5 0.3-0.8 1.3-1.6 0.9-0.7 1.9-1.1 0.9-0.4 1.1-0.6 0-0.2-0.7-0.2-1.9 0-1.2-0.7 0.2-0.4 1.2-0.8 0.9-0.4 1.9-0.4 1.1-0.2 2.1-0.3 0.9-0.4 1.1-0.8 0.8-1.1-1.9-2.1-1.1-0.4-2.3-0.4-1.1-0.2-1.5 0.4-1.1 1-2.3 3-0.9 2.3-0.9 0.2 0.2-0.9 0.3-2.1 0.2-1.1 0.6-2 0.2-1 1-1.6 0.5-0.7 1.3-0.7 0.8-0.2 2.3 0.2 1.3 0.3 2.8 0.9 1.4 0.8 3.1 0.8 1.7 0 2.8-0.4 2.5-1.3 0.2-1.9-1.1-0.2-2.8-1.2-1.7-1.1-2.7-2.6-1.1-1.5-1.9-3.6-0.8-2.3-0.8-4.2 0.2-1.9 1.2-3.3 0.9-1.3 2.1-1.5 1.1-0.2 1.5 0 0.4 0-0.6 0.4-0.9 0.4-1.3 1.5-0.6 1.2-0.8 2.7 0 1.5 0.8 3.4 0.8 1.9 1.7 3.3 1.2 1.5 3.6 2.4 2.3 0.8 4.4 0.4 2.3-0.4 5.5-1.3 3.1-1.2 5.3-2.3 2.1-1.3 4.6-2.9 2.5-1.7 3.8-2.6 2.9-2.5-1.3-1.9-1.7 0.2-3.6 1.1-2.1 1-3.1 2.3-0.9 1.3-2.8 2.3-1.9 0.9-3.5 0.9-1.5 0-2.6-0.5-1.3-0.8-1.7-1.8-0.4-0.9-0.2-1.1 0-0.4 0.4 0.2 0.9 1.3 3.4 1.3 1.1 0 2.7-0.7 1.5-1 2.6-2.3 1-1.2 1.3-2.3 0.2-1.3-0.5-1.7-0.8-0.6-2.5-0.6-1.9 0-3.8 0.4-1.9 0.4-4 1.7-2.3 1.3-3.6 2.9-1.3 1.5-1.3 1.3-0.2-0.2 0.9-2.1 1-1.9 3.4-3.6 2.3-1.7 4.4-2.3 2.1-0.6 4.8-0.4 2.4 0 4 0.8 1.5 0.7 4.3 1.1 2.9 0.4 5.7 0 2.9-0.4 5.4-0.9 2.3-0.6 2.8-1.2 1.5-1.5 0-3-0.5-0.6-2.8-1.2-2.5-0.5-5.4-0.9-2.8-0.4-5.7 0-2.8 0.4-4.3 1.1-1.6 0.8-4 1-2.5 0-4.8-0.6-2.1-0.6-4.4-2.3-2.4-1.7-3.4-3.6-1.1-1.9-0.9-2.1 0-0.2 1.3 1.4 1.3 1.5 3.6 2.8 2.1 1.3 4 1.7 1.9 0.4 3.8 0.4 1.7 0 2.5-0.6 0.7-0.3 0.5-1.5-0.3-1.3-1.3-2.5-1.1-1.3-2.6-2.1-1.6-0.9-2.7-0.9-2.5 0-3.4 1.3-1 1.2-0.2-0.9 0.4-1 1.7-1.5 1.1-0.8 2.6-0.8 1.6 0 3.5 0.9 1.9 1 2.8 2.3 1 1.4 3.1 2.3 2.1 1 3.8 1.2 1.7 0.3 2.1-0.2 0.3-0.6-1-1.8-1.3-0.9-3.8-2.4-2.5-1.7-4.6-3.1-2.2-1.1-5.3-2.1-3.2-1.1-5.5-1.5-2.1-0.4-4.4 0.6-2.4 0.7-3.6 2.3-0.9 1.3-1.7 3.2-0.8 1.9-0.8 3.4 0.2 1.6 0.8 2.7 0.4 1.1 1.3 1.5 1 0.4 0.6 0.6-0.4 0-1.5-0.2-1.2-0.2-2.1-1.5-1-1.4-1.2-3.3 0-1.9 0.8-4 0.8-2.2 1.9-3.8 1-1.5 2.7-2.4 1.7-1.2 2.8-1.4 2.3-0.5-0.2-1.9-1.1-0.3-2.8-0.3-1.7 0-3.1 0.7-1.5 0.6-2.8 1-1.5 0.3-2.3 0.2-0.8 0-1.3-0.6-0.8-0.8-1-1.7-0.4-1-0.6-2.1-0.1-1.2-0.3-2.1 0-2.1 0.9 0.2 1.2 2.1 2.3 3 0.4 0.6 1.7 0.6 1.2-0.2 2.1-0.6 2.7-0.9 1.9-2.1-0.2-0.4-1.1-0.5-1-0.4-2.1-0.6-1 0-1.9-0.4-1-0.4-1.2-0.8-0.7-0.7 1.2-0.7 0.7 0 0.7-0.2-0.2-0.2-1.1-0.6-1-0.4-1.9-1.1-1-0.8-1.3-1.5-1-1.6 0.9-1.6 1.9 0 3.8 1.4 1.9 1.5 1 0-1-1.4 0.2-1.4 1.1 0 2.4 2.1 0.6 1 1.4 1.7 0.7 0.6 1.1 0.6 1.3 0 1-2.8-0.2-1.2-0.8-2.1-0.6-1-1.2-1.2-0.5-0.4-1.7-0.4-1.1 0-2.2 0-1.9 0-0.4-0.7 0.9-0.4 2.1-0.8 0.9-0.4 1.9-0.5 1.9-0.6 3.2 0.9 0.4 0.6 0.8 2.1 0.3 1.3 0.5 2.8 0.2 1.6 1 3.1 0.7 1.5 1.9 2.3 0.9 0.7 1.5 0.5 0.4-0.3 0-1.3-0.4-1.1-0.2-3 0.2-2.1 0.8-3.8 0.7-1.7 2.3-3.5 1.5-1.7 3.2-2.6 1.7-1 3.4-0.8 1.5 0.2 2.3 1.2 1 0.9 1 1.3 0 0.2-0.8-0.4-0.8-0.6-2.1-0.4-1.3 0-2.5 0.8-1.3 0.8-2.6 2.5-1.4 1.5-1.9 3-0.8 1.7-0.2 4.2 0.4 2.3 1.7 4.2 1.3 1.7 4 4 2.5 2.1 4.5 3.4 2.1 1.5 4.8 2.9 2.7 1.3 4.2 1.7 1.5 0.5 1.9 0 0.2-0.6-0.8-2.1-1.1-1.6-3-2.5-1.9-1.1-3.4-1.5-1.7-0.4-3.5-1.4-1.7-1.1-2.4-2.4-0.8-1.6-0.8-2.9-0.2-1.3 0.4-2.1 0.6-0.7 0.9-0.7 0.4-0.2 0 0.3-0.5 1.6 0.8 3.8 0.4 1 1.9 2 1.5 0.7 3 1.1 3.8 0.6 4.2-1.5 0-1-0.7-2.5-1-1.5-2.3-3-1.3-1.6-3.6-2.7-2.3-1.2-4.2-1.5-4.4-1 0.4-1 2.1 0 4.7 1.2 2.7 1.1 4.4 2.8 1.5 1.7 2.7 4 1.1 2.3 1.3 3.8 0 1.5 1.3 4.4 1.2 2.7 2.7 4.7v0.2q1.7 2.3 3.4 4 1.7 1.7 2.7 1.9 0.9 0.4 1.5 0.6 0.6 0.2 0.6 0.2 0 0 0.2-0.6 0-0.5 0.1-1.5 0.4-1-0.3-3.2-0.8-2.5-1.9-5-1.2-2.6-2.9-4.9-1.7-2.5-3-3.5-1.6-0.9-2.9-3-1.3-2.1-1.9-4.2-0.6-2.1-0.2-4.9 0.2-3.1 1.2-4.8 2.2-3.6 1.1 0-0.8 1.7-0.8 4.4 0 2.7 0.6 4.4 0.4 1.9 1.3 3.6 1 1.5 1.9 1.9 2 0.6 3.3-2.9 0.4-1.5 0.4-3.2 0-1.7-0.6-2.7-1.1-2.1-2.9-2.4-0.5-0.2-0.3-0.4 0.1-0.2 1.1-0.4 1-0.2 2.1 0.6 1.1 0.7 2.1 2.3 0.7 1.5 0.9 3.6 0 1.9-0.5 3.4-0.6 1.5-0.4 3.8 0 2.1 0.6 3.8 0.7 1.5 1.5 1.5 0.5 0 0.9-1.5 0.2-1.5 0.4-4.4 0.2-3 0-5.7 0-2.5-0.6-5.7-0.5-3.2-1.5-5.3-0.9-2.1-2.8-3.6-1.9-1.6-3.7-1.9-1.7-0.4-3.6 0-2.1 0.3-3.4 1.1-1.1 0.8-1.9 1.9-0.9 1.2-0.8 2.1 0.2 1 0 0.8-0.3-0.4-0.7-1.6-0.6-1.1 0.2-2.6 0.7-1.5 2.3-2.5 1.5-0.9 4-1.5 2.2-0.6 4.1-0.2 1.8 0.4 3.7 1.1 1.7 0.8 2.4 1.7 0.8 1 1.4 0.8 0.3-0.4 0.1-1.7-0.1-1.3-1.1-2.7-0.9-1.5-2.1-2.4-2.8-1.9-3.6-3.8-0.6-1.8 0.8-3.1 0.5-0.8 1.5-1.5 0.9-0.8 1.7-1.3 0.8-0.6 0.9-0.4 0 0.2-0.5 1.1-0.6 1-1 2.1-0.5 1-0.7 1.5-0.2 0.8 0.5 1.7 0.6 1 1.6 1.8 0.9 0.7 1.7 0.9 0.7 0 0.9-0.4 0.4-0.4 0.2-1.3-0.4-1.1-0.8-2.1-0.3-0.9-0.5-1.9-0.4-1 0-1.3 0.2-0.4 0.5-0.2 0.4 0.2 0.6 0.7 1 1.6 0.6-0.7-0.2-1 0-2.1 0.2-1.3 0.6-1.9 0.3-0.8 0.9-0.8 0.6 0 1 0.8 1.1 1.5 0.7 4-0.2 0.9 0 1.3 0 0.2 0.4-0.6 0.4-0.5 0.8-0.7 0.3-0.2 0.5 0.2 0.4 0.3 0.2 1.3-0.4 1-0.7 1.9-1.4 2.3-0.6 3.4 0.2 0.4 0.9 0.4 0.8-0.2 1.8-0.9 2.2-1.6 1.9-3.5 0-0.5-0.4-1.5-0.6-1.1-1.2-2.1-0.5-0.9-0.3-1.1 0-0.2 0.7 0.4 0.8 0.5 1.7 1.3 0.8 0.7 1.6 1.5 1.3 1.3 0.7 3.1-0.4 0.7-1.3 1.9-1.2 0.9-2.3 1.9-1.1 0.9-2.1 2.4-0.9 1.4-1.1 2.7-0.2 1.3 0.3 1.7 0.4 0.2 1.2-0.8 0.7-0.9 2.7-1.7 1.7-0.7 3.4-1.1 1.7-0.4 4.2 0.2 2.2 0.6 3.8 1.5 1.5 1 2.3 2.5 0.7 1.5 0.3 2.6-1.1 2.5-0.9 0.8 0.2-0.9-0.6-2.1-0.8-1.1-1.9-1.9-1.3-0.8-3.4-1.1-2.1-0.4-3.6 0-1.9 0.3-3.6 1.9-2 1.5-2.9 3.6-1 2.1-1.5 5.3-0.6 3.2-0.8 5.7 0 2.7 0.2 5.7 0 2.9 0.4 4.4 0.4 1.5 1.1 1.5 0.6 0 1.2-1.5 0.7-1.7 0.9-3.8 0-2.3-0.7-3.8-0.4-1.5-0.2-3.4 0-2.1 0.7-3.6 0.8-1.6 2.1-2.3 1.2-0.8 2.1-0.6 1 0.2 1.2 0.4 0.1 0.2-0.4 0.4-1.9 0.3-3.1 2.4-0.5 1-0.5 2.7 0 1.7 0.5 3.2 1.4 3.5 3.3 2.9 0.7-0.4 1.7-1.9 0.9-1.7 1.5-3.6 0.6-1.7 0.6-4.4-0.2-2.7-0.8-4.4-0.7-1.9-0.4-1.9 0.4 0 1.4 1.9 1.1 1.7 1.5 4.8 0.2 2.8-0.4 4.9-0.6 2.1-1.9 4.2-1.5 2.1-2.7 3-1.5 1-3.2 3.5-1.7 2.3-3 4.9-1 2.5-1.8 5-0.7 2.2-0.3 3.2 0.3 2.1 2.4 1.3 1-0.2 2.7-1.9 1.7-1.7 3.2-4.2 1.8-2 3.1-4.7 1.1-2.9 1.1-4.4 0-1.5 1.4-3.8 1.1-2.5 2.6-4 1.5-1.7 4.2-2.8 2.7-1.2 4.8-1.2 4.7 0 0.5 1-1.9 0.3-4.2 1.5-2.2 1.1-3.6 2.7-1.3 1.5-2.3 3-0.9 1.5-0.7 2.5 0 0.9 1.3 1.5 1.2 0.4 2.7 0 3.8-1 5.1-3.2 1.4-2.1 0.6-3.7-0.4-1.3 1.1 0.2 1.4 1.9-0.3 5.2-1 1.3-2.7 2.4-1.7 1-3.2 1.4-1.6 0.4-3.5 1.5-1.9 0.9-3 2.5-1.2 1.5-0.8 2.1 0.4 0.5 1.9 0 1.5-0.6 4.2-1.9 2.7-1.4 4.8-2.7 2.1-1.3 4.5-3.4 2.5-2.3 4-4.2 1.4-1.7 1.9-4 0.4-2.5-0.3-4.2-0.6-1.5-2-3-1.3-1.7-2.6-2.5-1.2-0.8-2.5-0.8-1.5-0.2-2.1 0.4-1.5 1.3 0-0.9 0.8-1 2.5-1.2 1.7-0.2 3.2 0.8 1.7 0.9 3.5 2.6 1.5 1.8 2 3.5 0.8 1.7 1 3.8 0.2 1.9-0.2 2.8-0.4 1.2 0.2 1.5 0.4 0.2 1.3-0.5 1-0.8 1.9-2.3 0.8-1.7 1-3.2 0.2-1.4 0.6-2.7 0.3-1.5 0.7-2.3 0.4-0.6 1.3-0.7 1-0.4 1.9-0.2 1 0.3 2.1 0.7 1 0.4 1.9 0.8 1 0.4 0.8 0.6-0.4 0.1-1.3 0.1-2.3-0.3-4 0.4-0.6 0.2-1 1.2-0.5 0.9-0.7 2.1-0.4 1.1 0 2.1 0.3 0.7 0.7 0.7 0.6 0 1.4-0.6 0.7-0.7 1.3-1.7 1.3-2.1 2.5-2.1 1.1 0 0.2 1.4-0.4 0.5-0.2 0.7 0.2 0 0.9-0.7 2.1-1.4 4-1.4 1.5 0 1 1.6-0.4 0.7-1.4 1.5-0.9 0.7-1.9 1.1-0.9 0.4-1.1 0.6-0.2 0.2 0.6 0.2 2-0.4 1.3 0.7-0.8 1.2-3.2 1.2-1 0.2-2 0.6-0.9 0.1-1.3 0.5-0.4 0.4 0.4 1.2 0.6 0.5 1.7 0.9 2.5 1 3.8 0 0.4-0.4 1.2-1.3 0.7-1 1.1-1.9 1-1.9 1 0-0.2 0.9-0.4 2.1-0.2 1.1-0.6 2.1-0.4 1.9-2.3 2.3-0.9 0.1-2.3-0.2-1.5-0.4-2.8-1-1.4-0.7-3.1-0.7-1.9 0-2.8 0.3-2.7 1.4-0.2 1.9 1.1 0.2 2.8 1.4 1.6 0.9 2.7 2.4 1.1 1.6 1.9 3.8 0.8 2.1 0.6 4 0 1.9-1 3.3-0.9 1.3-2.1 1.5-3 0.4-0.9-0.4 0.7-0.4 1.3-1.5 0.6-1.1 0.8-2.7 0-1.5-0.8-3.4-0.7-1.9-1.9-3.2-1.1-1.6-3.4-2.3-2.3-1-4.6-0.6-2.1 0.4-5.1 1.5-3.2 1-5.5 2.1-2.3 1.2-4.8 2.9-2.5 1.7-3.8 2.6-2.8 2.5 1.3 2 1.8-0.2 3.8-1.2 1.9-1.1 2.9-2.5 1.1-1.1 3-2.1 1.8-0.9 3.3-0.9 1.5 0 2.8 0.8 1.4 0.5 1.7 1.5 0.8 2.1-0.3 0.9-0.4-0.5-1.4-0.9-0.9-0.4-2.1-0.4-0.9 0-2.4 0.9-1.6 0.8-2.7 1.9-1.1 1.4-1.3 2.7-0.4 1.2 0.4 1.5 0.9 0.6 2.6 0.6 1.7 0 3.8-0.4 1.9-0.4 4.2-1.7 2.1-1.3 3.4-2.8 1.4-1.6 1.6-1.4 0 0.2-1.2 2.1-0.9 1.9-3.2 3.6-2.5 1.7-4.6 2.3-2.3 0.6-4.7 0.6-2.5-0.2-4-1-1.6-0.7-4.4-1.1-3.1-0.4-5.7 0-2.9 0.4-5.2 0.9-2.4 0.6-3.2 1.2-0.6 0.8-0.9 1.1-0.6 0.4-0.6 0.4 0 0 0.6 0.4 0.3 0.4 0.9 1.1 0.8 0.6 3.2 1.2 2.3 0.5 5.2 0.9 2.6 0.4 5.7 0 2.8-0.4 4.4-1.1 1.5-0.8 4-0.8 2.4-0.2 4.7 0.4 2.1 0.6 4.6 2.3 2.3 1.7 3.2 3.6 1.2 1.9 1.2 2.1-0.2 0.2-1.6-1.3-1.3-1.6-3.4-2.9-2.3-1.3-4.2-1.7-2.1-0.4-3.8-0.4-1.7 0-2.5 0.6-0.9 0.4-0.5 1.7 0.2 1.1 1.3 2.5 1.1 1.1 2.7 2.1 1.5 0.7 2.4 0.7 2.7 0 3.7-1.3 0.3-0.4 0.5-0.2 0 0.2-0.4 1.1-0.3 1-1.7 1.8-1.3 0.5-2.8 0.5-1.5 0-3.3-0.9-1.9-1-3-2.1-1-1.3-2.9-2.3-1.9-1.1-3.8-1.3-3.8-0.6-1.3 1.9 1.3 0.9 3.8 2.6 2.5 1.7 4.8 2.9 2.3 1.1 5.5 2.3 3 0.9 5.1 1.3 2.3 0.4 4.6-0.4 2.3-0.9 3.4-2.4 1.2-1.4 1.9-3.3 0.8-1.9 0.8-3.4-0.2-1.5-0.8-2.7-0.6-1.1-1.3-1.5-2.1-0.8 0.9-0.4 1.2 0.2 2.1 1.5 1 1.4 1 3.3 0.2 1.9-0.6 4.2-0.8 2.1-1.9 3.6-1.1 1.5-2.7 2.6-1.7 1-2.8 1.2-2.3 0.6 0.2 1.9 1.1 0.4 2.8 0.4 1.7 0 3.1-0.8 1.3-0.6 2.8-0.9 1.4-0.4 2.3-0.2 1.9 0.3 2.3 2.3 0.4 0.9 0.6 2 0.2 1.2 0.4 2.1 0 1.9-1 0-0.4-0.9-1.1-1.9-0.8-0.9-1.2-1.3-1.3-0.9-3.8 0-1.1 0.4-1.7 1.1-0.8 0.6-0.4 1 0.4 0.4 1.3 0.8 1 0.1 2 0.3 2.4 0 3.2 1.2 0.7 1.1-1.2 0.7-0.9 0-0.7 0.2 0.2 0.2 1.1 0.6 1 0.4 1.9 1.1 1 0.8 1.4 1.6 0.5 1.5-1 1.5-2.1 0-3.8-1.3-0.9-0.8-1.1-0.6-0.2 0 0.2 0.6 0.9 1.3-0.2 1.3-1.2 0-2.5-2.1-0.6-1-1.3-1.5-0.8-0.8-1.4-0.8-0.4 0-0.5 1-0.4 0.7-0.2 1.9 0.2 1.1 0.7 2.1 0.4 0.9 1.2 1.1 0.5 0.4 1.7 0.6 1.1 0 2.1-0.2 1.1 0 1.3 0.2 0.2 0.2-0.8 0.5-0.9 0.4-1.9 0.8-1.1 0.4-2.1 0.8-0.9 0.2-1.9 0-0.9-0.4-1.3-1-0.4-0.8-0.7-2.1-0.4-1.5-0.6-2.8-0.2-1.6-1-3.1-0.9-1.7-1.9-2.5-0.9-0.7-1.3-0.3-0.6 0.2-0.2 1.3 0.4 0.9 0.2 3-0.2 1.9-1 3.7-0.5 1.7-2 3.4-1.8 1.7-3.5 2.6-1.5 1-3.2 0.8-1.7-0.2-2.5-1.1-1.5-2.3 0-1 0.8 0.6 2.1 0.6 1.3-0.2 2.5-1 1.3-0.7 2.6-2.3 1.4-1.7 2-3.2 0.7-1.7 0.3-4-0.5-2.5-1.9-4.2-1.5-1.9-4-4-2.4-2.2-4.5-3.6-2.1-1.3-4.8-2.6-2.7-1.4-4.2-1.9-1.5-0.6-1.9 0-0.4 0.5 0.8 2.1 1.1 1.5 3 2.6 1.9 1 3.5 1.3 1.5 0.4 3.2 1.6 1.7 0.9 2.7 2.3 1.7 3.2 0.3 5.1-1.7 1.7-0.9 0.2 0.2-0.6 0-1.5-0.2-1.2-0.8-2.1-1.3-2.3-5.1-3.3-1.5-0.4-2.7 0.2-1.3 0.4-1.3 1.4-0.2 0.9 0.7 2.4 1 1.5 2.3 3.1 1.4 1.5 3.6 2.6 2.3 1.2 4.2 1.6 4.2 0.9-0.5 0.9-2.1 0-4.8-1.1-2.7-1.2-4.2-2.9-1.5-1.5-2.6-3.8-1.2-2.5-1.4-4 0-1.5-1.1-4.2-1.3-2.8-3.1-4.9-1.5-2.5-3.2-4.2-1.7-1.7-2.7-1.9-0.9-0.4-1.5-0.4-0.6-0.2-0.6-0.2 0-0.2 0 0.4-0.1 0.6-0.3 1.5-0.4 1 0.3 3.4 0.8 2.3 1.8 4.8 1.3 2.7 3 5.1 1.7 2.3 3.2 3.3 1.2 0.9 2.7 3 1.3 2.1 1.9 4.2 0.6 2.1 0.4 5.1-0.4 2.9-1.5 4.6-1 1.9-1.4 1.9-0.3 0 0.4-1.9 0.6-1.7 0.8-4.4 0-2.6-0.6-4.3-0.6-1.9-1.5-3.5-1-1.7-1.7-2.1-1.9-0.5-3.3 2.9-0.5 1.5-0.5 3.2 0 1.7 0.5 2.7 1.2 2.1 3.1 2.5 0.5 0.2 0.4 0.3-0.2 0.2-1.2 0.4-0.9 0.2-2.1-0.5-1.3-0.8-2.1-2.3-0.7-1.6-0.7-3.5-0.2-2 0.2-3.6 0.7-1.5 0.7-3.6-0.2-2.3-0.9-4-0.6-1.5-1.2-1.5-0.7 0-1.1 1.5-0.4 1.5-0.4 4.6-0.2 2.8-0.2 5.5 0.2 2.5 0.8 5.7 0.5 3.2 1.5 5.3 0.9 2.1 2.9 3.7 1.7 1.5 3.6 1.9 1.5 0.3 3.6 0 2.1-0.4 3.4-1.2 1.1-0.7 1.9-1.7 0.8-1.1 0.6-2.1-0.2-1.9 0.9 0.6 0.4 1.1-0.3 2.6-0.8 1.6-2.3 2.5-1.6 1-3.8 1.5-2.5 0.6-4.2 0.2-1.7-0.4-3.4-1.1-2-0.8-2.7-1.7-0.8-1-1.2-0.6-0.5 0.2-0.3 1.5 0.2 1.4 1.1 2.9 1 1.3 2.1 2.3 1.1 0.9 2.3 2.1 0.9 0.9 1.3 1.7 0.6 1.7-0.7 3-0.8 0.8-1.6 1.5-0.9 0.8-1.7 1.4-0.7 0.5-0.7 0.3-0.2-0.1 0.3-1.1 0.6-0.9 1.2-1.9 0.4-0.9 0.4-1.7 0.3-1.7-1.9-3.4-1-0.8-1.8-0.8-0.7-0.2-0.9 0.2-0.8 1.1 0.6 3.4 0.3 1 0.7 1.9 0.2 1-0.2 1.4-0.2 0.3-0.5 0.1-0.4-0.1-0.8-0.7-0.4-0.8-0.4-0.4-0.2 0.2 0 1.1 0.2 1 0 2.3-0.4 1.2-0.7 1.9-0.8 1.6-1.9 0-0.4-0.7-0.6-1.9-0.2-1.3 0-2.3 0.4-2.2-0.6-0.7-0.2 0.6-0.6 0.7-0.3 0.2-0.5-0.1-0.4-0.4 0-1.4 0.2-0.9 0.5-1.9 0.4-0.9 0.8-1.9 0.2-1.1-0.2-1.5-0.2-0.4-0.9-0.2-0.8 0-1.7 0.8-1 0.7-1.6 1.7-0.7 0.9-0.5 1.7 0.3 1.5 1.7 3.6 0.5 1 0.5 1.1-0.1 0.2-0.9-0.3-0.8-0.6-1.7-1.4-1-0.7-1.5-1.5-1.4-1.3-0.8-3 0.8-1.9 3.6-3.8 1.2-1 2.1-2.3 1-1.5 1.1-2.9 0.2-1.3-0.1-1.5-0.6-0.4-1.4 0.6-0.7 0.9-2.4 1.7-1.9 0.7-3.7 1.1-1.9 0.4-4.1-0.2-2.5-0.5-4-1.5-1.6-0.9-2.3-2.5-0.8-1.5-0.2-2.6 0.4-1.2 0.7-1.4 0.2-0.1 0 0.8-0.1 1 0.8 2.1 0.8 1 1.9 1.7 1.3 0.8 3.4 1.2 1.9 0.3 3.6 0 1.8-0.4 3.7-1.9 1.9-1.6 2.8-3.7 1-2.1 1.5-5.3 0.6-3.2 0.6-5.7 0.2-2.7 0-5.5-0.2-3.1-0.4-4.6-0.4-1.5-0.9-1.5-0.8 0-1.5 1.5-0.6 1.7-0.6 4-0.2 2.1 0.4 3.6 0.5 1.6 0.5 3.6-0.2 1.9-0.9 3.5-1 1.5-2.1 2.3-1.1 0.7-2.1 0.5-1-0.2-1.1-0.4-0.2-0.1 0.3-0.3 1.8-0.4 2.9-2.5 0.6-1 0.6-2.7 0-1.7-0.4-3.2-1.3-3.4-3.3-2.9-0.9 0.4-1.9 2.1-0.9 1.6-1.3 3.5-0.6 1.7-0.6 4.3 0 2.7 0.8 4.4 1.1 3.8-1.1 0-1-1.7-1.2-4.6-0.4-3 0.2-5.1 0.6-2.1 1.9-4.2 1.3-2.1 2.9-3 1.3-1 3-3.3 1.7-2.4 2.9-5.1 1.1-2.5 1.9-4.8 0.7-2.4 0.3-3.4-0.1-0.9-0.1-1.5-0.2-0.6-0.2-0.6 0 0-0.6 0.2-0.6 0.2-1.5 0.6-1 0.2-2.7 1.9-1.7 1.7-3.4 4v0.2q-1.5 2.1-2.7 4.9-1.3 2.7-1.5 4.2 0 1.5-1.1 3.8-1.2 2.3-2.7 4-1.7 1.7-4.4 2.9-2.6 1.1-4.7 1.1-4.8 0-0.4-0.9 1.9-0.4 4.2-1.6 2.3-1.1 3.6-2.6 1.3-1.6 2.3-3.1 0.7-1.5 0.7-2.4-0.4-2.1-4.2-1.6-1.5 0.4-3 1.4-1.5 0.7-2.1 1.7-0.4 0.9-0.6 2.1-0.3 0.9 0 1.7 0.4 0.5 0 0.5-0.3-0.1-0.9-0.9-0.6-0.8-0.4-2.1 0-1.3 0.8-2.8 0.7-1.4 2.4-2.3 1.8-1.2 3.5-1.6 1.5-0.3 3.4-1.3 1.9-1.1 3-2.6 1-1.6 0.8-2.1-0.4-0.6-1.9 0-1.5 0.3-4.2 1.7-2.7 1.3-4.8 2.8-2 1.4-4.5 3.6-2.7 2.1-4 3.8-1.3 1.9-1.7 4.4-0.6 2.3 0.2 4 0.5 1.5 1.9 3.2 1.3 1.6 2.6 2.3 1.2 0.8 2.5 1 1.3 0 2.1-0.6 1.1-0.9-0.2 1-0.8 0.9-2.3 1.1-1.7 0.2-3.4-0.8-1.7-0.9-3.2-2.6-1.6-1.7-2.3-3.4-0.6-1.8-0.8-3.7-0.2-2.1 0.2-3.2 0.4-0.9 0-1.1-0.6-0.4-1.5 0.3-1.2 0.8-1.9 2.3-0.8 1.6-1 3.1-0.2 1.5-0.5 3-0.4 1.3-1 1.9-0.9 1.7-3 1-1-0.2-1.9-0.6-1.2-0.4-2.1-0.8-1.5-0.7 0.4-0.7 0.9 0 2.2 0 1.2 0 1.7-0.4 0.6-0.2 1.2-1.1 0.6-1 0.8-2.1 0.3-2.9-1-2.9-0.4 0-1.1 0.8-1 0.5-1.4 1.5-1.3 2.1-2.6 2.1-1 0 0-1.3 0.9-1.6-1 0-1.9 1.3-3.8 1.3z"/>
							<path id="Snowflake copy 11" class="s7" aria-label="E"  d="m387.9 266.7q-1.2 0-0.6-1 0.2-0.5 0.9-0.9 0.6-0.5 1.2-0.8 0.6-0.2 0.7-0.4 0-0.1-0.5-0.1-1.2 0-0.7-0.5 0.1-0.2 0.7-0.5 0.6-0.2 1.3-0.2 0.7-0.1 1.3-0.3 0.6-0.2 0.8-0.4 0.4-0.8-1.3-1.4-0.7-0.2-1.5-0.2-0.7-0.2-0.9 0.2-0.8 0.6-1.5 2-0.6 1.4-0.6 0.1 0.1-0.6 0.2-1.4 0.1-0.7 0.4-1.3 0.1-0.6 0.6-1 0.4-0.5 0.9-0.5 0.5-0.1 1.4 0.1 0.9 0.3 1.9 0.6 0.8 0.5 2 0.5 1.1 0 1.8-0.2 1.6-0.9 0.1-1.2-0.7-0.2-1.8-0.8-1.1-0.7-1.7-1.7-0.8-1-1.3-2.3-0.5-1.5-0.5-2.7 0.2-1.3 0.8-2.1 0.6-0.9 1.3-1 0.8-0.1 1 0 0.3 0-0.4 0.2-0.6 0.3-0.8 1-0.4 0.8-0.5 1.7 0 1 0.5 2.3 0.5 1.2 1.1 2 0.7 1 2.3 1.6 1.5 0.5 2.9 0.3 1.4-0.3 3.5-0.9 2-0.7 3.5-1.5 1.3-0.8 2.9-1.8 1.6-1.1 2.5-1.7 1.8-1.6-0.9-1.2-1.1 0.1-2.3 0.7-1.4 0.6-2 1.5-0.6 0.8-1.8 1.4-1.3 0.7-2.3 0.7-0.9 0-1.7-0.4-0.8-0.5-1.1-1.1-0.2-0.6-0.1-0.8 0-0.2 0.2 0.2 0.7 0.8 2.3 0.8 0.7 0 1.7-0.5 1-0.6 1.7-1.4 0.6-0.8 0.9-1.5 0.1-0.9-0.4-1.1-0.5-0.4-1.6-0.4-1.2 0-2.5 0.3-1.2 0.2-2.5 1.1-1.5 0.8-2.4 1.8-0.8 1-0.8 0.9-0.2-0.2 0.6-1.4 0.6-1.2 2.2-2.3 1.5-1.1 2.8-1.5 1.4-0.4 3.1-0.2 1.6 0 2.6 0.4 1 0.5 2.8 0.8 1.8 0.2 3.7 0 1.8-0.3 3.4-0.6 1.5-0.4 1.9-0.8 1-1 0-1.9-0.4-0.4-1.9-0.8-1.6-0.3-3.4-0.6-1.9-0.2-3.7 0-1.8 0.3-2.8 0.7-1 0.5-2.6 0.7-1.6 0-3.1-0.4-1.3-0.4-2.8-1.5-1.6-1.1-2.2-2.3-0.8-1.2-0.6-1.4 0-0.1 0.8 0.9 0.9 1 2.4 1.8 1.3 0.9 2.5 1.1 1.3 0.3 2.5 0.3 1.1 0 1.6-0.4 0.5-0.2 0.4-1-0.3-0.8-0.9-1.6-0.7-0.8-1.7-1.3-1-0.6-1.7-0.6-1.6 0-2.3 0.8-0.6 0.8-0.1-0.6 0.3-0.6 1.1-1 0.8-0.5 1.7-0.5 1 0 2.3 0.7 1.2 0.6 1.8 1.4 0.6 0.9 2 1.5 1.3 0.6 2.4 0.7 1.1 0.3 1.4-0.1 0.2-0.4-0.6-1.1-0.9-0.6-2.5-1.6-1.6-1.1-2.9-2-1.5-0.7-3.5-1.3-2.1-0.7-3.5-1-1.4-0.2-2.9 0.4-1.6 0.5-2.3 1.5-0.6 0.8-1.1 2-0.5 1.3-0.5 2.3 0.1 0.9 0.5 1.7 0.2 0.7 0.8 1 0.7 0.2 0.4 0.3-0.2 0-1-0.1-0.7-0.1-1.3-1-0.6-0.8-0.8-2.1 0-1.2 0.5-2.5 0.5-1.5 1.3-2.5 0.6-1 1.7-1.6 1.1-0.7 1.8-0.9 1.5-0.3-0.1-1.2-0.7-0.2-1.8-0.2-1.2 0-2 0.4-1 0.4-1.9 0.7-0.9 0.2-1.4 0.1-0.5 0-0.9-0.4-0.5-0.5-0.6-1.1-0.3-0.6-0.4-1.3-0.1-0.8-0.2-1.4 0-1.4 0.6 0.1 0.7 1.4 1.5 2 0.2 0.4 1.1 0.4 0.7-0.2 1.3-0.4 1.7-0.6 1.3-1.4-0.2-0.2-0.8-0.3-0.6-0.3-1.3-0.4-0.7 0-1.3-0.2-0.6-0.3-0.7-0.5-0.5-0.5 0.7-0.5 0.5 0 0.5-0.2-0.1-0.1-0.7-0.3-0.6-0.3-1.2-0.8-0.7-0.4-0.9-0.9-0.6-1 0.6-1 1.2 0 2.5 0.8 1.2 1 0.6 0-0.6-0.8 0.1-0.8 0.7 0 1.6 1.3 0.4 0.6 0.9 1.1 0.5 0.4 0.7 0.4 0.9 0 0.6-1.8-0.1-0.8-0.5-1.4-0.3-0.6-0.7-0.7-0.4-0.3-1.1-0.3-0.8 0-1.5 0-1.2 0-0.2-0.5 0.6-0.2 1.3-0.5 0.6-0.2 1.2-0.3 1.3-0.4 2.1 0.6 0.3 0.4 0.5 1.3 0.3 0.9 0.4 1.9 0.1 1 0.6 1.9 0.5 1 1.2 1.5 0.7 0.5 1 0.4 0.3-0.3 0-0.9-0.2-0.7-0.1-1.9 0.1-1.4 0.5-2.5 0.5-1.1 1.5-2.2 1-1.1 2.1-1.7 1.1-0.6 2.2-0.5 1 0.1 1.5 0.7 0.6 0.6 0.6 0.9 0 0.1-0.5-0.3-0.5-0.3-1.4-0.2-0.8 0-1.6 0.5-0.8 0.5-1.7 1.6-0.9 1-1.2 1.9-0.5 1.2-0.2 2.7 0.3 1.5 1.2 2.8 0.8 1.1 2.5 2.5 1.6 1.4 3 2.3 1.3 0.9 3.1 1.8 1.7 0.9 2.7 1.1 1 0.4 1.2 0 0.1-0.4-0.5-1.3-0.7-1-2-1.6-1.2-0.8-2.2-1-1.1-0.3-2.2-0.9-1.1-0.7-1.6-1.6-0.5-1-0.5-1.8-0.1-0.9 0.3-1.4 0.3-0.5 0.6-0.5 0.2-0.1 0 0.3-0.4 0.9 0.5 2.4 0.2 0.6 1.2 1.3 1 0.4 2 0.7 2.4 0.4 2.7-1 0-0.6-0.5-1.6-0.6-1-1.5-2-0.8-0.9-2.3-1.7-1.5-0.7-2.7-1-2.9-0.6 0.2-0.6 1.4 0 3.1 0.8 1.7 0.7 2.8 1.8 1 1.1 1.7 2.6 0.8 1.5 0.9 2.4 0 1 0.9 2.9 0.7 1.7 1.7 3.1v0.1q1.1 1.5 2.2 2.6 1.1 1.1 1.7 1.2 0.6 0.2 1 0.4 0.4 0.1 0.4 0.1 0 0 0.1-0.4 0-0.4 0.1-1 0.3-0.6-0.2-2.1-0.5-1.6-1.3-3.2-0.7-1.7-1.8-3.2-1.1-1.6-2-2.2-1-0.6-1.8-1.9-0.9-1.4-1.2-2.7-0.4-1.4-0.2-3.2 0.2-2 0.8-3.1 1.4-2.4 0.7 0-0.5 1.1-0.5 2.8 0 1.7 0.4 2.8 0.2 1.3 0.8 2.4 0.7 1 1.3 1.2 1.2 0.4 2.1-1.8 0.2-1 0.2-2.1 0-1.1-0.4-1.8-0.7-1.3-1.8-1.6-0.4-0.1-0.2-0.2 0.1-0.1 0.7-0.2 0.6-0.2 1.3 0.3 0.8 0.5 1.4 1.5 0.5 1 0.6 2.3 0 1.3-0.4 2.2-0.3 1-0.2 2.5 0 1.4 0.4 2.5 0.5 1 1 1 0.3 0 0.6-1 0.1-1 0.2-2.9 0.1-1.9 0-3.6 0-1.6-0.4-3.7-0.3-2.1-0.9-3.5-0.7-1.3-1.9-2.3-1.2-1-2.3-1.3-1.1-0.2-2.4 0-1.3 0.3-2.2 0.8-0.7 0.5-1.2 1.2-0.6 0.8-0.5 1.4 0.1 0.6 0 0.5-0.2-0.3-0.5-1-0.4-0.8 0.1-1.7 0.5-1 1.5-1.6 1-0.7 2.6-1 1.5-0.4 2.7-0.2 1.1 0.3 2.3 0.8 1.1 0.5 1.6 1.1 0.5 0.6 0.9 0.5 0.2-0.3 0.1-1.1-0.1-0.9-0.7-1.7-0.6-1-1.4-1.6-1.8-1.3-2.3-2.5-0.4-1.1 0.5-2 0.4-0.5 1-1 0.6-0.4 1.1-0.8 0.5-0.4 0.6-0.3 0 0.2-0.4 0.8-0.3 0.6-0.6 1.3-0.4 0.6-0.5 1-0.1 0.5 0.4 1.1 0.4 0.6 1 1.1 0.6 0.5 1.1 0.6 0.5 0 0.6-0.2 0.2-0.2 0.1-0.9-0.2-0.7-0.5-1.3-0.2-0.6-0.3-1.2-0.3-0.7 0-0.9 0.1-0.3 0.3-0.1 0.3 0.1 0.4 0.5 0.6 0.9 0.4-0.5-0.2-0.6 0-1.4 0.1-0.8 0.3-1.2 0.3-0.5 0.6-0.5 0.4 0 0.7 0.5 0.7 1 0.5 2.6-0.2 0.6 0 0.8 0 0.2 0.2-0.3 0.2-0.4 0.5-0.5 0.2-0.2 0.4 0.1 0.2 0.2 0.1 0.9-0.3 0.6-0.5 1.2-0.9 1.5-0.4 2.2 0.1 0.2 0.6 0.2 0.5-0.1 1.1-0.6 1.5-1 1.3-2.2 0-0.4-0.3-1-0.3-0.7-0.7-1.3-0.4-0.6-0.3-0.8 0-0.1 0.5 0.3 0.5 0.4 1.1 0.8 0.5 0.5 1 1 0.9 0.9 0.5 2-0.2 0.5-0.8 1.2-0.8 0.6-1.5 1.3-0.8 0.6-1.4 1.6-0.6 0.8-0.7 1.7-0.1 0.8 0.2 1.1 0.3 0.1 0.8-0.5 0.5-0.6 1.7-1.1 1.1-0.5 2.2-0.8 1.1-0.2 2.7 0.2 1.5 0.3 2.5 1 1 0.6 1.5 1.6 0.4 0.9 0.2 1.7-0.7 1.6-0.6 0.5 0.1-0.6-0.4-1.4-0.5-0.7-1.2-1.2-0.9-0.5-2.2-0.8-1.4-0.2-2.4 0-1.2 0.3-2.3 1.3-1.2 1-1.8 2.3-0.7 1.4-1 3.5-0.4 2.1-0.5 3.7 0 1.7 0.1 3.6 0 1.9 0.2 2.9 0.3 1 0.8 1 0.4 0 0.7-1 0.5-1.1 0.6-2.5 0-1.5-0.5-2.5-0.2-0.9-0.1-2.2 0-1.3 0.5-2.3 0.5-1 1.4-1.5 0.7-0.5 1.3-0.3 0.6 0.1 0.8 0.2 0.1 0.1-0.3 0.2-1.2 0.3-2 1.6-0.3 0.7-0.3 1.8 0 1.1 0.3 2.1 0.9 2.2 2.1 1.8 0.5-0.2 1.1-1.2 0.7-1.1 1-2.4 0.4-1.1 0.4-2.8-0.1-1.7-0.5-2.8-0.5-1.3-0.2-1.3 0.2 0 0.8 1.3 0.8 1.1 1 3.1 0.1 1.8-0.2 3.2-0.4 1.3-1.3 2.7-1 1.3-1.7 1.9-1 0.6-2.1 2.2-1.1 1.5-2 3.2-0.6 1.6-1.1 3.2-0.5 1.5-0.2 2.1 0.2 1.4 1.6 0.9 0.6-0.1 1.7-1.2 1.1-1.1 2.1-2.7 1.1-1.4 2-3.1 0.7-1.9 0.7-2.9 0-0.9 0.9-2.4 0.7-1.6 1.7-2.6 1-1.1 2.7-1.8 1.7-0.8 3.1-0.8 3 0 0.3 0.6-1.2 0.3-2.7 1-1.4 0.8-2.3 1.7-0.9 1-1.5 2-0.6 1-0.5 1.6 0 0.6 0.9 1 0.7 0.2 1.7 0 2.5-0.6 3.3-2.1 0.9-1.4 0.4-2.3-0.2-0.9 0.7 0.1 0.9 1.2-0.2 3.3-0.6 0.9-1.7 1.6-1.1 0.6-2.1 0.9-1 0.2-2.2 1-1.3 0.6-2 1.6-0.7 0.9-0.5 1.3 0.3 0.4 1.2 0 1-0.4 2.7-1.2 1.8-0.9 3.1-1.7 1.4-0.9 3-2.3 1.6-1.4 2.6-2.7 0.8-1.1 1.2-2.6 0.2-1.5-0.3-2.7-0.3-0.9-1.2-1.9-0.9-1.1-1.7-1.6-0.8-0.5-1.6-0.5-1-0.1-1.4 0.2-1 0.9 0-0.6 0.5-0.6 1.6-0.7 1.1-0.1 2.1 0.5 1.1 0.6 2.2 1.7 1 1.1 1.4 2.2 0.5 1.1 0.6 2.5 0.1 1.2-0.1 1.8-0.3 0.7 0.1 1 0.3 0.1 0.9-0.4 0.6-0.5 1.2-1.5 0.5-1.1 0.6-2 0.1-0.9 0.4-1.8 0.2-0.9 0.5-1.4 0.2-0.4 0.8-0.5 0.6-0.3 1.3-0.2 0.6 0.3 1.3 0.5 0.6 0.3 1.2 0.5 0.7 0.3 0.5 0.4-0.2 0.1-0.8 0.1-1.5-0.2-2.6 0.3-0.4 0.1-0.6 0.7-0.4 0.6-0.5 1.4-0.3 0.7 0 1.3 0.2 0.5 0.5 0.5 0.3 0 0.8-0.4 0.5-0.5 0.9-1.1 0.9-1.3 1.6-1.3 0.7 0 0.1 0.8-0.2 0.4-0.1 0.5 0.1 0 0.6-0.5 1.4-0.8 2.6-0.8 1 0 0.6 1-0.2 0.5-0.8 0.9-0.7 0.5-1.3 0.8-0.6 0.2-0.7 0.3-0.1 0.2 0.4 0.2 1.3-0.3 0.8 0.5-0.5 0.7-2.1 0.7-0.6 0.1-1.2 0.4-0.6 0.1-0.9 0.3-0.2 0.3 0.3 0.8 0.3 0.3 1.1 0.6 1.6 0.6 2.4 0 0.3-0.3 0.8-0.9 0.5-0.6 0.7-1.2 0.6-1.2 0.6 0-0.1 0.6-0.2 1.4-0.1 0.7-0.4 1.3-0.2 1.2-1.5 1.5-0.6 0.1-1.4-0.1-1-0.3-1.9-0.7-0.8-0.4-1.9-0.4-1.3 0-1.9 0.2-1.7 0.9-0.1 1.2 0.7 0.2 1.8 0.9 1 0.6 1.8 1.6 0.7 1 1.2 2.5 0.5 1.3 0.4 2.5 0 1.3-0.7 2.1-0.6 0.9-1.3 1-2 0.3-0.6-0.2 0.5-0.3 0.8-1 0.4-0.8 0.5-1.7 0-1-0.5-2.3-0.5-1.2-1.2-2-0.7-1-2.2-1.5-1.5-0.6-3-0.4-1.3 0.3-3.3 1-2.1 0.6-3.6 1.3-1.4 0.8-3 1.9-1.6 1.1-2.5 1.7-1.8 1.6 0.9 1.2 1.1-0.1 2.4-0.7 1.3-0.7 1.9-1.6 0.7-0.7 1.9-1.3 1.2-0.7 2.1-0.7 1 0 1.9 0.5 0.8 0.4 1.1 1 0.5 1.4-0.3 0.6-0.2-0.3-0.8-0.6-0.6-0.2-1.4-0.2-0.6 0-1.6 0.6-1 0.5-1.7 1.2-0.7 0.9-0.9 1.7-0.2 0.8 0.3 1 0.6 0.4 1.7 0.4 1.1 0 2.5-0.3 1.2-0.2 2.7-1.1 1.3-0.8 2.2-1.8 0.9-1 1-0.9 0 0.2-0.8 1.4-0.6 1.2-2 2.3-1.6 1.1-3 1.5-1.5 0.4-3.1 0.4-1.6-0.2-2.6-0.7-0.9-0.4-2.8-0.7-2-0.2-3.7 0-1.8 0.3-3.3 0.6-1.6 0.4-2.1 0.8-0.4 0.5-0.6 0.7-0.4 0.2-0.4 0.2 0 0 0.4 0.3 0.2 0.2 0.6 0.7 0.5 0.4 2.1 0.8 1.5 0.3 3.3 0.6 1.7 0.2 3.7 0 1.9-0.3 2.8-0.8 1-0.4 2.6-0.4 1.6-0.2 3.1 0.2 1.4 0.4 3 1.5 1.4 1.1 2 2.3 0.8 1.2 0.8 1.4-0.1 0.1-1-0.9-0.9-1-2.2-1.8-1.5-0.9-2.7-1.1-1.4-0.3-2.5-0.3-1.1 0-1.6 0.4-0.6 0.2-0.4 1.1 0.2 0.7 0.9 1.6 0.7 0.7 1.7 1.3 1 0.5 1.6 0.5 1.8 0 2.4-0.8 0.2-0.3 0.3-0.2 0 0.2-0.2 0.8-0.3 0.6-1.1 1.1-0.9 0.4-1.9 0.4-0.9 0-2.1-0.7-1.2-0.6-1.9-1.3-0.6-0.9-1.9-1.5-1.2-0.7-2.4-0.8-2.5-0.4-0.9 1.2 0.9 0.6 2.5 1.7 1.6 1.1 3 1.8 1.5 0.8 3.6 1.5 2 0.6 3.3 0.9 1.5 0.2 3-0.3 1.5-0.6 2.2-1.6 0.7-0.8 1.2-2 0.5-1.3 0.5-2.3-0.1-0.9-0.5-1.7-0.3-0.7-0.8-1-1.4-0.5 0.6-0.2 0.7 0.1 1.3 1 0.7 0.8 0.7 2.1 0.1 1.2-0.4 2.7-0.5 1.3-1.2 2.3-0.8 1-1.8 1.7-1.1 0.6-1.8 0.8-1.5 0.3 0.1 1.2 0.8 0.2 1.9 0.2 1.1 0 1.9-0.5 0.9-0.3 1.9-0.6 0.8-0.2 1.4-0.1 1.3 0.3 1.5 1.5 0.3 0.6 0.4 1.3 0.1 0.8 0.2 1.4 0 1.2-0.6 0-0.2-0.6-0.7-1.2-0.5-0.7-0.8-0.9-0.8-0.6-2.4 0-0.8 0.2-1.1 0.7-0.5 0.4-0.3 0.7 0.3 0.2 0.9 0.4 0.6 0.2 1.2 0.3 1.6 0 2.1 0.7 0.5 0.8-0.7 0.5-0.6 0-0.5 0.1 0.1 0.2 0.7 0.4 0.6 0.3 1.3 0.8 0.6 0.4 0.8 0.9 0.4 1-0.6 1-1.4 0-2.5-0.8-0.6-0.5-0.7-0.4-0.1 0 0.1 0.4 0.6 0.8-0.1 0.8-0.7 0-1.6-1.3-0.4-0.6-0.9-1-0.5-0.5-0.8-0.5-0.3 0-0.4 0.6-0.2 0.5-0.1 1.2 0.1 0.8 0.5 1.4 0.2 0.6 0.7 0.7 0.4 0.3 1.1 0.4 0.8 0 1.4-0.1 0.7 0 0.8 0.1 0.2 0.1-0.5 0.4-0.6 0.2-1.2 0.5-0.7 0.2-1.3 0.4-0.7 0.2-1.3 0-0.6-0.2-0.8-0.6-0.3-0.5-0.5-1.3-0.3-1-0.4-1.9-0.1-0.9-0.6-1.9-0.6-1.1-1.2-1.6-0.6-0.5-0.9-0.3-0.4 0.1-0.1 0.9 0.2 0.6 0.1 2-0.1 1.2-0.6 2.3-0.4 1.1-1.4 2.2-1.1 1.1-2.2 1.7-1 0.6-2.1 0.5-1.1-0.1-1.6-0.7-1-1.5 0-0.6 0.5 0.3 1.4 0.3 0.8-0.1 1.6-0.6 0.8-0.5 1.7-1.5 0.9-1.1 1.2-2 0.5-1.2 0.3-2.6-0.4-1.6-1.2-2.7-1-1.3-2.6-2.6-1.6-1.5-3-2.4-1.3-0.8-3.1-1.7-1.7-0.8-2.7-1.2-0.9-0.4-1.2 0-0.2 0.4 0.5 1.3 0.7 1 2 1.8 1.2 0.6 2.2 0.8 1 0.3 2.1 1 1.1 0.6 1.7 1.5 1.1 2.1 0.2 3.3-1.1 1.1-0.6 0.1 0.1-0.3 0-1-0.1-0.7-0.5-1.3-0.8-1.5-3.3-2.1-1-0.2-1.7 0.1-0.9 0.3-0.9 0.9-0.1 0.6 0.5 1.6 0.6 1 1.5 2 0.9 0.9 2.3 1.7 1.5 0.7 2.7 1 2.7 0.6-0.3 0.6-1.4 0-3.1-0.8-1.7-0.7-2.7-1.8-1-1-1.7-2.5-0.8-1.6-0.9-2.6 0-0.9-0.7-2.7-0.9-1.8-2-3.2-1-1.6-2.1-2.7-1.1-1.1-1.7-1.2-0.6-0.2-1-0.2-0.4-0.2-0.4-0.2 0-0.1 0 0.3-0.1 0.4-0.2 1-0.3 0.6 0.2 2.2 0.5 1.5 1.1 3.1 0.9 1.7 2 3.3 1.1 1.5 2.1 2.1 0.7 0.6 1.7 1.9 0.9 1.4 1.3 2.7 0.3 1.4 0.2 3.4-0.2 1.8-1 2.9-0.6 1.2-0.8 1.2-0.3 0 0.2-1.2 0.4-1.1 0.5-2.8 0-1.7-0.4-2.8-0.3-1.3-1-2.3-0.6-1.1-1.1-1.3-1.2-0.4-2.1 1.8-0.3 1-0.3 2.1 0 1.1 0.3 1.7 0.8 1.4 2 1.6 0.4 0.2 0.3 0.3-0.2 0.1-0.8 0.2-0.6 0.2-1.3-0.3-0.9-0.5-1.4-1.5-0.5-1-0.5-2.2-0.1-1.4 0.1-2.4 0.5-0.9 0.5-2.3-0.1-1.5-0.6-2.6-0.3-1-0.7-1-0.5 0-0.8 1-0.2 1-0.2 3-0.1 1.8-0.1 3.5 0.1 1.6 0.5 3.7 0.3 2.1 1 3.5 0.6 1.3 1.8 2.3 1.1 1 2.3 1.2 1 0.3 2.4 0 1.3-0.2 2.2-0.7 0.7-0.5 1.2-1.1 0.5-0.7 0.4-1.4-0.1-1.2 0.6 0.4 0.2 0.8-0.2 1.7-0.5 1-1.5 1.6-1 0.7-2.5 1-1.6 0.4-2.7 0.1-1.1-0.2-2.2-0.7-1.2-0.5-1.7-1.1-0.5-0.6-0.8-0.4-0.3 0.2-0.2 1 0.1 0.9 0.7 1.9 0.6 0.8 1.4 1.4 0.7 0.7 1.5 1.4 0.6 0.6 0.8 1.1 0.4 1.1-0.5 2-0.5 0.5-1 0.9-0.6 0.5-1.1 0.9-0.5 0.4-0.5 0.3-0.1-0.2 0.3-0.8 0.4-0.6 0.7-1.2 0.3-0.6 0.3-1.1 0.2-1.1-1.3-2.2-0.6-0.5-1.1-0.5-0.5-0.1-0.6 0.1-0.5 0.7 0.4 2.2 0.2 0.6 0.5 1.2 0.1 0.7-0.1 0.9-0.2 0.2-0.4 0.1-0.3-0.1-0.5-0.5-0.2-0.5-0.2-0.2-0.2 0.1 0 0.7 0.1 0.6 0 1.5-0.3 0.7-0.5 1.2-0.5 1-1.3 0-0.2-0.5-0.3-1.2-0.2-0.9 0-1.5 0.2-1.5-0.4-0.5-0.1 0.4-0.4 0.5-0.2 0.1-0.3-0.1-0.3-0.2 0-0.9 0.1-0.6 0.3-1.2 0.3-0.6 0.5-1.2 0.1-0.8-0.1-1-0.1-0.2-0.6-0.1-0.5 0-1.1 0.5-0.6 0.5-1 1.1-0.5 0.6-0.4 1.1 0.3 1 1.1 2.3 0.4 0.6 0.4 0.8-0.1 0.1-0.6-0.3-0.5-0.4-1.1-0.9-0.6-0.4-1-0.9-0.9-0.9-0.5-2 0.5-1.2 2.3-2.5 0.8-0.6 1.4-1.4 0.6-1 0.7-1.9 0.1-0.8-0.1-1-0.4-0.2-0.9 0.4-0.5 0.6-1.6 1.1-1.2 0.5-2.3 0.7-1.2 0.3-2.7-0.1-1.6-0.3-2.6-1-1-0.6-1.5-1.6-0.5-0.9-0.1-1.7 0.3-0.7 0.5-0.8 0.1-0.2 0 0.4-0.1 0.7 0.5 1.4 0.5 0.6 1.2 1.1 0.9 0.5 2.2 0.7 1.3 0.3 2.4 0 1.1-0.2 2.3-1.2 1.2-1 1.9-2.3 0.6-1.4 0.9-3.5 0.4-2.1 0.4-3.7 0.1-1.7 0-3.5-0.1-2-0.2-3-0.3-1-0.6-1-0.5 0-1 1-0.4 1.1-0.4 2.6-0.1 1.4 0.2 2.3 0.4 1 0.4 2.4-0.1 1.2-0.6 2.2-0.6 1-1.4 1.5-0.7 0.5-1.3 0.3-0.6-0.1-0.7-0.2-0.2-0.1 0.2-0.3 1.1-0.2 1.8-1.6 0.4-0.6 0.4-1.7 0-1.1-0.2-2.1-0.9-2.2-2.1-1.8-0.6 0.2-1.3 1.3-0.6 1-0.8 2.3-0.4 1.1-0.4 2.8 0 1.7 0.5 2.8 0.7 2.5-0.7 0-0.6-1.1-0.8-2.9-0.2-2 0.2-3.4 0.3-1.3 1.2-2.7 0.8-1.3 1.8-1.9 0.9-0.6 2-2.1 1.1-1.6 1.8-3.3 0.8-1.6 1.3-3.1 0.5-1.6 0.2-2.2-0.1-0.6-0.1-1-0.1-0.4-0.1-0.4 0 0-0.4 0.1-0.4 0.2-1 0.4-0.6 0.1-1.7 1.2-1.1 1.1-2.2 2.6v0.1q-1 1.4-1.7 3.2-0.9 1.8-1 2.7 0 1-0.8 2.5-0.7 1.5-1.7 2.6-1.1 1.1-2.8 1.8-1.7 0.8-3.1 0.8-3.1 0-0.2-0.6 1.2-0.3 2.7-1 1.5-0.8 2.3-1.7 0.9-1 1.5-2 0.5-1 0.5-1.6-0.3-1.4-2.7-1-1 0.2-2 0.9-1 0.5-1.3 1.1-0.3 0.6-0.4 1.3-0.3 0.6 0 1.1 0.2 0.4 0 0.4-0.3-0.1-0.6-0.6-0.4-0.5-0.3-1.4 0-0.8 0.5-1.8 0.5-0.9 1.6-1.5 1.1-0.7 2.2-1 1-0.2 2.2-0.8 1.3-0.8 2-1.8 0.6-0.9 0.5-1.3-0.2-0.4-1.2 0-1 0.2-2.7 1.1-1.8 0.9-3.1 1.8-1.4 0.9-3 2.4-1.7 1.3-2.5 2.4-0.9 1.3-1.2 2.9-0.3 1.4 0.2 2.6 0.3 0.9 1.2 2 0.9 1 1.7 1.5 0.8 0.5 1.6 0.6 0.9 0 1.4-0.3 0.7-0.7-0.1 0.6-0.5 0.6-1.5 0.7-1.1 0.1-2.2-0.5-1.1-0.6-2.1-1.7-1-1.1-1.5-2.2-0.4-1.1-0.5-2.3-0.1-1.4 0.1-2.1 0.3-0.7 0-0.8-0.3-0.2-1 0.3-0.7 0.5-1.2 1.4-0.5 1-0.6 2-0.1 1-0.4 2-0.2 0.8-0.6 1.2-0.6 1.1-2 0.6-0.6-0.1-1.2-0.3-0.7-0.3-1.3-0.5-1-0.5 0.2-0.5 0.6 0 1.5 0 0.7 0 1.1-0.3 0.4-0.1 0.7-0.7 0.4-0.6 0.5-1.4 0.3-1.8-0.6-1.8-0.2 0-0.7 0.5-0.6 0.4-0.9 1-0.9 1.3-1.7 1.3-0.6 0 0-0.8 0.6-1-0.6 0-1.3 0.8-2.5 0.8z"/>
						</g>
					</g>
				</g>
			</g>
		</g>
	</g>
</svg>